<svg width="56" height="56" viewBox="0 0 56 56" fill="none" xmlns="http://www.w3.org/2000/svg">
<circle cx="28" cy="28" r="28" fill="#80B477"/>
<path d="M28.0025 23.0713C27.8425 23.0713 26.281 25.0936 26.281 25.1896C26.281 25.2856 27.4969 26.0151 28.0025 26.0151C28.4761 26.0151 29.724 25.2856 29.724 25.1896C29.724 25.1 28.1561 23.0713 28.0025 23.0713Z" fill="#1A1A1A"/>
<path d="M42.5296 28.415C42.0625 27.615 41.5633 27.0199 41.0513 26.6039C40.0914 25.8231 39.445 24.748 39.2914 23.5577C38.1459 14.6238 33.9158 12 28.0025 12C22.0957 12 17.8656 14.6174 16.7136 23.5321C16.56 24.7352 15.9073 25.8167 14.9409 26.6039C14.429 27.0263 13.9298 27.615 13.469 28.415C12.6499 29.8229 11.0756 32.5875 12.7203 36.5681C13.0723 37.4192 14.909 35.3329 16.5408 32.8179C16.5536 32.9779 16.5664 33.1379 16.5792 33.2915C16.7904 35.6657 18.0256 37.752 19.8686 39.1535C18.5119 41.0734 18.2175 43.1341 19.2223 43.7932C20.2398 44.4588 22.2109 43.422 23.6252 41.4766C23.7596 41.291 23.8876 41.099 24.0028 40.907C24.2908 40.9518 24.5787 40.9838 24.8731 41.003C25.8267 41.0606 26.8698 41.0926 28.0025 41.0926C29.1353 41.0926 30.1912 41.0606 31.1639 41.003C31.4455 40.9838 31.7271 40.9582 32.0023 40.9134C32.1175 41.099 32.2391 41.291 32.3799 41.4766C33.7942 43.422 35.7653 44.4652 36.7828 43.7932C37.7811 43.1405 37.4931 41.0926 36.1492 39.1727C38.0691 37.72 39.3362 35.5313 39.4834 33.0483C39.4898 32.9907 39.4898 32.9267 39.4962 32.8627C41.1217 35.3521 42.9328 37.4064 43.2784 36.5617C44.9231 32.5875 43.3552 29.8229 42.5296 28.415ZM28.0025 37.5728C20.7262 37.5728 18.7295 34.0658 18.7295 27.7814C18.7295 24.5944 18.9791 22.201 19.5423 20.4219C20.1054 18.6364 21.7565 17.3245 23.7148 17.2477C23.7788 17.2477 23.8428 17.2413 23.9068 17.2413C25.6411 17.2413 27.1642 18.1244 27.9961 19.4427C28.8345 18.1244 30.3512 17.2413 32.0855 17.2413C32.1495 17.2413 32.2135 17.2413 32.2839 17.2477C34.2421 17.3245 35.8996 18.6364 36.4564 20.4219C37.0132 22.201 37.2628 24.5944 37.2628 27.7814C37.2756 35.1346 35.2597 37.5728 28.0025 37.5728Z" fill="#1A1A1A"/>
<path d="M24.1179 19.7627C23.1196 19.7627 22.3132 20.569 22.3132 21.5674C22.3132 22.5657 23.1196 23.3721 24.1179 23.3721C25.1163 23.3721 25.9226 22.5657 25.9226 21.5674C25.929 20.5754 25.1163 19.7627 24.1179 19.7627ZM23.5548 21.721C23.2412 21.721 22.9916 21.4714 22.9916 21.1578C22.9916 20.8442 23.2412 20.5946 23.5548 20.5946C23.8683 20.5946 24.1179 20.8442 24.1179 21.1578C24.1179 21.4714 23.8683 21.721 23.5548 21.721Z" fill="#1A1A1A"/>
<path d="M31.8871 19.7627C30.8887 19.7627 30.0824 20.569 30.0824 21.5674C30.0824 22.5657 30.8887 23.3721 31.8871 23.3721C32.8854 23.3721 33.6918 22.5657 33.6918 21.5674C33.6918 20.5754 32.8854 19.7627 31.8871 19.7627ZM31.3239 21.721C31.0103 21.721 30.7608 21.4714 30.7608 21.1578C30.7608 20.8442 31.0103 20.5946 31.3239 20.5946C31.6375 20.5946 31.8871 20.8442 31.8871 21.1578C31.8871 21.4714 31.6311 21.721 31.3239 21.721Z" fill="#1A1A1A"/>
</svg>
