<svg width="32" height="32" viewBox="0 0 32 32" fill="none" xmlns="http://www.w3.org/2000/svg">
<path d="M16.0025 11.0713C15.8425 11.0713 14.281 13.0936 14.281 13.1896C14.281 13.2856 15.4969 14.0151 16.0025 14.0151C16.4761 14.0151 17.724 13.2856 17.724 13.1896C17.724 13.1 16.1561 11.0713 16.0025 11.0713Z" fill="#999"/>
<path d="M30.5296 16.415C30.0625 15.615 29.5633 15.0199 29.0513 14.6039C28.0914 13.8231 27.445 12.748 27.2914 11.5577C26.1459 2.62384 21.9158 0 16.0025 0C10.0957 0 5.86557 2.61744 4.71364 11.5321C4.56005 12.7352 3.90729 13.8167 2.94095 14.6039C2.42898 15.0263 1.92981 15.615 1.46904 16.415C0.64989 17.8229 -0.924412 20.5875 0.720286 24.5681C1.07226 25.4192 2.90895 23.3329 4.54085 20.8179C4.55365 20.9779 4.56645 21.1379 4.57925 21.2915C4.79043 23.6657 6.02556 25.752 7.86864 27.1535C6.51193 29.0734 6.21754 31.1341 7.22228 31.7932C8.23982 32.4588 10.2109 31.422 11.6252 29.4766C11.7596 29.291 11.8876 29.099 12.0028 28.907C12.2908 28.9518 12.5787 28.9838 12.8731 29.003C13.8267 29.0606 14.8698 29.0926 16.0025 29.0926C17.1353 29.0926 18.1912 29.0606 19.1639 29.003C19.4455 28.9838 19.7271 28.9582 20.0023 28.9134C20.1175 29.099 20.2391 29.291 20.3799 29.4766C21.7942 31.422 23.7653 32.4652 24.7828 31.7932C25.7811 31.1405 25.4931 29.0926 24.1492 27.1727C26.0691 25.72 27.3362 23.5313 27.4834 21.0483C27.4898 20.9907 27.4898 20.9267 27.4962 20.8627C29.1217 23.3521 30.9328 25.4064 31.2784 24.5617C32.9231 20.5875 31.3552 17.8229 30.5296 16.415ZM16.0025 25.5728C8.72619 25.5728 6.72951 22.0658 6.72951 15.7814C6.72951 12.5944 6.9791 10.201 7.54226 8.42188C8.10543 6.63639 9.75652 5.32447 11.7148 5.24767C11.7788 5.24767 11.8428 5.24127 11.9068 5.24127C13.6411 5.24127 15.1642 6.12442 15.9961 7.44274C16.8345 6.12442 18.3512 5.24127 20.0855 5.24127C20.1495 5.24127 20.2135 5.24127 20.2839 5.24767C22.2421 5.32447 23.8996 6.63639 24.4564 8.42188C25.0132 10.201 25.2628 12.5944 25.2628 15.7814C25.2756 23.1346 23.2597 25.5728 16.0025 25.5728Z" fill="#999"/>
<path d="M12.1179 7.7627C11.1196 7.7627 10.3132 8.56905 10.3132 9.56738C10.3132 10.5657 11.1196 11.3721 12.1179 11.3721C13.1163 11.3721 13.9226 10.5657 13.9226 9.56738C13.929 8.57545 13.1163 7.7627 12.1179 7.7627ZM11.5548 9.72097C11.2412 9.72097 10.9916 9.47139 10.9916 9.15781C10.9916 8.84423 11.2412 8.59464 11.5548 8.59464C11.8683 8.59464 12.1179 8.84423 12.1179 9.15781C12.1179 9.47139 11.8683 9.72097 11.5548 9.72097Z" fill="#999"/>
<path d="M19.8871 7.7627C18.8887 7.7627 18.0824 8.56905 18.0824 9.56738C18.0824 10.5657 18.8887 11.3721 19.8871 11.3721C20.8854 11.3721 21.6918 10.5657 21.6918 9.56738C21.6918 8.57545 20.8854 7.7627 19.8871 7.7627ZM19.3239 9.72097C19.0103 9.72097 18.7608 9.47139 18.7608 9.15781C18.7608 8.84423 19.0103 8.59464 19.3239 8.59464C19.6375 8.59464 19.8871 8.84423 19.8871 9.15781C19.8871 9.47139 19.6311 9.72097 19.3239 9.72097Z" fill="#999"/>
</svg>
