<svg width="1006" height="867" viewBox="0 0 1006 867" fill="none" xmlns="http://www.w3.org/2000/svg">
<path d="M892.81 555.402C956.281 550.771 1006 497.228 1006 433.501C1006 369.774 956.281 316.231 892.81 311.601C888.619 311.294 884.962 308.651 883.353 304.769C881.745 300.885 882.465 296.428 885.211 293.247C926.823 245.068 924.139 172.031 879.101 126.969C856.031 103.889 825.357 91.1775 792.738 91.1775C763.395 91.1775 735.044 101.717 712.909 120.853C709.73 123.601 705.271 124.319 701.393 122.712C697.512 121.102 694.868 117.441 694.565 113.25C689.937 49.7459 636.423 0 572.73 0C509.037 0 455.522 49.7459 450.894 113.25C450.588 117.443 447.946 121.105 444.066 122.712C440.18 124.319 435.728 123.601 432.55 120.853C410.416 101.717 382.067 91.1775 352.724 91.1775C320.1 91.1775 289.431 103.889 266.361 126.969C221.323 172.031 218.639 245.068 260.249 293.247C262.995 296.428 263.715 300.885 262.106 304.769C260.498 308.653 256.838 311.296 252.65 311.601C189.179 316.231 139.46 369.774 139.46 433.501C139.46 491.141 180.365 541.461 236.725 553.152C239.832 553.794 242.516 555.737 244.098 558.49C245.68 561.239 246.011 564.538 245.009 567.548L0 780.54L440.894 773.233C443.795 772.012 447.075 772.077 449.926 773.415C452.774 774.755 454.923 777.241 455.836 780.253C471.556 832.14 518.531 867 572.728 867C636.421 867 689.935 817.254 694.563 753.75C694.868 749.557 697.509 745.898 701.391 744.288C705.271 742.678 709.728 743.401 712.907 746.147C735.04 765.281 763.389 775.823 792.736 775.825H792.747C825.364 775.825 856.026 763.113 879.099 740.031C924.136 694.969 926.82 621.932 885.209 573.753C882.462 570.572 881.743 566.112 883.351 562.231C884.962 558.349 888.622 555.706 892.81 555.402Z" fill="#333333"/>
<path fill-rule="evenodd" clip-rule="evenodd" d="M665.913 621.622C664.169 621.154 662.671 620.034 661.731 618.493L566.568 453.666C543.586 413.956 557.148 363.134 596.858 340.153C636.568 317.171 687.39 330.733 710.371 370.443L725.975 397.468L753 381.865V381.865C792.693 358.948 843.449 372.548 866.365 412.241C889.282 451.934 875.682 502.689 835.989 525.606L671.162 620.769C669.592 621.729 667.707 622.036 665.913 621.622Z" fill="#80B477"/>
<path d="M582.46 214L548.11 319H522.01L498.91 247.9L475.06 319H449.11L414.61 214H439.81L463.51 287.8L488.26 214H510.76L534.76 288.4L559.21 214H582.46ZM677.325 299.5V319H596.025V214H675.375V233.5H620.175V256.3H668.925V275.2H620.175V299.5H677.325ZM487.027 397V502H467.077L414.727 438.25V502H390.727V397H410.827L463.027 460.75V397H487.027ZM562.72 503.8C551.82 503.8 541.97 501.45 533.17 496.75C524.47 492.05 517.62 485.6 512.62 477.4C507.72 469.1 505.27 459.8 505.27 449.5C505.27 439.2 507.72 429.95 512.62 421.75C517.62 413.45 524.47 406.95 533.17 402.25C541.97 397.55 551.82 395.2 562.72 395.2C573.62 395.2 583.42 397.55 592.12 402.25C600.82 406.95 607.67 413.45 612.67 421.75C617.67 429.95 620.17 439.2 620.17 449.5C620.17 459.8 617.67 469.1 612.67 477.4C607.67 485.6 600.82 492.05 592.12 496.75C583.42 501.45 573.62 503.8 562.72 503.8ZM562.72 483.1C568.92 483.1 574.52 481.7 579.52 478.9C584.52 476 588.42 472 591.22 466.9C594.12 461.8 595.57 456 595.57 449.5C595.57 443 594.12 437.2 591.22 432.1C588.42 427 584.52 423.05 579.52 420.25C574.52 417.35 568.92 415.9 562.72 415.9C556.52 415.9 550.92 417.35 545.92 420.25C540.92 423.05 536.97 427 534.07 432.1C531.27 437.2 529.87 443 529.87 449.5C529.87 456 531.27 461.8 534.07 466.9C536.97 472 540.92 476 545.92 478.9C550.92 481.7 556.52 483.1 562.72 483.1ZM658.718 416.8H625.118V397H716.618V416.8H683.018V502H658.718V416.8ZM555.052 685L554.902 622L524.002 673.9H513.052L482.302 623.35V685H459.502V580H479.602L518.902 645.25L557.602 580H577.552L577.852 685H555.052ZM684.063 665.5V685H602.763V580H682.113V599.5H626.913V622.3H675.663V641.2H626.913V665.5H684.063Z" fill="#DEDEDE"/>
</svg>
