<svg width="57" height="57" viewBox="0 0 57 57" fill="none" xmlns="http://www.w3.org/2000/svg">
<circle cx="28.5" cy="28.5" r="28.5" fill="#C86796"/>
<path d="M26.1788 19.4728C29.7043 19.4728 32.5623 16.6149 32.5623 13.0894C32.5623 9.56386 29.7043 6.70588 26.1788 6.70588C22.6533 6.70588 19.7953 9.56386 19.7953 13.0894C19.7953 16.6149 22.6533 19.4728 26.1788 19.4728Z" stroke="#202020" stroke-width="1.71429" stroke-linecap="round" stroke-linejoin="round"/>
<path d="M24.7602 40.7511H13.4118V36.4955C13.4344 34.333 14.0047 32.2116 15.0694 30.3293C16.1342 28.447 17.6586 26.8652 19.5004 25.7318C21.3422 24.5984 23.4412 23.9503 25.6013 23.8481C27.7615 23.7458 29.9123 24.1927 31.853 25.1471" stroke="#202020" stroke-width="1.71429" stroke-linecap="round" stroke-linejoin="round"/>
<path d="M41.7828 26.5656V43.5882" stroke="#202020" stroke-width="1.71429" stroke-linecap="round" stroke-linejoin="round"/>
<path d="M33.2715 35.0769H50.2941" stroke="#202020" stroke-width="1.71429" stroke-linecap="round" stroke-linejoin="round"/>
</svg>
