<svg viewBox="0 0 200 200" xmlns="http://www.w3.org/2000/svg" width="400" height="400">
  <path fill="#8A3FFC" d="M45.1,-67.3C58.9,-61.3,71,-49.6,74.6,-35.8C78.2,-22,73.3,-6.1,68.7,8.3C64.1,22.6,59.9,35.4,52.2,46.5C44.5,57.6,33.5,66.9,19.8,73.9C6.1,80.9,-10.2,85.5,-22.9,80.6C-35.6,75.6,-44.8,61.2,-56,48.4C-67.1,35.7,-80.2,24.5,-83,11.3C-85.9,-1.9,-78.5,-17.2,-68.7,-28.3C-58.8,-39.5,-46.6,-46.5,-34.8,-53.4C-22.9,-60.3,-11.5,-67.1,2.1,-70.4C15.6,-73.6,31.3,-73.3,45.1,-67.3Z" transform="translate(100 100)" />
</svg>