<svg viewBox="0 0 200 200" xmlns="http://www.w3.org/2000/svg" width="400" height="400">
  <path fill="#8A3FFC" d="M39.1,-61.3C49.7,-54.1,56.6,-41.6,65.8,-28.1C75,-14.7,86.5,-0.3,87.9,14.9C89.3,30.1,80.5,46.2,68.6,58.8C56.7,71.5,41.6,80.8,25.5,84.2C9.5,87.6,-7.4,85.1,-21.6,78.6C-35.8,72.1,-47.3,61.5,-54.8,49.4C-62.3,37.3,-65.7,23.6,-67.6,9.8C-69.4,-4,-69.5,-17.9,-66,-32C-62.4,-46.1,-55.2,-60.3,-43.6,-67C-31.9,-73.8,-16,-73,-0.8,-71.7C14.3,-70.3,28.5,-68.5,39.1,-61.3Z" transform="translate(100 100)" />
</svg>