<?xml version="1.0" encoding="UTF-8"?>
<svg xmlns="http://www.w3.org/2000/svg" xmlns:xlink="http://www.w3.org/1999/xlink" xmlns:svgjs="http://svgjs.com/svgjs" version="1.1" width="512" height="512" x="0" y="0" viewBox="0 0 631.742 631.742" style="enable-background:new 0 0 512 512" xml:space="preserve" class="">
  <g>
<g xmlns="http://www.w3.org/2000/svg">
	<g id="_x34__40_">
		<g>
			<path d="M541.896,180.402l1.007,17.018c0.158,16.129,0,14.668,0,29.613c0,157.423-124.059,266.517-296.129,266.517     c-22.644,0-59.226,0-59.226,0c46.986,45.959,101.651,74.032,177.677,74.032c16.169,0,31.942-1.461,47.282-3.969l110.653,68.13     V519.766c59.996-41.103,98.71-104.908,98.71-176.77C621.871,278.954,591.073,221.327,541.896,180.402z M200.104,448.872     c15.359,2.488,50.243,5.192,66.412,5.192c141.748,0,236.904-105.481,236.904-229.5S384.514,0,266.516,0     C124.572,0,9.871,100.546,9.871,224.564c0,71.841,27.382,132.844,78.968,176.77V513.29L200.104,448.872z M375.097,197.419     c16.347,0,29.613,13.267,29.613,29.613c0,16.366-13.267,29.613-29.613,29.613c-16.346,0-29.612-13.247-29.612-29.613     C345.484,210.686,358.751,197.419,375.097,197.419z M256.646,197.419c16.346,0,29.613,13.267,29.613,29.613     c0,16.366-13.267,29.613-29.613,29.613c-16.347,0-29.613-13.247-29.613-29.613C227.032,210.686,240.299,197.419,256.646,197.419z      M138.194,197.419c16.346,0,29.613,13.267,29.613,29.613c0,16.366-13.267,29.613-29.613,29.613     c-16.347,0-29.613-13.247-29.613-29.613C108.581,210.686,121.847,197.419,138.194,197.419z" fill="#212529" data-original="#000000" class=""/>
		</g>
	</g>
</g>















</g>
</svg>
