<?xml version="1.0"?>
<svg xmlns="http://www.w3.org/2000/svg" id="Outline" viewBox="0 0 512 512" width="512" height="512"><path d="M128,112a24,24,0,1,0-24-24A24.027,24.027,0,0,0,128,112Zm0-32a8,8,0,1,1-8,8A8.009,8.009,0,0,1,128,80Z"/><path d="M192,112a24,24,0,1,0-24-24A24.027,24.027,0,0,0,192,112Zm0-32a8,8,0,1,1-8,8A8.009,8.009,0,0,1,192,80Z"/><path d="M256,112a24,24,0,1,0-24-24A24.027,24.027,0,0,0,256,112Zm0-32a8,8,0,1,1-8,8A8.009,8.009,0,0,1,256,80Z"/><path d="M304,112h96a8,8,0,0,0,8-8V72a8,8,0,0,0-8-8H304a8,8,0,0,0-8,8v32A8,8,0,0,0,304,112Zm8-32h80V96H312Z"/><path d="M489.869,408A23.984,23.984,0,0,0,472,368H440V40a8,8,0,0,0-8-8H80a8,8,0,0,0-8,8V256H40a23.984,23.984,0,0,0-17.869,40,23.954,23.954,0,0,0-3.782,26.349c-.052.052-.11.1-.16.153a8,8,0,0,0-2.177,5.941l8,144A8,8,0,0,0,32,480H472a23.984,23.984,0,0,0,17.869-40,23.943,23.943,0,0,0,0-32ZM32,312a8.009,8.009,0,0,1,8-8H152a8,8,0,0,1,0,16H40A8.009,8.009,0,0,1,32,312Zm147.593-2.715C184.315,314.65,190.781,322,203.2,322s18.884-7.349,23.606-12.715c4.329-4.92,6.631-7.285,11.593-7.285s7.265,2.365,11.594,7.285c4.721,5.366,11.188,12.715,23.6,12.715s18.885-7.349,23.607-12.715c4.33-4.92,6.632-7.285,11.6-7.285s7.266,2.365,11.6,7.285c3.307,3.758,7.479,8.479,13.942,10.977a79.99,79.99,0,0,1-158.3-14.8C177.122,306.5,178.261,307.771,179.593,309.285ZM332.4,298.715C327.682,293.349,321.214,286,308.8,286s-18.884,7.349-23.607,12.715c-4.33,4.92-6.631,7.285-11.6,7.285s-7.263-2.365-11.592-7.285C257.28,293.35,250.813,286,238.4,286s-18.883,7.349-23.6,12.715c-4.33,4.92-6.631,7.285-11.594,7.285s-7.263-2.365-11.593-7.285c-3.306-3.757-7.477-8.479-13.939-10.977a79.99,79.99,0,0,1,158.3,14.8C334.877,301.5,333.737,300.229,332.4,298.715ZM256,400a96,96,0,1,0-86.884-136.8,23.943,23.943,0,0,0-14.4-7.039,112.015,112.015,0,1,1,18.438,123.209l1.369-24.65A96.018,96.018,0,0,0,256,400Zm-84.018.55a127.841,127.841,0,0,0,166.223,1.481A24.073,24.073,0,0,0,342.131,408a23.943,23.943,0,0,0,0,32,23.943,23.943,0,0,0-4.755,24H168.457ZM352,424a8.009,8.009,0,0,1,8-8H472a8,8,0,0,1,0,16H360A8.009,8.009,0,0,1,352,424Zm128-32a8.009,8.009,0,0,1-8,8H360a8,8,0,0,1,0-16H472A8.009,8.009,0,0,1,480,392ZM424,48v80H88V48ZM88,144H424V368H366.817a127.995,127.995,0,1,0-229.5-112H88ZM40,272H152a8,8,0,0,1,0,16H40a8,8,0,0,1,0-16Zm-.432,192L32.457,336H159.543l-7.111,128ZM472,464H360a8,8,0,0,1,0-16H472a8,8,0,0,1,0,16Z"/></svg>
