<?xml version="1.0" encoding="UTF-8"?>
<svg xmlns="http://www.w3.org/2000/svg" xmlns:xlink="http://www.w3.org/1999/xlink" xmlns:svgjs="http://svgjs.com/svgjs" version="1.1" width="512" height="512" x="0" y="0" viewBox="0 0 699.428 699.428" style="enable-background:new 0 0 512 512" xml:space="preserve" class="">
  <g>
<g xmlns="http://www.w3.org/2000/svg">
	<g id="_x38__22_">
		<g>
			<path d="M568.285,87.429h-65.571V43.714h-58.883C424.902,17.683,390.062,0,349.714,0c-40.348,0-75.188,17.683-94.117,43.714     h-58.883v43.714h-65.571c-48.283,0-87.429,39.146-87.429,87.428V612c0,48.283,39.146,87.428,87.429,87.428h437.143     c48.282,0,87.429-39.145,87.429-87.428V174.857C655.714,126.575,616.567,87.429,568.285,87.429z M240.428,87.429h48.566     c0-24.13,27.19-43.714,60.719-43.714c33.529,0,60.719,19.562,60.719,43.714H459v87.428H240.428V87.429z M502.714,568.285h-306     c-12.065,0-21.857-9.791-21.857-21.857c0-12.064,9.792-21.855,21.857-21.855h306c12.065,0,21.857,9.791,21.857,21.855     C524.571,558.494,514.779,568.285,502.714,568.285z M502.714,459h-306c-12.065,0-21.857-9.791-21.857-21.857     c0-12.064,9.792-21.857,21.857-21.857h306c12.065,0,21.857,9.793,21.857,21.857C524.571,449.209,514.779,459,502.714,459z      M502.714,349.715h-306c-12.065,0-21.857-9.792-21.857-21.857c0-12.065,9.792-21.857,21.857-21.857h306     c12.065,0,21.857,9.792,21.857,21.857C524.571,339.922,514.779,349.715,502.714,349.715z" fill="#212529" data-original="#000000" class=""/>
		</g>
	</g>
</g>















</g>
</svg>
