<svg width="29.999999999999996" height="29.999999999999996" xmlns="http://www.w3.org/2000/svg">

 <g>
  <title>background</title>
  <rect fill="none" id="canvas_background" height="402" width="582" y="-1" x="-1"/>
 </g>
 <g>
  <title>Layer 1</title>
  <path fill="#ffffff" id="svg_1" d="m15,4c-6.1,0 -11,4.9 -11,11s4.9,11 11,11s11,-4.9 11,-11s-4.9,-11 -11,-11zm6.7,12.8c-0.1,0.4 -0.5,0.6 -0.9,0.5l-5.6,-1.1c-0.2,0 -0.4,-0.2 -0.6,-0.3c-0.4,-0.2 -0.6,-0.5 -0.6,-0.9c0,0 0,0 0,0l0.2,-8c0,-0.5 0.4,-0.8 0.8,-0.8c0.4,0 0.8,0.4 0.8,0.8l0.1,6.9l5.2,1.8c0.5,0.1 0.7,0.6 0.6,1.1z" class="st8"/>
 </g>
</svg>