
    <svg
      xmlns="http://www.w3.org/2000/svg"
      x="0"
      y="0"
      version="1.1"
      viewBox="0 0 324 360"
      xmlSpace="preserve"
    >
      <g fill="#595850">
        <path d="M167.72 0c1.409 2.768 2.27 5.746 3.256 8.667 1.959 5.605 3.327 11.386 4.599 17.17 2.827 12.714 4.405 25.686 4.788 38.685.147 8.558.18 17.145-.764 25.663-.682 5.508-1.089 11.053-2.18 16.506-.749 3.723-1.299 7.491-2.281 11.166-.523 2.065-.97 4.146-1.492 6.212-1.647 6.416-4.137 12.594-5.808 19-1.885 6.276-3.543 12.631-4.478 19.11-1.048 5.903-1.71 11.888-1.567 17.886-.152 6.783.489 13.619 2.345 20.171.742 3.283 1.941 6.447 3.369 9.505.813 1.721 1.896 3.305 2.646 5.056-2.883-3.113-4.748-6.973-6.435-10.793-2.906-6.842-4.304-14.184-4.923-21.533-.952-11.446.664-22.929 3.24-34.083 1.398-5.898 3.229-11.692 5.251-17.414 1.292-3.503 2.038-7.165 3.055-10.75 1.502-5.289 2.339-10.725 3.156-16.142a230.944 230.944 0 002.155-21.794c.154-7.628.147-15.257.02-22.882-.166-3.589-.477-7.165-.722-10.748-.396-4.466-.524-8.954-1.229-13.389a349.349 349.349 0 00-4.01-25.936c-.64-3.136-1.5-6.209-2-9.351zM132.26.561c.773 1.386 1.327 2.873 1.828 4.369 1.081 3.323 2.274 6.613 3.193 9.983 5.384 19.753 7.967 40.229 7.472 60.664-.071 4.559-.179 9.121-.701 13.657-.706 6.026-1.201 12.085-2.383 18.047-.699 3.467-1.21 6.975-2.123 10.398-.528 2.06-.971 4.143-1.491 6.206-1.67 6.501-4.197 12.758-5.89 19.25-1.867 6.284-3.511 12.646-4.46 19.129-1.05 5.873-1.691 11.829-1.558 17.8-.146 6.592.423 13.245 2.216 19.62a48.985 48.985 0 003.576 10.229c.802 1.644 1.833 3.171 2.51 4.874-3.758-4.385-6.146-9.73-7.974-15.109-1.774-4.994-2.567-10.244-3.175-15.477-1.229-11.98.342-24.054 3.071-35.741 1.393-5.838 3.197-11.573 5.176-17.242 1.379-3.72 2.175-7.61 3.25-11.415 1.356-4.783 2.118-9.691 2.896-14.587 1.138-7.524 1.927-15.102 2.297-22.699.245-10.846.38-21.715-.566-32.533-.479-5.027-.587-10.084-1.39-15.078-1.041-8.771-2.379-17.511-4.105-26.181-.55-2.72-1.42-5.389-1.7-8.158z"></path>
        <path d="M148.57.54c1.385 2.453 2.056 5.194 2.977 7.823 1.941 5.511 3.323 11.189 4.576 16.883 4.038 17.822 5.542 36.153 4.859 54.379-.066 6.804-1.104 13.539-1.809 20.292-.675 5.234-1.766 10.407-2.771 15.59-1.128 4.289-1.931 8.664-3.326 12.887-1.385 4.783-3.219 9.438-4.447 14.267-1.808 6.108-3.498 12.271-4.435 18.571-.618 3.735-1.25 7.471-1.499 11.248-.311 3.333-.21 6.681-.229 10.022-.047 6.462.922 12.911 2.712 19.13.653 2.629 1.68 5.157 2.781 7.64.763 1.705 1.856 3.254 2.524 5.004-1.43-1.364-2.413-3.082-3.383-4.77-2.728-4.785-4.573-10.001-5.879-15.309-1.506-7.146-2.301-14.463-1.944-21.763.139-6.793 1.26-13.519 2.583-20.174 1.592-8.098 4.23-15.945 6.933-23.744 1.533-5.797 3.288-11.556 4.259-17.476a229.59 229.59 0 002.709-20.542c.84-8.401.707-16.855.674-25.284.041-5.604-.386-11.193-.824-16.774-.367-4.494-.549-9.005-1.251-13.465a338.475 338.475 0 00-4.096-26.248c-.53-2.747-1.38-5.425-1.69-8.197z"></path>
      </g>
      <path
        fill="#99BFA3"
        d="M20.722 222.17c1.539-.21 3.097-.085 4.646-.095 83.06.004 166.12-.002 249.18.004 2.258-.022 4.533-.171 6.776.177 2.548.399 5.148.458 7.673 1.029 5.25 1.113 10.239 3.146 15.034 5.47 6.719 3.39 12.396 8.699 16.158 15.086 1.646 2.656 2.467 5.689 3.293 8.659 1.063 5.176.438 10.604-1.338 15.563-1.619 4.574-4.656 8.516-7.981 12.05-3.972 4.181-9.046 7.274-14.459 9.38-2.481.93-4.802 2.295-7.415 2.87-1.739.368-3.498.622-5.232.983-5.021 1.077-10.207 1.096-15.313.78-3.301.074-6.49-.813-9.71-1.369-1.698-.295-3.253-1.146-4.972-1.337-1.5 1.51-2.433 3.453-3.705 5.139-2.032 3.222-4.621 6.049-7.033 9-3.262 3.905-6.551 7.829-10.396 11.215-1.897 1.61-3.641 3.391-5.638 4.887-1.831 1.356-3.334 3.08-5.2 4.398-7.313 5.341-15.118 10.1-23.491 13.715-2.185.905-4.171 2.515-6.646 2.551-29.358.002-58.723-.003-88.085.002-3.021.018-6.256.307-9.002-1.181-5.5-2.989-11.374-5.358-16.527-8.931-4.166-2.449-7.982-5.394-11.715-8.417-2.651-2.192-5.595-4.076-7.896-6.643-2.138-2.396-4.653-4.427-6.792-6.817a121.809 121.809 0 01-8.103-9.771c-1.718-2.221-3.172-4.623-4.852-6.87-1.352-1.808-2.329-3.839-3.473-5.767-2.491-4.199-4.773-8.521-6.718-12.981-.987-2.234-1.627-4.601-2.708-6.798a19.885 19.885 0 01-1.604-4.571c-.515-2.392-1.677-4.592-2.169-6.985-.762-3.666-1.981-7.233-2.556-10.938a134.447 134.447 0 01-1.814-16.868c-.106-2.2-.504-4.42-.209-6.62m255.17 11.26c-.354 1.485-.324 3.025-.427 4.544-.267 5.372-1.8 10.572-2.776 15.844-.685 3.221-1.758 6.34-2.778 9.465-1.188 3.367-2.122 6.837-3.776 10.029-1.084 2.435-2.393 4.779-3.354 7.26a29.07 29.07 0 008.002 1.791c2.298.211 4.606.533 6.922.326 1.979-.174 3.949-.388 5.925-.572 3.022-.262 5.79-1.561 8.554-2.682 3.988-1.715 8.172-3.596 10.896-7.047 1.308-1.592 2.891-3.004 3.814-4.857 2.744-5.401 3.084-11.973.725-17.561-1.91-4.32-5.611-7.59-9.463-10.291-4.586-3.262-10.135-4.99-15.713-5.763-2.16-.25-4.35-.71-6.54-.49z"
      ></path>
      <path
        fill="#66806C"
        d="M0 345.78c.56-.776 1.512-1.142 2.468-1.095 10.14.016 20.281.006 30.422.009 7.208-.042 14.421.101 21.626-.104 31.76.157 63.522.038 95.284.075 26.224.045 52.446.026 78.669.021 7.521-.194 15.047-.06 22.565.01 12.438-.025 24.875.042 37.313-.053 1.485-.021 3.133.146 4.245 1.223-.058.88-.603 1.665-1.362 2.13-3.234 2.08-7.033 3.147-10.819 3.812-2.458.412-4.921.907-7.429.871-2.305-.027-4.604.021-6.904-.036-1.665-.035-3.376-.315-4.996.172-1.736.527-3.361 1.569-4.342 3.091-.963 1.521-1.57 3.882-3.826 3.909-4.071.278-8.146-.142-12.223-.033-7.834.085-15.67-.122-23.506-.053h-104.37c-21.054.036-42.106-.102-63.157.147-2.105-.065-4.382.525-6.355-.411-.954-.807-1.204-2.095-1.844-3.107-1.316-2.302-4.01-3.696-6.683-3.75-5.749.012-11.506.104-17.254-.04a70.189 70.189 0 01-10.754-2.131c-2.663-.79-5.75-1.86-6.773-4.65z"
      ></path>
    </svg>
