<?xml version="1.0" encoding="utf-8"?>
<!-- Generator: Adobe Illustrator 22.1.0, SVG Export Plug-In . SVG Version: 6.00 Build 0)  -->
<svg version="1.1" xmlns="http://www.w3.org/2000/svg" xmlns:xlink="http://www.w3.org/1999/xlink" x="0px" y="0px"
	 viewBox="0 0 1400 1400" style="enable-background:new 0 0 1400 1400;" xml:space="preserve">
<style type="text/css">
	.st0{fill:#FFFFFF;}
	.st1{fill:url(#SVGID_1_);}
	.st2{fill:url(#SVGID_2_);}
	.st3{fill:url(#SVGID_3_);}
	.st4{fill:url(#SVGID_4_);}
	.st5{fill:url(#SVGID_5_);}
	.st6{fill:url(#SVGID_6_);}
	.st7{fill:url(#SVGID_7_);}
	.st8{opacity:0.36;fill:#ED5AB5;}
	.st9{fill:url(#SVGID_8_);}
	.st10{fill:#F7D4AD;}
	.st11{fill:#EDB883;}
	.st12{fill:url(#SVGID_9_);}
	.st13{fill:url(#SVGID_10_);}
	.st14{fill:#DDB249;}
	.st15{fill:#B56326;}
	.st16{fill:#F4EED4;}
	.st17{fill:#4F4E4D;}
	.st18{fill:#B23B38;}
	.st19{opacity:0.3;}
	.st20{fill:url(#SVGID_11_);}
	.st21{fill:url(#SVGID_12_);}
	.st22{fill:url(#SVGID_13_);}
	.st23{fill:#FFAE7B;}
	.st24{fill:#EA8750;}
</style>
<g id="BACKGROUND">
	<rect class="st0" width="1400" height="1400"/>
</g>
<g id="OBJECT">
	<g>
		<linearGradient id="SVGID_1_" gradientUnits="userSpaceOnUse" x1="701.0922" y1="1401.3446" x2="701.0922" y2="-265.7119">
			<stop  offset="0" style="stop-color:#FFE1AF"/>
			<stop  offset="0.5248" style="stop-color:#FFD5D2"/>
			<stop  offset="1" style="stop-color:#ED5AB5"/>
		</linearGradient>
		<path class="st1" d="M1304.3,645.5c0,131.1-52.4,251.3-139.6,344.7c-40.5,43.4-88.6,81.1-142.3,111.4
			c-93,52.4-203.2,82.7-321.3,82.7c-113.3,0-219.2-27.9-309.7-76.4c-59.2-31.7-111.7-72.1-155.4-119.4c-86.2-93.2-138-212.7-138-343
			c0-297.6,270.1-538.8,603.2-538.8S1304.3,347.9,1304.3,645.5z"/>
		<g>
			<g>
				<linearGradient id="SVGID_2_" gradientUnits="userSpaceOnUse" x1="343.0905" y1="991.4096" x2="44.8873" y2="633.9146">
					<stop  offset="0" style="stop-color:#198BF2"/>
					<stop  offset="1" style="stop-color:#22FFE9"/>
				</linearGradient>
				<path class="st2" d="M312.8,856c-19.9,23.2-28.7,50.6-32.2,65.3c-3.1-7.2-6.3-14.3-9.6-21.4c-4.9-10.5-10-21-15.3-31.3
					c12-7.4,34-23.2,48.8-47.9c21.3-35.3,19.8-75.3,19.8-75.3s-36,17.3-57.3,52.7c-12.1,20.1-16.8,41.6-18.7,56.5
					c-6.6-12.2-13.6-24.2-20.9-35.9c7.8-10,22.6-32,27.5-59.8c6.6-38.2-8.3-72.6-8.3-72.6s-25.6,27.4-32.3,65.6
					c-3.2,18.1-1.4,35.4,1.2,48.6c-9.3-13.9-19.3-27.4-29.8-40.4c-1.6-1.9-3.2-3.9-4.8-5.8c5-11.8,13.4-36.7,11-64.5
					c-3.4-38.6-26.7-68.1-26.7-68.1s-17.7,33.1-14.3,71.7c1.2,13.9,5,26.7,9.4,37.2c-7.8-8.6-15.9-17-24.1-25.2
					c-3.7-11.1-11-27.8-24.2-41.8c-22.1-23.5-52.5-30.8-52.5-30.8s5.4,30.8,27.6,54.3c11.2,11.9,24.4,19.6,34.8,24.4
					c11,10.8,21.7,22,32,33.5c-11.7-5.8-27.1-11.7-44.4-13.5c-38.5-4.1-71.9,13.1-71.9,13.1s29.1,23.8,67.6,27.9
					c27.3,2.9,52-4.9,64.1-9.6c13.1,15.8,25.4,32.2,36.9,49.2c-12.6-6.3-32.6-14.2-55.4-15c-38.7-1.4-70.9,18-70.9,18
					s30.6,21.7,69.4,23.1c28.3,1,53.1-9.1,64.4-14.6c0.8,1.3,1.7,2.6,2.5,3.9c7.4,11.9,14.4,24.1,21,36.5
					c-13.5-6.3-36-14.4-61.3-14.3c-41.2,0.3-74.5,22.4-74.5,22.4s33.6,21.7,74.8,21.4c29.5-0.2,55-11.6,67.1-18
					c8.6,16.8,16.6,33.9,24.1,51.2c-14.7-5-41.5-11.8-70.6-7.8c-43.6,6-75.8,34-75.8,34s38.6,18.3,82.2,12.3
					c31.3-4.3,56.7-20,68.6-28.5c4.9,11.6,9.6,23.2,14.2,34.9c11.1,28.2,21.4,56.7,31.8,85.2c3.2,8.7,16.7,3.7,13.5-5
					c-14.8-40.9-29.7-81.9-46.8-121.9c12.3-4.5,41.8-17.4,64-43.3c28.7-33.4,34.3-75.7,34.3-75.7S341.6,822.6,312.8,856z"/>
				<linearGradient id="SVGID_3_" gradientUnits="userSpaceOnUse" x1="294.0463" y1="1022.2308" x2="378.5255" y2="485.1845">
					<stop  offset="0" style="stop-color:#22FFE9"/>
					<stop  offset="1" style="stop-color:#198BF2"/>
				</linearGradient>
				<path class="st3" d="M359.4,904.8c-19.7,5.8-34.9,17.8-42.8,25.2c-0.1-13.2,0-26.4,0.7-39.5c9.5,0.7,29,0.6,47.9-7.7
					c26.4-11.6,41.6-35.1,41.6-35.1s-27.6-4.6-53.9,7.1c-16.2,7.2-28.2,18.8-35,26.7c0.7-9.8,1.6-19.6,2.9-29.3
					c0.1-1.1,0.3-2.1,0.5-3.2c8.8,0.3,27.5-0.4,45.2-9.1c24.3-12,37.6-34.6,37.6-34.6s-26-3.2-50.3,8.8c-14.3,7.1-24.8,17.8-31,25.5
					c2.4-14.2,5.6-28.1,9.4-41.9c9.1-0.4,27-2.6,43.6-12.2c23.4-13.6,35.1-37.1,35.1-37.1s-26.2-1.4-49.6,12.3
					c-10.5,6.1-18.7,14.2-24.5,21.3c3.3-10.3,6.9-20.4,10.8-30.5c5.3-6,11.5-14.7,15.2-25.5c7.4-21.3,2-42.5,2-42.5
					s-17.3,13.4-24.7,34.7c-4.4,12.7-4.3,25.4-3.4,33.6c-2.9,7.6-5.6,15.3-8.2,23c-0.2-8-1.5-17.2-4.7-26.4
					c-8.9-25.6-29.7-41.6-29.7-41.6s-6.4,25.4,2.5,51c6.4,18.4,18.9,31.9,25.5,38c-0.5,1.7-0.9,3.4-1.4,5c-3,11.3-5.5,22.8-7.5,34.3
					c-2.1-9.2-5.9-20.7-13.1-31.3c-15.2-22.4-39.4-32.6-39.4-32.6s0.4,26.2,15.5,48.7c11,16.3,26.8,26.1,34.6,30.3
					c-1.3,9.6-2.3,19.2-3,28.9c-5.4-9-14.6-21.3-28.1-30.7c-23.7-16.4-51.6-17.2-51.6-17.2s10.5,25.9,34.2,42.3
					c16.5,11.5,35.1,15.3,44.8,16.6c-0.4,8.1-0.7,16.2-0.8,24.3c-0.1,5.5-0.1,11,0,16.4c-6.4-8.3-19.9-23.3-39.2-32.4
					c-27.9-13.1-57.4-8.8-57.4-8.8s15.7,25.4,43.6,38.4c21.5,10.1,44.1,9.9,53.2,9.2c0.6,30.4,2.8,60.8,5.1,91.1
					c0.5,6.5,10.5,5.8,10-0.7c-1.6-21.1-3.2-42.3-4.2-63.4c-0.4-8.8-0.7-17.5-0.9-26.3c10,2,30.7,4.7,51.9-1.5
					c29.5-8.7,48.9-31.4,48.9-31.4S389,896.1,359.4,904.8z"/>
				<linearGradient id="SVGID_4_" gradientUnits="userSpaceOnUse" x1="438.2364" y1="1116.7732" x2="216.6986" y2="895.2355">
					<stop  offset="9.127634e-02" style="stop-color:#B55C2A"/>
					<stop  offset="1" style="stop-color:#893409"/>
				</linearGradient>
				<path class="st4" d="M391.4,1004.1v103.7c-59.2-31.7-111.7-72.1-155.4-119.4c3.8-3.6,9-5.8,14.7-5.8h119.3
					C381.7,982.7,391.4,992.3,391.4,1004.1z"/>
			</g>
			<linearGradient id="SVGID_5_" gradientUnits="userSpaceOnUse" x1="1089.1632" y1="1059.7053" x2="1089.1632" y2="498.853">
				<stop  offset="0" style="stop-color:#198BF2"/>
				<stop  offset="1" style="stop-color:#22FFE9"/>
			</linearGradient>
			<path class="st5" d="M1108.4,802.3c-6.4,6.9-14.2,19.4-19.3,31.5c0-0.7,0-1.4,0-2.1c0-22.3,2.5-33.1,5.2-44.6
				c2.7-11.6,5.5-23.5,5.5-47.1c0-9.7-0.5-17.4-1.2-24c14.4,0.6,41.7-17,52.6-28.9c13-14,19.2-37.1,8.9-46.6
				c-10.3-9.5-33.1-1.8-46.1,12.3c-7,7.6-15.9,22.1-20.8,35.3c-2.2-9.9-4.1-20.6-4.1-39.8c0-22.3,2.5-33.1,5.2-44.6
				c2.4-10.1,4.8-20.5,5.4-38.6c14.3-2,38-23.8,46.8-37.3c10.4-16,12.6-39.8,0.9-47.4c-11.7-7.6-33,3.9-43.4,19.9
				c-8.8,13.6-19.2,44.5-14.9,58.2c-0.1,21.1-2.6,31.6-5.2,42.8c-0.2,0.8-0.4,1.6-0.6,2.4c-5.1-11.8-12.7-23.8-18.9-30.5
				c-13-14-35.8-21.8-46.1-12.3c-10.3,9.5-4.1,32.6,8.9,46.6c10.7,11.6,36.8,28.5,51.4,28.9c-0.2,3.6-0.3,7.6-0.3,12
				c0,23.5,2.8,35.5,5.5,47.1c2.7,11.5,5.2,22.3,5.2,44.6c0,7.2-0.3,13.2-0.7,18.4c-5.1-11.6-12.5-23.3-18.6-29.9
				c-13-14-35.8-21.8-46.1-12.3c-10.3,9.5-4.1,32.6,8.9,46.6c10.3,11.1,34.8,27.2,49.7,28.7c-2.1,9.7-3.9,21.2-3.9,40
				c0,23.5,2.8,35.5,5.5,47.1c2.3,10,4.6,19.5,5.1,36.4c-5.1-12-12.9-24.4-19.2-31.2c-13-14-35.8-21.8-46.1-12.3
				c-10.3,9.5-4.1,32.6,8.9,46.6c11.7,12.7,42,31.8,55.3,28.5c-1,8.3-2.5,14.7-4,21.2c-2.7,11.6-5.5,23.5-5.5,47.1
				c0,3,2.4,5.4,5.4,5.4c3,0,5.4-2.4,5.4-5.4c0-22.3,2.5-33.1,5.2-44.6c2.7-11.6,5.5-23.5,5.5-47.1s-2.8-35.5-5.5-47.1
				c-0.8-3.6-1.7-7.1-2.4-10.9c14,1.6,42.5-16.6,53.7-28.8c13-14,19.2-37.1,8.9-46.6C1144.2,780.6,1121.3,788.3,1108.4,802.3z"/>
			
				<linearGradient id="SVGID_6_" gradientUnits="userSpaceOnUse" x1="1251.5031" y1="1195.1709" x2="1251.5031" y2="381.0193" gradientTransform="matrix(0.9222 0.3868 -0.3868 0.9222 374.9008 -430.8798)">
				<stop  offset="0" style="stop-color:#22FFE9"/>
				<stop  offset="1" style="stop-color:#198BF2"/>
			</linearGradient>
			<path class="st6" d="M1212,850.7c-7.2,3.3-17.3,10.4-25.2,18.1c0.2-0.5,0.4-1.1,0.7-1.6c7.2-17.3,12.7-24.9,18.6-32.9
				c5.9-8.1,11.9-16.4,19.6-34.7c3.2-7.5,5.3-13.7,6.8-19c10.9,5.2,37.8,0.4,50.2-5.3c14.6-6.7,26.9-22.6,22-33.2
				c-4.9-10.7-25.1-12.1-39.7-5.5c-7.9,3.6-19.5,12-27.6,20.6c1.5-8.4,3.5-17.3,9.7-32.2c7.2-17.3,12.7-24.9,18.6-32.9
				c5.1-7,10.4-14.3,16.7-28.1c11.7,3.1,37.2-6.1,48.4-13.7c13.3-9,22.7-26.8,16.1-36.5c-6.6-9.7-26.8-7.7-40.1,1.3
				c-11.3,7.7-29.3,28.3-30.5,40.3c-7,16.3-12.3,23.7-18,31.4c-0.4,0.6-0.8,1.1-1.2,1.7c-0.1-10.8-2.1-22.6-4.7-29.8
				c-5.5-15.1-20.7-28.5-31.7-24.5c-11,4-13.7,23.9-8.3,39c4.5,12.4,19.2,34.1,30.5,39.1c-1.3,2.8-2.7,5.8-4.1,9.2
				c-7.7,18.2-9.4,28.4-11,38.3c-1.6,9.8-3.2,19-10.4,36.3c-2.3,5.6-4.5,10.1-6.5,14c-0.2-10.6-2.2-22.1-4.7-29.2
				c-5.5-15.1-20.7-28.5-31.7-24.5c-11,4-13.7,23.9-8.3,39c4.3,11.9,18.1,32.4,29.2,38.4c-4.8,6.9-9.9,15.1-16.1,29.8
				c-7.7,18.2-9.4,28.4-11,38.3c-1.4,8.5-2.8,16.6-7.9,29.9c-0.1-11-2.1-23.1-4.7-30.4c-5.5-15.1-20.7-28.5-31.7-24.5
				c-11,4-13.7,23.9-8.3,39c4.9,13.6,22.2,38.3,33.6,40.1c-3.5,6.1-6.7,10.6-10,15.1c-5.9,8.1-11.9,16.4-19.6,34.7
				c-1,2.3,0.1,5,2.4,5.9c2.3,1,5-0.1,5.9-2.4c7.2-17.3,12.7-24.9,18.6-32.9c5.9-8.1,11.9-16.4,19.6-34.7c7.7-18.2,9.4-28.4,11-38.3
				c0.5-3,1-6,1.7-9.2c10.3,5.8,38.3,0.9,51-4.8c14.6-6.7,26.9-22.6,22-33.2C1246.8,845.5,1226.6,844.1,1212,850.7z"/>
			<linearGradient id="SVGID_7_" gradientUnits="userSpaceOnUse" x1="1087.6243" y1="1175.9697" x2="1087.6243" y2="921.2048">
				<stop  offset="9.127634e-02" style="stop-color:#B55C2A"/>
				<stop  offset="1" style="stop-color:#893409"/>
			</linearGradient>
			<path class="st7" d="M1164.7,990.2c-40.5,43.4-88.6,81.1-142.3,111.4c-1.3-2.4-2.2-5.2-2.5-8.1l-9.3-92.2
				c-1-9.5,6.5-17.8,16.1-17.8h124.9C1157,983.5,1161.8,986.1,1164.7,990.2z"/>
			<ellipse class="st8" cx="683.7" cy="798.2" rx="237.9" ry="50.9"/>
			<g>
				<linearGradient id="SVGID_8_" gradientUnits="userSpaceOnUse" x1="529.6993" y1="369.2193" x2="838.0644" y2="369.2193">
					<stop  offset="9.127634e-02" style="stop-color:#B55C2A"/>
					<stop  offset="1" style="stop-color:#893409"/>
				</linearGradient>
				<path class="st9" d="M838.1,544.2L838.1,544.2c-32.5-65.5-49.5-137.6-49.5-210.8V299c0-57.8-46.9-104.7-104.7-104.7h0
					c-57.8,0-104.7,46.9-104.7,104.7v34.5c0,73.1-16.9,145.3-49.5,210.8l0,0H838.1z"/>
			</g>
			<g>
				<g>
					<path class="st10" d="M709.8,456v-30.8H658V456c0,4-3.2,7.2-7.2,7.2h-66.8V621h199.9V463.3H717C713,463.3,709.8,460,709.8,456z
						"/>
				</g>
				<g>
					<path class="st11" d="M658,425.3v29.1c8.2,2.4,16.9,3.6,25.9,3.6h0c9,0,17.7-1.3,25.9-3.6v-29.1H658z"/>
				</g>
			</g>
			<g>
				<linearGradient id="SVGID_9_" gradientUnits="userSpaceOnUse" x1="683.882" y1="973.6697" x2="683.882" y2="368.9877">
					<stop  offset="0" style="stop-color:#22FFE9"/>
					<stop  offset="1" style="stop-color:#198BF2"/>
				</linearGradient>
				<path class="st12" d="M890.5,672.9l-70.3-189.6c-5.1-13.8-19-21.8-33-20.1c-5.6-2-11.7-3.1-18-3.1h-19.1c-4,0-7.7,2.2-9.7,5.7
					c-7.6,13.1-32,22.7-60.9,22.7c-28.9,0-53.2-9.6-60.9-22.7c-2-3.5-5.7-5.7-9.7-5.7h-16.1c-6.1,0-12,1-17.4,2.9
					c-12.1,0.6-23.2,8.3-27.7,20.3l-2.2,6c-1.7,3.4-3.1,7.1-4,10.9l-64.1,172.7c-6,16.2,2.2,34.1,18.4,40.1c3.6,1.3,7.2,2,10.9,2
					c12.7,0,24.6-7.8,29.3-20.4l3.9-10.6v60.7c0,18,14.6,32.5,32.5,32.5h217.3c18,0,32.5-14.6,32.5-32.5v-76.6l9.8,26.4
					c4.7,12.6,16.6,20.4,29.3,20.4c3.6,0,7.3-0.6,10.9-2C888.2,707.1,896.5,689.1,890.5,672.9z"/>
				<g>
					<g>
						<path class="st10" d="M864.1,712.4c-5.8,0-11.6-1.9-16.4-5.9L726.2,606c-10.9-9.1-12.5-25.3-3.4-36.2
							c9.1-10.9,25.3-12.5,36.2-3.4l121.5,100.5c10.9,9.1,12.5,25.3,3.4,36.2C878.8,709.2,871.5,712.4,864.1,712.4z"/>
					</g>
					<g>
						<linearGradient id="SVGID_10_" gradientUnits="userSpaceOnUse" x1="739.2371" y1="646.5956" x2="891.9564" y2="646.5956">
							<stop  offset="0" style="stop-color:#198BF2"/>
							<stop  offset="1" style="stop-color:#22FFE9"/>
						</linearGradient>
						<path class="st13" d="M881.3,663.3c12.5,10.3,14.3,28.9,3.9,41.4c-8.7,10.5-23.1,13.4-34.9,8c-2.3-1-4.5-2.4-6.5-4.1
							l-104.6-86.5l38.7-44.3L881.3,663.3z"/>
					</g>
				</g>
			</g>
			<g>
				<path class="st10" d="M648.1,1199.2l-87.3-128.1l-59.5,40.5l97.6,143.3l-6.5,49.4c-2.6,19.7,11.2,37.8,30.9,40.4l0,0
					c19.7,2.6,37.8-11.2,40.4-30.9l7.5-56.7l0,0c1.7-12.8-1.4-25.8-8.7-36.5L648.1,1199.2z"/>
			</g>
			<g>
				<g>
					<g>
						<g>
							<path class="st14" d="M705.2,621h-58.5c-6.8,0-12.4-5.5-12.4-12.4v-77.1c0-2.4,1.6-4.6,3.9-5.3l0,0c24.6-7.7,50.9-7.7,75.5,0
								l0,0c2.3,0.7,3.9,2.9,3.9,5.3v77.1C717.6,615.4,712,621,705.2,621z"/>
						</g>
					</g>
				</g>
				<g>
					<g>
						<g>
							<path class="st14" d="M718.9,604.9h-33.3v-62.7h33.3c17.3,0,31.4,14.1,31.4,31.4S736.2,604.9,718.9,604.9z M697.8,592.7h21.1
								c10.6,0,19.2-8.6,19.2-19.2c0-10.6-8.6-19.2-19.2-19.2h-21.1V592.7z"/>
						</g>
					</g>
				</g>
				<g>
					<g>
						<g>
							<ellipse class="st15" cx="675.9" cy="531.7" rx="35.2" ry="5.3"/>
						</g>
					</g>
				</g>
				<g>
					<g>
						<g>
							<path class="st16" d="M685.3,526.9c-0.5,0-0.9-0.1-1.3-0.4c-1-0.7-1.2-2.2-0.5-3.2l8.9-12.1c4.2-5.6,4.1-12.3-0.3-17.9
								c-4.7-6.1-5.6-13.4-2.3-20.1l7.5-15.4c0.5-1.1,1.9-1.6,3-1c1.1,0.5,1.6,1.9,1,3l-7.5,15.4c-2.5,5-1.8,10.6,1.8,15.3
								c5.5,7.2,5.7,16.1,0.3,23.4l-8.9,12.1C686.6,526.5,685.9,526.9,685.3,526.9z"/>
						</g>
					</g>
					<g>
						<g>
							<path class="st16" d="M660.7,526.7c-0.4,0-0.7-0.1-1.1-0.3c-1.1-0.6-1.5-2-0.9-3.1l7.2-12.9c3.4-6.1,2.4-12.7-2.7-17.8
								c-5.5-5.5-7.3-12.7-5-19.6l5.4-16.2c0.4-1.2,1.7-1.8,2.9-1.4c1.2,0.4,1.8,1.7,1.4,2.9l-5.4,16.2c-1.8,5.3-0.4,10.8,3.9,15
								c6.4,6.5,7.8,15.4,3.4,23.1l-7.2,12.9C662.3,526.3,661.5,526.7,660.7,526.7z"/>
						</g>
					</g>
				</g>
			</g>
			<g>
				<g>
					<path class="st11" d="M611.6,325.7c7.5,15,6,30.9-3.3,35.5c-9.3,4.6-22.8-3.9-30.3-18.9c-7.5-15-6-30.9,3.3-35.5
						C590.5,302.2,604.1,310.7,611.6,325.7z"/>
				</g>
				<g>
					<path class="st11" d="M756.2,325.7c-7.5,15-6,30.9,3.3,35.5c9.3,4.6,22.8-3.9,30.3-18.9c7.5-15,6-30.9-3.3-35.5
						C777.2,302.2,763.7,310.7,756.2,325.7z"/>
				</g>
			</g>
			<g>
				<g>
					<path class="st10" d="M683.9,448.9L683.9,448.9c-49,0-88.8-39.7-88.8-88.8v-43.9c0-49,39.7-88.8,88.8-88.8l0,0
						c49,0,88.8,39.7,88.8,88.8v43.9C772.7,409.1,732.9,448.9,683.9,448.9z"/>
				</g>
				<g>
					<path class="st11" d="M671.6,269.2c29.3,19.7,63.1,37,101.1,47.5v-0.5c0-49-39.7-88.8-88.8-88.8l0,0c-0.6,0-1.2,0-1.7,0
						c-33.8,1.5-62.9,21.1-77.8,49.3c-5.9,11.9-9.2,25.3-9.2,39.5v15.6C628.9,313.3,653.6,291.1,671.6,269.2z"/>
				</g>
			</g>
			<g>
				<polygon class="st11" points="693.1,386.3 674.6,386.3 679.9,336.5 687.8,336.5 				"/>
			</g>
			<g>
				<g>
					<path class="st17" d="M656.3,319.9c-0.7,0-1.4,0.5-1.6,1.2c-1.7,7.5-6,12.9-11.2,12.9c-5.1,0-9.5-5.4-11.2-12.9
						c-0.2-0.7-0.8-1.2-1.6-1.2h0c-1,0-1.8,1-1.6,2c2,9,7.6,15.4,14.3,15.4s12.3-6.3,14.3-15.4C658.1,320.9,657.4,319.9,656.3,319.9
						L656.3,319.9z"/>
				</g>
				<g>
					<path class="st17" d="M736.9,319.9c-0.7,0-1.4,0.5-1.6,1.2c-1.7,7.5-6,12.9-11.2,12.9c-5.1,0-9.5-5.4-11.2-12.9
						c-0.2-0.7-0.8-1.2-1.6-1.2l0,0c-1,0-1.8,1-1.6,2c2,9,7.6,15.4,14.3,15.4c6.7,0,12.3-6.3,14.3-15.4
						C738.6,320.9,737.9,319.9,736.9,319.9L736.9,319.9z"/>
				</g>
			</g>
			<g>
				<path class="st18" d="M701.8,400.2c-0.9,0-1.6,0.6-1.8,1.4c-2.4,8.3-8.7,14.3-16.1,14.3s-13.7-6-16.1-14.3
					c-0.2-0.8-1-1.4-1.8-1.4l0,0c-1.3,0-2.2,1.2-1.8,2.5c2.9,9.9,10.7,17.1,19.8,17.1c9.1,0,16.9-7.1,19.8-17.1
					C704,401.4,703.1,400.2,701.8,400.2L701.8,400.2z"/>
			</g>
			<g>
				<g class="st19">
					<ellipse class="st18" cx="639.3" cy="363.6" rx="19.7" ry="5.8"/>
				</g>
				<g class="st19">
					<ellipse class="st18" cx="728.4" cy="363.6" rx="19.7" ry="5.8"/>
				</g>
			</g>
			<g>
				<linearGradient id="SVGID_11_" gradientUnits="userSpaceOnUse" x1="591.3767" y1="275.7911" x2="776.3872" y2="275.7911">
					<stop  offset="9.127634e-02" style="stop-color:#B55C2A"/>
					<stop  offset="1" style="stop-color:#893409"/>
				</linearGradient>
				<path class="st20" d="M683.9,223.2L683.9,223.2c-51.1,0-92.5,41.4-92.5,92.5v12.7c34.6-18.6,59.7-41.2,77.9-63.4
					c30.8,20.8,66.7,38.8,107.1,49.1C775.5,263.8,734.5,223.2,683.9,223.2z"/>
			</g>
			<g>
				<g>
					<path class="st10" d="M503.7,712.4c-7.4,0-14.7-3.2-19.8-9.3c-9.1-10.9-7.5-27.2,3.4-36.2l121.5-100.5
						c10.9-9.1,27.2-7.5,36.2,3.4c9.1,10.9,7.5,27.2-3.4,36.2L520.1,706.5C515.3,710.4,509.5,712.4,503.7,712.4z"/>
				</g>
				<g>
					<linearGradient id="SVGID_12_" gradientUnits="userSpaceOnUse" x1="475.8075" y1="646.5956" x2="628.5269" y2="646.5956">
						<stop  offset="0" style="stop-color:#198BF2"/>
						<stop  offset="1" style="stop-color:#22FFE9"/>
					</linearGradient>
					<path class="st21" d="M486.5,663.3c-12.5,10.3-14.3,28.9-3.9,41.4c8.7,10.5,23.1,13.4,34.9,8c2.3-1,4.5-2.4,6.5-4.1l104.6-86.5
						l-38.7-44.3L486.5,663.3z"/>
				</g>
			</g>
			<g>
				<path class="st10" d="M664.8,1010.3l150.3-37.7l17.5,69.8l-168.2,42.2l-27.9,41.2c-11.1,16.5-33.5,20.8-50,9.6h0
					c-16.5-11.1-20.8-33.5-9.6-50l32.1-47.4l0,0c7.3-10.7,18.2-18.4,30.8-21.5L664.8,1010.3z"/>
			</g>
			<linearGradient id="SVGID_13_" gradientUnits="userSpaceOnUse" x1="701.1007" y1="996.9226" x2="701.1007" y2="460.4662">
				<stop  offset="0" style="stop-color:#374ABC"/>
				<stop  offset="0.2998" style="stop-color:#2C41AB"/>
				<stop  offset="0.7031" style="stop-color:#213799"/>
				<stop  offset="1" style="stop-color:#1D3493"/>
			</linearGradient>
			<path class="st22" d="M796.2,769H566L440.3,986.8c-14.4,15.7-19.1,38-12.4,58.1c2.5,8.4,6.8,16.2,12.8,22.8L542.5,1217l98.5-63.8
				l-85.2-125l126.7-178.4h10.4l108.6,97.8l-118.6,35.7l32.6,112.7l210.2-63.4c12.6-1.5,24.8-7.1,34.4-16.7l0,0
				c22.9-22.9,22.9-60,0-82.9L796.2,769z"/>
			<g>
				<path class="st23" d="M662.6,1220.5l-14.5-21.3l-18.6-27.3l-60.8,38.5l30.3,44.5l-6.5,49.4c-2.6,19.7,11.2,37.8,30.9,40.4l0,0
					c19.7,2.6,37.8-11.2,40.4-30.9l7.5-56.7C673,1244.2,669.9,1231.2,662.6,1220.5z"/>
			</g>
			<g>
				<path class="st24" d="M565.7,1210.9l64.6-41.8c1.9-1.2,4.5-0.7,5.7,1.2l4.3,6.6c1.2,1.9,0.7,4.5-1.2,5.7l-64.6,41.8
					c-1.9,1.2-4.5,0.7-5.7-1.2l-4.3-6.6C563.2,1214.7,563.8,1212.2,565.7,1210.9z"/>
			</g>
			<path class="st23" d="M664.8,1010.3l-25,6.3c-12.6,3.1-23.5,10.8-30.8,21.5l-32.1,47.4c-11.1,16.5-6.8,38.8,9.6,50l0,0
				c16.5,11.1,38.8,6.8,50-9.6l27.9-41.2l28.4-7.1l-18.5-69.5L664.8,1010.3z"/>
			<g>
				<path class="st24" d="M681.2,1004l21.1,74c0.6,2.2-0.6,4.5-2.8,5.1l-7.6,2.2c-2.2,0.6-4.5-0.6-5.1-2.8l-21.1-74
					c-0.6-2.2,0.6-4.5,2.8-5.1l7.6-2.2C678.3,1000.5,680.5,1001.8,681.2,1004z"/>
			</g>
		</g>
	</g>
</g>
</svg>
