<?xml version="1.0" standalone="no"?>
<!DOCTYPE svg PUBLIC "-//W3C//DTD SVG 20010904//EN"
 "http://www.w3.org/TR/2001/REC-SVG-20010904/DTD/svg10.dtd">
<svg version="1.0" xmlns="http://www.w3.org/2000/svg"
 width="512.000000pt" height="512.000000pt" viewBox="0 0 512.000000 512.000000"
 preserveAspectRatio="xMidYMid meet">

<g transform="translate(0.000000,512.000000) scale(0.100000,-0.100000)"
fill="#000000" stroke="none">
<path d="M1205 5076 c-41 -19 -83 -66 -95 -107 -6 -18 -10 -76 -10 -126 l0
-93 -287 0 c-311 0 -346 -5 -451 -56 -82 -40 -175 -136 -217 -225 -19 -41 -39
-98 -45 -128 -6 -35 -10 -710 -10 -1955 0 -1660 2 -1909 15 -1965 44 -184 192
-332 376 -376 97 -22 2831 -22 2928 0 188 45 347 209 381 394 6 31 10 250 10
513 0 506 1 499 -63 555 -80 70 -202 45 -256 -52 -14 -26 -17 -89 -21 -507 -5
-462 -6 -477 -26 -504 -11 -15 -33 -37 -48 -48 -27 -21 -29 -21 -1441 -21
-1412 0 -1414 0 -1441 21 -15 11 -37 33 -48 48 l-21 27 -3 1913 -2 1913 22 33
c30 44 66 69 114 80 21 5 150 10 287 10 l247 0 0 -102 c0 -126 19 -175 84
-213 l43 -25 719 0 719 0 39 23 c65 36 86 89 86 214 l0 104 273 -3 c299 -3
307 -5 361 -68 27 -33 31 -44 41 -123 5 -36 15 -59 41 -87 44 -48 82 -64 143
-58 123 12 177 124 136 282 -48 185 -197 334 -375 375 -25 6 -172 11 -332 11
l-288 0 0 93 c0 50 -5 108 -10 127 -11 41 -61 94 -103 109 -46 18 -1433 14
-1472 -3z"/>
<path d="M3830 3805 c-204 -41 -396 -148 -538 -300 -114 -121 -187 -249 -239
-420 -25 -84 -27 -102 -27 -270 0 -212 14 -275 93 -439 59 -122 98 -178 194
-274 342 -347 873 -398 1286 -124 226 150 394 425 432 708 25 188 -12 400
-101 579 -138 279 -395 476 -703 539 -92 19 -304 20 -397 1z m37 -616 c15 -5
57 -39 93 -75 l66 -64 54 56 c30 30 72 64 92 75 96 49 209 -4 238 -111 17 -65
-1 -110 -77 -191 l-66 -69 66 -68 c91 -95 105 -156 55 -239 -28 -47 -78 -74
-136 -75 -63 0 -83 11 -159 85 l-62 61 -63 -60 c-78 -75 -99 -86 -158 -86
-128 0 -209 128 -151 240 11 20 45 62 75 92 l56 54 -64 66 c-36 36 -70 78 -75
93 -50 132 84 266 216 216z"/>
<path d="M895 3061 c-158 -39 -173 -263 -22 -320 39 -15 925 -15 964 0 124 47
142 223 30 297 l-41 27 -450 2 c-248 1 -465 -2 -481 -6z"/>
<path d="M870 2379 c-125 -50 -138 -229 -22 -301 l37 -23 698 -3 c468 -2 710
1 737 8 148 40 176 233 45 307 l-40 23 -715 -1 c-451 0 -724 -4 -740 -10z"/>
<path d="M877 1706 c-46 -17 -61 -29 -88 -73 -52 -83 -9 -207 84 -242 39 -15
1934 -15 1974 0 44 16 90 67 103 113 24 86 -30 181 -115 205 -63 17 -1908 14
-1958 -3z"/>
</g>
</svg>
