<svg version="1.2" xmlns="http://www.w3.org/2000/svg" viewBox="0 0 561 546" width="561" height="546"><style></style><path  d="m360.5 211c0 2.8-1.1 5.5-3.1 7.5l-61.6 61.5 61.6 61.5c3.8 4.2 3.7 10.6-0.3 14.6-4 4-10.4 4.1-14.6 0.3l-61.5-61.6-61.5 61.6c-2 2.1-4.7 3.3-7.5 3.3-2.9 0.1-5.6-1-7.6-3.1-2.1-2-3.2-4.7-3.1-7.6 0-2.8 1.2-5.5 3.3-7.5l61.6-61.5-61.6-61.5c-3.8-4.2-3.7-10.6 0.3-14.6 4-4 10.4-4.1 14.6-0.3l61.5 61.6 61.6-61.6c4.1-4.1 10.7-4.1 14.8 0 2 1.9 3.1 4.6 3.1 7.4z"/><path fill-rule="evenodd" d="m423.4 138.1c37.6 37.6 58.8 88.7 58.9 141.9 0 53.3-21.2 104.3-58.9 142-37.6 37.7-88.7 58.8-142 58.8-53.2 0-104.3-21.1-142-58.8-37.6-37.7-58.8-88.7-58.8-142 0-53.3 21.2-104.3 58.8-142 37.7-37.7 88.8-58.8 142-58.8 53.3 0 104.3 21.2 142 58.9zm-14.9 269c33.7-33.7 52.7-79.4 52.8-127.1 0-47.7-19-93.4-52.7-127.2-33.7-33.7-79.5-52.6-127.2-52.6-47.7 0-93.4 18.9-127.1 52.6-33.8 33.8-52.7 79.5-52.7 127.2 0 47.7 18.9 93.4 52.7 127.2 33.7 33.7 79.4 52.6 127.1 52.6 47.7 0 93.4-19 127.1-52.7z"/><path  d="m24.5 663.6q-1.9 0.9-3.8 1.4-2 0.5-4.1 0.5-6.4 0-10.1-3.6-3.8-3.5-3.8-9.6 0-6.1 3.8-9.7 3.7-3.6 10.1-3.6 2.1 0 4.1 0.5 1.9 0.5 3.8 1.4v5.3q-1.9-1.2-3.7-1.8-1.7-0.6-3.7-0.6-3.5 0-5.5 2.2-2.1 2.3-2.1 6.3 0 3.9 2.1 6.2 2 2.2 5.5 2.2 2 0 3.7-0.5 1.8-0.6 3.7-1.9z"/><path  d="m43.8 651.1q-0.8-0.4-1.6-0.6-0.7-0.2-1.5-0.2-2.4 0-3.7 1.6-1.3 1.5-1.3 4.3v8.8h-6.1v-19.1h6.1v3.1q1.2-1.9 2.8-2.7 1.5-0.9 3.6-0.9 0.3 0 0.7 0 0.3 0.1 1 0.1z"/><path fill-rule="evenodd" d="m66 655.4v1.7h-14.3q0.2 2.2 1.5 3.3 1.4 1 3.8 1 1.9 0 3.9-0.5 2-0.6 4.2-1.8v4.7q-2.2 0.9-4.4 1.3-2.1 0.4-4.3 0.4-5.2 0-8.1-2.6-2.9-2.7-2.9-7.4 0-4.7 2.9-7.4 2.8-2.7 7.8-2.7 4.5 0 7.2 2.7 2.7 2.7 2.7 7.3zm-6.3-2.1q0-1.7-1-2.8-1-1-2.7-1-1.7 0-2.9 1-1.1 1-1.3 2.8z"/><path fill-rule="evenodd" d="m88.5 654.1v10.9h-6.1v-2.8q-1.2 1.7-2.8 2.5-1.5 0.8-3.7 0.8-3 0-4.9-1.7-1.8-1.8-1.8-4.5 0-3.4 2.3-5 2.3-1.5 7.3-1.5h3.6v-0.5q0-1.5-1.2-2.2-1.1-0.6-3.5-0.6-2 0-3.7 0.4-1.7 0.4-3.1 1.1v-4.6q1.9-0.5 3.9-0.8 2-0.2 4-0.2 5.1 0 7.4 2 2.3 2.1 2.3 6.7zm-9.3 2.3q-1.9 0-2.9 0.6-0.9 0.7-0.9 2 0 1.1 0.7 1.8 0.8 0.6 2.2 0.6 1.7 0 2.9-1.2 1.2-1.2 1.2-3.1v-0.7z"/><path  d="m100.9 640.4v5.5h6.3v4.3h-6.3v8.2q0 1.3 0.6 1.8 0.5 0.4 2.1 0.4h3.1v4.4h-5.2q-3.7 0-5.2-1.5-1.5-1.5-1.5-5.1v-8.2h-3v-4.3h3v-5.5z"/><path fill-rule="evenodd" d="m130.1 655.4v1.7h-14.3q0.2 2.2 1.5 3.3 1.4 1 3.8 1 1.9 0 3.9-0.5 2-0.6 4.2-1.8v4.7q-2.2 0.9-4.4 1.3-2.1 0.4-4.3 0.4-5.2 0-8.1-2.6-2.9-2.7-2.9-7.4 0-4.7 2.9-7.4 2.8-2.7 7.7-2.7 4.6 0 7.3 2.7 2.7 2.7 2.7 7.3zm-6.3-2.1q0-1.7-1-2.8-1-1-2.7-1-1.8 0-2.9 1-1.1 1-1.4 2.8z"/><path fill-rule="evenodd" d="m147.7 648.7v-10.3h6.2v26.6h-6.2v-2.8q-1.2 1.7-2.8 2.5-1.5 0.8-3.5 0.8-3.5 0-5.8-2.8-2.2-2.8-2.2-7.2 0-4.5 2.2-7.3 2.3-2.8 5.8-2.8 2 0 3.5 0.8 1.6 0.8 2.8 2.5zm-4 12.3q2 0 3-1.4 1-1.4 1-4.1 0-2.8-1-4.2-1-1.5-3-1.5-1.9 0-3 1.5-1 1.4-1 4.2 0 2.7 1 4.1 1.1 1.4 3 1.4z"/><path fill-rule="evenodd" d="m178.1 648.7q1.2-1.7 2.8-2.5 1.5-0.8 3.5-0.8 3.5 0 5.8 2.8 2.3 2.8 2.3 7.3 0 4.4-2.3 7.2-2.3 2.8-5.8 2.8-2 0-3.5-0.8-1.6-0.8-2.8-2.5v2.8h-6.2v-26.6h6.2zm4 12.4q2 0 3-1.4 1.1-1.5 1.1-4.2 0-2.7-1.1-4.2-1-1.4-3-1.4-1.9 0-3 1.4-1 1.5-1 4.2 0 2.7 1 4.2 1.1 1.4 3 1.4z"/><path  d="m194.5 645.9h6.1l5.1 12.9 4.4-12.9h6.1l-8 20.9q-1.2 3.2-2.8 4.5-1.7 1.2-4.3 1.2h-3.5v-4h1.9q1.5 0 2.2-0.5 0.8-0.5 1.1-1.7l0.2-0.6z"/><path  d="m230.1 639.5h6.3l4.4 18.5 4.4-18.5h6.3l4.4 18.5 4.4-18.5h6.3l-6 25.5h-7.6l-4.7-19.4-4.5 19.4h-7.6z"/><path fill-rule="evenodd" d="m289.7 655.4v1.7h-14.3q0.2 2.2 1.6 3.3 1.3 1 3.7 1 1.9 0 3.9-0.5 2.1-0.6 4.2-1.8v4.7q-2.2 0.9-4.3 1.3-2.2 0.4-4.4 0.4-5.2 0-8.1-2.6-2.8-2.7-2.8-7.4 0-4.7 2.8-7.4 2.8-2.7 7.8-2.7 4.5 0 7.2 2.7 2.7 2.7 2.7 7.3zm-6.3-2.1q0-1.7-1-2.8-1-1-2.6-1-1.8 0-2.9 1-1.2 1-1.4 2.8z"/><path  d="m294.3 638.4h6.2v26.6h-6.2z"/><path  d="m313 640.4v5.5h6.3v4.3h-6.3v8.2q0 1.3 0.6 1.8 0.5 0.4 2.1 0.4h3.1v4.4h-5.2q-3.7 0-5.2-1.5-1.5-1.5-1.5-5.1v-8.2h-3v-4.3h3v-5.5z"/><path fill-rule="evenodd" d="m342.2 655.4v1.7h-14.3q0.2 2.2 1.5 3.3 1.4 1 3.8 1 1.9 0 3.9-0.5 2-0.6 4.2-1.8v4.7q-2.2 0.9-4.4 1.3-2.1 0.4-4.3 0.4-5.2 0-8.1-2.6-2.9-2.7-2.9-7.4 0-4.7 2.9-7.4 2.8-2.7 7.7-2.7 4.6 0 7.3 2.7 2.7 2.7 2.7 7.3zm-6.3-2.1q0-1.7-1-2.8-1-1-2.7-1-1.8 0-2.9 1-1.1 1-1.4 2.8z"/><path  d="m366.1 653.3v11.7h-6.2v-8.9q0-2.5-0.1-3.4-0.1-1-0.4-1.4-0.4-0.6-1-1-0.6-0.3-1.4-0.3-1.9 0-3 1.5-1.1 1.5-1.1 4.1v9.4h-6.1v-19.1h6.1v2.8q1.4-1.7 3-2.5 1.5-0.8 3.4-0.8 3.3 0 5 2 1.8 2.1 1.8 5.9z"/><path  d="m385.9 651.1q-0.8-0.4-1.5-0.6-0.8-0.2-1.6-0.2-2.4 0-3.7 1.6-1.2 1.5-1.2 4.3v8.8h-6.2v-19.1h6.2v3.1q1.1-1.9 2.7-2.7 1.5-0.9 3.6-0.9 0.3 0 0.7 0 0.3 0.1 1 0.1z"/><path fill-rule="evenodd" d="m406.9 654.1v10.9h-6.1v-2.8q-1.3 1.7-2.8 2.5-1.6 0.8-3.8 0.8-2.9 0-4.8-1.7-1.9-1.8-1.8-4.5 0-3.4 2.3-5 2.3-1.5 7.2-1.5h3.7v-0.5q0-1.5-1.2-2.2-1.1-0.6-3.6-0.6-1.9 0-3.6 0.4-1.7 0.4-3.2 1.1v-4.6q2-0.5 4-0.8 2-0.2 3.9-0.2 5.2 0 7.5 2 2.3 2.1 2.3 6.7zm-9.3 2.3q-1.9 0-2.9 0.6-1 0.7-1 2 0 1.1 0.8 1.8 0.8 0.6 2.2 0.6 1.7 0 2.9-1.2 1.2-1.2 1.2-3.1v-0.7z"/><path  d="m427.6 646.5v4.6q-2-0.8-3.8-1.2-1.9-0.4-3.5-0.4-1.7 0-2.6 0.4-0.8 0.4-0.8 1.3 0 0.8 0.6 1.2 0.7 0.4 2.3 0.6l1.1 0.1q4.7 0.6 6.3 2 1.6 1.3 1.6 4.3 0 3-2.2 4.6-2.3 1.5-6.7 1.5-2 0-4-0.3-2-0.3-4.1-0.9v-4.6q1.8 0.8 3.7 1.3 1.9 0.4 3.9 0.4 1.8 0 2.7-0.5 0.9-0.5 0.9-1.4 0-0.9-0.6-1.3-0.6-0.4-2.5-0.6l-1.1-0.1q-4-0.5-5.7-1.9-1.6-1.4-1.6-4.2 0-3.1 2.1-4.5 2-1.5 6.3-1.5 1.7 0 3.6 0.3 1.9 0.2 4.1 0.8z"/><path fill-rule="evenodd" d="m452.5 655.4v1.7h-14.3q0.3 2.2 1.6 3.3 1.3 1 3.7 1 2 0 4-0.5 2-0.6 4.1-1.8v4.7q-2.1 0.9-4.3 1.3-2.2 0.4-4.3 0.4-5.2 0-8.1-2.6-2.9-2.7-2.9-7.4 0-4.7 2.8-7.4 2.9-2.7 7.8-2.7 4.5 0 7.2 2.7 2.7 2.7 2.7 7.3zm-6.2-2.1q-0.1-1.7-1.1-2.8-1-1-2.6-1-1.8 0-2.9 1-1.1 1-1.4 2.8z"/><path  d="m471.4 651.1q-0.8-0.4-1.6-0.6-0.8-0.2-1.6-0.2-2.4 0-3.6 1.6-1.3 1.5-1.3 4.3v8.8h-6.1v-19.1h6.1v3.1q1.2-1.9 2.7-2.7 1.5-0.9 3.7-0.9 0.3 0 0.6 0 0.4 0.1 1.1 0.1z"/><path  d="m16.5 673.4v4h-3.3q-1.3 0-1.9 0.5-0.5 0.5-0.5 1.6v1.4h5.3v4.3h-5.3v14.8h-6.1v-14.8h-3v-4.3h3v-1.4q0-3.1 1.7-4.6 1.8-1.5 5.5-1.5z"/><path  d="m33.4 686.1q-0.8-0.4-1.6-0.6-0.8-0.2-1.6-0.2-2.4 0-3.6 1.6-1.3 1.5-1.3 4.3v8.8h-6.1v-19.1h6.1v3.1q1.2-1.9 2.7-2.7 1.5-0.9 3.7-0.9 0.3 0 0.6 0 0.4 0.1 1.1 0.1z"/><path fill-rule="evenodd" d="m45.5 680.4q5 0 7.8 2.7 2.7 2.6 2.7 7.4 0 4.7-2.7 7.3-2.8 2.7-7.8 2.7-4.9 0-7.7-2.7-2.8-2.6-2.8-7.3 0-4.8 2.8-7.4 2.8-2.7 7.7-2.7zm0 4.4q-2 0-3.1 1.4-1 1.5-1 4.3 0 2.7 1 4.2 1.1 1.4 3.1 1.4 2 0 3.1-1.4 1.1-1.5 1.1-4.2 0-2.8-1.1-4.3-1.1-1.4-3.1-1.4z"/><path  d="m78.2 684q1.2-1.7 2.8-2.7 1.6-0.9 3.5-0.9 3.3 0 5 2 1.7 2.1 1.7 5.9v11.7h-6.1v-10q0-0.2 0-0.4 0-0.3 0-0.7 0-2.1-0.6-3-0.6-0.9-1.9-0.9-1.8 0-2.7 1.5-1 1.4-1 4.1v9.4h-6.1v-10q0-3.2-0.6-4.1-0.5-0.9-1.9-0.9-1.8 0-2.8 1.5-0.9 1.4-0.9 4.1v9.4h-6.2v-19.1h6.2v2.8q1.1-1.7 2.6-2.5 1.4-0.8 3.2-0.8 2 0 3.5 1 1.5 0.9 2.3 2.6z"/><path  d="m115.8 675.4v5.5h6.3v4.3h-6.3v8.2q0 1.3 0.5 1.8 0.6 0.4 2.1 0.4h3.2v4.4h-5.3q-3.6 0-5.1-1.5-1.5-1.5-1.5-5.1v-8.2h-3v-4.3h3v-5.5z"/><path  d="m145.1 688.3v11.7h-6.2v-8.9q0-2.5-0.1-3.4-0.1-1-0.4-1.4-0.3-0.6-0.9-1-0.6-0.3-1.4-0.3-1.9 0-3 1.5-1.1 1.5-1.1 4.1v9.4h-6.1v-26.6h6.1v10.3q1.4-1.7 2.9-2.5 1.6-0.8 3.5-0.8 3.3 0 5 2 1.7 2.1 1.7 5.9z"/><path fill-rule="evenodd" d="m169.9 690.4v1.7h-14.3q0.2 2.2 1.5 3.3 1.4 1 3.8 1 1.9 0 3.9-0.5 2-0.6 4.2-1.8v4.7q-2.2 0.9-4.4 1.3-2.1 0.4-4.3 0.4-5.2 0-8.1-2.6-2.9-2.7-2.9-7.4 0-4.7 2.9-7.4 2.8-2.7 7.7-2.7 4.6 0 7.3 2.7 2.7 2.7 2.7 7.3zm-6.3-2.1q0-1.7-1-2.8-1-1-2.7-1-1.8 0-2.9 1-1.1 1-1.4 2.8z"/><path  d="m187 674.5h7.3l9.3 17.5v-17.5h6.2v25.5h-7.3l-9.3-17.5v17.5h-6.2z"/><path fill-rule="evenodd" d="m225.1 680.4q4.9 0 7.7 2.7 2.8 2.6 2.8 7.4 0 4.7-2.8 7.3-2.8 2.7-7.7 2.7-5 0-7.8-2.7-2.8-2.6-2.7-7.3-0.1-4.8 2.7-7.4 2.8-2.7 7.8-2.7zm0 4.4q-2 0-3.1 1.4-1.1 1.5-1.1 4.3 0 2.7 1.1 4.2 1.1 1.4 3.1 1.4 2 0 3.1-1.4 1-1.5 1-4.2 0-2.8-1-4.3-1.1-1.4-3.1-1.4z"/><path  d="m239.8 692.5v-11.6h6.2v1.9q0 1.5 0 3.9 0 2.3 0 3.1 0 2.3 0.1 3.3 0.1 1.1 0.4 1.5 0.4 0.6 1 0.9 0.6 0.4 1.4 0.4 1.9 0 3-1.5 1.1-1.5 1.1-4.1v-9.4h6.1v19.1h-6.1v-2.8q-1.4 1.7-3 2.5-1.5 0.8-3.4 0.8-3.3 0-5-2-1.8-2.1-1.8-6z"/><path  d="m284.2 688.3v11.7h-6.2v-8.9q0-2.5-0.1-3.4-0.1-1-0.4-1.4-0.3-0.6-0.9-1-0.6-0.3-1.4-0.3-1.9 0-3 1.5-1.1 1.5-1.1 4.1v9.4h-6.2v-19.1h6.2v2.8q1.3-1.7 2.9-2.5 1.6-0.8 3.4-0.8 3.4 0 5.1 2 1.7 2.1 1.7 5.9z"/><path fill-rule="evenodd" d="m302.3 674.5h11q4.8 0 7.4 2.2 2.6 2.1 2.6 6.1 0 4-2.6 6.2-2.6 2.1-7.4 2.1h-4.4v8.9h-6.6zm6.6 4.8v7.1h3.7q1.9 0 2.9-0.9 1.1-1 1.1-2.7 0-1.7-1.1-2.6-1-0.9-2.9-0.9z"/><path  d="m341.9 686.1q-0.8-0.4-1.6-0.6-0.8-0.2-1.6-0.2-2.3 0-3.6 1.6-1.3 1.5-1.3 4.3v8.8h-6.1v-19.1h6.1v3.1q1.2-1.9 2.7-2.7 1.6-0.9 3.7-0.9 0.3 0 0.7 0 0.3 0.1 1 0.1z"/><path fill-rule="evenodd" d="m354.1 680.4q4.9 0 7.7 2.7 2.8 2.6 2.8 7.4 0 4.7-2.8 7.3-2.8 2.7-7.7 2.7-5 0-7.8-2.7-2.8-2.6-2.8-7.3 0-4.8 2.8-7.4 2.8-2.7 7.8-2.7zm0 4.4q-2.1 0-3.1 1.4-1.1 1.5-1.1 4.3 0 2.7 1.1 4.2 1 1.4 3.1 1.4 2 0 3-1.4 1.1-1.5 1.1-4.2 0-2.8-1.1-4.3-1-1.4-3-1.4z"/><path  d="m369 680.9h6.1v18.8q0 3.8-1.8 5.8-1.9 2-5.4 2h-3v-4h1.1q1.7 0 2.4-0.8 0.6-0.7 0.6-3zm0-7.5h6.1v5h-6.1z"/><path fill-rule="evenodd" d="m400.1 690.4v1.7h-14.3q0.2 2.2 1.6 3.3 1.3 1 3.7 1 1.9 0 3.9-0.5 2.1-0.6 4.2-1.8v4.7q-2.2 0.9-4.3 1.3-2.2 0.4-4.4 0.4-5.2 0-8.1-2.6-2.8-2.7-2.8-7.4 0-4.7 2.8-7.4 2.8-2.7 7.8-2.7 4.5 0 7.2 2.7 2.7 2.7 2.7 7.3zm-6.3-2.1q0-1.7-1-2.8-1-1-2.7-1-1.7 0-2.8 1-1.2 1-1.4 2.8z"/><path  d="m420.2 681.5v5q-1.2-0.9-2.5-1.3-1.3-0.4-2.6-0.4-2.6 0-4 1.5-1.4 1.5-1.4 4.2 0 2.6 1.4 4.1 1.4 1.5 4 1.5 1.4 0 2.7-0.4 1.3-0.4 2.4-1.3v5q-1.4 0.6-2.9 0.8-1.5 0.3-3 0.3-5.2 0-8.1-2.7-2.9-2.6-2.9-7.3 0-4.8 2.9-7.4 2.9-2.7 8.1-2.7 1.5 0 3 0.3 1.5 0.2 2.9 0.8z"/><path  d="m432.2 675.4v5.5h6.3v4.3h-6.3v8.2q0 1.3 0.5 1.8 0.5 0.4 2.1 0.4h3.1v4.4h-5.2q-3.6 0-5.1-1.5-1.5-1.5-1.5-5.1v-8.2h-3.1v-4.3h3.1v-5.5z"/></svg>