<?xml version="1.0" encoding="UTF-8"?>
<svg width="100pt" height="100pt" version="1.1" viewBox="0 0 100 100" xmlns="http://www.w3.org/2000/svg">
 <g>
  <path d="m30.047 36.406c-0.17578 14.957-0.35547 29.914-0.53125 44.871-0.035156 3.0938 4.7695 3.0977 4.8086 0 0.17578-14.957 0.35547-29.914 0.53125-44.871 0.039062-3.0938-4.7695-3.0938-4.8086 0z"/>
  <path d="m23.477 17.301c10.012-0.03125 20.027-0.0625 30.039-0.089843 5.0078-0.015626 10.012-0.03125 15.02-0.046876 3.1562-0.007812 16.895 0.85547 8.4219 5.2656-2.9023 1.5117-11.457-0.33203-14.781-0.46875-4.9258-0.20313-9.8516-0.45313-14.781-0.64844-9.8555-0.38672-19.688-0.54688-29.547-0.14844l2.4023 2.4023c-0.86719-2.3711-0.12109-4.3164 2.2344-5.8359 3.0938 0.011719 3.0977-4.7969 0-4.8086-7.2188-0.027344-7.8438 4.2031-7.043 10.645 0.15625 1.25 0.97656 2.4609 2.4023 2.4023 16.035-0.64453 32.004 0.34766 48.02 0.94531 6.0898 0.22656 18.066 3.8672 18.84-4.5352 0.9375-10.203-4.0078-10.066-12.422-10.039-16.262 0.054687-32.535 0.10547-48.805 0.15234-3.0938 0.011718-3.1016 4.8164 0 4.8086z"/>
  <path d="m37.211 12.457c-1.0938-5.8633 8.6484-5.0508 12.719-5.1016 2.168-0.027344 4.4492-0.20703 6.5977 0.023437 3.1016 0.33594 5.0352-0.089844 5.293 3.8672 0.19922 3.0703 5.0117 3.0938 4.8086 0-0.18359-2.8242-0.72656-6.6836-3.5352-8.1641-1.7617-0.92969-4.6875-0.48438-6.5664-0.50781-3.2969-0.042969-6.5977-0.058594-9.8945 0.046875-8.5078 0.27734-16 0.71484-14.062 11.117 0.57031 3.0352 5.2031 1.75 4.6406-1.2812z"/>
  <path d="m76.375 26.789c-0.011719 13.469-0.019531 26.938-0.03125 40.406-0.007812 7.8125 2.2305 21.262-8.2148 23.52-5.8789 1.2695-13.062-0.054688-19.121 0.35547-5.2969 0.35938-12.879 2.8633-18.055 1.418-10.059-2.8086-7.4141-15.824-7.5938-23.844-0.3125-13.895-0.16016-27.797-0.019531-41.691 0.03125-3.0938-4.7773-3.0977-4.8086 0-0.20312 19.84-1.9023 40.914 0.75781 60.621 2.0117 14.906 20.961 8.7773 31.449 8.2109 11.402-0.61328 27.27 3.9531 29.992-10.953 1.5625-8.5586 0.41797-18.152 0.42188-26.824 0.007812-10.406 0.015625-20.816 0.023437-31.223 0.007813-3.0898-4.7969-3.0977-4.8008 0.003906z"/>
  <path d="m41.793 37.211c-0.10547 14.371-0.21094 28.738-0.31641 43.109-0.023437 3.0938 4.7852 3.0977 4.8086 0 0.10547-14.371 0.21094-28.738 0.31641-43.109 0.019532-3.0977-4.7891-3.0977-4.8086 0z"/>
  <path d="m53.445 36.727v45.352c0 3.0938 4.8086 3.0977 4.8086 0v-45.352c-0.003906-3.0938-4.8086-3.0977-4.8086 0z"/>
  <path d="m64.625 37.211c0.28125 14.527 0.5625 29.059 0.84375 43.586 0.058594 3.0898 4.8672 3.1016 4.8086 0-0.28125-14.527-0.5625-29.059-0.84375-43.586-0.0625-3.0898-4.8672-3.0977-4.8086 0z"/>
 </g>
</svg>
