<svg width="23" height="25" viewBox="0 0 23 25" fill="none" xmlns="http://www.w3.org/2000/svg">
<path d="M1 6.14286H21.5714" stroke="#E5E5E5" stroke-width="1.71429" stroke-linecap="round" stroke-linejoin="round"/>
<path d="M3.57143 6.14286H19V21.5714C19 22.0261 18.8194 22.4621 18.4979 22.7836C18.1764 23.1051 17.7404 23.2857 17.2857 23.2857H5.28571C4.83106 23.2857 4.39502 23.1051 4.07353 22.7836C3.75204 22.4621 3.57143 22.0261 3.57143 21.5714V6.14286Z" stroke="#E5E5E5" stroke-width="1.71429" stroke-linecap="round" stroke-linejoin="round"/>
<path d="M7 6.14286V5.28571C7 4.14907 7.45153 3.05898 8.25526 2.25526C9.05898 1.45153 10.1491 1 11.2857 1C12.4224 1 13.5124 1.45153 14.3162 2.25526C15.1199 3.05898 15.5714 4.14907 15.5714 5.28571V6.14286" stroke="#E5E5E5" stroke-width="1.71429" stroke-linecap="round" stroke-linejoin="round"/>
<path d="M8.71429 9.57143V19" stroke="#E5E5E5" stroke-width="1.71429" stroke-linecap="round" stroke-linejoin="round"/>
<path d="M13.8571 9.57143V19" stroke="#E5E5E5" stroke-width="1.71429" stroke-linecap="round" stroke-linejoin="round"/>
</svg>
