<svg width="3691" height="1191" viewBox="0 0 3691 1191" fill="none" xmlns="http://www.w3.org/2000/svg">
<rect x="14" y="242" width="3461.39" height="934.513" rx="40" fill="white" stroke="#A9D7CC" stroke-width="28" stroke-dasharray="56 56"/>
<rect x="115" y="119" width="3461.39" height="934.513" rx="40" fill="white" stroke="#A9D7CC" stroke-width="28" stroke-dasharray="56 56"/>
<rect x="215.039" y="14" width="3461.39" height="934.513" rx="40" fill="white" stroke="#A9D7CC" stroke-width="28" stroke-dasharray="48 48"/>
<path d="M1090.78 441V317.1H1109.72L1187.43 412.503H1178.04V317.1H1200.88V441H1181.94L1104.24 345.597H1113.62V441H1090.78ZM1270.57 442.155C1261.55 442.155 1253.52 440.23 1246.48 436.38C1239.44 432.42 1233.88 427.03 1229.81 420.21C1225.74 413.39 1223.71 405.635 1223.71 396.945C1223.71 388.145 1225.74 380.39 1229.81 373.68C1233.88 366.86 1239.44 361.525 1246.48 357.675C1253.52 353.825 1261.55 351.9 1270.57 351.9C1279.7 351.9 1287.78 353.825 1294.82 357.675C1301.97 361.525 1307.53 366.805 1311.49 373.515C1315.56 380.225 1317.59 388.035 1317.59 396.945C1317.59 405.635 1315.56 413.39 1311.49 420.21C1307.53 427.03 1301.97 432.42 1294.82 436.38C1287.78 440.23 1279.7 442.155 1270.57 442.155ZM1270.57 424.5C1275.63 424.5 1280.14 423.4 1284.1 421.2C1288.06 419 1291.14 415.81 1293.34 411.63C1295.65 407.45 1296.8 402.555 1296.8 396.945C1296.8 391.225 1295.65 386.33 1293.34 382.26C1291.14 378.08 1288.06 374.89 1284.1 372.69C1280.14 370.49 1275.68 369.39 1270.73 369.39C1265.67 369.39 1261.16 370.49 1257.2 372.69C1253.35 374.89 1250.27 378.08 1247.96 382.26C1245.65 386.33 1244.5 391.225 1244.5 396.945C1244.5 402.555 1245.65 407.45 1247.96 411.63C1250.27 415.81 1253.35 419 1257.2 421.2C1261.16 423.4 1265.62 424.5 1270.57 424.5ZM1416.08 442.155C1406.4 442.155 1398.92 439.68 1393.64 434.73C1388.36 429.67 1385.72 422.245 1385.72 412.455V333.42H1406.35V411.96C1406.35 416.14 1407.39 419.385 1409.48 421.695C1411.68 424.005 1414.71 425.16 1418.56 425.16C1423.18 425.16 1427.03 423.95 1430.11 421.53L1435.88 436.215C1433.46 438.195 1430.49 439.68 1426.97 440.67C1423.45 441.66 1419.82 442.155 1416.08 442.155ZM1371.2 370.05V353.55H1429.94V370.05H1371.2ZM1489.55 442.155C1480.53 442.155 1472.5 440.23 1465.46 436.38C1458.42 432.42 1452.86 427.03 1448.79 420.21C1444.72 413.39 1442.69 405.635 1442.69 396.945C1442.69 388.145 1444.72 380.39 1448.79 373.68C1452.86 366.86 1458.42 361.525 1465.46 357.675C1472.5 353.825 1480.53 351.9 1489.55 351.9C1498.68 351.9 1506.76 353.825 1513.8 357.675C1520.95 361.525 1526.51 366.805 1530.47 373.515C1534.54 380.225 1536.57 388.035 1536.57 396.945C1536.57 405.635 1534.54 413.39 1530.47 420.21C1526.51 427.03 1520.95 432.42 1513.8 436.38C1506.76 440.23 1498.68 442.155 1489.55 442.155ZM1489.55 424.5C1494.61 424.5 1499.12 423.4 1503.08 421.2C1507.04 419 1510.12 415.81 1512.32 411.63C1514.63 407.45 1515.78 402.555 1515.78 396.945C1515.78 391.225 1514.63 386.33 1512.32 382.26C1510.12 378.08 1507.04 374.89 1503.08 372.69C1499.12 370.49 1494.66 369.39 1489.71 369.39C1484.65 369.39 1480.14 370.49 1476.18 372.69C1472.33 374.89 1469.25 378.08 1466.94 382.26C1464.63 386.33 1463.48 391.225 1463.48 396.945C1463.48 402.555 1464.63 407.45 1466.94 411.63C1469.25 415.81 1472.33 419 1476.18 421.2C1480.14 423.4 1484.6 424.5 1489.55 424.5ZM1593.59 442.155C1585.12 442.155 1577.47 440.285 1570.65 436.545C1563.94 432.695 1558.66 427.415 1554.81 420.705C1550.96 413.995 1549.04 406.075 1549.04 396.945C1549.04 387.815 1550.96 379.895 1554.81 373.185C1558.66 366.475 1563.94 361.25 1570.65 357.51C1577.47 353.77 1585.12 351.9 1593.59 351.9C1600.96 351.9 1607.56 353.55 1613.39 356.85C1619.22 360.04 1623.84 364.935 1627.25 371.535C1630.66 378.135 1632.36 386.605 1632.36 396.945C1632.36 407.175 1630.71 415.645 1627.41 422.355C1624.11 428.955 1619.55 433.905 1613.72 437.205C1607.89 440.505 1601.18 442.155 1593.59 442.155ZM1596.06 424.5C1601.01 424.5 1605.41 423.4 1609.26 421.2C1613.22 419 1616.36 415.81 1618.67 411.63C1621.09 407.45 1622.3 402.555 1622.3 396.945C1622.3 391.225 1621.09 386.33 1618.67 382.26C1616.36 378.08 1613.22 374.89 1609.26 372.69C1605.41 370.49 1601.01 369.39 1596.06 369.39C1591.11 369.39 1586.66 370.49 1582.7 372.69C1578.85 374.89 1575.71 378.08 1573.29 382.26C1570.98 386.33 1569.83 391.225 1569.83 396.945C1569.83 402.555 1570.98 407.45 1573.29 411.63C1575.71 415.81 1578.85 419 1582.7 421.2C1586.66 423.4 1591.11 424.5 1596.06 424.5ZM1622.79 441V420.21L1623.62 396.78L1621.97 373.35V318.57H1642.43V441H1622.79ZM1709.17 442.155C1700.15 442.155 1692.12 440.23 1685.08 436.38C1678.04 432.42 1672.49 427.03 1668.42 420.21C1664.35 413.39 1662.31 405.635 1662.31 396.945C1662.31 388.145 1664.35 380.39 1668.42 373.68C1672.49 366.86 1678.04 361.525 1685.08 357.675C1692.12 353.825 1700.15 351.9 1709.17 351.9C1718.3 351.9 1726.39 353.825 1733.43 357.675C1740.58 361.525 1746.13 366.805 1750.09 373.515C1754.16 380.225 1756.2 388.035 1756.2 396.945C1756.2 405.635 1754.16 413.39 1750.09 420.21C1746.13 427.03 1740.58 432.42 1733.43 436.38C1726.39 440.23 1718.3 442.155 1709.17 442.155ZM1709.17 424.5C1714.23 424.5 1718.74 423.4 1722.7 421.2C1726.66 419 1729.74 415.81 1731.94 411.63C1734.25 407.45 1735.41 402.555 1735.41 396.945C1735.41 391.225 1734.25 386.33 1731.94 382.26C1729.74 378.08 1726.66 374.89 1722.7 372.69C1718.74 370.49 1714.29 369.39 1709.34 369.39C1704.28 369.39 1699.77 370.49 1695.81 372.69C1691.96 374.89 1688.88 378.08 1686.57 382.26C1684.26 386.33 1683.1 391.225 1683.1 396.945C1683.1 402.555 1684.26 407.45 1686.57 411.63C1688.88 415.81 1691.96 419 1695.81 421.2C1699.77 423.4 1704.22 424.5 1709.17 424.5ZM1803.15 442.155C1795.78 442.155 1788.68 441.22 1781.86 439.35C1775.15 437.37 1769.82 435.005 1765.86 432.255L1773.78 416.58C1777.74 419.11 1782.47 421.2 1787.97 422.85C1793.47 424.5 1798.97 425.325 1804.47 425.325C1810.96 425.325 1815.63 424.445 1818.49 422.685C1821.46 420.925 1822.95 418.56 1822.95 415.59C1822.95 413.17 1821.96 411.355 1819.98 410.145C1818 408.825 1815.41 407.835 1812.22 407.175C1809.03 406.515 1805.46 405.91 1801.5 405.36C1797.65 404.81 1793.74 404.095 1789.78 403.215C1785.93 402.225 1782.41 400.85 1779.22 399.09C1776.03 397.22 1773.45 394.745 1771.47 391.665C1769.49 388.585 1768.5 384.515 1768.5 379.455C1768.5 373.845 1770.09 369.005 1773.28 364.935C1776.47 360.755 1780.93 357.565 1786.65 355.365C1792.48 353.055 1799.35 351.9 1807.27 351.9C1813.21 351.9 1819.21 352.56 1825.26 353.88C1831.31 355.2 1836.31 357.07 1840.27 359.49L1832.35 375.165C1828.17 372.635 1823.94 370.93 1819.65 370.05C1815.47 369.06 1811.29 368.565 1807.11 368.565C1800.84 368.565 1796.16 369.5 1793.08 371.37C1790.11 373.24 1788.63 375.605 1788.63 378.465C1788.63 381.105 1789.62 383.085 1791.6 384.405C1793.58 385.725 1796.16 386.77 1799.35 387.54C1802.54 388.31 1806.06 388.97 1809.91 389.52C1813.87 389.96 1817.78 390.675 1821.63 391.665C1825.48 392.655 1829 394.03 1832.19 395.79C1835.49 397.44 1838.13 399.805 1840.11 402.885C1842.09 405.965 1843.08 409.98 1843.08 414.93C1843.08 420.43 1841.43 425.215 1838.13 429.285C1834.94 433.355 1830.37 436.545 1824.43 438.855C1818.49 441.055 1811.4 442.155 1803.15 442.155ZM1906.44 441V352.89H1927.06V441H1906.44ZM1916.83 338.37C1912.98 338.37 1909.79 337.16 1907.26 334.74C1904.84 332.32 1903.63 329.405 1903.63 325.995C1903.63 322.475 1904.84 319.56 1907.26 317.25C1909.79 314.83 1912.98 313.62 1916.83 313.62C1920.68 313.62 1923.82 314.775 1926.24 317.085C1928.77 319.285 1930.03 322.09 1930.03 325.5C1930.03 329.13 1928.82 332.21 1926.4 334.74C1923.98 337.16 1920.79 338.37 1916.83 338.37ZM2004.13 351.9C2011.17 351.9 2017.44 353.275 2022.94 356.025C2028.55 358.775 2032.95 363.01 2036.14 368.73C2039.33 374.34 2040.92 381.6 2040.92 390.51V441H2020.3V393.15C2020.3 385.34 2018.43 379.51 2014.69 375.66C2011.06 371.81 2005.94 369.885 1999.34 369.885C1994.5 369.885 1990.21 370.875 1986.47 372.855C1982.73 374.835 1979.82 377.805 1977.73 381.765C1975.75 385.615 1974.76 390.51 1974.76 396.45V441H1954.13V352.89H1973.77V376.65L1970.3 369.39C1973.38 363.78 1977.84 359.49 1983.67 356.52C1989.61 353.44 1996.43 351.9 2004.13 351.9ZM2119.95 474.165C2115.66 474.165 2111.37 473.45 2107.08 472.02C2102.79 470.59 2099.21 468.61 2096.35 466.08L2104.6 450.9C2106.69 452.77 2109.06 454.255 2111.7 455.355C2114.34 456.455 2117.03 457.005 2119.78 457.005C2123.52 457.005 2126.55 456.07 2128.86 454.2C2131.17 452.33 2133.31 449.195 2135.29 444.795L2140.41 433.245L2142.06 430.77L2175.39 352.89H2195.19L2153.94 448.095C2151.19 454.695 2148.11 459.92 2144.7 463.77C2141.4 467.62 2137.66 470.315 2133.48 471.855C2129.41 473.395 2124.9 474.165 2119.95 474.165ZM2138.1 444.135L2098.33 352.89H2119.78L2152.12 428.955L2138.1 444.135ZM2245.26 442.155C2236.24 442.155 2228.21 440.23 2221.17 436.38C2214.13 432.42 2208.58 427.03 2204.51 420.21C2200.44 413.39 2198.4 405.635 2198.4 396.945C2198.4 388.145 2200.44 380.39 2204.51 373.68C2208.58 366.86 2214.13 361.525 2221.17 357.675C2228.21 353.825 2236.24 351.9 2245.26 351.9C2254.39 351.9 2262.48 353.825 2269.52 357.675C2276.67 361.525 2282.22 366.805 2286.18 373.515C2290.25 380.225 2292.29 388.035 2292.29 396.945C2292.29 405.635 2290.25 413.39 2286.18 420.21C2282.22 427.03 2276.67 432.42 2269.52 436.38C2262.48 440.23 2254.39 442.155 2245.26 442.155ZM2245.26 424.5C2250.32 424.5 2254.83 423.4 2258.79 421.2C2262.75 419 2265.83 415.81 2268.03 411.63C2270.34 407.45 2271.5 402.555 2271.5 396.945C2271.5 391.225 2270.34 386.33 2268.03 382.26C2265.83 378.08 2262.75 374.89 2258.79 372.69C2254.83 370.49 2250.38 369.39 2245.43 369.39C2240.37 369.39 2235.86 370.49 2231.9 372.69C2228.05 374.89 2224.97 378.08 2222.66 382.26C2220.35 386.33 2219.19 391.225 2219.19 396.945C2219.19 402.555 2220.35 407.45 2222.66 411.63C2224.97 415.81 2228.05 419 2231.9 421.2C2235.86 423.4 2240.31 424.5 2245.26 424.5ZM2349.3 442.155C2341.82 442.155 2335.22 440.78 2329.5 438.03C2323.78 435.17 2319.32 430.88 2316.13 425.16C2312.94 419.33 2311.35 412.015 2311.35 403.215V352.89H2331.97V400.41C2331.97 408.33 2333.73 414.27 2337.25 418.23C2340.88 422.08 2346 424.005 2352.6 424.005C2357.44 424.005 2361.62 423.015 2365.14 421.035C2368.77 419.055 2371.57 416.085 2373.55 412.125C2375.64 408.165 2376.69 403.27 2376.69 397.44V352.89H2397.31V441H2377.68V417.24L2381.14 424.5C2378.17 430.22 2373.83 434.62 2368.11 437.7C2362.39 440.67 2356.12 442.155 2349.3 442.155ZM2424.32 441V352.89H2443.95V377.145L2441.64 370.05C2444.28 364.11 2448.41 359.6 2454.02 356.52C2459.74 353.44 2466.83 351.9 2475.3 351.9V371.535C2474.42 371.315 2473.6 371.205 2472.83 371.205C2472.06 371.095 2471.29 371.04 2470.52 371.04C2462.71 371.04 2456.49 373.35 2451.87 377.97C2447.25 382.48 2444.94 389.245 2444.94 398.265V441H2424.32ZM2539.21 441V318.57H2559.83V441H2539.21ZM2586.9 441V352.89H2607.53V441H2586.9ZM2597.3 338.37C2593.45 338.37 2590.26 337.16 2587.73 334.74C2585.31 332.32 2584.1 329.405 2584.1 325.995C2584.1 322.475 2585.31 319.56 2587.73 317.25C2590.26 314.83 2593.45 313.62 2597.3 313.62C2601.15 313.62 2604.28 314.775 2606.7 317.085C2609.23 319.285 2610.5 322.09 2610.5 325.5C2610.5 329.13 2609.29 332.21 2606.87 334.74C2604.45 337.16 2601.26 338.37 2597.3 338.37ZM2661.82 442.155C2654.45 442.155 2647.36 441.22 2640.54 439.35C2633.83 437.37 2628.49 435.005 2624.53 432.255L2632.45 416.58C2636.41 419.11 2641.14 421.2 2646.64 422.85C2652.14 424.5 2657.64 425.325 2663.14 425.325C2669.63 425.325 2674.31 424.445 2677.17 422.685C2680.14 420.925 2681.62 418.56 2681.62 415.59C2681.62 413.17 2680.63 411.355 2678.65 410.145C2676.67 408.825 2674.09 407.835 2670.9 407.175C2667.71 406.515 2664.13 405.91 2660.17 405.36C2656.32 404.81 2652.42 404.095 2648.46 403.215C2644.61 402.225 2641.09 400.85 2637.9 399.09C2634.71 397.22 2632.12 394.745 2630.14 391.665C2628.16 388.585 2627.17 384.515 2627.17 379.455C2627.17 373.845 2628.77 369.005 2631.96 364.935C2635.15 360.755 2639.6 357.565 2645.32 355.365C2651.15 353.055 2658.03 351.9 2665.95 351.9C2671.89 351.9 2677.88 352.56 2683.93 353.88C2689.98 355.2 2694.99 357.07 2698.95 359.49L2691.03 375.165C2686.85 372.635 2682.61 370.93 2678.32 370.05C2674.14 369.06 2669.96 368.565 2665.78 368.565C2659.51 368.565 2654.84 369.5 2651.76 371.37C2648.79 373.24 2647.3 375.605 2647.3 378.465C2647.3 381.105 2648.29 383.085 2650.27 384.405C2652.25 385.725 2654.84 386.77 2658.03 387.54C2661.22 388.31 2664.74 388.97 2668.59 389.52C2672.55 389.96 2676.45 390.675 2680.3 391.665C2684.15 392.655 2687.67 394.03 2690.86 395.79C2694.16 397.44 2696.8 399.805 2698.78 402.885C2700.76 405.965 2701.75 409.98 2701.75 414.93C2701.75 420.43 2700.1 425.215 2696.8 429.285C2693.61 433.355 2689.05 436.545 2683.11 438.855C2677.17 441.055 2670.07 442.155 2661.82 442.155ZM2752.68 442.155C2743 442.155 2735.52 439.68 2730.24 434.73C2724.96 429.67 2722.32 422.245 2722.32 412.455V333.42H2742.94V411.96C2742.94 416.14 2743.99 419.385 2746.08 421.695C2748.28 424.005 2751.3 425.16 2755.15 425.16C2759.77 425.16 2763.62 423.95 2766.7 421.53L2772.48 436.215C2770.06 438.195 2767.09 439.68 2763.57 440.67C2760.05 441.66 2756.42 442.155 2752.68 442.155ZM2707.8 370.05V353.55H2766.54V370.05H2707.8ZM2797.66 442.155C2793.92 442.155 2790.73 440.89 2788.09 438.36C2785.45 435.72 2784.13 432.42 2784.13 428.46C2784.13 424.28 2785.45 420.98 2788.09 418.56C2790.73 416.03 2793.92 414.765 2797.66 414.765C2801.4 414.765 2804.59 416.03 2807.23 418.56C2809.87 420.98 2811.19 424.28 2811.19 428.46C2811.19 432.42 2809.87 435.72 2807.23 438.36C2804.59 440.89 2801.4 442.155 2797.66 442.155ZM1372.55 642V526.5H1394V623.85H1454.39V642H1372.55ZM1509.95 643.155C1500.16 643.155 1491.58 641.23 1484.21 637.38C1476.95 633.42 1471.29 628.03 1467.22 621.21C1463.26 614.39 1461.28 606.635 1461.28 597.945C1461.28 589.145 1463.2 581.39 1467.05 574.68C1471.01 567.86 1476.4 562.525 1483.22 558.675C1490.15 554.825 1498.02 552.9 1506.82 552.9C1515.4 552.9 1523.04 554.77 1529.75 558.51C1536.46 562.25 1541.74 567.53 1545.59 574.35C1549.44 581.17 1551.37 589.2 1551.37 598.44C1551.37 599.32 1551.31 600.31 1551.2 601.41C1551.2 602.51 1551.15 603.555 1551.04 604.545H1477.61V590.85H1540.15L1532.06 595.14C1532.17 590.08 1531.13 585.625 1528.93 581.775C1526.73 577.925 1523.7 574.9 1519.85 572.7C1516.11 570.5 1511.77 569.4 1506.82 569.4C1501.76 569.4 1497.3 570.5 1493.45 572.7C1489.71 574.9 1486.74 577.98 1484.54 581.94C1482.45 585.79 1481.41 590.355 1481.41 595.635V598.935C1481.41 604.215 1482.62 608.89 1485.04 612.96C1487.46 617.03 1490.87 620.165 1495.27 622.365C1499.67 624.565 1504.73 625.665 1510.45 625.665C1515.4 625.665 1519.85 624.895 1523.81 623.355C1527.77 621.815 1531.29 619.395 1534.37 616.095L1545.43 628.8C1541.47 633.42 1536.46 636.995 1530.41 639.525C1524.47 641.945 1517.65 643.155 1509.95 643.155ZM1604.34 643.155C1594.66 643.155 1587.18 640.68 1581.9 635.73C1576.62 630.67 1573.98 623.245 1573.98 613.455V534.42H1594.61V612.96C1594.61 617.14 1595.65 620.385 1597.74 622.695C1599.94 625.005 1602.97 626.16 1606.82 626.16C1611.44 626.16 1615.29 624.95 1618.37 622.53L1624.14 637.215C1621.72 639.195 1618.75 640.68 1615.23 641.67C1611.71 642.66 1608.08 643.155 1604.34 643.155ZM1559.46 571.05V554.55H1618.2V571.05H1559.46ZM1638.14 572.205L1636.82 526.5H1654.64L1653.16 572.205H1638.14ZM1704.59 643.155C1697.22 643.155 1690.12 642.22 1683.3 640.35C1676.59 638.37 1671.26 636.005 1667.3 633.255L1675.22 617.58C1679.18 620.11 1683.91 622.2 1689.41 623.85C1694.91 625.5 1700.41 626.325 1705.91 626.325C1712.4 626.325 1717.07 625.445 1719.93 623.685C1722.9 621.925 1724.39 619.56 1724.39 616.59C1724.39 614.17 1723.4 612.355 1721.42 611.145C1719.44 609.825 1716.85 608.835 1713.66 608.175C1710.47 607.515 1706.9 606.91 1702.94 606.36C1699.09 605.81 1695.18 605.095 1691.22 604.215C1687.37 603.225 1683.85 601.85 1680.66 600.09C1677.47 598.22 1674.89 595.745 1672.91 592.665C1670.93 589.585 1669.94 585.515 1669.94 580.455C1669.94 574.845 1671.53 570.005 1674.72 565.935C1677.91 561.755 1682.37 558.565 1688.09 556.365C1693.92 554.055 1700.79 552.9 1708.71 552.9C1714.65 552.9 1720.65 553.56 1726.7 554.88C1732.75 556.2 1737.75 558.07 1741.71 560.49L1733.79 576.165C1729.61 573.635 1725.38 571.93 1721.09 571.05C1716.91 570.06 1712.73 569.565 1708.55 569.565C1702.28 569.565 1697.6 570.5 1694.52 572.37C1691.55 574.24 1690.07 576.605 1690.07 579.465C1690.07 582.105 1691.06 584.085 1693.04 585.405C1695.02 586.725 1697.6 587.77 1700.79 588.54C1703.98 589.31 1707.5 589.97 1711.35 590.52C1715.31 590.96 1719.22 591.675 1723.07 592.665C1726.92 593.655 1730.44 595.03 1733.63 596.79C1736.93 598.44 1739.57 600.805 1741.55 603.885C1743.53 606.965 1744.52 610.98 1744.52 615.93C1744.52 621.43 1742.87 626.215 1739.57 630.285C1736.38 634.355 1731.81 637.545 1725.87 639.855C1719.93 642.055 1712.84 643.155 1704.59 643.155ZM1862.17 642V624.18L1861.01 620.385V589.2C1861.01 583.15 1859.2 578.475 1855.57 575.175C1851.94 571.765 1846.44 570.06 1839.07 570.06C1834.12 570.06 1829.22 570.83 1824.38 572.37C1819.65 573.91 1815.64 576.055 1812.34 578.805L1804.25 563.79C1808.98 560.16 1814.59 557.465 1821.08 555.705C1827.68 553.835 1834.5 552.9 1841.54 552.9C1854.3 552.9 1864.15 555.98 1871.08 562.14C1878.12 568.19 1881.64 577.595 1881.64 590.355V642H1862.17ZM1834.45 643.155C1827.85 643.155 1822.07 642.055 1817.12 639.855C1812.17 637.545 1808.32 634.41 1805.57 630.45C1802.93 626.38 1801.61 621.815 1801.61 616.755C1801.61 611.805 1802.77 607.35 1805.08 603.39C1807.5 599.43 1811.4 596.295 1816.79 593.985C1822.18 591.675 1829.33 590.52 1838.24 590.52H1863.82V604.215H1839.73C1832.69 604.215 1827.96 605.37 1825.54 607.68C1823.12 609.88 1821.91 612.63 1821.91 615.93C1821.91 619.67 1823.39 622.64 1826.36 624.84C1829.33 627.04 1833.46 628.14 1838.74 628.14C1843.8 628.14 1848.31 626.985 1852.27 624.675C1856.34 622.365 1859.25 618.955 1861.01 614.445L1864.48 626.82C1862.5 631.99 1858.92 636.005 1853.75 638.865C1848.69 641.725 1842.26 643.155 1834.45 643.155ZM1945.56 643.155C1937.09 643.155 1929.44 641.285 1922.62 637.545C1915.91 633.695 1910.63 628.415 1906.78 621.705C1902.93 614.995 1901.01 607.075 1901.01 597.945C1901.01 588.815 1902.93 580.895 1906.78 574.185C1910.63 567.475 1915.91 562.25 1922.62 558.51C1929.44 554.77 1937.09 552.9 1945.56 552.9C1952.93 552.9 1959.53 554.55 1965.36 557.85C1971.19 561.04 1975.81 565.935 1979.22 572.535C1982.63 579.135 1984.33 587.605 1984.33 597.945C1984.33 608.175 1982.68 616.645 1979.38 623.355C1976.08 629.955 1971.52 634.905 1965.69 638.205C1959.86 641.505 1953.15 643.155 1945.56 643.155ZM1948.03 625.5C1952.98 625.5 1957.38 624.4 1961.23 622.2C1965.19 620 1968.33 616.81 1970.64 612.63C1973.06 608.45 1974.27 603.555 1974.27 597.945C1974.27 592.225 1973.06 587.33 1970.64 583.26C1968.33 579.08 1965.19 575.89 1961.23 573.69C1957.38 571.49 1952.98 570.39 1948.03 570.39C1943.08 570.39 1938.63 571.49 1934.67 573.69C1930.82 575.89 1927.68 579.08 1925.26 583.26C1922.95 587.33 1921.8 592.225 1921.8 597.945C1921.8 603.555 1922.95 608.45 1925.26 612.63C1927.68 616.81 1930.82 620 1934.67 622.2C1938.63 624.4 1943.08 625.5 1948.03 625.5ZM1974.76 642V621.21L1975.59 597.78L1973.94 574.35V519.57H1994.4V642H1974.76ZM2058.83 643.155C2050.36 643.155 2042.72 641.285 2035.9 637.545C2029.19 633.695 2023.91 628.415 2020.06 621.705C2016.21 614.995 2014.28 607.075 2014.28 597.945C2014.28 588.815 2016.21 580.895 2020.06 574.185C2023.91 567.475 2029.19 562.25 2035.9 558.51C2042.72 554.77 2050.36 552.9 2058.83 552.9C2066.2 552.9 2072.8 554.55 2078.63 557.85C2084.46 561.04 2089.08 565.935 2092.49 572.535C2095.9 579.135 2097.61 587.605 2097.61 597.945C2097.61 608.175 2095.96 616.645 2092.66 623.355C2089.36 629.955 2084.79 634.905 2078.96 638.205C2073.13 641.505 2066.42 643.155 2058.83 643.155ZM2061.31 625.5C2066.26 625.5 2070.66 624.4 2074.51 622.2C2078.47 620 2081.6 616.81 2083.91 612.63C2086.33 608.45 2087.54 603.555 2087.54 597.945C2087.54 592.225 2086.33 587.33 2083.91 583.26C2081.6 579.08 2078.47 575.89 2074.51 573.69C2070.66 571.49 2066.26 570.39 2061.31 570.39C2056.36 570.39 2051.9 571.49 2047.94 573.69C2044.09 575.89 2040.96 579.08 2038.54 583.26C2036.23 587.33 2035.07 592.225 2035.07 597.945C2035.07 603.555 2036.23 608.45 2038.54 612.63C2040.96 616.81 2044.09 620 2047.94 622.2C2051.9 624.4 2056.36 625.5 2061.31 625.5ZM2088.04 642V621.21L2088.86 597.78L2087.21 574.35V519.57H2107.67V642H2088.04ZM2220.02 643.155C2211 643.155 2202.97 641.23 2195.93 637.38C2188.89 633.42 2183.34 628.03 2179.27 621.21C2175.2 614.39 2173.16 606.635 2173.16 597.945C2173.16 589.145 2175.2 581.39 2179.27 574.68C2183.34 567.86 2188.89 562.525 2195.93 558.675C2202.97 554.825 2211 552.9 2220.02 552.9C2229.15 552.9 2237.24 554.825 2244.28 558.675C2251.43 562.525 2256.98 567.805 2260.94 574.515C2265.01 581.225 2267.05 589.035 2267.05 597.945C2267.05 606.635 2265.01 614.39 2260.94 621.21C2256.98 628.03 2251.43 633.42 2244.28 637.38C2237.24 641.23 2229.15 643.155 2220.02 643.155ZM2220.02 625.5C2225.08 625.5 2229.59 624.4 2233.55 622.2C2237.51 620 2240.59 616.81 2242.79 612.63C2245.1 608.45 2246.26 603.555 2246.26 597.945C2246.26 592.225 2245.1 587.33 2242.79 583.26C2240.59 579.08 2237.51 575.89 2233.55 573.69C2229.59 571.49 2225.14 570.39 2220.19 570.39C2215.13 570.39 2210.62 571.49 2206.66 573.69C2202.81 575.89 2199.73 579.08 2197.42 583.26C2195.11 587.33 2193.95 592.225 2193.95 597.945C2193.95 603.555 2195.11 608.45 2197.42 612.63C2199.73 616.81 2202.81 620 2206.66 622.2C2210.62 624.4 2215.07 625.5 2220.02 625.5ZM2336.76 552.9C2343.8 552.9 2350.07 554.275 2355.57 557.025C2361.18 559.775 2365.58 564.01 2368.77 569.73C2371.96 575.34 2373.56 582.6 2373.56 591.51V642H2352.93V594.15C2352.93 586.34 2351.06 580.51 2347.32 576.66C2343.69 572.81 2338.58 570.885 2331.98 570.885C2327.14 570.885 2322.85 571.875 2319.11 573.855C2315.37 575.835 2312.45 578.805 2310.36 582.765C2308.38 586.615 2307.39 591.51 2307.39 597.45V642H2286.77V553.89H2306.4V577.65L2302.94 570.39C2306.02 564.78 2310.47 560.49 2316.3 557.52C2322.24 554.44 2329.06 552.9 2336.76 552.9ZM2441.3 643.155C2431.51 643.155 2422.93 641.23 2415.56 637.38C2408.3 633.42 2402.63 628.03 2398.56 621.21C2394.6 614.39 2392.62 606.635 2392.62 597.945C2392.62 589.145 2394.55 581.39 2398.4 574.68C2402.36 567.86 2407.75 562.525 2414.57 558.675C2421.5 554.825 2429.36 552.9 2438.16 552.9C2446.74 552.9 2454.39 554.77 2461.1 558.51C2467.81 562.25 2473.09 567.53 2476.94 574.35C2480.79 581.17 2482.71 589.2 2482.71 598.44C2482.71 599.32 2482.66 600.31 2482.55 601.41C2482.55 602.51 2482.49 603.555 2482.38 604.545H2408.96V590.85H2471.49L2463.41 595.14C2463.52 590.08 2462.47 585.625 2460.27 581.775C2458.07 577.925 2455.05 574.9 2451.2 572.7C2447.46 570.5 2443.11 569.4 2438.16 569.4C2433.1 569.4 2428.65 570.5 2424.8 572.7C2421.06 574.9 2418.09 577.98 2415.89 581.94C2413.8 585.79 2412.75 590.355 2412.75 595.635V598.935C2412.75 604.215 2413.96 608.89 2416.38 612.96C2418.8 617.03 2422.21 620.165 2426.61 622.365C2431.01 624.565 2436.07 625.665 2441.79 625.665C2446.74 625.665 2451.2 624.895 2455.16 623.355C2459.12 621.815 2462.64 619.395 2465.72 616.095L2476.77 628.8C2472.81 633.42 2467.81 636.995 2461.76 639.525C2455.82 641.945 2449 643.155 2441.3 643.155ZM2503.85 603.72L2499.89 526.5H2524.31L2520.18 603.72H2503.85ZM2512.1 643.155C2508.25 643.155 2505.06 641.89 2502.53 639.36C2500 636.83 2498.73 633.805 2498.73 630.285C2498.73 626.765 2500 623.795 2502.53 621.375C2505.06 618.845 2508.25 617.58 2512.1 617.58C2515.95 617.58 2519.08 618.845 2521.5 621.375C2523.92 623.795 2525.13 626.765 2525.13 630.285C2525.13 633.805 2523.92 636.83 2521.5 639.36C2519.08 641.89 2515.95 643.155 2512.1 643.155Z" fill="#B2D6CC"/>
</svg>
