<svg width="831" height="772" viewBox="0 0 831 772" fill="none" xmlns="http://www.w3.org/2000/svg">
<path d="M255.24 656.744L182.91 668.901C164.819 671.968 146.25 667.732 131.279 657.123C116.308 646.514 106.158 630.398 103.057 612.313L37.1112 205.617L397.759 145.093C397.95 145.03 398.111 144.899 398.213 144.726C398.315 144.553 398.35 144.348 398.313 144.151C398.275 143.953 398.168 143.776 398.01 143.652C397.851 143.527 397.654 143.465 397.453 143.475L36.8488 204.042L33.8752 185.676C30.7824 167.571 35.0062 148.98 45.6178 133.989C56.2293 118.999 72.3599 108.836 90.4628 105.736L607.317 19.0175C616.286 17.4552 625.476 17.6799 634.359 19.6786C643.241 21.6773 651.641 25.4108 659.077 30.6645C666.513 35.9183 672.838 42.589 677.688 50.2937C682.539 57.9984 685.821 66.5852 687.344 75.5614L690.405 94.3219L443.195 135.822C442.975 135.822 442.764 135.91 442.608 136.066C442.452 136.222 442.364 136.433 442.364 136.653C442.364 136.874 442.452 137.085 442.608 137.241C442.764 137.397 442.975 137.484 443.195 137.484C443.633 137.484 444.245 137.484 690.536 95.94L720.405 280.309L721.41 275.936L688.744 75.1241C685.559 56.6312 675.16 40.1604 659.832 29.335C644.504 18.5096 625.504 14.2163 607.011 17.3995L90.2004 104.205C71.6891 107.381 55.1932 117.77 44.3309 133.092C33.4685 148.414 29.1265 167.419 32.2571 185.938L101.352 612.619C104.528 631.131 114.917 647.626 130.239 658.489C145.561 669.351 164.565 673.693 183.085 670.563L255.415 658.405C255.636 658.382 255.838 658.272 255.977 658.1C256.117 657.928 256.182 657.707 256.159 657.487C256.136 657.267 256.026 657.065 255.854 656.925C255.681 656.786 255.461 656.72 255.24 656.744Z" fill="#EA6399" fill-opacity="0.54"/>
<path d="M757.969 502.024L722.591 283.807L721.586 288.18L756.351 502.461C759.405 520.552 755.157 539.115 744.54 554.077C733.923 569.039 717.804 579.179 699.72 582.27L281.042 652.37C280.855 652.433 280.697 652.56 280.596 652.729C280.494 652.897 280.456 653.096 280.487 653.291C280.519 653.485 280.618 653.661 280.768 653.789C280.917 653.917 281.107 653.988 281.304 653.988L700.026 583.669C718.514 580.481 734.988 570.103 745.846 554.804C756.704 539.504 761.063 520.528 757.969 502.024Z" fill="#EA6399" fill-opacity="0.54"/>
<path d="M697.971 378.791L719.836 282.233L657.432 284.507L635.042 304.973C642.883 306.64 650.501 309.223 657.738 312.67C660.805 313.975 663.618 315.81 666.047 318.092C669.458 321.984 651.223 316.387 642.214 315.425C643.995 316.417 645.629 317.653 647.068 319.098C649.386 321.722 639.547 318.18 630.582 316.693C628.884 316.255 627.125 316.107 625.378 316.256C634.124 320.148 647.462 327.538 650.654 333.223C654.502 340.133 634.824 326.445 622.098 326.051C630.188 329.812 638.978 334.798 642.17 340.789C646.543 348.66 630.888 334.273 612.259 333.661C630.057 344.418 638.497 353.296 613.133 342.407C608.503 340.312 603.548 339.026 598.483 338.602L547.756 385.044C709.21 378.703 697.84 379.359 697.971 378.791Z" fill="#EA6399" fill-opacity="0.54"/>
<path d="M738.334 214.494L701.382 377.216L794.091 279.172L831 116.668L738.334 214.494Z" fill="#EA6399" fill-opacity="0.54"/>
<path d="M293.767 468.701C285.245 478.146 273.328 483.831 260.625 484.511C247.922 485.191 235.467 480.812 225.984 472.331L144.12 398.732C154.121 372.389 173.579 350.717 198.696 337.946L253.141 386.881C290.094 293.559 329.495 286.3 342.177 275.455C367.41 295.352 379.611 302.787 412.671 308.953C404.45 390.03 408.779 484.182 396.01 537.577C392.979 550.141 386.879 561.756 378.255 571.381L320.006 636.278C294.21 625.177 272.723 605.992 258.783 581.614L314.015 520.391L327.44 431.049C433.968 312.451 399.027 351.328 293.767 468.701Z" fill="#FFD1D0" fill-opacity="0.64"/>
<path d="M667.403 317.261C664.838 314.887 661.878 312.978 658.657 311.62C647.025 305.891 644.488 305.76 526.634 277.117L493.442 249.566C494.448 245.499 494.185 242.875 492.611 241.826C492.174 241.52 494.448 243.488 418.269 174.787C416.783 164.172 417.74 153.358 421.068 143.169C444.464 151.391 450.586 130.793 445.732 106.567C446.92 105.798 447.923 104.774 448.667 103.57C449.411 102.366 449.877 101.011 450.032 99.6042C450.187 98.1972 450.026 96.7734 449.563 95.4362C449.099 94.0989 448.343 92.8817 447.35 91.873C448.768 90.974 449.924 89.7162 450.7 88.227C451.477 86.7378 451.846 85.07 451.77 83.3923C451.695 81.7147 451.177 80.0867 450.271 78.6732C449.364 77.2597 448.1 76.1108 446.606 75.3427C447.648 74.0654 448.343 72.5407 448.622 70.9164C448.902 69.292 448.758 67.6229 448.204 66.0706C447.65 64.5182 446.705 63.1351 445.46 62.0551C444.214 60.9751 442.711 60.2348 441.096 59.9058C441.619 58.399 441.753 56.7848 441.487 55.2123C441.221 53.6398 440.563 52.1598 439.574 50.9089C438.584 49.658 437.296 48.6767 435.827 48.0555C434.358 47.4344 432.756 47.1935 431.169 47.355C431.173 45.7668 430.781 44.2028 430.027 42.805C429.273 41.4071 428.181 40.2198 426.852 39.3509C425.522 38.482 423.997 37.959 422.414 37.8294C420.831 37.6998 419.241 37.9678 417.788 38.6089C417.318 37.033 416.451 35.6046 415.269 34.4613C414.087 33.3179 412.631 32.498 411.041 32.0806C409.45 31.6632 407.779 31.6624 406.188 32.0782C404.597 32.4939 403.14 33.3123 401.957 34.4545C400.991 33.0199 399.671 31.8588 398.124 31.0835C396.578 30.3081 394.858 29.9446 393.13 30.0281C391.402 30.1117 389.725 30.6394 388.261 31.5603C386.797 32.4812 385.595 33.7642 384.771 35.2853C382.827 33.7873 380.382 33.0927 377.941 33.345C375.5 33.5972 373.248 34.7771 371.652 36.641C371.285 34.8001 370.485 33.073 369.318 31.6031C368.15 30.1332 366.65 28.9628 364.939 28.189C363.229 27.4151 361.359 27.0602 359.484 27.1535C357.61 27.2469 355.784 27.7858 354.159 28.7257C353.055 26.6905 351.399 25.0086 349.38 23.8738C347.362 22.739 345.064 22.1976 342.752 22.3118C340.439 22.4261 338.206 23.1914 336.309 24.5196C334.413 25.8478 332.93 27.6848 332.032 29.819C330.049 28.8426 327.829 28.4492 325.631 28.6846C323.433 28.92 321.347 29.7744 319.616 31.1486C317.884 32.5227 316.579 34.3602 315.85 36.4472C315.122 38.5343 315.001 40.7852 315.501 42.9382C313.307 43.375 311.283 44.4309 309.669 45.9812C308.056 47.5314 306.92 49.5113 306.395 51.6866C305.871 53.862 305.981 56.142 306.711 58.2572C307.441 60.3724 308.762 62.2343 310.516 63.6229C308.85 65.1392 307.659 67.105 307.085 69.2832C306.511 71.4614 306.58 73.7591 307.283 75.8992C307.985 78.0394 309.292 79.9306 311.045 81.3449C312.798 82.7592 314.923 83.6363 317.163 83.8702C316.883 86.0709 317.234 88.3057 318.174 90.315C319.114 92.3243 320.605 94.0255 322.474 95.2209C324.343 96.4163 326.512 97.0568 328.731 97.068C330.949 97.0792 333.125 96.4605 335.005 95.284C335.79 96.8387 336.918 98.1942 338.305 99.2475C339.691 100.301 341.3 101.024 343.008 101.363C342.648 103.79 343.238 106.264 344.655 108.268C346.072 110.272 348.208 111.652 350.617 112.12C350.112 113.632 349.993 115.246 350.273 116.815C350.552 118.384 351.221 119.858 352.217 121.102C353.213 122.347 354.505 123.321 355.975 123.937C357.445 124.553 359.046 124.79 360.632 124.627C360.632 126.223 361.032 127.793 361.793 129.195C362.555 130.597 363.655 131.786 364.993 132.655C366.331 133.524 367.865 134.045 369.456 134.17C371.046 134.296 372.643 134.022 374.101 133.373C374.577 134.952 375.455 136.38 376.648 137.518C377.842 138.656 379.31 139.465 380.909 139.866C382.509 140.267 384.185 140.246 385.774 139.806C387.363 139.365 388.81 138.52 389.975 137.353C392.087 139.712 394.886 141.348 397.978 142.032C388.663 158.65 371.477 173.562 363.911 189.524C344.233 231.024 351.885 244.8 341.521 274.755C324.991 286.606 289.044 295.833 252.879 385.307L199.396 337.509C199.228 337.358 199.01 337.275 198.784 337.275C198.558 337.275 198.34 337.358 198.172 337.509C192.473 340.402 187.044 343.798 181.948 347.654C154.354 325.789 152.167 325.177 129.777 300.731C129.687 300.626 129.571 300.546 129.44 300.5C129.31 300.454 129.169 300.443 129.033 300.469C83.4659 306.547 30.7703 322.203 8.11776 333.136C7.9634 333.189 7.82959 333.29 7.7349 333.423C7.6402 333.556 7.58932 333.716 7.58932 333.879C7.58932 334.043 7.6402 334.202 7.7349 334.335C7.82959 334.468 7.9634 334.569 8.11776 334.623C41.5512 347.367 77.4068 352.491 113.072 349.622L150.636 383.382C148.067 387.867 145.788 392.512 143.814 397.289C143.601 397.777 143.55 398.32 143.668 398.84C143.786 399.359 144.067 399.827 144.47 400.175L225.372 472.856C235.011 481.499 247.685 485.967 260.614 485.278C273.542 484.589 285.67 478.801 294.336 469.182L326.347 433.542L313.227 519.954L259.001 580.389C258.699 580.715 258.51 581.129 258.463 581.57C258.415 582.012 258.512 582.457 258.739 582.838C261.566 587.564 264.646 592.133 267.966 596.526C239.366 631.511 217.938 651.365 217.719 652.589C213.084 679.921 215.314 742.15 224.06 770.662C224.106 770.813 224.194 770.947 224.313 771.05C224.433 771.153 224.579 771.22 224.735 771.243C224.89 771.266 225.049 771.244 225.193 771.18C225.337 771.116 225.46 771.012 225.547 770.881C248.287 733.097 256.509 709.658 268.622 668.376L304.044 629.018C308.774 631.88 313.682 634.436 318.738 636.671C319.114 636.826 319.529 636.863 319.927 636.777C320.326 636.691 320.689 636.487 320.968 636.19L378.867 571.731C387.584 562.009 393.746 550.272 396.797 537.577C409.479 484.488 405.543 389.242 413.458 309.04L421.767 294.04L432.787 303.355C434.493 304.886 438.91 302.874 441.315 300.469L473.064 324.608C480.399 329.966 489.037 333.259 498.078 334.142C499.083 334.142 599.227 337.246 612.783 343.15C617.581 345.65 622.749 347.362 628.089 348.223C629.357 348.223 629.576 347.742 629.795 347.392C631.019 344.987 622.273 338.646 615.538 334.623C631.019 336.459 641.777 345.861 643.832 343.369C644.532 342.625 643.832 341.313 643.307 340.176C639.173 334.48 633.627 329.959 627.215 327.057C636.835 329.287 647.593 335.803 650.917 335.803C652.272 335.803 653.103 334.754 651.879 332.611C648.599 326.751 638.759 321.241 630.232 317.305C637.01 318.442 644.27 320.541 646.937 320.541C648.818 320.541 649.211 319.361 648.162 318.136C647.572 317.485 646.929 316.885 646.237 316.343C652.972 317.524 662.068 319.885 665.654 319.885C668.19 320.016 668.54 318.573 667.403 317.261ZM489.812 241.52C484.783 242.744 477.48 251.009 474.157 255.033L472.539 253.589C472.539 253.108 474.463 247.205 471.708 245.455L424.96 203.255C421.991 194.861 419.881 186.187 418.662 177.367L489.812 241.52ZM399.158 143.3C405.456 132.28 408.779 118.592 402.395 107.966C402.35 107.881 402.288 107.806 402.212 107.745C402.137 107.685 402.05 107.641 401.957 107.616C390.85 103.943 395.398 91.0858 402.788 96.1149C405.412 97.9515 408.867 99.6571 409.654 96.5084C409.776 95.2385 410.332 94.0494 411.228 93.1412C412.131 94.5577 413.392 95.7107 414.883 96.4833C416.375 97.2559 418.044 97.6207 419.722 97.5408C421.399 97.4609 423.026 96.9391 424.438 96.0283C425.849 95.1175 426.995 93.8499 427.758 92.354C429.451 93.7133 431.557 94.4541 433.728 94.4541C435.898 94.4541 438.004 93.7133 439.697 92.354C444.988 105.211 449.536 130.706 439.697 140.021C434.449 144.875 426.053 144.394 414.683 138.49C414.158 138.184 413.109 138.49 413.808 140.064C414.508 141.639 415.339 143.388 417.657 148.461C416.264 154.729 415.719 161.157 416.039 167.571C409.479 176.798 396.71 166.74 388.401 158.825C392.371 153.927 395.967 148.737 399.158 143.3ZM116.308 350.147C123.915 338.085 133.157 327.136 143.771 317.611C155.416 328.548 167.712 338.77 180.592 348.223C168.837 357.383 158.963 368.728 151.511 381.633L116.308 350.147ZM267.966 666.714C255.882 657.879 245.207 647.263 236.305 635.228C248.244 622.371 259.307 609.689 268.884 598.013C278.341 609.917 289.705 620.172 302.513 628.362L267.966 666.714ZM395.223 537.227C392.249 549.654 386.239 561.149 377.73 570.681L338.941 613.887C314.278 602.384 293.327 584.206 278.461 561.41C316.945 518.554 315.02 520.872 315.064 520.435L321.842 475.304L392.818 359.374C392.897 359.2 392.914 359.005 392.865 358.82C392.817 358.635 392.707 358.473 392.553 358.36C392.399 358.247 392.211 358.19 392.02 358.2C391.829 358.209 391.648 358.284 391.506 358.412L293.155 467.739C284.776 477.027 273.056 482.616 260.564 483.28C248.072 483.944 235.826 479.629 226.509 471.281L163.187 414.431C169.874 402.13 177.896 390.603 187.108 380.059C263.724 440.713 258.564 436.909 259.001 436.909C259.439 436.909 258.258 438.658 334.087 327.276C344.462 324.451 354.19 319.639 362.731 313.107C362.88 312.966 362.972 312.774 362.989 312.569C363.005 312.364 362.945 312.16 362.82 311.997C362.695 311.834 362.514 311.723 362.311 311.685C362.109 311.648 361.9 311.687 361.725 311.795C345.778 323.648 326.26 329.696 306.405 328.938C306.185 328.938 305.974 329.025 305.818 329.181C305.662 329.337 305.575 329.548 305.575 329.768C305.575 329.989 305.662 330.2 305.818 330.356C305.974 330.512 306.185 330.599 306.405 330.599C314.898 330.782 323.378 329.87 331.638 327.888L258.783 434.941L188.201 379.009C196.506 369.767 206.024 361.691 216.495 355.001L252.66 387.449C252.758 387.526 252.873 387.578 252.995 387.602C253.116 387.626 253.242 387.62 253.362 387.586C253.481 387.552 253.591 387.49 253.682 387.406C253.773 387.321 253.842 387.216 253.885 387.099C289.394 298.588 324.379 288.968 342.134 276.286C366.317 295.309 378.867 303.224 411.753 309.477C403.663 389.986 407.861 484.226 395.223 537.227ZM431.563 300.206L383.153 259.187C383 259.062 382.807 258.995 382.609 258.999C382.411 259.004 382.221 259.078 382.074 259.21C381.926 259.342 381.83 259.522 381.804 259.718C381.777 259.915 381.821 260.114 381.929 260.28C410.091 304.011 412.234 307.903 412.234 307.903C379.567 301.737 367.148 293.909 343.139 275.017C353.504 244.712 345.807 231.505 365.355 190.267C370.209 180.034 378.999 170.326 387.22 160.18C395.354 167.921 408.211 178.154 416.039 170.107C416.81 180.636 418.912 191.024 422.292 201.025L393.648 175.311C392.861 174.568 391.768 175.792 392.555 176.536L468.997 245.193C457.583 248.036 430.82 287.087 431.563 300.206ZM646.631 319.054C643.701 319.054 631.631 315.468 624.766 315.119C621.355 313.683 617.865 312.442 614.314 311.401C614.108 311.375 613.899 311.428 613.73 311.548C613.56 311.668 613.442 311.847 613.398 312.05C613.354 312.253 613.388 312.466 613.492 312.645C613.597 312.824 613.766 312.958 613.964 313.02C621.879 314.681 647.987 326.139 650.742 334.316C648.147 333.619 645.628 332.667 643.22 331.474C636.7 328.194 629.68 326.022 622.448 325.046C617.594 322.772 613.352 321.153 611.69 320.672C611.499 320.64 611.303 320.675 611.136 320.772C610.968 320.869 610.839 321.021 610.772 321.202C610.705 321.384 610.703 321.583 610.766 321.766C610.83 321.948 610.956 322.103 611.122 322.203C619.868 325.308 639.022 333.748 642.345 342.363C638.803 341.401 626.471 333.354 612.477 332.83L609.635 331.124C609.443 331.014 609.216 330.984 609.003 331.042C608.79 331.099 608.608 331.239 608.498 331.43C608.388 331.622 608.358 331.849 608.415 332.062C608.473 332.275 608.612 332.457 608.804 332.567C621.223 339.827 627.521 345.118 628.177 346.648C627.477 346.648 624.503 346.648 613.396 341.707C599.577 335.716 502.232 332.698 498.165 332.611C489.428 331.736 481.081 328.552 473.982 323.384L434.624 293.341C439.435 279.303 454.697 257.132 465.236 249.26L505.249 285.032C505.687 285.425 501.751 284.463 617.987 307.335C626.121 309.477 641.558 313.763 646.631 319.054ZM642.87 314.331C635.046 310.578 626.854 307.647 618.425 305.585L506.168 283.72L475.556 256.388C478.605 252.445 482.081 248.852 485.92 245.674L525.759 278.735C525.759 278.735 626.646 303.399 631.894 304.711C640.935 306.654 649.734 309.587 658.132 313.457C661.131 314.715 663.884 316.491 666.266 318.705C663.292 318.748 649.692 315.075 642.87 314.331Z" fill="#EA6399" fill-opacity="0.54"/>
<path d="M520.162 98.4326C516.659 98.4267 513.232 97.4196 510.283 95.5299C507.334 93.6403 504.987 90.9469 503.518 87.7673C502.05 84.5878 501.521 81.0546 501.994 77.5844C502.467 74.1141 503.923 70.8515 506.189 68.1812C508.455 65.5109 511.437 63.5442 514.785 62.513C518.132 61.4818 521.704 61.429 525.08 62.361C528.456 63.293 531.495 65.1708 533.839 67.773C536.183 70.3753 537.734 73.5935 538.31 77.0483C538.748 79.6819 538.608 82.3795 537.897 84.9531C537.187 87.5268 535.924 89.9146 534.196 91.9502C532.468 93.9859 530.318 95.6204 527.894 96.7399C525.47 97.8595 522.831 98.4371 520.162 98.4326ZM507.042 70.6198C505.493 72.7906 504.503 75.3098 504.159 77.9545C503.815 80.5993 504.129 83.2879 505.072 85.7826C506.015 88.2772 507.559 90.5009 509.566 92.2568C511.573 94.0127 513.983 95.2467 516.581 95.8495C519.179 96.4523 521.885 96.4054 524.461 95.7129C527.036 95.0204 529.401 93.7036 531.346 91.8792C533.292 90.0548 534.757 87.7789 535.613 85.2531C536.469 82.7273 536.69 80.0293 536.254 77.3981C535.719 74.229 534.254 71.2904 532.046 68.955C529.838 66.6196 526.986 64.9927 523.852 64.2806C520.718 63.5685 517.443 63.8034 514.442 64.9553C511.442 66.1073 508.851 68.1245 506.999 70.751L507.042 70.6198Z" fill="#EA6399" fill-opacity="0.54"/>
<path d="M567.216 90.6485C563.714 90.6426 560.286 89.6354 557.337 87.7458C554.388 85.8561 552.041 83.1627 550.573 79.9832C549.104 76.8036 548.575 73.2705 549.048 69.8002C549.521 66.33 550.977 63.0674 553.243 60.3971C555.509 57.7267 558.492 55.76 561.839 54.7288C565.186 53.6976 568.758 53.6449 572.134 54.5768C575.51 55.5088 578.55 57.3866 580.894 59.9889C583.238 62.5912 584.789 65.8094 585.364 69.2641C585.811 71.8988 585.675 74.5993 584.968 77.1763C584.261 79.7532 582.998 82.1442 581.269 84.1817C579.54 86.2191 577.386 87.8537 574.958 88.9708C572.531 90.0879 569.888 90.6605 567.216 90.6485ZM554.097 62.8357C552.547 65.0064 551.557 67.5257 551.213 70.1704C550.87 72.8151 551.183 75.5038 552.126 77.9984C553.069 80.4931 554.613 82.7168 556.62 84.4727C558.628 86.2285 561.037 87.4625 563.635 88.0653C566.233 88.6682 568.939 88.6212 571.515 87.9287C574.09 87.2362 576.455 85.9195 578.401 84.0951C580.346 82.2706 581.812 79.9948 582.668 77.469C583.524 74.9431 583.744 72.2452 583.309 69.614C582.793 66.4349 581.343 63.4812 579.143 61.129C576.944 58.7768 574.093 57.1326 570.956 56.4056C567.818 55.6787 564.536 55.902 561.525 57.0471C558.515 58.1922 555.914 60.2073 554.053 62.8357H554.097Z" fill="#EA6399" fill-opacity="0.54"/>
<path d="M633.206 61.349C632.612 57.7656 630.97 54.4385 628.486 51.7884C626.002 49.1384 622.788 47.2843 619.251 46.4606C615.713 45.6368 612.011 45.8805 608.612 47.1607C605.213 48.4409 602.269 50.7002 600.154 53.6529C598.039 56.6056 596.847 60.1192 596.728 63.7495C596.61 67.3797 597.57 70.9636 599.488 74.0481C601.406 77.1325 604.196 79.579 607.504 81.0782C610.812 82.5775 614.491 83.0621 618.075 82.4709C620.458 82.0837 622.741 81.2292 624.793 79.9566C626.845 78.684 628.625 77.0184 630.031 75.0556C631.437 73.0927 632.442 70.8713 632.986 68.5191C633.531 66.1668 633.606 63.7301 633.206 61.349Z" fill="#EA6399" fill-opacity="0.54"/>
<path d="M144.602 38.2153L122.736 22.8221L138.129 1.17535C138.209 1.00157 138.225 0.805834 138.177 0.621067C138.129 0.436299 138.019 0.273781 137.865 0.160857C137.711 0.0479324 137.522 -0.0085063 137.332 0.00103931C137.141 0.0105849 136.959 0.0855313 136.817 0.213267L121.424 22.0787L99.5588 6.68543C98.6842 6.02946 97.7221 7.38512 98.5967 8.04108L120.462 23.3906L105.069 45.256C104.982 45.3788 104.929 45.5231 104.918 45.6733C104.906 45.8235 104.936 45.9741 105.003 46.1089C105.07 46.2436 105.173 46.3576 105.3 46.4384C105.427 46.5193 105.574 46.564 105.725 46.5679C106.381 46.5679 105.375 47.6612 121.818 24.7025C144.82 41.0578 143.683 40.2707 143.946 40.2707C144.218 40.3577 144.514 40.3328 144.768 40.2016C145.023 40.0704 145.214 39.8435 145.301 39.571C145.388 39.2984 145.363 39.0025 145.232 38.7482C145.101 38.494 144.874 38.3023 144.602 38.2153Z" fill="#EA6399" fill-opacity="0.54"/>
<path d="M116.876 448.191C116.308 447.71 123.436 445.305 10.348 481.995C10.2137 482.045 10.0947 482.129 10.0024 482.239C9.9101 482.348 9.84772 482.48 9.82131 482.621C9.79491 482.762 9.80537 482.907 9.85169 483.042C9.898 483.178 9.9786 483.299 10.0856 483.395L40.1287 510.027L0.246215 553.757C0.168206 553.835 0.10628 553.927 0.0640192 554.028C0.0217581 554.129 0 554.238 0 554.348C0 554.458 0.0217581 554.566 0.0640192 554.668C0.10628 554.769 0.168206 554.861 0.246215 554.938C23.511 575.404 22.1116 574.398 22.4615 574.398C22.8113 574.398 20.3186 577.154 62.9562 530.23L92.9118 556.862C93.0198 556.957 93.1504 557.021 93.2908 557.05C93.4313 557.079 93.5768 557.071 93.7133 557.027C93.8498 556.983 93.9725 556.905 94.0696 556.799C94.1667 556.694 94.2349 556.565 94.2674 556.425C118.844 441.894 117.401 448.716 116.876 448.191ZM62.3002 528.7L22.4177 572.431L1.95172 554.413C44.8953 507.14 42.0528 510.683 42.0091 509.896C41.9654 509.108 43.7584 511.12 12.2285 483.132L76.6439 462.448L91.3374 553.451L63.4372 528.612C63.2723 528.479 63.0627 528.414 62.8513 528.43C62.64 528.446 62.4428 528.543 62.3002 528.7Z" fill="#EA6399" fill-opacity="0.54"/>
<path d="M546.662 544.618C546.225 544.618 546.269 544.618 482.116 524.677C481.978 524.608 481.861 524.502 481.78 524.37C481.699 524.239 481.656 524.088 481.656 523.933C481.656 523.779 481.699 523.627 481.78 523.496C481.861 523.365 481.978 523.259 482.116 523.19L536.211 485.581C536.389 485.501 536.59 485.486 536.779 485.539C536.967 485.592 537.131 485.71 537.24 485.873C537.35 486.035 537.399 486.23 537.379 486.425C537.359 486.62 537.27 486.801 537.129 486.937L484.652 523.583L546.881 543.044C546.984 543.058 547.084 543.092 547.174 543.145C547.264 543.198 547.343 543.268 547.406 543.351C547.468 543.435 547.514 543.529 547.541 543.63C547.567 543.731 547.573 543.837 547.559 543.94C547.544 544.043 547.51 544.143 547.457 544.233C547.404 544.323 547.334 544.402 547.251 544.465C547.168 544.527 547.073 544.573 546.972 544.6C546.871 544.626 546.766 544.632 546.662 544.618Z" fill="#EA6399" fill-opacity="0.54"/>
<path d="M599.008 534.691L651.485 495.945L589.212 478.453C589.091 478.442 588.973 478.405 588.868 478.344C588.762 478.283 588.672 478.199 588.602 478.099C588.533 477.999 588.486 477.884 588.466 477.764C588.446 477.644 588.452 477.521 588.485 477.403C588.517 477.286 588.575 477.177 588.655 477.084C588.734 476.992 588.833 476.918 588.944 476.868C589.055 476.818 589.176 476.793 589.298 476.795C589.42 476.797 589.54 476.825 589.65 476.879C636.442 489.298 649.342 493.016 652.841 494.371C654.415 494.983 654.809 495.333 653.234 496.689C650.304 499.094 639.459 507.053 600.101 536.047C599.922 536.192 599.692 536.259 599.462 536.235C599.232 536.21 599.022 536.095 598.877 535.915C598.732 535.736 598.664 535.506 598.689 535.276C598.714 535.046 598.828 534.836 599.008 534.691Z" fill="#EA6399" fill-opacity="0.54"/>
<path d="M555.102 568.364L578.586 453.876C578.628 453.663 578.753 453.474 578.933 453.352C579.113 453.229 579.334 453.182 579.548 453.22C579.765 453.273 579.954 453.406 580.076 453.593C580.198 453.78 580.244 454.007 580.204 454.226L556.72 568.713C556.659 568.912 556.525 569.08 556.346 569.185C556.166 569.29 555.954 569.324 555.751 569.28C555.548 569.236 555.369 569.117 555.249 568.948C555.129 568.778 555.076 568.57 555.102 568.364Z" fill="#EA6399" fill-opacity="0.54"/>
</svg>
