<svg width="5046" height="3671" viewBox="0 0 5046 3671" fill="none" xmlns="http://www.w3.org/2000/svg">
<ellipse cx="1950.48" cy="1354.17" rx="787.949" ry="745.582" transform="rotate(-180 1950.48 1354.17)" fill="#ECECEC"/>
<ellipse cx="1057.95" cy="1789.42" rx="787.949" ry="745.582" transform="rotate(-180 1057.95 1789.42)" fill="#ECECEC"/>
<ellipse cx="3852.32" cy="1641.45" rx="787.949" ry="745.582" transform="rotate(-180 3852.32 1641.45)" fill="#ECECEC"/>
<ellipse cx="3032.9" cy="1123.58" rx="787.949" ry="745.582" transform="rotate(-180 3032.9 1123.58)" fill="#ECECEC"/>
<ellipse cx="3092.81" cy="2145.62" rx="787.949" ry="740.398" fill="#ECECEC"/>
<ellipse cx="3985.34" cy="1713.4" rx="787.949" ry="740.398" fill="#ECECEC"/>
<ellipse cx="1190.97" cy="1860.34" rx="787.949" ry="740.398" fill="#ECECEC"/>
<ellipse cx="2010.39" cy="2374.61" rx="787.949" ry="740.398" fill="#ECECEC"/>
<rect x="1041.49" y="1713.09" width="2516.59" height="414.712" rx="40" stroke="#A9D7CC" stroke-width="28" stroke-dasharray="56 56"/>
<rect x="1119.67" y="1645.35" width="2516.59" height="414.712" rx="40" stroke="#A9D7CC" stroke-width="28" stroke-dasharray="56 56"/>
<rect x="1196.84" y="1578.56" width="2516.59" height="414.712" rx="40" fill="white" stroke="#A9D7CC" stroke-width="28" stroke-dasharray="48 48"/>
<ellipse cx="4084.85" cy="1801.18" rx="189.879" ry="178.421" fill="#D5DBDC"/>
<path d="M4056.25 1912.89V1711.76H4107.1V1912.89H4056.25ZM3981.11 1837.75V1786.9H4182.25V1837.75H3981.11Z" fill="#002D51"/>
<path d="M1562.51 1412.27H1514.72L1576.8 1228.27H1636L1698.09 1412.27H1650.29L1607.07 1274.63H1605.64L1562.51 1412.27ZM1556.13 1339.86H1656.04V1373.64H1556.13V1339.86ZM1785.91 1412.27H1717.9V1228.27H1785.82C1804.57 1228.27 1820.71 1231.96 1834.24 1239.32C1847.84 1246.63 1858.32 1257.17 1865.69 1270.95C1873.06 1284.66 1876.74 1301.07 1876.74 1320.18C1876.74 1339.35 1873.06 1355.82 1865.69 1369.6C1858.38 1383.37 1847.93 1393.94 1834.33 1401.31C1820.74 1408.62 1804.6 1412.27 1785.91 1412.27ZM1762.37 1374.36H1784.2C1794.5 1374.36 1803.22 1372.62 1810.35 1369.15C1817.53 1365.61 1822.95 1359.89 1826.61 1351.99C1830.32 1344.02 1832.18 1333.42 1832.18 1320.18C1832.18 1306.94 1830.32 1296.4 1826.61 1288.56C1822.89 1280.65 1817.41 1274.96 1810.17 1271.49C1802.98 1267.95 1794.11 1266.19 1783.57 1266.19H1762.37V1374.36ZM1970.72 1412.27H1902.71V1228.27H1970.63C1989.37 1228.27 2005.52 1231.96 2019.05 1239.32C2032.65 1246.63 2043.13 1257.17 2050.5 1270.95C2057.87 1284.66 2061.55 1301.07 2061.55 1320.18C2061.55 1339.35 2057.87 1355.82 2050.5 1369.6C2043.19 1383.37 2032.74 1393.94 2019.14 1401.31C2005.55 1408.62 1989.4 1412.27 1970.72 1412.27ZM1947.18 1374.36H1969.01C1979.31 1374.36 1988.03 1372.62 1995.15 1369.15C2002.34 1365.61 2007.76 1359.89 2011.42 1351.99C2015.13 1344.02 2016.99 1333.42 2016.99 1320.18C2016.99 1306.94 2015.13 1296.4 2011.42 1288.56C2007.7 1280.65 2002.22 1274.96 1994.98 1271.49C1987.79 1267.95 1978.92 1266.19 1968.38 1266.19H1947.18V1374.36ZM2181.67 1412.27H2133.87L2195.96 1228.27H2255.16L2317.24 1412.27H2269.45L2226.23 1274.63H2224.8L2181.67 1412.27ZM2175.29 1339.86H2275.2V1373.64H2175.29V1339.86ZM2385.39 1264.39V1228.27H2540.91V1264.39H2485.12V1412.27H2441.27V1264.39H2385.39ZM2727.9 1320.27C2727.9 1340.52 2724 1357.68 2716.22 1371.75C2708.43 1385.83 2697.89 1396.52 2684.59 1403.83C2671.36 1411.13 2656.5 1414.79 2640.03 1414.79C2623.5 1414.79 2608.62 1411.1 2595.38 1403.74C2582.14 1396.37 2571.63 1385.68 2563.84 1371.66C2556.12 1357.59 2552.25 1340.46 2552.25 1320.27C2552.25 1300.03 2556.12 1282.87 2563.84 1268.79C2571.63 1254.72 2582.14 1244.02 2595.38 1236.72C2608.62 1229.41 2623.5 1225.76 2640.03 1225.76C2656.5 1225.76 2671.36 1229.41 2684.59 1236.72C2697.89 1244.02 2708.43 1254.72 2716.22 1268.79C2724 1282.87 2727.9 1300.03 2727.9 1320.27ZM2682.44 1320.27C2682.44 1308.29 2680.73 1298.17 2677.32 1289.9C2673.96 1281.64 2669.11 1275.38 2662.76 1271.13C2656.47 1266.87 2648.9 1264.75 2640.03 1264.75C2631.23 1264.75 2623.65 1266.87 2617.3 1271.13C2610.95 1275.38 2606.07 1281.64 2602.66 1289.9C2599.3 1298.17 2597.62 1308.29 2597.62 1320.27C2597.62 1332.25 2599.3 1342.37 2602.66 1350.64C2606.07 1358.9 2610.95 1365.16 2617.3 1369.42C2623.65 1373.67 2631.23 1375.79 2640.03 1375.79C2648.9 1375.79 2656.47 1373.67 2662.76 1369.42C2669.11 1365.16 2673.96 1358.9 2677.32 1350.64C2680.73 1342.37 2682.44 1332.25 2682.44 1320.27ZM2876.23 1412.27H2808.22V1228.27H2876.14C2894.89 1228.27 2911.03 1231.96 2924.57 1239.32C2938.16 1246.63 2948.64 1257.17 2956.01 1270.95C2963.38 1284.66 2967.06 1301.07 2967.06 1320.18C2967.06 1339.35 2963.38 1355.82 2956.01 1369.6C2948.7 1383.37 2938.25 1393.94 2924.66 1401.31C2911.06 1408.62 2894.92 1412.27 2876.23 1412.27ZM2852.69 1374.36H2874.52C2884.83 1374.36 2893.54 1372.62 2900.67 1369.15C2907.85 1365.61 2913.28 1359.89 2916.93 1351.99C2920.64 1344.02 2922.5 1333.42 2922.5 1320.18C2922.5 1306.94 2920.64 1296.4 2916.93 1288.56C2913.22 1280.65 2907.74 1274.96 2900.49 1271.49C2893.3 1267.95 2884.44 1266.19 2873.89 1266.19H2852.69V1374.36ZM3166.69 1320.27C3166.69 1340.52 3162.8 1357.68 3155.02 1371.75C3147.23 1385.83 3136.69 1396.52 3123.39 1403.83C3110.15 1411.13 3095.3 1414.79 3078.83 1414.79C3062.3 1414.79 3047.41 1411.1 3034.18 1403.74C3020.94 1396.37 3010.43 1385.68 3002.64 1371.66C2994.91 1357.59 2991.05 1340.46 2991.05 1320.27C2991.05 1300.03 2994.91 1282.87 3002.64 1268.79C3010.43 1254.72 3020.94 1244.02 3034.18 1236.72C3047.41 1229.41 3062.3 1225.76 3078.83 1225.76C3095.3 1225.76 3110.15 1229.41 3123.39 1236.72C3136.69 1244.02 3147.23 1254.72 3155.02 1268.79C3162.8 1282.87 3166.69 1300.03 3166.69 1320.27ZM3121.23 1320.27C3121.23 1308.29 3119.53 1298.17 3116.11 1289.9C3112.76 1281.64 3107.91 1275.38 3101.56 1271.13C3095.27 1266.87 3087.69 1264.75 3078.83 1264.75C3070.02 1264.75 3062.45 1266.87 3056.1 1271.13C3049.75 1275.38 3044.87 1281.64 3041.45 1289.9C3038.1 1298.17 3036.42 1308.29 3036.42 1320.27C3036.42 1332.25 3038.1 1342.37 3041.45 1350.64C3044.87 1358.9 3049.75 1365.16 3056.1 1369.42C3062.45 1373.67 3070.02 1375.79 3078.83 1375.79C3087.69 1375.79 3095.27 1373.67 3101.56 1369.42C3107.91 1365.16 3112.76 1358.9 3116.11 1350.64C3119.53 1342.37 3121.23 1332.25 3121.23 1320.27Z" fill="#A9D7CC"/>
<path d="M1753.63 1073.64H1771.71L1789.13 1106.53H1789.87L1807.28 1073.64H1825.37L1797.52 1123.01V1150.01H1781.48V1123.01L1753.63 1073.64ZM1847.77 1151.12C1841.98 1151.12 1836.97 1149.89 1832.74 1147.43C1828.54 1144.95 1825.3 1141.49 1823.01 1137.07C1820.72 1132.62 1819.58 1127.46 1819.58 1121.59C1819.58 1115.68 1820.72 1110.51 1823.01 1106.08C1825.3 1101.63 1828.54 1098.18 1832.74 1095.72C1836.97 1093.23 1841.98 1091.99 1847.77 1091.99C1853.56 1091.99 1858.56 1093.23 1862.76 1095.72C1866.98 1098.18 1870.24 1101.63 1872.53 1106.08C1874.81 1110.51 1875.96 1115.68 1875.96 1121.59C1875.96 1127.46 1874.81 1132.62 1872.53 1137.07C1870.24 1141.49 1866.98 1144.95 1862.76 1147.43C1858.56 1149.89 1853.56 1151.12 1847.77 1151.12ZM1847.84 1138.82C1850.48 1138.82 1852.68 1138.07 1854.44 1136.58C1856.21 1135.07 1857.54 1133 1858.43 1130.39C1859.35 1127.78 1859.81 1124.81 1859.81 1121.48C1859.81 1118.15 1859.35 1115.18 1858.43 1112.57C1857.54 1109.96 1856.21 1107.9 1854.44 1106.38C1852.68 1104.86 1850.48 1104.11 1847.84 1104.11C1845.18 1104.11 1842.95 1104.86 1841.13 1106.38C1839.34 1107.9 1837.99 1109.96 1837.07 1112.57C1836.17 1115.18 1835.72 1118.15 1835.72 1121.48C1835.72 1124.81 1836.17 1127.78 1837.07 1130.39C1837.99 1133 1839.34 1135.07 1841.13 1136.58C1842.95 1138.07 1845.18 1138.82 1847.84 1138.82ZM1923.01 1125.62V1092.73H1938.9V1150.01H1923.65V1139.6H1923.05C1921.76 1142.96 1919.61 1145.66 1916.6 1147.69C1913.62 1149.73 1909.98 1150.75 1905.68 1150.75C1901.85 1150.75 1898.48 1149.88 1895.57 1148.14C1892.66 1146.4 1890.39 1143.93 1888.75 1140.72C1887.13 1137.51 1886.31 1133.67 1886.29 1129.2V1092.73H1902.17V1126.37C1902.2 1129.75 1903.1 1132.42 1904.89 1134.38C1906.68 1136.35 1909.08 1137.33 1912.09 1137.33C1914 1137.33 1915.79 1136.89 1917.46 1136.02C1919.12 1135.13 1920.47 1133.81 1921.48 1132.07C1922.53 1130.33 1923.04 1128.18 1923.01 1125.62ZM2001.71 1172.68C1996.56 1172.68 1992.15 1171.97 1988.47 1170.55C1984.82 1169.16 1981.91 1167.26 1979.75 1164.85C1977.58 1162.43 1976.18 1159.73 1975.53 1156.72L1990.22 1154.74C1990.67 1155.88 1991.38 1156.95 1992.35 1157.95C1993.32 1158.94 1994.6 1159.74 1996.19 1160.33C1997.81 1160.96 1999.77 1161.27 2002.08 1161.27C2005.54 1161.27 2008.38 1160.42 2010.62 1158.73C2012.88 1157.07 2014.01 1154.27 2014.01 1150.34V1139.86H2013.34C2012.65 1141.45 2011.6 1142.96 2010.21 1144.38C2008.82 1145.79 2007.03 1146.95 2004.84 1147.84C2002.65 1148.74 2000.04 1149.19 1997.01 1149.19C1992.71 1149.19 1988.79 1148.19 1985.26 1146.2C1981.76 1144.19 1978.96 1141.12 1976.87 1136.99C1974.81 1132.84 1973.78 1127.6 1973.78 1121.26C1973.78 1114.77 1974.84 1109.35 1976.95 1105C1979.06 1100.65 1981.87 1097.39 1985.38 1095.23C1988.91 1093.07 1992.77 1091.99 1996.97 1091.99C2000.18 1091.99 2002.86 1092.53 2005.03 1093.63C2007.19 1094.7 2008.93 1096.04 2010.25 1097.66C2011.59 1099.25 2012.62 1100.81 2013.34 1102.35H2013.94V1092.73H2029.71V1150.57C2029.71 1155.44 2028.52 1159.51 2026.13 1162.8C2023.74 1166.08 2020.44 1168.54 2016.21 1170.18C2012.01 1171.84 2007.18 1172.68 2001.71 1172.68ZM2002.04 1137.25C2004.6 1137.25 2006.77 1136.62 2008.53 1135.35C2010.32 1134.06 2011.69 1132.22 2012.63 1129.83C2013.6 1127.42 2014.09 1124.54 2014.09 1121.18C2014.09 1117.83 2013.61 1114.92 2012.67 1112.46C2011.73 1109.97 2010.36 1108.05 2008.57 1106.68C2006.78 1105.31 2004.6 1104.63 2002.04 1104.63C1999.43 1104.63 1997.23 1105.34 1995.44 1106.75C1993.65 1108.15 1992.3 1110.08 1991.38 1112.57C1990.46 1115.06 1990 1117.93 1990 1121.18C1990 1124.49 1990.46 1127.35 1991.38 1129.76C1992.32 1132.15 1993.68 1134 1995.44 1135.31C1997.23 1136.61 1999.43 1137.25 2002.04 1137.25ZM2068.23 1151.12C2062.44 1151.12 2057.43 1149.89 2053.2 1147.43C2049 1144.95 2045.76 1141.49 2043.47 1137.07C2041.18 1132.62 2040.04 1127.46 2040.04 1121.59C2040.04 1115.68 2041.18 1110.51 2043.47 1106.08C2045.76 1101.63 2049 1098.18 2053.2 1095.72C2057.43 1093.23 2062.44 1091.99 2068.23 1091.99C2074.02 1091.99 2079.02 1093.23 2083.22 1095.72C2087.44 1098.18 2090.7 1101.63 2092.99 1106.08C2095.27 1110.51 2096.42 1115.68 2096.42 1121.59C2096.42 1127.46 2095.27 1132.62 2092.99 1137.07C2090.7 1141.49 2087.44 1144.95 2083.22 1147.43C2079.02 1149.89 2074.02 1151.12 2068.23 1151.12ZM2068.3 1138.82C2070.94 1138.82 2073.14 1138.07 2074.9 1136.58C2076.67 1135.07 2078 1133 2078.89 1130.39C2079.81 1127.78 2080.27 1124.81 2080.27 1121.48C2080.27 1118.15 2079.81 1115.18 2078.89 1112.57C2078 1109.96 2076.67 1107.9 2074.9 1106.38C2073.14 1104.86 2070.94 1104.11 2068.3 1104.11C2065.64 1104.11 2063.41 1104.86 2061.59 1106.38C2059.8 1107.9 2058.45 1109.96 2057.53 1112.57C2056.63 1115.18 2056.18 1118.15 2056.18 1121.48C2056.18 1124.81 2056.63 1127.78 2057.53 1130.39C2058.45 1133 2059.8 1135.07 2061.59 1136.58C2063.41 1138.07 2065.64 1138.82 2068.3 1138.82ZM2137.21 1092.73V1104.66H2102.72V1092.73H2137.21ZM2110.55 1079.01H2126.43V1132.41C2126.43 1133.87 2126.66 1135.02 2127.1 1135.84C2127.55 1136.63 2128.17 1137.19 2128.97 1137.51C2129.79 1137.84 2130.73 1138 2131.8 1138C2132.55 1138 2133.29 1137.94 2134.04 1137.81C2134.78 1137.66 2135.36 1137.55 2135.75 1137.48L2138.25 1149.3C2137.46 1149.55 2136.34 1149.83 2134.9 1150.16C2133.45 1150.5 2131.7 1150.71 2129.64 1150.79C2125.81 1150.94 2122.46 1150.43 2119.57 1149.26C2116.71 1148.09 2114.49 1146.28 2112.9 1143.82C2111.31 1141.36 2110.52 1138.25 2110.55 1134.49V1079.01ZM2187.74 1116.9V1150.01H2171.86V1092.73H2187V1102.84H2187.67C2188.93 1099.51 2191.06 1096.87 2194.04 1094.93C2197.03 1092.97 2200.64 1091.99 2204.89 1091.99C2208.87 1091.99 2212.34 1092.86 2215.3 1094.6C2218.25 1096.34 2220.55 1098.82 2222.19 1102.05C2223.84 1105.26 2224.66 1109.09 2224.66 1113.54V1150.01H2208.77V1116.37C2208.8 1112.87 2207.9 1110.13 2206.09 1108.17C2204.27 1106.18 2201.77 1105.19 2198.59 1105.19C2196.45 1105.19 2194.57 1105.65 2192.92 1106.57C2191.31 1107.49 2190.04 1108.83 2189.12 1110.59C2188.23 1112.33 2187.77 1114.43 2187.74 1116.9ZM2263.05 1151.12C2257.26 1151.12 2252.25 1149.89 2248.03 1147.43C2243.82 1144.95 2240.58 1141.49 2238.29 1137.07C2236.01 1132.62 2234.86 1127.46 2234.86 1121.59C2234.86 1115.68 2236.01 1110.51 2238.29 1106.08C2240.58 1101.63 2243.82 1098.18 2248.03 1095.72C2252.25 1093.23 2257.26 1091.99 2263.05 1091.99C2268.84 1091.99 2273.84 1093.23 2278.04 1095.72C2282.27 1098.18 2285.52 1101.63 2287.81 1106.08C2290.1 1110.51 2291.24 1115.68 2291.24 1121.59C2291.24 1127.46 2290.1 1132.62 2287.81 1137.07C2285.52 1141.49 2282.27 1144.95 2278.04 1147.43C2273.84 1149.89 2268.84 1151.12 2263.05 1151.12ZM2263.13 1138.82C2265.76 1138.82 2267.96 1138.07 2269.73 1136.58C2271.49 1135.07 2272.82 1133 2273.72 1130.39C2274.64 1127.78 2275.1 1124.81 2275.1 1121.48C2275.1 1118.15 2274.64 1115.18 2273.72 1112.57C2272.82 1109.96 2271.49 1107.9 2269.73 1106.38C2267.96 1104.86 2265.76 1104.11 2263.13 1104.11C2260.47 1104.11 2258.23 1104.86 2256.41 1106.38C2254.63 1107.9 2253.27 1109.96 2252.35 1112.57C2251.46 1115.18 2251.01 1118.15 2251.01 1121.48C2251.01 1124.81 2251.46 1127.78 2252.35 1130.39C2253.27 1133 2254.63 1135.07 2256.41 1136.58C2258.23 1138.07 2260.47 1138.82 2263.13 1138.82ZM2332.03 1092.73V1104.66H2297.54V1092.73H2332.03ZM2305.37 1079.01H2321.26V1132.41C2321.26 1133.87 2321.48 1135.02 2321.93 1135.84C2322.38 1136.63 2323 1137.19 2323.79 1137.51C2324.61 1137.84 2325.56 1138 2326.63 1138C2327.37 1138 2328.12 1137.94 2328.86 1137.81C2329.61 1137.66 2330.18 1137.55 2330.58 1137.48L2333.08 1149.3C2332.28 1149.55 2331.16 1149.83 2329.72 1150.16C2328.28 1150.5 2326.53 1150.71 2324.46 1150.79C2320.64 1150.94 2317.28 1150.43 2314.4 1149.26C2311.54 1148.09 2309.31 1146.28 2307.72 1143.82C2306.13 1141.36 2305.35 1138.25 2305.37 1134.49V1079.01ZM2359.49 1116.9V1150.01H2343.61V1073.64H2359.05V1102.84H2359.72C2361.01 1099.46 2363.1 1096.81 2365.98 1094.9C2368.87 1092.96 2372.48 1091.99 2376.83 1091.99C2380.81 1091.99 2384.28 1092.86 2387.24 1094.6C2390.22 1096.31 2392.53 1098.79 2394.17 1102.02C2395.84 1105.22 2396.66 1109.06 2396.63 1113.54V1150.01H2380.75V1116.37C2380.77 1112.84 2379.88 1110.1 2378.06 1108.13C2376.27 1106.17 2373.76 1105.19 2370.53 1105.19C2368.37 1105.19 2366.45 1105.65 2364.79 1106.57C2363.15 1107.49 2361.86 1108.83 2360.91 1110.59C2359.99 1112.33 2359.52 1114.43 2359.49 1116.9ZM2409.13 1150.01V1092.73H2425.02V1150.01H2409.13ZM2417.11 1085.35C2414.75 1085.35 2412.72 1084.57 2411.03 1083C2409.37 1081.41 2408.54 1079.51 2408.54 1077.3C2408.54 1075.11 2409.37 1073.23 2411.03 1071.67C2412.72 1070.08 2414.75 1069.28 2417.11 1069.28C2419.47 1069.28 2421.49 1070.08 2423.15 1071.67C2424.84 1073.23 2425.69 1075.11 2425.69 1077.3C2425.69 1079.51 2424.84 1081.41 2423.15 1083C2421.49 1084.57 2419.47 1085.35 2417.11 1085.35ZM2453.63 1116.9V1150.01H2437.74V1092.73H2452.88V1102.84H2453.55C2454.82 1099.51 2456.94 1096.87 2459.93 1094.93C2462.91 1092.97 2466.53 1091.99 2470.78 1091.99C2474.75 1091.99 2478.22 1092.86 2481.18 1094.6C2484.14 1096.34 2486.44 1098.82 2488.08 1102.05C2489.72 1105.26 2490.54 1109.09 2490.54 1113.54V1150.01H2474.66V1116.37C2474.68 1112.87 2473.79 1110.13 2471.97 1108.17C2470.16 1106.18 2467.66 1105.19 2464.48 1105.19C2462.34 1105.19 2460.45 1105.65 2458.81 1106.57C2457.19 1107.49 2455.92 1108.83 2455 1110.59C2454.11 1112.33 2453.65 1114.43 2453.63 1116.9ZM2528.86 1172.68C2523.72 1172.68 2519.3 1171.97 2515.62 1170.55C2511.97 1169.16 2509.06 1167.26 2506.9 1164.85C2504.74 1162.43 2503.33 1159.73 2502.69 1156.72L2517.38 1154.74C2517.82 1155.88 2518.53 1156.95 2519.5 1157.95C2520.47 1158.94 2521.75 1159.74 2523.34 1160.33C2524.96 1160.96 2526.92 1161.27 2529.23 1161.27C2532.69 1161.27 2535.54 1160.42 2537.77 1158.73C2540.03 1157.07 2541.17 1154.27 2541.17 1150.34V1139.86H2540.49C2539.8 1141.45 2538.75 1142.96 2537.36 1144.38C2535.97 1145.79 2534.18 1146.95 2531.99 1147.84C2529.81 1148.74 2527.2 1149.19 2524.16 1149.19C2519.86 1149.19 2515.95 1148.19 2512.42 1146.2C2508.91 1144.19 2506.12 1141.12 2504.03 1136.99C2501.96 1132.84 2500.93 1127.6 2500.93 1121.26C2500.93 1114.77 2501.99 1109.35 2504.1 1105C2506.22 1100.65 2509.02 1097.39 2512.53 1095.23C2516.06 1093.07 2519.92 1091.99 2524.13 1091.99C2527.33 1091.99 2530.02 1092.53 2532.18 1093.63C2534.34 1094.7 2536.08 1096.04 2537.4 1097.66C2538.74 1099.25 2539.77 1100.81 2540.49 1102.35H2541.09V1092.73H2556.86V1150.57C2556.86 1155.44 2555.67 1159.51 2553.28 1162.8C2550.9 1166.08 2547.59 1168.54 2543.37 1170.18C2539.16 1171.84 2534.33 1172.68 2528.86 1172.68ZM2529.2 1137.25C2531.76 1137.25 2533.92 1136.62 2535.68 1135.35C2537.47 1134.06 2538.84 1132.22 2539.79 1129.83C2540.76 1127.42 2541.24 1124.54 2541.24 1121.18C2541.24 1117.83 2540.77 1114.92 2539.82 1112.46C2538.88 1109.97 2537.51 1108.05 2535.72 1106.68C2533.93 1105.31 2531.76 1104.63 2529.2 1104.63C2526.59 1104.63 2524.39 1105.34 2522.6 1106.75C2520.81 1108.15 2519.45 1110.08 2518.53 1112.57C2517.61 1115.06 2517.15 1117.93 2517.15 1121.18C2517.15 1124.49 2517.61 1127.35 2518.53 1129.76C2519.48 1132.15 2520.83 1134 2522.6 1135.31C2524.39 1136.61 2526.59 1137.25 2529.2 1137.25ZM2619.68 1151.12C2613.89 1151.12 2608.88 1149.89 2604.66 1147.43C2600.46 1144.95 2597.21 1141.49 2594.92 1137.07C2592.64 1132.62 2591.49 1127.46 2591.49 1121.59C2591.49 1115.68 2592.64 1110.51 2594.92 1106.08C2597.21 1101.63 2600.46 1098.18 2604.66 1095.72C2608.88 1093.23 2613.89 1091.99 2619.68 1091.99C2625.47 1091.99 2630.47 1093.23 2634.67 1095.72C2638.9 1098.18 2642.15 1101.63 2644.44 1106.08C2646.73 1110.51 2647.87 1115.68 2647.87 1121.59C2647.87 1127.46 2646.73 1132.62 2644.44 1137.07C2642.15 1141.49 2638.9 1144.95 2634.67 1147.43C2630.47 1149.89 2625.47 1151.12 2619.68 1151.12ZM2619.76 1138.82C2622.39 1138.82 2624.59 1138.07 2626.36 1136.58C2628.12 1135.07 2629.45 1133 2630.35 1130.39C2631.27 1127.78 2631.73 1124.81 2631.73 1121.48C2631.73 1118.15 2631.27 1115.18 2630.35 1112.57C2629.45 1109.96 2628.12 1107.9 2626.36 1106.38C2624.59 1104.86 2622.39 1104.11 2619.76 1104.11C2617.1 1104.11 2614.86 1104.86 2613.05 1106.38C2611.26 1107.9 2609.9 1109.96 2608.98 1112.57C2608.09 1115.18 2607.64 1118.15 2607.64 1121.48C2607.64 1124.81 2608.09 1127.78 2608.98 1130.39C2609.9 1133 2611.26 1135.07 2613.05 1136.58C2614.86 1138.07 2617.1 1138.82 2619.76 1138.82ZM2674.08 1116.9V1150.01H2658.2V1092.73H2673.34V1102.84H2674.01C2675.28 1099.51 2677.4 1096.87 2680.39 1094.93C2683.37 1092.97 2686.99 1091.99 2691.24 1091.99C2695.21 1091.99 2698.68 1092.86 2701.64 1094.6C2704.6 1096.34 2706.9 1098.82 2708.54 1102.05C2710.18 1105.26 2711 1109.09 2711 1113.54V1150.01H2695.11V1116.37C2695.14 1112.87 2694.24 1110.13 2692.43 1108.17C2690.61 1106.18 2688.12 1105.19 2684.93 1105.19C2682.8 1105.19 2680.91 1105.65 2679.27 1106.57C2677.65 1107.49 2676.38 1108.83 2675.46 1110.59C2674.57 1112.33 2674.11 1114.43 2674.08 1116.9ZM2757.63 1171.48C2755.61 1171.48 2753.72 1171.32 2751.96 1171C2750.22 1170.7 2748.78 1170.31 2747.63 1169.84L2751.21 1157.99C2753.08 1158.56 2754.75 1158.87 2756.25 1158.92C2757.76 1158.97 2759.07 1158.62 2760.16 1157.87C2761.28 1157.13 2762.19 1155.86 2762.88 1154.07L2763.82 1151.65L2743.27 1092.73H2759.97L2771.83 1134.79H2772.43L2784.4 1092.73H2801.21L2778.95 1156.2C2777.88 1159.28 2776.43 1161.96 2774.59 1164.25C2772.78 1166.56 2770.48 1168.34 2767.69 1169.58C2764.91 1170.85 2761.55 1171.48 2757.63 1171.48ZM2833.37 1151.12C2827.58 1151.12 2822.57 1149.89 2818.35 1147.43C2814.15 1144.95 2810.9 1141.49 2808.62 1137.07C2806.33 1132.62 2805.19 1127.46 2805.19 1121.59C2805.19 1115.68 2806.33 1110.51 2808.62 1106.08C2810.9 1101.63 2814.15 1098.18 2818.35 1095.72C2822.57 1093.23 2827.58 1091.99 2833.37 1091.99C2839.17 1091.99 2844.16 1093.23 2848.36 1095.72C2852.59 1098.18 2855.85 1101.63 2858.13 1106.08C2860.42 1110.51 2861.56 1115.68 2861.56 1121.59C2861.56 1127.46 2860.42 1132.62 2858.13 1137.07C2855.85 1141.49 2852.59 1144.95 2848.36 1147.43C2844.16 1149.89 2839.17 1151.12 2833.37 1151.12ZM2833.45 1138.82C2836.08 1138.82 2838.28 1138.07 2840.05 1136.58C2841.81 1135.07 2843.14 1133 2844.04 1130.39C2844.96 1127.78 2845.42 1124.81 2845.42 1121.48C2845.42 1118.15 2844.96 1115.18 2844.04 1112.57C2843.14 1109.96 2841.81 1107.9 2840.05 1106.38C2838.28 1104.86 2836.08 1104.11 2833.45 1104.11C2830.79 1104.11 2828.55 1104.86 2826.74 1106.38C2824.95 1107.9 2823.59 1109.96 2822.67 1112.57C2821.78 1115.18 2821.33 1118.15 2821.33 1121.48C2821.33 1124.81 2821.78 1127.78 2822.67 1130.39C2823.59 1133 2824.95 1135.07 2826.74 1136.58C2828.55 1138.07 2830.79 1138.82 2833.45 1138.82ZM2908.62 1125.62V1092.73H2924.5V1150.01H2909.25V1139.6H2908.66C2907.36 1142.96 2905.21 1145.66 2902.21 1147.69C2899.22 1149.73 2895.58 1150.75 2891.28 1150.75C2887.45 1150.75 2884.08 1149.88 2881.18 1148.14C2878.27 1146.4 2875.99 1143.93 2874.35 1140.72C2872.74 1137.51 2871.92 1133.67 2871.89 1129.2V1092.73H2887.78V1126.37C2887.8 1129.75 2888.71 1132.42 2890.5 1134.38C2892.29 1136.35 2894.69 1137.33 2897.69 1137.33C2899.61 1137.33 2901.4 1136.89 2903.06 1136.02C2904.73 1135.13 2906.07 1133.81 2907.09 1132.07C2908.13 1130.33 2908.64 1128.18 2908.62 1125.62ZM2937.21 1150.01V1092.73H2952.61V1102.73H2953.2C2954.25 1099.17 2956 1096.49 2958.46 1094.67C2960.92 1092.83 2963.76 1091.91 2966.96 1091.91C2967.76 1091.91 2968.62 1091.96 2969.54 1092.06C2970.46 1092.16 2971.26 1092.3 2971.96 1092.47V1106.57C2971.21 1106.34 2970.18 1106.14 2968.87 1105.97C2967.55 1105.8 2966.34 1105.71 2965.25 1105.71C2962.91 1105.71 2960.82 1106.22 2958.98 1107.24C2957.17 1108.23 2955.73 1109.62 2954.66 1111.41C2953.62 1113.2 2953.09 1115.27 2953.09 1117.6V1150.01H2937.21ZM3020.36 1073.64V1150.01H3004.47V1073.64H3020.36ZM3033.08 1150.01V1092.73H3048.97V1150.01H3033.08ZM3041.06 1085.35C3038.7 1085.35 3036.67 1084.57 3034.98 1083C3033.32 1081.41 3032.49 1079.51 3032.49 1077.3C3032.49 1075.11 3033.32 1073.23 3034.98 1071.67C3036.67 1070.08 3038.7 1069.28 3041.06 1069.28C3043.42 1069.28 3045.44 1070.08 3047.1 1071.67C3048.79 1073.23 3049.64 1075.11 3049.64 1077.3C3049.64 1079.51 3048.79 1081.41 3047.1 1083C3045.44 1084.57 3043.42 1085.35 3041.06 1085.35ZM3109.34 1109.06L3094.8 1109.96C3094.55 1108.72 3094.02 1107.6 3093.2 1106.6C3092.38 1105.58 3091.3 1104.78 3089.95 1104.18C3088.64 1103.56 3087.06 1103.25 3085.22 1103.25C3082.76 1103.25 3080.68 1103.77 3078.99 1104.81C3077.3 1105.83 3076.46 1107.2 3076.46 1108.92C3076.46 1110.28 3077 1111.44 3078.1 1112.38C3079.19 1113.33 3081.07 1114.09 3083.73 1114.66L3094.09 1116.75C3099.66 1117.89 3103.81 1119.73 3106.55 1122.26C3109.28 1124.8 3110.65 1128.13 3110.65 1132.26C3110.65 1136.01 3109.54 1139.3 3107.33 1142.14C3105.14 1144.97 3102.14 1147.18 3098.31 1148.78C3094.5 1150.34 3090.12 1151.12 3085.14 1151.12C3077.56 1151.12 3071.52 1149.55 3067.02 1146.39C3062.55 1143.21 3059.93 1138.88 3059.16 1133.41L3074.78 1132.59C3075.25 1134.9 3076.39 1136.67 3078.21 1137.89C3080.02 1139.08 3082.35 1139.68 3085.18 1139.68C3087.97 1139.68 3090.2 1139.14 3091.89 1138.07C3093.61 1136.98 3094.48 1135.58 3094.5 1133.86C3094.48 1132.42 3093.87 1131.24 3092.68 1130.32C3091.48 1129.37 3089.64 1128.65 3087.16 1128.16L3077.24 1126.18C3071.65 1125.06 3067.48 1123.12 3064.75 1120.36C3062.04 1117.6 3060.68 1114.09 3060.68 1109.81C3060.68 1106.13 3061.68 1102.96 3063.67 1100.3C3065.68 1097.64 3068.5 1095.59 3072.13 1094.15C3075.79 1092.71 3080.06 1091.99 3084.96 1091.99C3092.19 1091.99 3097.88 1093.52 3102.04 1096.57C3106.21 1099.63 3108.65 1103.79 3109.34 1109.06ZM3151.11 1092.73V1104.66H3116.62V1092.73H3151.11ZM3124.45 1079.01H3140.34V1132.41C3140.34 1133.87 3140.56 1135.02 3141.01 1135.84C3141.46 1136.63 3142.08 1137.19 3142.87 1137.51C3143.69 1137.84 3144.64 1138 3145.71 1138C3146.45 1138 3147.2 1137.94 3147.95 1137.81C3148.69 1137.66 3149.26 1137.55 3149.66 1137.48L3152.16 1149.3C3151.36 1149.55 3150.24 1149.83 3148.8 1150.16C3147.36 1150.5 3145.61 1150.71 3143.55 1150.79C3139.72 1150.94 3136.36 1150.43 3133.48 1149.26C3130.62 1148.09 3128.39 1146.28 3126.8 1143.82C3125.21 1141.36 3124.43 1138.25 3124.45 1134.49V1079.01Z" fill="#A9D7CC"/>
</svg>
