<svg width="200" height="200" viewBox="0 0 200 200" fill="none" xmlns="http://www.w3.org/2000/svg">
<path d="M68.1052 152.749C69.926 152.127 71.7915 151.634 73.6868 151.275L73.9162 152.085C73.9418 152.181 74.0023 152.264 74.0865 152.32C74.1708 152.377 74.2732 152.401 74.3749 152.391L81.8789 151.548C83.9434 147.01 87.7336 140.135 87.7882 140.029C87.7336 138.313 87.7882 136.871 87.7882 135.228C83.4955 136.765 75.5546 139.682 71.4039 141.546C71.3101 141.604 71.2375 141.689 71.1964 141.789C71.1552 141.889 71.1476 141.999 71.1745 142.104C71.1745 142.104 71.251 142.367 71.3493 142.746C69.3176 142.746 63.2336 142.462 61.7699 143.799C61.5424 144.105 61.4305 144.476 61.4532 144.852C61.3658 146.305 62.1194 157.592 63.321 160.909C63.9436 162.646 65.2543 162.457 66.15 160.793C67.1867 158.288 67.8522 155.654 68.127 152.97C68.127 152.833 68.0943 152.844 68.1052 152.749V152.749ZM66.8491 143.325C68.1817 143.22 68.5967 143.241 71.4585 143.157C71.9719 145.031 73.0314 148.885 73.5776 150.853C71.6504 151.141 69.7482 151.567 67.8867 152.128C67.3067 149.223 66.9598 146.281 66.8491 143.325Z" fill="#EA6399"/>
<path d="M168.639 51.1731C168.912 50.8046 168.563 50.3307 168.268 49.9622C169.103 49.1339 170.03 48.396 171.031 47.7616C172.721 46.9497 174.266 45.8834 175.608 44.6028C176.165 44.0448 177.214 42.8971 176.82 42.2232C176.427 41.5494 175.728 41.5072 174.778 41.8968C175.19 41.4801 175.526 40.9996 175.772 40.4754C176.078 39.6541 175.357 38.9908 173.795 39.6015C174.363 38.7275 174.494 37.8115 173.533 37.3693C172.757 37.0113 171.621 37.8641 170.966 38.4222C169.679 39.5061 168.471 40.6741 167.35 41.9179C166.662 40.528 165.57 38.9276 164.205 39.433C162.839 39.9384 163.899 42.2022 164.598 43.4341L162.118 45.0872C161.743 44.8922 161.32 44.8011 160.895 44.824C158.077 45.2872 145.133 54.7846 143.822 54.7846C142.817 54.7846 128.465 48.1512 116.056 46.2349C116.032 46.1631 115.988 46.0994 115.928 46.0509C115.868 46.0025 115.795 45.9714 115.718 45.9611C113.554 45.6051 111.359 45.4465 109.164 45.4873C109.098 45.4916 109.033 45.5099 108.974 45.5408C108.916 45.5717 108.865 45.6145 108.825 45.6663H107.908C107.689 44.8134 106.881 42.8445 106.597 42.0864C107.34 41.4651 108.367 41.1493 108.902 40.149C109.885 38.2958 109.841 35.0739 109.568 33.0102C110.803 32.1046 110.835 30.6516 110.551 29.167C110.442 28.5668 110.103 27.2086 109.579 26.8716C109.284 26.6821 108.662 26.8716 108.126 27.0611C107.591 25.8608 107.591 26.4083 107.81 25.924C107.911 25.7008 107.97 25.4619 107.984 25.2185C108.563 25.387 109.765 24.2709 109.35 22.7968C109.132 22.2691 108.865 21.7616 108.552 21.2806C108.705 20.9226 109.033 20.4909 108.006 19.1748C107.564 18.7149 106.99 18.3924 106.357 18.2482H105.854C105.492 17.741 104.96 17.3692 104.347 17.1953C103.422 16.9679 102.441 17.1002 101.616 17.5638C101.398 17.7217 101.223 17.9323 101.005 18.0797C100.511 17.7906 99.9441 17.6377 99.3663 17.6377C98.7884 17.6377 98.2217 17.7906 97.7278 18.0797C97.4387 18.1891 97.1755 18.3536 96.954 18.5635C96.7325 18.7734 96.5573 19.0243 96.4389 19.3011C95.9037 19.1231 95.3359 19.0546 94.7717 19.0999C94.2075 19.1452 93.6593 19.3034 93.1621 19.5643C91.2751 20.5507 89.8637 22.2098 89.2298 24.1867C89.2122 24.4848 89.2122 24.7836 89.2298 25.0817H89.1097C87.4712 24.85 85.385 28.5984 87.0562 31.515C87.2528 31.8625 87.504 32.1889 87.7443 32.5679C88.4434 33.6209 88.1703 33.9367 89.7323 35.2213C90.191 35.6004 90.2675 35.5688 90.5515 35.8004C90.8355 36.032 90.7263 35.9162 90.8901 36.5059C90.9794 36.8532 91.1393 37.18 91.3606 37.4674C91.5818 37.7548 91.86 37.997 92.179 38.18C92.2951 39.2099 92.7506 40.1768 93.4788 40.9387C93.7094 41.1874 93.9784 41.4005 94.2762 41.5704C94.3566 41.6141 94.4462 41.6393 94.5383 41.6441C94.866 43.6026 95.2702 46.1506 95.4449 47.2351L94.4728 47.7405C93.2009 48.2339 91.9639 48.8072 90.7699 49.4568C90.6763 49.5193 90.6101 49.6131 90.5843 49.72C89.4264 50.3097 88.3341 50.8677 87.7115 51.2257C79.0388 56.185 54.4077 88.8782 54.1564 90.3734C54.1287 90.4591 54.1287 90.5509 54.1564 90.6366C54.5095 91.1796 54.9396 91.6722 55.4344 92.1002C55.282 92.3683 55.0988 92.6191 54.8883 92.8478C52.7037 94.2271 49.4268 96.2803 47.6682 98.1124C47.5449 98.2184 47.4524 98.3535 47.3998 98.5045C47.3472 98.6555 47.3363 98.8172 47.3683 98.9734C47.4003 99.1297 47.474 99.2752 47.5821 99.3957C47.6903 99.5161 47.8291 99.6073 47.985 99.6602C48.3127 99.7655 48.3673 99.7339 50.4973 98.6072C49.9119 99.1022 49.4331 99.7032 49.0882 100.376C48.9462 100.955 49.4924 101.292 50.1805 101.187C50.5677 101.089 50.9364 100.933 51.2728 100.724C51.0758 101.017 50.971 101.359 50.971 101.708C50.971 102.057 51.0758 102.399 51.2728 102.693C52.3651 104.019 55.2269 99.8392 56.7342 98.8073C57.3459 99.5549 58.1761 101.303 59.4977 100.839C60.6446 100.429 59.3885 97.9966 59.4977 97.2911C59.9422 96.8797 60.4167 96.4997 60.9177 96.1539C61.7603 96.7563 62.7237 97.183 63.7467 97.4069C65.549 97.4069 84.3582 79.1071 85.7891 77.6436C85.2757 82.2975 82.687 102.271 83.2332 106.157C83.4844 107.915 87.8645 108.168 89.7104 108.263C89.1534 120.898 88.782 140.04 88.6837 140.24C85.7891 146.252 85.0027 147.895 84.0305 149.716C82.261 152.98 74.8116 165.026 73.9705 167.763C73.8504 168.195 73.8395 168.363 74.3092 169.164C72.9016 170.59 71.5952 172.106 70.3988 173.702C69.798 174.755 72.3758 184.568 74.1999 188.043C74.615 188.822 75.2922 190.022 76.1988 189.99C78.9295 189.896 78.9186 180.44 78.8422 177.798C78.8417 177.716 78.8107 177.638 78.7548 177.576C79.2498 176.864 79.7896 176.182 80.3714 175.534C80.7186 175.764 81.0838 175.968 81.4636 176.144C81.835 176.302 82.2501 176.029 82.5559 175.786C86.1933 173.028 105.811 149.463 110.016 138.345C111.928 133.269 114.473 126.257 115.194 121.287C115.634 118.145 115.675 114.963 115.314 111.811C115.314 111.766 115.332 111.723 115.365 111.692C115.398 111.66 115.442 111.642 115.488 111.642C115.535 111.642 115.579 111.66 115.612 111.692C115.645 111.723 115.663 111.766 115.663 111.811C116.21 114.981 116.317 118.206 115.98 121.403C115.172 128.3 109.525 142.672 106.51 147.958C109.109 147.494 114.396 146.484 116.952 145.747C125.472 143.251 133.336 135.807 134.025 127.447C134.247 123.508 134.247 119.561 134.025 115.622C133.951 110.185 133.218 104.775 131.84 99.5022C134.156 98.2914 136.275 96.8699 136.963 95.5643C138.437 92.7741 134.538 76.717 133.686 72.2105C138.35 72.7053 146.291 73.6003 149.994 70.8101C154.232 67.525 163.385 58.2803 168.639 51.1731V51.1731ZM78.2523 177.218C76.2862 176.071 73.5336 173.344 73.1186 171.206C73.5664 170.659 74.0361 170.153 74.473 169.585C75.9533 171.762 77.7989 173.687 79.9344 175.281C79.3345 175.894 78.7728 176.541 78.2523 177.218V177.218ZM165.089 43.7289C165.146 43.6942 165.186 43.6399 165.203 43.5772C165.219 43.5145 165.21 43.4483 165.177 43.392C164.794 42.7076 163.647 40.2964 164.445 40.0226C164.904 39.8542 165.308 40.1279 165.646 40.4964C166.163 41.1288 166.566 41.8407 166.837 42.6023C166.857 42.6642 166.894 42.7197 166.945 42.7627C166.995 42.8058 167.057 42.8348 167.123 42.8467C167.189 42.8586 167.258 42.8529 167.321 42.8303C167.384 42.8076 167.439 42.7688 167.481 42.7181C168.574 41.5494 171.13 38.8855 172.571 38.1695C173.664 37.622 173.926 38.6328 171.25 40.9913C170.635 41.4431 170.045 41.9246 169.48 42.4338C169.449 42.4752 169.432 42.5249 169.432 42.576C169.432 42.627 169.449 42.6768 169.48 42.7181C169.48 42.9919 169.71 43.2972 170.103 43.0129C171.052 42.2095 172.056 41.4673 173.107 40.7913C173.643 40.4239 174.266 40.1922 174.92 40.1174C174.592 41.0861 171.545 43.7184 171.283 44.0132C171.199 44.085 171.149 44.1855 171.142 44.2929C171.135 44.4003 171.172 44.5061 171.245 44.5875C171.318 44.6689 171.421 44.7194 171.532 44.7282C171.643 44.737 171.754 44.7033 171.84 44.6344C173.052 43.8763 175.171 42.1074 175.903 42.3706C176.635 42.6339 174.461 44.5923 173.915 45.0556C170.78 47.6774 171.588 45.9927 167.962 49.5516C166.383 47.8847 164.571 46.4387 162.577 45.2557L165.089 43.7289ZM117.629 94.0902C117.444 92.6372 117.214 91.0683 116.93 89.4363L117.4 88.8361C119.585 86.1301 120.24 81.8237 120.032 78.4438C121.201 83.382 122.13 88.236 122.84 93.0583L117.629 94.0902ZM101.387 58.0381C98.5143 55.9323 93.8939 52.2997 91.2069 49.8148L95.576 47.709C99.588 51.3214 103.022 55.4871 105.767 60.0703C109.964 67.5021 113.077 75.4564 115.019 83.7084L99.4427 62.4709L101.474 58.4067C101.501 58.3441 101.507 58.275 101.492 58.209C101.476 58.1429 101.439 58.0832 101.387 58.0381ZM108.771 46.098C108.836 46.2138 109.59 47.7616 110.737 50.4676C110.737 50.5834 110.529 53.2157 110.431 54.1423C109.037 53.6096 107.722 52.9015 106.521 52.0365C106.761 51.1204 107.842 46.9614 107.919 46.0243L108.771 46.098ZM104.893 57.4064C104.97 57.2169 105.046 56.9641 105.134 56.6693L105.865 57.0379C106.28 57.3011 106.117 56.5009 106.488 58.8173C106.488 59.2069 106.597 59.6386 106.619 60.1124C106.117 59.2385 105.494 58.3014 104.904 57.4064H104.893ZM104.282 56.5219C102.218 53.7005 99.8689 51.0834 97.2691 48.7092L105.494 52.1523C105.177 52.8788 104.718 55.1005 104.292 56.5219H104.282ZM112.681 62.6921C111.589 59.8176 110.748 56.6062 110.333 55.7638C110.357 55.5011 110.357 55.2368 110.333 54.9741C110.491 55.0308 110.656 55.0663 110.824 55.0794C110.93 55.0806 111.032 55.045 111.112 54.9792C111.193 54.9134 111.245 54.8219 111.261 54.7214C111.349 54.374 111.491 52.6156 111.513 52.226C114.69 59.9592 117.343 67.8834 119.453 75.9484C113.282 63.2922 114.232 66.9564 112.692 62.6921H112.681ZM121.714 82.7923C119.224 71.2839 114.844 56.9326 109.863 46.298C111.692 46.299 113.519 46.4399 115.325 46.7192C116.253 54.7214 115.478 54.4477 116.1 54.7635C116.723 55.0794 120.469 56.5325 121.026 56.7536C120.972 57.5643 121.758 80.7497 121.725 82.7923H121.714ZM109.142 27.5455C109.712 28.7433 109.913 30.0735 109.721 31.3781C109.632 31.7102 109.449 32.0119 109.193 32.2498C108.937 32.4877 108.617 32.6523 108.27 32.7254C107.922 32.7985 107.56 32.7773 107.225 32.6639C106.889 32.5506 106.592 32.3497 106.368 32.0836C105.847 31.0253 105.454 29.9123 105.199 28.7669C105.494 28.3984 108.64 27.6613 109.142 27.5455V27.5455ZM94.1124 38.0747C93.7133 37.8996 93.305 37.745 92.889 37.6114C92.6098 37.5008 92.3606 37.33 92.1605 37.1122C91.9603 36.8943 91.8146 36.6352 91.7345 36.3547C91.6543 36.0741 91.6419 35.7796 91.6981 35.4937C91.7544 35.2078 91.8777 34.9382 92.0588 34.7054C92.747 34.1473 93.3696 34.1789 93.9376 35.0107C94.298 35.653 94.2871 35.7056 94.451 35.7688C94.498 35.7888 94.5488 35.7988 94.6002 35.7983C94.6516 35.7978 94.7022 35.7867 94.7487 35.7657C94.7953 35.7448 94.8367 35.7145 94.8701 35.6769C94.9035 35.6393 94.9282 35.5953 94.9425 35.5477C95.1044 34.8886 95.1304 34.2053 95.019 33.5366C94.8879 32.8101 94.866 29.5882 94.8879 29.4829C95.2069 29.645 95.5653 29.7214 95.9255 29.704C97.9026 29.6303 98.2958 28.6511 99.0823 27.8508C99.9889 27.9351 100.175 28.3562 101.201 27.8508C101.682 27.5872 102.123 27.2613 102.512 26.8821C102.826 27.006 103.129 27.1539 103.419 27.3244C104.073 27.6278 104.812 27.721 105.525 27.5903C106.239 27.4595 106.89 27.1117 107.384 26.5979C107.504 26.819 107.613 27.0401 107.711 27.2717C106.708 27.572 105.763 28.031 104.915 28.63C104.729 28.8511 105.002 30.0514 105.068 30.3357C104.153 30.4467 103.268 30.7217 102.457 31.1465C102.294 30.599 101.933 29.5776 101.365 29.2933C101.194 29.2429 101.012 29.2429 100.841 29.2933C99.8578 29.4408 96.3297 30.4621 95.9037 31.0201C95.5323 31.4097 96.5918 34.4211 96.9195 34.916C98.1757 36.7902 101.857 36.2426 102.545 34.0526C102.715 33.3176 102.715 32.5554 102.545 31.8204C102.862 31.8204 103.812 31.494 103.921 31.4624C104.675 33.0944 104.893 33.1892 105.767 34.9475C105.647 35.0423 105.45 35.2002 105.286 35.3055C104.511 35.8004 104.347 35.7162 104.391 35.9268C104.404 35.9686 104.432 36.0044 104.47 36.0277C104.508 36.051 104.554 36.06 104.598 36.0531C105.057 35.99 105.505 35.8696 105.931 35.6951C106.186 35.6034 106.396 35.4232 106.521 35.1897C106.827 34.5264 105.134 32.0309 104.467 31.2834C104.598 31.2834 104.904 31.0728 105.134 30.957C105.439 32.1362 105.647 33.0628 106.827 33.5261C107.168 33.6502 107.531 33.7067 107.895 33.6922C108.259 33.6777 108.616 33.5926 108.946 33.4419C109.12 35.295 109.088 38.3064 108.17 39.9489C107.7 40.8018 106.543 41.1282 105.8 41.8337C105.581 42.0337 105.723 42.318 105.8 42.6233C107.012 45.8769 107.034 45.8663 106.969 46.2875C106.647 48.0356 106.198 49.7596 105.625 51.4468C105.352 51.331 102.283 49.7622 96.2751 47.5089C96.0894 46.3191 95.0954 39.97 94.7786 38.8012C94.8005 38.3906 94.7459 38.2958 94.1124 38.0221V38.0747ZM101.758 33.7788C101.409 34.9265 99.7595 35.4214 98.5798 35.1055C97.4001 34.7896 97.3237 34.2105 96.7666 32.8417C96.5055 32.3188 96.3252 31.7619 96.2314 31.1886C96.5918 30.8096 100.535 30.0304 101.027 29.9567C101.716 31.0936 101.975 32.4259 101.758 33.7261V33.7788ZM59.0171 96.9963C58.602 97.3859 59.1591 98.6599 59.2465 99.7655C59.2465 99.8602 59.2465 100.271 59.181 100.302C58.5802 100.492 58.0231 99.6181 57.6845 99.0916C57.3459 98.5651 57.0073 97.8491 56.4721 98.0387C55.3798 98.5335 52.8457 101.777 51.8517 102.113C51.3493 101.187 54.222 98.5441 54.3203 98.3967C54.3624 98.329 54.3845 98.2514 54.3841 98.1725C54.3837 98.0936 54.3609 98.0162 54.3181 97.9489C54.2753 97.8816 54.2142 97.8269 54.1414 97.7907C54.0686 97.7546 53.9869 97.7384 53.9052 97.7438C53.7086 97.7438 53.5775 97.9123 53.2717 98.1755C52.3414 99.0507 51.2767 99.7824 50.115 100.345C51.1682 99.1798 52.2955 98.0791 53.4901 97.0489C53.5491 96.9904 53.5907 96.9177 53.6103 96.8383C53.6103 96.8383 53.3809 96.2803 52.9331 96.5014C52.2995 96.8383 49.2193 98.5546 48.2472 98.9968C48.1161 98.9126 48.1925 98.7862 48.2472 98.6599C49.7873 96.8383 53.1734 94.6272 55.2487 93.2268C55.4923 92.985 55.695 92.7079 55.8495 92.4055C57.2868 93.6947 58.8201 94.8806 60.4371 95.9539C59.9389 96.2687 59.4644 96.6171 59.0171 96.9963V96.9963ZM84.4347 106.567C84.1944 106.42 84.0196 106.283 83.9868 106.094C83.3861 101.798 86.7285 77.454 86.6739 76.4959C86.6739 76.4397 86.6622 76.384 86.6396 76.3322C86.617 76.2804 86.5838 76.2335 86.5421 76.1943C86.5003 76.155 86.4509 76.1242 86.3966 76.1037C86.3423 76.0831 86.2843 76.0733 86.226 76.0747C85.669 76.0747 86.652 76.0747 72.7363 88.9204C71.8187 89.7522 64.8062 96.2171 63.6375 96.6488C62.0318 96.533 55.9915 91.8896 55.0084 90.426C56.909 86.7198 79.9563 56.2271 87.93 51.5627C88.5417 51.2047 89.5903 50.6466 90.7372 50.057C91.1338 50.4175 91.5613 50.7451 92.0152 51.0362C94.5493 53.3526 98.0774 56.2376 100.753 58.4067L98.6672 62.3972C98.6356 62.4501 98.6189 62.51 98.6189 62.571C98.6189 62.632 98.6356 62.6919 98.6672 62.7447C115.609 86.1722 115.357 85.909 115.467 85.909C116.553 91.3226 117.228 96.8053 117.487 102.314C117.487 103.798 117.487 103.672 117.553 103.567C117.618 103.461 117.553 103.64 117.553 103.64C114.91 106.42 88.7492 109.01 84.4347 106.567V106.567ZM144.816 71.684C139.868 72.3474 134.276 71.3576 133.194 71.3155C132.594 68.5086 131.396 65.852 129.677 63.5133C129.651 63.4792 129.612 63.456 129.569 63.4482C129.526 63.4403 129.481 63.4486 129.444 63.4712C129.407 63.4938 129.38 63.5291 129.368 63.5701C129.357 63.6111 129.362 63.6548 129.382 63.6923C130.016 64.9348 132.135 70.2942 132.659 71.5998C132.495 72.1052 137.596 92.4371 136.155 95.1747C134.866 97.6491 127.362 100.766 124.653 101.661C124.117 95.799 123.242 89.9708 122.031 84.2033C122.403 81.1708 121.922 63.1448 121.78 56.4798C121.776 56.4024 121.749 56.3276 121.703 56.2643C121.656 56.2009 121.592 56.1515 121.518 56.1218L116.613 54.1318C116.591 51.6296 116.427 49.1304 116.122 46.6455C128.367 48.6882 142.632 55.4374 143.822 55.4479C145.548 55.4479 158.372 45.9716 161.026 45.5926C162.206 45.4136 167.274 49.6779 167.864 50.8572C162.686 57.8275 153.587 66.988 149.371 70.1573C148.013 71.0327 146.445 71.5583 144.816 71.684V71.684Z" fill="#EA6399"/>
<path d="M100.634 31.673C100.62 31.6039 100.592 31.538 100.552 31.4792C100.512 31.4203 100.461 31.3696 100.4 31.33C100.34 31.2905 100.272 31.2627 100.2 31.2484C100.129 31.2341 100.055 31.2334 99.9836 31.2466C99.9119 31.2597 99.8435 31.2863 99.7825 31.3249C99.7214 31.3635 99.6689 31.4133 99.6278 31.4715C99.5867 31.5297 99.5579 31.5951 99.5431 31.664C99.5282 31.7329 99.5276 31.8039 99.5412 31.8731C99.7597 32.926 99.8034 33.1682 100.284 33.1682C100.375 33.1685 100.464 33.1469 100.544 33.1055C100.624 33.064 100.692 33.004 100.742 32.9308C100.792 32.8576 100.822 32.7736 100.83 32.6864C100.838 32.5991 100.823 32.5114 100.786 32.4311C100.754 32.2627 100.655 31.7678 100.634 31.673V31.673ZM103.976 38.6434C104.686 38.8434 105.363 38.517 105.341 38.3485C105.319 38.1801 105.341 38.2643 104.38 37.9169C103.736 37.6852 103.026 36.8639 102.774 36.9903C102.523 37.1166 102.905 37.7905 102.993 37.9169C103.227 38.2586 103.573 38.5145 103.976 38.6434V38.6434ZM123.954 28.6406C122.523 34.4211 121.474 39.3278 121.3 40.307C121.184 40.733 121.161 41.1778 121.234 41.6126C121.813 42.8024 129.295 45.1504 130.245 44.6871C131.196 44.2239 133.664 38.8645 136.537 33.3366C138.297 33.3908 140.058 33.2673 141.791 32.9681C143.616 32.6454 145.392 32.1042 147.078 31.3571C150.77 29.7146 154.811 22.6811 155.357 19.1432C155.767 15.3022 154.923 11.4337 152.943 8.07702C143.779 -7.24301 116.898 1.00138 119.082 18.0166C119.706 21.91 121.387 25.5752 123.954 28.6406V28.6406ZM130.617 41.1809C130.617 41.3494 130.42 41.3283 129.525 41.1809C127.693 40.959 125.919 40.4128 124.292 39.5699C123.528 39.1698 123.32 39.0856 123.397 38.9066C123.473 38.7276 123.637 38.7908 124.817 39.1066C124.926 39.1066 128.312 40.1596 129.284 40.486C130.54 41.0335 130.617 41.0335 130.617 41.1809V41.1809ZM130.42 24.0499C131.587 24.1082 132.749 23.8761 133.795 23.376C134.768 23.8302 135.82 24.1052 136.897 24.1867C135.062 27.4824 131.338 34.2 130.136 37.78L125.505 36.5481C126.597 33.9579 129.011 27.893 130.398 24.0499H130.42ZM130.038 23.1759C129.223 23.0572 128.47 22.6839 127.896 22.1133C127.322 21.5428 126.958 20.8064 126.859 20.0172C126.554 17.9113 127.952 15.5528 130.06 16.1108C131.381 16.4583 131.545 17.4691 131.316 18.7431C131.119 19.6697 130.409 21.9967 130.016 23.1338L130.038 23.1759ZM133.009 20.6489C133.126 19.9599 133.394 19.303 133.795 18.7221C133.986 18.4054 134.266 18.1468 134.602 17.9755C134.938 17.8043 135.317 17.7273 135.696 17.7534C136.504 17.985 136.854 19.4591 136.188 20.3857C135.547 21.2048 134.75 21.8982 133.839 22.4284C133.526 22.251 133.276 21.9855 133.124 21.6674C132.971 21.3493 132.924 20.9939 132.987 20.6489H133.009ZM122.971 7.26627C127.864 1.59101 137.072 -0.662241 143.724 1.67525C147.338 2.87099 150.378 5.2921 152.277 8.48766C154.16 11.6818 154.966 15.3616 154.582 19.0169C154.079 22.2915 150.212 29.0934 146.815 30.599C143.71 31.9647 140.321 32.6274 136.908 32.5364C136.537 32.5364 136.144 32.5364 136.002 32.7891C135.357 34.0526 134.178 36.4954 133.02 38.7908C132.22 38.4186 131.391 38.1088 130.54 37.8642C131.807 34.3685 135.805 27.5034 137.706 24.1762C139.353 24.3122 141.008 24.0366 142.512 23.376C142.918 23.1698 143.255 22.8562 143.483 22.4719C143.711 22.0876 143.82 21.6486 143.799 21.2065C143.777 20.7643 143.625 20.3373 143.36 19.9756C143.095 19.6139 142.729 19.3324 142.304 19.1643C140.611 18.3641 139.093 20.2804 138.208 21.8914C137.968 22.3125 137.695 22.8074 137.389 23.3655C136.506 23.3095 135.634 23.1359 134.8 22.8495C135.631 22.2868 136.368 21.6051 136.985 20.8279C137.331 20.3245 137.506 19.73 137.486 19.1265C137.467 18.523 137.253 17.9402 136.876 17.4586C136.579 17.1264 136.167 16.9099 135.716 16.8498C135.266 16.7897 134.808 16.8901 134.429 17.1322C133.664 17.5853 133.051 18.2416 132.663 19.0223C132.276 19.803 132.13 20.6749 132.244 21.5334C132.363 22.0179 132.634 22.4555 133.02 22.7863C132.303 23.0724 131.534 23.2157 130.759 23.2075C131.196 21.9651 131.906 19.7223 132.091 18.8063C132.208 18.284 132.234 17.7468 132.168 17.2164C132.083 16.7611 131.864 16.339 131.537 16.0009C131.209 15.6628 130.787 15.4231 130.322 15.3106C127.668 14.5841 125.712 17.4164 126.095 20.0593C126.203 21.0064 126.624 21.8947 127.297 22.5926C127.97 23.2906 128.858 23.7609 129.83 23.934C128.432 27.7246 126.248 33.842 125.155 36.4533L122.752 35.8531C124.292 28.3984 124.478 28.5774 124.26 28.4827C121.778 25.4324 120.19 21.7964 119.661 17.9534C119.404 16.0479 119.565 14.1115 120.136 12.2702C120.706 10.4289 121.672 8.7239 122.971 7.26627V7.26627ZM138.132 23.4286C138.896 22.0914 140.426 19.1643 141.911 19.8803C142.208 19.9957 142.467 20.1871 142.659 20.4339C142.852 20.6807 142.971 20.9735 143.003 21.2807C142.982 23.1338 139.989 23.4602 138.088 23.4286H138.132ZM179.945 28.072C181.261 27.3258 182.816 27.071 184.314 27.356C185.959 27.3844 187.531 28.0187 188.707 29.1288C189.883 30.2389 190.574 31.7407 190.638 33.3261C189.648 32.7726 188.491 32.5644 187.361 32.7365C184.62 32.9681 181.037 34.4001 181.517 36.9482C181.911 39.054 184.794 38.7697 186.979 38.2011C189.163 37.6326 190.9 36.6007 191.348 34.5686C194.002 36.4322 194.625 39.6963 194.734 42.8866C194.734 42.9313 194.753 42.9742 194.785 43.0058C194.818 43.0374 194.863 43.0551 194.909 43.0551C194.955 43.0551 195 43.0374 195.033 43.0058C195.065 42.9742 195.084 42.9313 195.084 42.8866C195.16 39.3172 194.494 35.8215 191.468 33.7894C191.499 32.8752 191.338 31.9645 190.993 31.1123C190.648 30.2601 190.128 29.4842 189.463 28.8315C188.798 28.1789 188.003 27.6631 187.125 27.3154C186.248 26.9676 185.306 26.7952 184.357 26.8085C182.841 26.5951 181.295 26.9006 179.988 27.6719C179.584 27.8614 179.77 28.1457 179.945 28.072V28.072ZM189.906 35.6215C188.672 37.1798 185.177 37.9906 183.56 37.7273C182.959 37.6326 182.468 37.3904 182.337 36.7902C181.943 34.6844 185.712 33.5367 187.962 33.463C188.878 33.3953 189.792 33.6211 190.562 34.1053C190.479 34.6558 190.254 35.1773 189.906 35.6215V35.6215ZM174.942 15.7634C176.111 14.3735 175.324 11.9518 172.058 11.9412C170.791 11.9412 170.18 13.1837 170.267 14.3735C170.464 17.2059 173.773 17.1216 174.942 15.7634V15.7634ZM171.031 14.3208C171.031 13.6259 171.37 12.7204 172.124 12.7309C173.882 12.7309 174.691 13.5206 174.691 14.3946C174.647 16.3846 170.89 17.4164 171.031 14.3208V14.3208ZM170.584 133.691C160.982 129.995 156.526 147.884 148.683 163.257C148.634 163.903 148.656 164.552 148.749 165.194C148.749 166.805 148.935 177.471 149.907 178.682C150.169 179.166 151.272 178.682 151.785 178.377C156.146 175.775 160.254 172.801 164.063 169.49C164.095 169.454 164.12 169.412 164.135 169.367C164.15 169.322 164.155 169.274 164.15 169.227C166.182 166.437 173.795 151.906 175.641 144.62C176.93 139.461 175.652 135.618 170.584 133.691V133.691ZM174.013 147.063C168.873 146.428 163.904 144.863 159.366 142.451C161.922 137.787 165.079 132.469 170.289 134.47C176.089 136.692 175.969 141.293 174.013 147.031V147.063ZM155.838 174.439C155.502 174.168 155.136 173.935 154.745 173.744C153.269 173.02 151.564 172.862 149.972 173.302C149.863 172.049 149.24 163.899 149.24 163.825C157.422 166.71 154.898 165.457 163.003 169.343C162.151 170.122 158.951 172.28 155.838 174.418V174.439ZM161.474 143.967C162.539 144.528 163.633 145.038 164.751 145.494C162.247 149.285 160.035 153.247 158.132 157.35C156.297 161.046 156.362 161.025 154.494 165.057C153.402 164.72 152.31 164.404 151.217 164.089C152.397 161.825 160.786 145.273 161.474 143.946V143.967ZM154.92 165.163C158.47 159.024 162.086 151.39 165.188 145.631C166.28 146.073 167.372 146.431 168.465 146.747C167.886 147.8 166.193 150.601 165.745 151.411C165.297 152.222 160.808 160.751 160.491 161.404C159.988 162.457 158.612 165.394 158.186 166.331C157.072 165.857 156.002 165.499 154.877 165.141L154.92 165.163ZM158.579 166.468C159.246 165.299 161.987 160.393 162.326 159.761C162.839 158.782 168.563 147.505 168.88 146.852C169.885 147.126 170.944 147.358 171.621 147.484C169.622 152.749 163.866 162.888 161.791 167.89C159.901 167.037 159.475 166.826 158.536 166.447L158.579 166.468ZM159.246 142.756L161.201 143.809C157.261 150.277 153.829 157.021 150.933 163.983L149.295 163.499C155.641 150.464 155.936 148.758 159.202 142.735L159.246 142.756ZM163.746 168.806L162.097 168.048C163.877 164.678 169.448 156.034 171.993 147.558C172.604 147.663 173.205 147.758 173.784 147.831C170.977 155.051 167.607 162.056 163.702 168.785L163.746 168.806ZM129.525 175.639C129.96 175.292 130.271 174.821 130.414 174.294C130.557 173.767 130.525 173.21 130.322 172.701C130.229 171.968 129.88 171.286 129.332 170.77C128.784 170.253 128.07 169.931 127.307 169.857C126.544 169.784 125.778 169.963 125.135 170.365C124.492 170.767 124.01 171.368 123.768 172.07C122.37 171.196 120.852 170.269 119.399 169.385C120.491 167.984 123.703 168.606 124.03 169.753C124.038 169.798 124.063 169.838 124.101 169.865C124.139 169.891 124.186 169.902 124.232 169.895C124.279 169.888 124.32 169.864 124.348 169.827C124.376 169.791 124.387 169.745 124.38 169.701C124.216 167.869 120.262 166.795 118.667 168.953C117.258 168.121 115.51 167.11 114.047 166.342C115.303 165.289 118.11 165.879 118.416 166.974C118.43 167.011 118.458 167.042 118.494 167.062C118.53 167.082 118.572 167.088 118.613 167.081C118.654 167.073 118.69 167.052 118.716 167.021C118.742 166.989 118.756 166.95 118.755 166.91C118.613 165.205 114.953 164.057 113.293 165.931C112.597 165.555 111.866 165.245 111.109 165.005C110.97 164.949 110.818 164.934 110.671 164.96C110.524 164.986 110.387 165.053 110.278 165.152C107.515 168.469 98.1977 177.082 93.8941 178.082C93.7859 178.098 93.6839 178.141 93.5984 178.206C93.5129 178.272 93.4469 178.358 93.407 178.457C93.3671 178.555 93.3548 178.662 93.3713 178.766C93.3878 178.87 93.4325 178.968 93.5009 179.051C94.4459 179.975 95.5281 180.759 96.7122 181.378C95.6199 182.43 94.7679 183.378 94.1344 184.063C93.8067 184.399 93.6319 190.843 93.9159 192.265C93.9582 192.404 94.0513 192.524 94.1781 192.602C95.5544 193.507 113.282 200.899 115.095 199.909C116.308 199.246 130.781 184.726 131.01 184.284C131.36 183.589 131.239 178.956 131.218 177.103C131.13 176.545 130.049 175.944 129.525 175.639V175.639ZM94.5713 189.548V187.2C99.1043 189.306 109.481 193.602 113.413 194.802C114.418 195.118 114.506 195.076 115.03 194.802C118.034 192.949 128.64 181.43 130.584 179.672V181.893C124.686 187.59 114.669 197.572 114.484 197.003C113.402 196.94 95.5107 189.969 94.5713 189.548ZM129.251 172.091C129.644 172.729 129.855 173.455 129.863 174.197C129.859 174.433 129.799 174.665 129.688 174.875C129.576 175.085 129.415 175.267 129.219 175.407C128.301 174.818 126.564 173.723 124.511 172.438C125.636 170.301 128.137 170.269 129.208 172.091H129.251ZM94.2982 178.829C98.9514 177.503 107.788 169.29 110.759 165.731C111.474 165.923 112.163 166.195 112.813 166.542C111.72 168.5 112.889 170.648 113.304 170.343C113.533 170.174 113.118 170.111 113.053 169.079C113.025 168.326 113.202 167.578 113.566 166.91C115.074 167.669 116.843 168.658 118.34 169.49C117.422 171.459 118.525 173.407 118.907 173.123C119.29 172.838 118.733 172.902 118.667 171.87C118.641 171.193 118.775 170.519 119.06 169.901C120.601 170.775 122.173 171.68 123.615 172.533C123.393 173.058 123.305 173.626 123.358 174.19C123.411 174.755 123.604 175.299 123.921 175.776C123.935 175.794 123.953 175.809 123.974 175.82C123.994 175.832 124.017 175.839 124.04 175.842C124.063 175.845 124.087 175.843 124.11 175.837C124.132 175.832 124.154 175.821 124.172 175.808C124.191 175.794 124.207 175.777 124.218 175.757C124.23 175.737 124.238 175.716 124.241 175.693C124.244 175.671 124.242 175.648 124.236 175.626C124.23 175.604 124.219 175.583 124.205 175.565C124.009 175.147 123.912 174.692 123.921 174.233C123.931 173.774 124.046 173.323 124.26 172.912C126.805 174.407 128.858 175.66 129.492 176.071C129.372 176.176 117.979 185.947 114.101 188.853C111.556 188.211 98.1977 181.82 94.2982 178.829ZM94.7133 184.694C99.6614 186.8 110.901 191.686 113.49 192.159C113.938 192.244 114.112 192.275 114.964 191.623C118.602 188.811 130.431 176.882 130.54 177.008C130.546 177.039 130.546 177.071 130.54 177.103V179.209C128.105 181.093 114.56 194.802 114.342 194.15C113.249 194.15 95.4997 187.169 94.5931 186.779C94.5713 186.337 94.6696 185.158 94.7133 184.694V184.694ZM114.604 199.204C113.512 199.804 96.876 193.286 94.6478 191.959C94.5641 191.289 94.524 190.613 94.5276 189.938C99.3118 192.212 113.228 197.877 114.506 197.824C116.373 197.729 129.579 183.399 130.519 182.399C130.529 182.937 130.474 183.474 130.355 183.999C130.169 184.347 115.325 198.814 114.604 199.204V199.204ZM24.1078 139.85C24.1842 140.977 24.2388 141.956 24.2388 142.872C24.2388 143.012 24.2964 143.146 24.3988 143.244C24.5012 143.343 24.6401 143.399 24.785 143.399C24.9298 143.399 25.0687 143.343 25.1712 143.244C25.2736 143.146 25.3311 143.012 25.3311 142.872C25.3311 141.893 25.2765 140.924 25.2001 139.777C25.1899 139.637 25.1226 139.507 25.0131 139.415C24.9035 139.323 24.7605 139.277 24.6157 139.287C24.4708 139.297 24.3359 139.362 24.2407 139.467C24.1454 139.573 24.0976 139.711 24.1078 139.85V139.85ZM190.54 118.739C190.468 118.743 190.399 118.761 190.335 118.791C190.27 118.822 190.213 118.864 190.166 118.916C190.12 118.968 190.084 119.029 190.062 119.094C190.04 119.16 190.031 119.229 190.037 119.297C190.103 120.266 190.168 121.308 190.168 122.319C190.168 122.459 190.226 122.593 190.328 122.691C190.431 122.79 190.57 122.846 190.715 122.846C190.859 122.846 190.998 122.79 191.101 122.691C191.203 122.593 191.261 122.459 191.261 122.319C191.261 121.266 191.195 120.213 191.119 119.224C191.115 119.155 191.096 119.088 191.065 119.026C191.033 118.964 190.989 118.909 190.935 118.864C190.881 118.819 190.818 118.784 190.751 118.763C190.683 118.742 190.611 118.733 190.54 118.739V118.739ZM21.2787 137.229C21.4236 137.229 21.5625 137.173 21.6649 137.074C21.7673 136.976 21.8249 136.842 21.8249 136.702C21.8249 136.562 21.7673 136.429 21.6649 136.33C21.5625 136.231 21.4236 136.176 21.2787 136.176C19.9571 136.176 18.8539 136.27 17.7616 136.249C17.6157 136.249 17.4756 136.304 17.3715 136.403C17.2673 136.501 17.2074 136.635 17.2045 136.776C17.2045 136.915 17.262 137.049 17.3645 137.148C17.4669 137.247 17.6058 137.302 17.7506 137.302C18.8757 137.323 20.11 137.281 21.2787 137.229ZM187.154 115.623C185.843 115.623 184.74 115.696 183.637 115.707C183.492 115.707 183.353 115.762 183.25 115.861C183.148 115.96 183.09 116.094 183.09 116.233C183.09 116.373 183.148 116.507 183.25 116.606C183.353 116.704 183.492 116.76 183.637 116.76C184.816 116.76 186.04 116.76 187.219 116.675C187.364 116.667 187.5 116.604 187.596 116.499C187.692 116.394 187.741 116.257 187.733 116.117C187.724 115.978 187.658 115.847 187.549 115.754C187.441 115.662 187.299 115.614 187.154 115.623V115.623ZM23.8128 130.721C23.8784 131.69 23.9439 132.733 23.9439 133.743C23.9467 133.882 24.0052 134.014 24.107 134.113C24.2088 134.211 24.3461 134.267 24.4901 134.27C24.6349 134.27 24.7738 134.214 24.8762 134.116C24.9787 134.017 25.0362 133.883 25.0362 133.743C25.0362 132.69 24.9707 131.638 24.9051 130.648C24.895 130.508 24.8277 130.378 24.7181 130.286C24.6085 130.194 24.4656 130.148 24.3208 130.158C24.1759 130.168 24.041 130.233 23.9458 130.338C23.8505 130.444 23.8027 130.582 23.8128 130.721V130.721ZM190.966 113.19C190.966 112.137 190.9 111.084 190.824 110.095C190.814 109.955 190.746 109.825 190.637 109.733C190.527 109.641 190.384 109.595 190.239 109.605C190.095 109.615 189.96 109.68 189.864 109.785C189.769 109.891 189.721 110.029 189.731 110.168C189.797 111.137 189.863 112.179 189.863 113.19C189.863 113.33 189.92 113.464 190.023 113.563C190.125 113.661 190.264 113.717 190.409 113.717C190.555 113.717 190.695 113.662 190.799 113.563C190.903 113.465 190.963 113.331 190.966 113.19V113.19ZM31.8739 137.092C31.9457 137.089 32.0162 137.073 32.0813 137.044C32.1465 137.015 32.2052 136.974 32.2539 136.923C32.3026 136.872 32.3404 136.812 32.3651 136.747C32.3899 136.682 32.4012 136.613 32.3982 136.544C32.3872 136.406 32.3225 136.278 32.2172 136.184C32.1118 136.09 31.9736 136.038 31.8302 136.039C30.5086 136.091 29.4054 136.133 28.3022 136.112C28.1573 136.112 28.0184 136.168 27.916 136.267C27.8135 136.365 27.756 136.499 27.756 136.639C27.756 136.779 27.8135 136.912 27.916 137.011C28.0184 137.11 28.1573 137.165 28.3022 137.165C29.4709 137.186 30.6943 137.144 31.8739 137.092ZM197.749 115.486C196.657 115.538 195.444 115.57 194.232 115.57C194.16 115.567 194.088 115.578 194.02 115.603C193.953 115.628 193.891 115.665 193.839 115.713C193.787 115.762 193.746 115.819 193.717 115.883C193.689 115.947 193.675 116.016 193.675 116.086C193.675 116.226 193.732 116.361 193.834 116.462C193.936 116.562 194.075 116.62 194.221 116.623C195.466 116.623 196.471 116.623 197.793 116.539C197.864 116.536 197.935 116.52 198 116.491C198.065 116.462 198.124 116.42 198.172 116.37C198.221 116.319 198.259 116.259 198.284 116.194C198.309 116.129 198.32 116.06 198.317 115.991C198.303 115.854 198.238 115.727 198.133 115.634C198.028 115.54 197.892 115.488 197.749 115.486V115.486ZM6.77314 105.894C6.91514 105.999 37.7177 101.598 39.0393 100.818C39.1125 100.767 39.171 100.698 39.2092 100.619C39.2474 100.54 39.2641 100.453 39.2578 100.366C39.2578 99.0074 37.4118 86.2565 36.5271 83.0767C36.4179 82.6871 36.3086 82.2975 36.0574 82.1607C34.3862 81.192 4.9381 86.5408 3.17951 87.6359C3.13185 87.663 3.09068 87.6996 3.05868 87.7431C3.02668 87.7866 3.00458 87.8362 2.99382 87.8886C2.62245 89.1626 5.82285 105.262 6.77314 105.894V105.894ZM3.66012 88.1413C5.75732 87.2252 32.4856 82.5081 35.544 82.8766C36.2868 84.7193 38.2747 98.2177 38.4058 100.197C36.8875 100.629 7.18821 105.546 7.07898 105.567C6.96976 105.588 6.95883 105.715 6.72945 105.051C5.76824 102.271 3.60551 90.5209 3.66012 88.1413V88.1413Z" fill="#EA6399"/>
<path d="M41.4424 101.755C41.5018 101.649 41.5284 101.528 41.5189 101.408C41.5189 99.7338 39.0285 81.1497 38.1437 79.6651C38.0743 79.5557 37.9762 79.4658 37.8591 79.4048C37.7421 79.3438 37.6104 79.3137 37.4774 79.3176C33.8182 78.886 2.95016 84.6981 0.918504 86.0564C0.634509 86.2459 0.6782 86.7197 0.710969 87.2251C0.885735 89.9943 3.98783 108.21 5.08012 108.105C5.20027 108.105 5.15658 108.02 4.87259 108.578C3.16862 111.958 -0.064556 122.782 0.000981334 124.962C0.000981334 125.878 0.219438 127.068 1.15881 127.005C7.89823 126.204 40.94 121.15 50.4429 119.266C50.8142 119.192 51.0546 118.865 51.0436 118.328C50.9315 117.434 50.6501 116.567 50.2135 115.77C48.8809 113.359 43.3539 103.809 41.4424 101.755ZM5.14566 107.778C4.29368 106.725 1.15881 88.5834 1.39911 86.5723C3.80215 85.372 34.2552 79.6967 37.4446 80.16C38.3185 82.4764 40.5795 99.2074 40.7215 101.218C36.8548 102.503 10.0828 106.673 5.14566 107.778ZM5.62627 108.094C6.54379 107.873 37.7942 102.829 40.656 102.103C42.2179 103.503 49.2741 115.601 49.7329 116.633C43.4631 117.686 6.27072 123.677 0.798352 124.478C0.874812 121.287 4.27183 110.137 5.62627 108.094V108.094Z" fill="#EA6399"/>
<path d="M9.73328 119.013C10.6836 118.876 30.8472 116.539 38.1328 114.633C38.1777 114.622 38.2161 114.594 38.2397 114.555C38.2633 114.517 38.27 114.471 38.2584 114.428C38.2468 114.384 38.2179 114.347 38.1779 114.325C38.138 114.302 38.0903 114.295 38.0454 114.307C36.6145 114.591 19.1597 116.834 9.71144 118.687C9.68533 118.682 9.65851 118.683 9.63298 118.69C9.60746 118.697 9.58391 118.71 9.56413 118.727C9.54434 118.744 9.52883 118.765 9.51878 118.789C9.50872 118.812 9.50438 118.838 9.50609 118.863C9.5078 118.889 9.51551 118.914 9.52863 118.936C9.54176 118.958 9.55996 118.977 9.58185 118.992C9.60374 119.006 9.62875 119.015 9.65499 119.019C9.68122 119.023 9.708 119.021 9.73328 119.013V119.013ZM24.4683 45.7507C24.0602 46.6391 23.7171 47.5538 23.4415 48.4883C23.4253 48.6383 23.4681 48.7886 23.5617 48.9095C24.6649 50.5099 35.9701 62.7975 38.9192 64.5243C39.3234 64.7665 39.804 64.935 40.0989 64.5875C42.2413 62.0178 45.0372 60.0264 48.2146 58.807C50.8007 57.925 53.5121 57.4313 56.2539 57.3434C58.4384 57.1539 58.8207 56.9433 59.6618 55.564C60.6539 53.7487 61.9702 52.1163 63.5503 50.7416C65.5651 49.0434 67.8014 47.6063 70.2024 46.4667C70.3105 46.4077 70.395 46.3155 70.4425 46.2048C70.49 46.0942 70.4977 45.9714 70.4645 45.856C70.0953 44.9503 69.607 44.0939 69.0118 43.3079C69.405 43.1816 69.8419 43.0658 69.8419 42.6867C69.8419 41.6338 60.3172 28.3459 57.6738 25.8399C57.4008 25.5767 57.0075 25.2293 56.6471 25.2503C51.1856 25.5451 45.8662 30.5149 42.7859 34.853C39.2578 34.7266 36.975 34.4213 32.9553 36.0533C30.1177 37.2144 27.5593 38.9278 25.4404 41.0863C25.1127 41.4127 22.8844 43.687 22.8517 43.866C22.8189 44.045 22.8844 44.045 24.4683 45.7507V45.7507ZM68.1598 45.4559C63.605 46.2035 60.6995 49.8571 58.5586 53.8266C57.6083 55.5955 57.6957 55.6798 56.6908 55.6587C54.9335 55.5628 53.1708 55.6262 51.4259 55.8482C50.1461 56.0326 48.8878 56.3359 47.6685 56.7538C44.8941 57.7014 41.7155 60.7338 40.0224 62.9871C39.9865 63.0334 39.9408 63.0719 39.8883 63.1C39.8358 63.1281 39.7777 63.1452 39.7179 63.1502C39.6581 63.1552 39.5979 63.1479 39.5412 63.1289C39.4845 63.1098 39.4326 63.0794 39.3889 63.0397C35.839 59.5124 29.5583 53.3212 26.4016 49.7624C26.2487 49.6044 26.5108 49.3728 26.6638 49.5412C28.7063 51.6471 33.9821 56.6906 39.6401 62.1763C41.5516 59.8283 44.5008 56.9854 47.4172 55.9957C49.0076 55.4488 50.6624 55.0951 52.3435 54.9427C53.9177 54.8275 55.4988 54.8275 57.0731 54.9427C57.7175 54.2267 60.907 46.0982 68.138 45.1927C68.1591 45.2076 68.1765 45.227 68.1888 45.2494C68.2012 45.2717 68.2081 45.2965 68.2092 45.3217C68.2102 45.347 68.2053 45.3722 68.1949 45.3955C68.1845 45.4187 68.1687 45.4393 68.1489 45.4559H68.1598ZM56.6362 26.1032C58.8207 27.5773 67.712 40.265 68.8698 42.4867C66.8607 43.1003 64.9211 43.9081 63.0807 44.8978C61.3378 45.7401 59.8117 46.9465 58.6137 48.4292C57.4157 49.9119 56.5759 51.6335 56.1555 53.4686C52.2342 47.3196 46.7619 40.5493 43.1245 35.569C43.343 35.4321 49.4817 26.5138 56.6362 26.1032V26.1032ZM33.1956 36.6324C37.1825 35.0846 39.3889 35.4426 42.6876 35.5795C45.9645 40.9704 51.8519 48.5725 55.7296 53.5529C52.1506 52.7365 48.3845 53.2358 45.1671 54.9533C43.2338 56.0062 40.8744 58.5332 39.4217 60.1021C37.3245 58.4806 25.2219 46.0561 23.2777 43.9502C26.2705 40.6862 29.034 38.2328 33.1956 36.5903V36.6324ZM13.2068 63.4082C12.9368 63.2256 12.6176 63.1224 12.288 63.1112C11.9584 63.1 11.6325 63.1812 11.3499 63.3451C11.144 63.4335 10.9583 63.5603 10.8033 63.7179C10.6482 63.8756 10.5269 64.0612 10.4463 64.2641C10.3656 64.467 10.3272 64.6832 10.3333 64.9004C10.3393 65.1175 10.3897 65.3314 10.4815 65.5299C10.5733 65.7283 10.7047 65.9073 10.8683 66.0568C11.0319 66.2062 11.2244 66.3232 11.4349 66.4009C11.6454 66.4786 11.8697 66.5156 12.095 66.5098C12.3203 66.504 12.5422 66.4554 12.748 66.3669C13.0768 66.2976 13.376 66.1336 13.6059 65.8966C13.8359 65.6597 13.9856 65.3609 14.0354 65.04C14.0851 64.7191 14.0325 64.3912 13.8846 64.0998C13.7366 63.8084 13.5002 63.5672 13.2068 63.4082V63.4082ZM12.4858 65.5141C11.7212 65.7457 11.2625 65.5141 11.0768 65.1561C10.7273 64.4085 11.1642 63.2608 12.3002 63.5978C13.0975 63.882 13.742 65.1771 12.4858 65.5667V65.5141ZM68.7496 15.2265C69.0664 15.8477 70.541 15.6161 71.1854 15.416C71.524 15.3107 71.7425 15.1949 71.7753 14.879C71.8736 14.0893 71.9828 7.24533 71.6114 6.58199C71.5731 6.51243 71.5142 6.45534 71.4423 6.41788C71.3704 6.38042 71.2887 6.36425 71.2073 6.3714C70.0419 6.36829 68.8824 6.5315 67.7666 6.85575C67.3187 7.11898 68.3564 14.5316 68.7496 15.2265ZM67.996 7.10845C69.0049 6.96931 70.0254 6.92347 71.0434 6.97157C71.109 7.75073 70.9342 14.5 70.9233 14.6053C70.4618 14.7647 69.9691 14.8222 69.4815 14.7737C69.405 14.5316 69.2739 13.8787 69.1101 13.0575C68.6288 11.0951 68.2569 9.10921 67.996 7.10845V7.10845ZM12.1472 54.5216C12.252 54.5733 12.3681 54.6003 12.4858 54.6003C12.6036 54.6003 12.7197 54.5733 12.8245 54.5216C13.2465 54.2706 13.5811 53.904 13.7857 53.4686C13.8135 53.399 13.822 53.3235 13.8105 53.2497C13.799 53.1759 13.7679 53.1062 13.7201 53.0475C13.1958 52.4473 7.47224 46.0561 6.77318 46.4562C5.91487 46.9918 5.10054 47.5902 4.33738 48.2461C4.30662 48.2727 4.28198 48.3051 4.26504 48.3414C4.24811 48.3777 4.23926 48.4169 4.23907 48.4567C4.21722 49.0042 10.5743 53.9109 12.1472 54.5216V54.5216ZM6.90425 46.7299C7.70162 47.288 10.3887 50.4889 12.8791 53.3212C12.7719 53.4839 12.6393 53.6295 12.4858 53.7529C9.86749 52.1375 7.36752 50.3503 5.00367 48.4041C5.59625 47.8043 6.23131 47.2449 6.90425 46.7299V46.7299ZM24.0641 23.5025C24.3044 19.4171 26.773 17.5219 29.3508 17.0375C28.619 19.6277 28.7391 22.9971 31.3934 23.4288C32.6604 23.6288 33.283 22.9971 34.2005 22.26C38.1219 19.1012 34.9542 15.9425 30.5305 16.1636C32.1798 11.8045 35.9919 8.25614 41.0492 8.14031C41.0955 8.14031 41.14 8.12256 41.1728 8.09097C41.2055 8.05938 41.224 8.01653 41.224 7.97185C41.224 7.92717 41.2055 7.88432 41.1728 7.85272C41.14 7.82113 41.0955 7.80338 41.0492 7.80338C35.5878 7.69809 31.2951 11.4886 29.602 16.2268C26.6856 16.7111 23.791 18.817 23.7146 23.4393C23.7103 23.4614 23.7105 23.4841 23.7153 23.5062C23.7201 23.5282 23.7294 23.5491 23.7426 23.5677C23.7558 23.5862 23.7726 23.6021 23.7922 23.6144C23.8117 23.6267 23.8336 23.6352 23.8566 23.6393C23.8795 23.6435 23.9031 23.6432 23.9259 23.6386C23.9488 23.634 23.9705 23.625 23.9897 23.6123C24.009 23.5996 24.0255 23.5834 24.0383 23.5645C24.051 23.5457 24.0598 23.5246 24.0641 23.5025V23.5025ZM30.2792 16.9112C31.9067 16.8059 34.3316 17.2902 34.9979 18.7117C35.3802 19.5224 34.9979 20.5227 33.6435 21.6177C33.2758 21.9728 32.8563 22.2743 32.3983 22.5127C30.7598 23.1866 28.9466 21.2387 30.2792 16.9112ZM33.4032 165.826C32.3479 165.554 31.2467 165.487 30.1644 165.631C29.0822 165.775 28.0407 166.126 27.1013 166.664C26.1619 167.201 25.3435 167.915 24.6944 168.762C24.0452 169.609 23.5784 170.572 23.3214 171.596C22.8361 173.723 23.2471 175.948 24.4639 177.782C25.6806 179.617 27.6035 180.91 29.8095 181.378C32.0156 181.845 34.324 181.449 36.227 180.276C38.13 179.103 39.4717 177.25 39.9569 175.123C40.1642 174.098 40.1588 173.043 39.9411 172.019C39.7234 170.995 39.2976 170.023 38.6884 169.159C38.0792 168.295 37.2985 167.555 36.3914 166.983C35.4843 166.411 34.4687 166.018 33.4032 165.826V165.826ZM36.7783 174.407C36.3401 176.092 35.2909 177.571 33.8204 178.575C32.35 179.579 30.5553 180.043 28.7609 179.883C27.1138 179.262 25.7463 178.102 24.8992 176.605C24.0521 175.109 23.7796 173.372 24.1296 171.701C24.5384 169.975 25.5778 168.449 27.058 167.401C28.5381 166.353 30.3601 165.854 32.1907 165.994C33.8542 166.657 35.2219 167.864 36.053 169.403C36.8842 170.942 37.1256 172.714 36.7347 174.407H36.7783Z" fill="#EA6399"/>
<path d="M47.9522 168.827C47.0013 168.511 45.9822 168.434 44.9921 168.606C44.5817 167.699 44.0766 166.834 43.4847 166.026C44.1947 165.405 46.139 163.678 45.6693 162.867C43.9977 160.94 42.0132 159.286 39.7928 157.971C38.8656 157.471 37.8447 157.152 36.789 157.034C36.0899 157.129 34.4296 159.751 34.0583 160.34C33.8179 160.34 32.966 160.077 32.9004 160.045C32.9004 159.287 32.671 156.55 31.9611 156.234C31.1671 155.952 30.3427 155.758 29.5034 155.655C28.7279 155.539 21.7482 156.771 21.2348 157.676C20.8962 158.287 21.6826 160.593 21.912 161.235C21.3229 161.548 20.7572 161.9 20.219 162.288C19.1267 163.036 19.4216 163.004 19.225 162.92C18.9873 162.811 18.7328 162.739 18.4713 162.709C17.5987 162.216 16.5757 162.03 15.5767 162.183C14.5718 162.499 12.2016 167.7 11.8193 169.037C11.6941 169.375 11.6603 169.737 11.721 170.09C11.9831 170.785 13.7308 171.343 14.4626 171.564C14.2605 172.919 14.2605 174.295 14.4626 175.65C13.5014 175.902 11.5025 176.471 11.6117 177.419C11.721 178.366 14.2769 184.621 15.3364 185.116C15.9168 185.428 16.5587 185.621 17.2208 185.681C17.8829 185.741 18.5507 185.666 19.1813 185.463C19.5365 185.292 19.8795 185.099 20.208 184.884C20.645 185.2 21.1037 185.484 21.5734 185.758C21.2348 186.569 20.4811 188.38 20.7214 189.201C20.8416 189.633 21.202 189.769 21.7045 189.948C23.0917 190.433 30.5629 192.16 31.6989 191.97C32.1249 191.907 32.3543 191.475 32.4854 191.065C32.728 190.13 32.8708 189.174 32.9113 188.211C33.4723 188.158 34.0301 188.077 34.5826 187.969C34.9199 188.541 35.3515 189.057 35.8605 189.496C36.4176 189.875 36.8873 189.685 37.5208 189.296C37.8267 189.675 38.2854 190.201 38.7769 190.254C40.0112 190.391 45.1122 185.758 45.6365 184.81C46.0734 184.021 44.4787 182.61 43.7687 181.988C44.5368 180.874 45.1397 179.662 45.5601 178.387C46.3479 178.502 47.1452 178.544 47.9412 178.514C48.3017 178.514 48.7168 178.387 48.8697 178.061C49.536 176.597 49.3394 171.048 48.8697 169.638C48.8041 169.227 48.3126 168.953 47.9522 168.827V168.827ZM48.2143 169.796C48.5857 171.164 48.7058 176.334 48.1597 177.671C47.2153 177.761 46.2624 177.719 45.3307 177.545C45.2312 177.529 45.1289 177.549 45.044 177.601C44.9592 177.654 44.8977 177.735 44.8719 177.829C44.4369 179.253 43.7616 180.598 42.873 181.809C42.8097 181.89 42.7812 181.99 42.7934 182.091C42.8056 182.191 42.8577 182.282 42.9386 182.346C43.7049 182.932 44.3561 183.645 44.861 184.452C44.3148 185.316 40.044 189.085 38.8643 189.401C38.6896 189.401 38.209 188.769 38.0888 188.601C37.6853 188.016 37.3205 187.408 36.9965 186.779C36.9492 186.688 36.8681 186.616 36.7691 186.579C36.6701 186.542 36.5603 186.542 36.4613 186.579C33.2937 187.727 32.0921 187.053 32.0921 187.811C32.0936 188.946 31.9017 190.074 31.5241 191.149C28.9572 190.88 26.4294 190.336 23.9874 189.527C24.1053 188.403 24.4308 187.308 24.9486 186.295C25.2763 185.589 23.9655 185.789 21.5188 183.389C21.44 183.318 21.3367 183.279 21.2293 183.279C21.122 183.279 21.0186 183.318 20.9399 183.389C19.8476 184.252 18.4276 185.094 18.1436 184.958C17.5865 184.694 15.0197 179.082 14.8667 177.945C15.6436 177.423 16.5256 177.065 17.4555 176.892C17.5546 176.865 17.6403 176.804 17.6965 176.721C17.7527 176.638 17.7758 176.538 17.7613 176.439C17.4936 174.948 17.4936 173.424 17.7613 171.933C17.778 171.841 17.758 171.747 17.7053 171.668C17.6526 171.59 17.5711 171.534 17.4773 171.512C16.6539 171.304 15.8611 170.996 15.118 170.596C14.8777 170.427 14.8995 170.438 14.9214 170.259C15.6283 167.801 16.7622 165.476 18.2747 163.383C18.8645 163.225 20.4593 164.352 21.0054 164.752C21.0625 164.805 21.1389 164.835 21.2184 164.835C21.2979 164.835 21.3743 164.805 21.4314 164.752C21.9333 164.25 22.4737 163.786 23.048 163.362C24.7083 162.151 25.1561 162.309 25.0141 161.888C24.512 160.832 24.2299 159.69 24.184 158.529C24.3533 158.394 24.5453 158.287 24.752 158.213C25.7717 157.825 26.8194 157.508 27.8868 157.266C29.1806 156.918 30.5104 156.71 31.8518 156.645C32.0812 156.739 32.2887 157.697 32.3434 157.992C32.7475 160.098 32.4744 160.53 32.7912 160.561C35.9042 160.856 36.5377 161.688 36.7562 161.319C37.3619 160.299 38.0679 159.336 38.8643 158.445C39.0937 158.224 39.0828 158.119 39.7709 158.498C41.8267 159.793 43.668 161.379 45.2324 163.204C45.3962 163.478 43.9762 164.931 42.9386 165.784C42.5781 166.089 43.0915 166.226 44.0308 167.953C44.9702 169.68 44.7518 170.164 45.2542 170.059C46.2228 169.835 47.2196 169.747 48.2143 169.796V169.796ZM199.813 81.8133C197.523 80.9118 195.122 80.2995 192.669 79.9917C190.878 79.718 188.77 79.4442 186.99 79.2231C188.704 76.8856 193.784 70.9682 194.636 69.5257C194.876 69.1361 194.417 68.5886 194.079 68.2622C192.178 66.3037 188.508 65.5667 185.69 65.1455C184.073 64.8928 177.323 64.0926 176.176 64.6191C174.8 65.2508 164.62 79.9917 164.314 82.2345C164.314 82.6135 164.445 82.7609 164.827 82.8978C166.433 83.4664 173.675 84.3508 175.291 84.7194C173.107 88.4046 163.396 100.861 162.446 102.619C162.216 103.061 162.358 103.324 162.632 103.409C163.615 103.785 164.626 104.088 165.657 104.314C166.05 104.43 166.913 103.914 168.169 103.177C173.806 99.913 197.989 84.5193 199.846 82.5293C199.897 82.4826 199.937 82.4258 199.964 82.3628C199.99 82.2998 200.002 82.232 199.999 82.1641C199.996 82.0961 199.978 82.0297 199.946 81.9691C199.914 81.9086 199.868 81.8555 199.813 81.8133V81.8133ZM176.34 94.4484C167.055 100.355 163.92 102.082 163.811 102.156C165.308 99.9551 174.603 87.6781 176.198 84.7404C176.226 84.6837 176.24 84.6217 176.24 84.5589C176.239 84.4962 176.224 84.4343 176.196 84.3778C176.168 84.3213 176.127 84.2716 176.076 84.2323C176.025 84.193 175.966 84.1652 175.903 84.1508C174.811 83.7717 166.859 82.9504 164.98 82.3082C165.22 80.3497 175.138 65.5456 176.34 64.956C177.541 64.3664 189.196 65.7036 191.381 67.2093C190.234 69.3677 183.898 76.9277 182.872 78.6861C182.664 79.0441 182.599 79.3916 183.003 79.4863C183.407 79.5811 193.674 80.7393 195.914 81.4448C193.183 83.6454 179.398 92.4689 176.34 94.4062V94.4484ZM106.269 30.0727C106.269 30.1674 106.335 30.2833 106.499 30.8939C106.542 31.0264 106.636 31.1377 106.763 31.2044C106.889 31.2712 107.037 31.2882 107.176 31.2519C107.315 31.2128 107.432 31.1221 107.502 30.9997C107.572 30.8773 107.588 30.7332 107.547 30.5991C107.438 30.1885 107.34 29.841 107.274 29.6726C107.211 29.5569 107.105 29.4683 106.977 29.424C106.849 29.3796 106.709 29.3827 106.583 29.4327C106.458 29.4827 106.356 29.5759 106.298 29.6942C106.24 29.8125 106.23 29.9475 106.269 30.0727V30.0727Z" fill="#EA6399"/>
</svg>
