<?xml version="1.0" encoding="UTF-8"?>
<svg xmlns="http://www.w3.org/2000/svg" xmlns:xlink="http://www.w3.org/1999/xlink" xmlns:svgjs="http://svgjs.com/svgjs" version="1.1" width="512" height="512" x="0" y="0" viewBox="0 0 753.23 753.23" style="enable-background:new 0 0 512 512" xml:space="preserve" class="">
  <g>
<g xmlns="http://www.w3.org/2000/svg">
	<g id="_x37__14_">
		<g>
			<path d="M588.461,0H164.769c-51.997,0-94.154,42.157-94.154,94.154v564.923c0,51.996,42.157,94.153,94.154,94.153h423.692     c51.997,0,94.154-42.157,94.154-94.153V94.154C682.615,42.157,640.458,0,588.461,0z M282.461,612h-23.539v23.538     c0,12.993-10.545,23.539-23.539,23.539c-12.993,0-23.538-10.546-23.538-23.539V612h-23.539     c-12.993,0-23.539-10.545-23.539-23.539c0-12.993,10.545-23.538,23.539-23.538h23.539v-23.538     c0-12.993,10.545-23.539,23.538-23.539c12.994,0,23.539,10.546,23.539,23.539v23.538h23.539     c12.993,0,23.539,10.545,23.539,23.538C306,601.455,295.455,612,282.461,612z M423.692,659.077     c-12.993,0-23.539-10.546-23.539-23.539S410.699,612,423.692,612s23.538,10.545,23.538,23.538S436.686,659.077,423.692,659.077z      M447.23,564.923c-12.993,0-23.538-10.545-23.538-23.538s10.545-23.539,23.538-23.539s23.539,10.546,23.539,23.539     S460.224,564.923,447.23,564.923z M541.385,659.077c-12.993,0-23.539-10.546-23.539-23.539S528.392,612,541.385,612     s23.538,10.545,23.538,23.538S554.378,659.077,541.385,659.077z M564.923,564.923c-12.993,0-23.538-10.545-23.538-23.538     s10.545-23.539,23.538-23.539s23.538,10.546,23.538,23.539S577.916,564.923,564.923,564.923z M588.461,423.692     c0,25.986-21.066,47.077-47.076,47.077H211.846c-26.01,0-47.077-21.091-47.077-47.077V141.23     c0-26.01,21.067-47.077,47.077-47.077h329.539c26.01,0,47.076,21.067,47.076,47.077V423.692z M517.846,141.23H235.384     c-12.993,0-23.538,10.545-23.538,23.539v235.384c0,12.993,10.545,23.539,23.538,23.539h282.461     c12.993,0,23.539-10.546,23.539-23.539V164.769C541.385,151.776,530.839,141.23,517.846,141.23z" fill="#212529" data-original="#000000" class=""/>
		</g>
	</g>
</g>















</g>
</svg>
