<?xml version="1.0" encoding="UTF-8"?>
<svg xmlns="http://www.w3.org/2000/svg" xmlns:xlink="http://www.w3.org/1999/xlink" xmlns:svgjs="http://svgjs.com/svgjs" version="1.1" width="512" height="512" x="0" y="0" viewBox="0 0 612 612" style="enable-background:new 0 0 512 512" xml:space="preserve" class="">
  <g>
<g xmlns="http://www.w3.org/2000/svg">
	<g id="_x31__22_">
		<g>
			<path d="M325.125,382.5H535.5v38.25H325.125v153h-38.25v-153H76.5V382.5h210.375v-153H38.25v306c0,42.247,34.253,76.5,76.5,76.5     h382.5c42.247,0,76.5-34.253,76.5-76.5v-306H325.125V382.5z M573.75,114.75H429.261c6.579-11.284,10.614-24.25,10.614-38.25     c0-42.247-34.253-76.5-76.5-76.5C340.387,0,320.019,10.347,306,26.393C291.981,10.347,271.613,0,248.625,0     c-42.247,0-76.5,34.253-76.5,76.5c0,14,4.035,26.966,10.614,38.25H38.25C17.117,114.75,0,131.886,0,153v38.25h612V153     C612,131.886,594.883,114.75,573.75,114.75z M248.625,114.75c-21.133,0-38.25-17.117-38.25-38.25s17.117-38.25,38.25-38.25     s38.25,17.117,38.25,38.25S269.758,114.75,248.625,114.75z M363.375,114.75c-21.133,0-38.25-17.117-38.25-38.25     s17.117-38.25,38.25-38.25s38.25,17.117,38.25,38.25S384.508,114.75,363.375,114.75z" fill="#212529" data-original="#000000" class=""/>
		</g>
	</g>
</g>















</g>
</svg>
