<?xml version="1.0" encoding="UTF-8"?>
<svg id="Layer_2" data-name="Layer 2" xmlns="http://www.w3.org/2000/svg" viewBox="0 0 126.87 122.11">
  <defs>
    <style>
      .cls-1 {
        fill: #67eb86;
      }

      .cls-2 {
        fill: #4b4b4c;
      }

      .cls-3 {
        fill: none;
        stroke: #4b4b4c;
        stroke-miterlimit: 10;
        stroke-width: 4.3px;
      }
    </style>
  </defs>
  <path class="cls-2" d="M108.53,28.39C94.25,11.39,69.87,4.08,48.52,9.97,27.2,15.85,11.51,35.16,8.65,56.7c.15-.06,.3-.1,.45-.14-1.44,15.62,3.71,31.06,14.4,42.54-.06,.1-.11,.21-.17,.31,.83,.72,1.68,1.42,2.55,2.1,.14,.13,.26,.27,.4,.4,.24,.22,.49,.37,.74,.46,6.23,4.69,13.35,8.49,20.24,11.04,22.02,8.16,47.94-1.06,62.12-19.21,15.02-19.23,14.85-47.07-.87-65.8Zm-.54,60.39c-12.38,18.43-37.45,28.21-58.71,20.74-6.57-2.31-13.71-5.98-19.86-10.63-.02-.02-.03-.04-.05-.06-12.15-11.29-18.16-27.85-15.69-44.32,.05-.36,.03-.69-.06-.99,3.32-15.92,14.1-30.06,29.16-36.89,18.89-8.56,42.67-4.13,57.84,9.76,17.49,16.02,20.62,42.67,7.38,62.38Z"/>
  <path class="cls-1" d="M107.05,29.58C93.28,13.17,69.75,6.13,49.15,11.8,28.6,17.47,13.45,36.09,10.7,56.87c.13-.06,.29-.1,.43-.14-1.39,15.06,3.58,29.95,13.89,41.01-.06,.11-.11,.21-.16,.31,.8,.68,1.63,1.36,2.47,2.03,.14,.12,.25,.25,.39,.38,.23,.21,.47,.36,.71,.44,6.01,4.52,12.88,8.19,19.53,10.66,21.25,7.87,46.25-1.02,59.93-18.52,14.49-18.54,14.33-45.39-.84-63.45Zm-7.33,19.01c-13.84,13.92-28.06,27.45-42.65,40.58-2.22,2-6.38,2.61-8.51,0-4.64-5.68-8.91-11.59-12.72-17.86-4.04-6.64,6.37-12.68,10.39-6.07,2.28,3.75,4.71,7.37,7.32,10.88,12.84-11.71,25.41-23.71,37.67-36.03,5.47-5.5,13.97,3.01,8.51,8.51Z"/>
  <path class="cls-3" d="M91.22,40.08c-12.26,12.32-24.83,24.32-37.67,36.03-2.61-3.51-5.04-7.13-7.32-10.88-4.02-6.6-14.43-.57-10.39,6.07,3.82,6.27,8.08,12.18,12.72,17.86,2.13,2.61,6.29,2,8.51,0,14.59-13.14,28.8-26.67,42.65-40.58,5.47-5.49-3.04-14-8.51-8.51Z"/>
  <path class="cls-2" d="M108.53,28.39C94.25,11.39,69.87,4.08,48.52,9.97,27.2,15.85,11.51,35.16,8.65,56.7c.15-.06,.3-.1,.45-.14-1.44,15.62,3.71,31.06,14.4,42.54-.06,.1-.11,.21-.17,.31,.83,.72,1.68,1.42,2.55,2.1,.14,.13,.26,.27,.4,.4,.24,.22,.49,.37,.74,.46,6.23,4.69,13.35,8.49,20.24,11.04,22.02,8.16,47.94-1.06,62.12-19.21,15.02-19.23,14.85-47.07-.87-65.8Zm-.54,60.39c-12.38,18.43-37.45,28.21-58.71,20.74-6.57-2.31-13.71-5.98-19.86-10.63-.02-.02-.03-.04-.05-.06-12.15-11.29-18.16-27.85-15.69-44.32,.05-.36,.03-.69-.06-.99,3.32-15.92,14.1-30.06,29.16-36.89,18.89-8.56,42.67-4.13,57.84,9.76,17.49,16.02,20.62,42.67,7.38,62.38Z"/>
</svg>