<svg width="325" height="87" viewBox="0 0 325 87" fill="none" xmlns="http://www.w3.org/2000/svg">
<path d="M325 87H0V63H325V87Z" fill="#D9D9D9"/>
<path d="M305 86H20C8.95431 86 0 77.0457 0 66V60C0 48.9543 8.9543 40 20 40H305C316.046 40 325 48.9543 325 60V66C325 77.0457 316.046 86 305 86Z" fill="#D9D9D9"/>
<path d="M200 26H124C116.82 26 111 20.1797 111 13C111 5.8203 116.82 0 124 0H200C207.18 0 213 5.8203 213 13C213 20.1797 207.18 26 200 26Z" fill="#D9D9D9"/>
<path d="M213 27H111V13H213V27Z" fill="#D9D9D9"/>
</svg>
