<svg width="96" height="24" viewBox="0 0 96 24" fill="none" xmlns="http://www.w3.org/2000/svg">
<rect width="96" height="24" fill="white"/>
<path d="M3 3H11M24 3H14V22" stroke="black" stroke-opacity="0.87" stroke-width="2"/>
<path d="M45.4 8.6L43.8 10.2C43.9 10.8 44 11.4 44 12C44 16.4 40.4 20 36 20C31.9 20 28.5 16.9 28 12.9C28 12.6 28 12.3 28 12V11.9C28.1 7.5 31.6 4 36 4C37.6 4 39 4.5 40.3 5.3L41.7 3.8C40.1 2.7 38.1 2 36 2C30.5 2 26 6.5 26 12C26 17.5 30.5 22 36 22C41.5 22 46 17.5 46 12C46 10.8 45.8 9.7 45.4 8.6Z" fill="black" fill-opacity="0.87"/>
<path d="M92.4 8.6L90.8 10.2C90.9 10.8 91 11.4 91 12C91 16.4 87.4 20 83 20C78.9 20 75.5 16.9 75 12.9C75 12.6 75 12.3 75 12V11.9C75.1 7.5 78.6 4 83 4C84.6 4 86 4.5 87.3 5.3L88.7 3.8C87.1 2.7 85.1 2 83 2C77.5 2 73 6.5 73 12C73 17.5 77.5 22 83 22C88.5 22 93 17.5 93 12C93 10.8 92.8 9.7 92.4 8.6Z" fill="black" fill-opacity="0.87"/>
<path d="M50 3H60C64.9706 3 69 7.02944 69 12V12C69 16.9706 64.9706 21 60 21H51V6" stroke="black" stroke-opacity="0.87" stroke-width="2"/>
<path d="M46 5.19999L34.6 16.6L30.4 12.4L31.8 11L34.6 13.8L44.6 3.79999L46 5.19999Z" fill="#1890FF"/>
<path d="M93 5.19999L81.6 16.6L77.4 12.4L78.8 11L81.6 13.8L91.6 3.79999L93 5.19999Z" fill="#1890FF"/>
</svg>
