<svg version="1.2" xmlns="http://www.w3.org/2000/svg" viewBox="0 0 379 379" width="379" height="379"><style></style><path  d="m78 174.8h224v22.4h-224z"/><path  d="m-52.5 631.8q-2.9 1.5-6 2.2-3.2 0.8-6.6 0.8-10.2 0-16.1-5.7-6-5.7-6-15.5 0-9.8 6-15.5 5.9-5.7 16.1-5.7 3.4 0 6.6 0.8 3.1 0.8 6 2.3v8.4q-2.9-2-5.7-2.9-2.9-0.9-6-0.9-5.7 0-8.9 3.6-3.2 3.6-3.2 9.9 0 6.3 3.2 9.9 3.2 3.7 8.9 3.7 3.1 0 6-1 2.8-0.9 5.7-2.9z"/><path  d="m-21.4 611.7q-1.3-0.6-2.6-0.9-1.3-0.3-2.6-0.3-3.7 0-5.8 2.5-2 2.4-2 6.9v14.1h-9.8v-30.6h9.8v5q1.9-3 4.3-4.4 2.5-1.4 5.9-1.4 0.5 0 1 0.1 0.6 0 1.7 0.2z"/><path fill-rule="evenodd" d="m14 618.6v2.8h-22.9q0.4 3.4 2.5 5.2 2.1 1.7 6 1.7 3 0 6.3-0.9 3.2-0.9 6.6-2.8v7.5q-3.4 1.4-6.9 2-3.5 0.7-6.9 0.7-8.4 0-13-4.2-4.6-4.3-4.6-11.9 0-7.5 4.5-11.8 4.6-4.3 12.5-4.3 7.2 0 11.6 4.4 4.3 4.3 4.3 11.6zm-10.1-3.3q0-2.7-1.6-4.4-1.6-1.8-4.3-1.8-2.8 0-4.6 1.6-1.8 1.6-2.2 4.6z"/><path fill-rule="evenodd" d="m50.1 616.5v17.5h-9.9v-4.5q-2 2.8-4.4 4-2.5 1.3-6 1.3-4.8 0-7.7-2.8-3-2.8-3-7.2 0-5.4 3.7-7.9 3.7-2.5 11.6-2.5h5.8v-0.8q0-2.3-1.8-3.4-1.8-1.1-5.7-1.1-3.2 0-5.9 0.7-2.7 0.6-5 1.9v-7.5q3.1-0.8 6.3-1.2 3.2-0.4 6.3-0.4 8.3 0 12 3.3 3.7 3.3 3.7 10.6zm-15 3.7q-3 0-4.6 1.1-1.5 1-1.5 3 0 1.9 1.2 2.9 1.3 1.1 3.5 1.1 2.7 0 4.6-2 1.9-2 1.9-5v-1.1z"/><path  d="m69.9 594.7v8.7h10.1v7h-10.1v13q0 2.1 0.8 2.8 0.9 0.8 3.4 0.8h5v7h-8.4q-5.8 0-8.2-2.4-2.4-2.4-2.4-8.2v-13h-4.9v-7h4.9v-8.7z"/><path fill-rule="evenodd" d="m116.5 618.6v2.8h-22.9q0.4 3.4 2.5 5.2 2.2 1.7 6 1.7 3.1 0 6.3-0.9 3.3-0.9 6.7-2.8v7.5q-3.5 1.4-7 2-3.4 0.7-6.9 0.7-8.3 0-12.9-4.2-4.6-4.3-4.6-11.9 0-7.5 4.5-11.8 4.5-4.3 12.4-4.3 7.3 0 11.6 4.4 4.3 4.3 4.3 11.6zm-10-3.3q0-2.7-1.7-4.4-1.6-1.8-4.2-1.8-2.9 0-4.6 1.6-1.8 1.6-2.2 4.6z"/><path fill-rule="evenodd" d="m144.8 607.9v-16.4h9.8v42.5h-9.8v-4.4q-2.1 2.7-4.5 3.9-2.4 1.3-5.6 1.3-5.7 0-9.3-4.5-3.7-4.5-3.6-11.6-0.1-7.1 3.6-11.6 3.6-4.5 9.3-4.5 3.2 0 5.6 1.3 2.4 1.3 4.5 4zm-6.5 19.8q3.2 0 4.8-2.3 1.7-2.3 1.7-6.7 0-4.4-1.7-6.7-1.6-2.3-4.8-2.3-3.1 0-4.8 2.3-1.6 2.3-1.6 6.7 0 4.4 1.6 6.7 1.7 2.3 4.8 2.3z"/><path fill-rule="evenodd" d="m193.3 607.9q2-2.7 4.5-4 2.5-1.3 5.7-1.3 5.6 0 9.3 4.5 3.6 4.5 3.6 11.6 0 7.1-3.6 11.6-3.7 4.5-9.3 4.5-3.2 0-5.7-1.3-2.5-1.2-4.5-3.9v4.4h-9.8v-42.5h9.8zm6.5 19.8q3.2 0 4.8-2.3 1.7-2.3 1.7-6.7 0-4.4-1.7-6.7-1.6-2.3-4.8-2.3-3.1 0-4.8 2.4-1.7 2.3-1.7 6.6 0 4.4 1.7 6.7 1.7 2.3 4.8 2.3z"/><path  d="m219.6 603.4h9.8l8.2 20.8 7-20.8h9.8l-12.9 33.5q-1.9 5.1-4.5 7.1-2.6 2.1-6.8 2.1h-5.7v-6.4h3.1q2.5 0 3.6-0.8 1.1-0.8 1.8-2.9l0.2-0.8z"/><path  d="m280 593.2h28.4v7.9h-17.8v7.6h16.8v8h-16.8v9.3h18.5v8h-29.1z"/><path  d="m316.4 603.4h26.7v6.8l-16.2 16.8h16.2v7h-27.4v-6.8l16.1-16.8h-15.4z"/><path fill-rule="evenodd" d="m371.3 628.8q-2 2.7-4.5 4-2.4 1.2-5.6 1.2-5.6 0-9.3-4.4-3.6-4.4-3.6-11.3 0-6.8 3.6-11.2 3.7-4.4 9.3-4.4 3.2 0 5.6 1.3 2.5 1.2 4.5 3.9v-4.5h9.8v27.5q0 7.4-4.6 11.3-4.7 3.9-13.5 3.9-2.9 0-5.6-0.4-2.7-0.5-5.4-1.4v-7.6q2.6 1.5 5 2.2 2.5 0.7 5 0.7 4.8 0 7-2.1 2.3-2.1 2.3-6.6zm-6.5-19q-3 0-4.7 2.2-1.7 2.2-1.7 6.3 0 4.3 1.6 6.4 1.7 2.2 4.8 2.2 3.1 0 4.8-2.2 1.7-2.3 1.7-6.4 0-4.1-1.7-6.3-1.7-2.2-4.8-2.2z"/><path  d="m390.5 603.4h9.8v30.6h-9.8zm0-11.9h9.8v8h-9.8z"/><path  d="m429.7 593.2h11.7l14.9 28v-28h10v40.8h-11.8l-14.8-28v28h-10z"/><path fill-rule="evenodd" d="m504.8 616.5v17.5h-9.9v-4.5q-2 2.8-4.4 4-2.5 1.3-6 1.3-4.8 0-7.7-2.8-3-2.8-3-7.2 0-5.4 3.7-7.9 3.7-2.5 11.6-2.5h5.8v-0.8q0-2.3-1.8-3.4-1.8-1.1-5.7-1.1-3.2 0-5.9 0.7-2.7 0.6-5 1.9v-7.5q3.1-0.8 6.3-1.2 3.2-0.4 6.3-0.4 8.3 0 12 3.3 3.7 3.3 3.7 10.6zm-15 3.7q-3 0-4.6 1.1-1.5 1-1.5 3 0 1.9 1.2 2.9 1.3 1.1 3.5 1.1 2.7 0 4.6-2 1.9-2 1.9-5v-1.1z"/><path  d="m512.4 603.4h26.7v6.8l-16.1 16.8h16.1v7h-27.4v-6.8l16.1-16.8h-15.4z"/></svg>