<?xml version="1.0" encoding="UTF-8"?>
<svg xmlns="http://www.w3.org/2000/svg" xmlns:xlink="http://www.w3.org/1999/xlink" xmlns:svgjs="http://svgjs.com/svgjs" version="1.1" width="512" height="512" x="0" y="0" viewBox="0 0 409 409.6" style="enable-background:new 0 0 512 512" xml:space="preserve" class="">
  <g>
    <path xmlns="http://www.w3.org/2000/svg" d="m7.125 6.828125h232.109375v354.984375h-232.109375zm0 0" fill="#dee2e6" data-original="#d7e9ff" class=""/>
    <path xmlns="http://www.w3.org/2000/svg" d="m239.234375 368.640625h-232.109375c-3.769531 0-6.824219-3.058594-6.824219-6.828125v-354.984375c0-3.773437 3.054688-6.828125 6.824219-6.828125h232.109375c3.769531 0 6.824219 3.054688 6.824219 6.828125v354.984375c0 3.769531-3.054688 6.828125-6.824219 6.828125zm-225.28125-13.652344h218.453125v-341.335937h-218.453125zm0 0" fill="#212529" data-original="#0e65e5" class=""/>
    <path xmlns="http://www.w3.org/2000/svg" d="m54.914062 27.308594h232.105469v354.984375h-232.105469zm0 0" fill="#212529" data-original="#0e65e5" class=""/>
    <path xmlns="http://www.w3.org/2000/svg" d="m287.019531 389.121094h-232.105469c-3.769531 0-6.828124-3.058594-6.828124-6.828125v-354.984375c0-3.773438 3.058593-6.828125 6.828124-6.828125h232.105469c3.769531 0 6.828125 3.054687 6.828125 6.828125v354.984375c0 3.769531-3.058594 6.828125-6.828125 6.828125zm-225.28125-13.65625h218.453125v-341.332032h-218.453125zm0 0" fill="#212529" data-original="#0e65e5" class=""/>
    <path xmlns="http://www.w3.org/2000/svg" d="m102.699219 47.785156h232.109375v354.988282h-232.109375zm0 0" fill="#ffffff" data-original="#ffffff" class=""/>
    <g xmlns="http://www.w3.org/2000/svg" fill="#0e65e5">
      <path d="m334.808594 409.601562h-232.109375c-3.769531 0-6.824219-3.058593-6.824219-6.828124v-354.988282c0-3.769531 3.054688-6.824218 6.824219-6.824218h232.109375c3.769531 0 6.824218 3.054687 6.824218 6.824218v354.988282c0 3.769531-3.054687 6.828124-6.824218 6.828124zm-225.28125-13.65625h218.453125v-341.332031h-218.453125zm0 0" fill="#212529" data-original="#0e65e5" class=""/>
      <path d="m266.539062 95.574219h-129.707031c-3.769531 0-6.824219-3.058594-6.824219-6.828125 0-3.769532 3.054688-6.824219 6.824219-6.824219h129.707031c3.769532 0 6.828126 3.054687 6.828126 6.824219 0 3.769531-3.058594 6.828125-6.828126 6.828125zm0 0" fill="#212529" data-original="#0e65e5" class=""/>
      <path d="m300.671875 150.1875h-163.839844c-3.769531 0-6.824219-3.058594-6.824219-6.828125s3.054688-6.824219 6.824219-6.824219h163.839844c3.773437 0 6.828125 3.054688 6.828125 6.824219s-3.054688 6.828125-6.828125 6.828125zm0 0" fill="#212529" data-original="#0e65e5" class=""/>
      <path d="m300.671875 191.148438h-163.839844c-3.769531 0-6.824219-3.058594-6.824219-6.828126 0-3.769531 3.054688-6.828124 6.824219-6.828124h163.839844c3.773437 0 6.828125 3.058593 6.828125 6.828124 0 3.769532-3.054688 6.828126-6.828125 6.828126zm0 0" fill="#212529" data-original="#0e65e5" class=""/>
      <path d="m300.671875 232.105469h-163.839844c-3.769531 0-6.824219-3.054688-6.824219-6.824219s3.054688-6.828125 6.824219-6.828125h163.839844c3.773437 0 6.828125 3.058594 6.828125 6.828125s-3.054688 6.824219-6.828125 6.824219zm0 0" fill="#212529" data-original="#0e65e5" class=""/>
      <path d="m300.671875 273.066406h-163.839844c-3.769531 0-6.824219-3.054687-6.824219-6.828125 0-3.769531 3.054688-6.824219 6.824219-6.824219h163.839844c3.773437 0 6.828125 3.054688 6.828125 6.824219 0 3.773438-3.054688 6.828125-6.828125 6.828125zm0 0" fill="#212529" data-original="#0e65e5" class=""/>
      <path d="m300.671875 314.027344h-163.839844c-3.769531 0-6.824219-3.058594-6.824219-6.828125s3.054688-6.824219 6.824219-6.824219h163.839844c3.773437 0 6.828125 3.054688 6.828125 6.824219s-3.054688 6.828125-6.828125 6.828125zm0 0" fill="#212529" data-original="#0e65e5" class=""/>
      <path d="m191.445312 354.988281h-54.613281c-3.769531 0-6.824219-3.058593-6.824219-6.828125 0-3.769531 3.054688-6.828125 6.824219-6.828125h54.613281c3.769532 0 6.828126 3.058594 6.828126 6.828125 0 3.769532-3.058594 6.828125-6.828126 6.828125zm0 0" fill="#212529" data-original="#0e65e5" class=""/>
    </g>
    <path xmlns="http://www.w3.org/2000/svg" d="m75.394531 122.878906c-3.769531 0-6.828125-3.054687-6.828125-6.824218v-27.308594c0-3.769532 3.058594-6.824219 6.828125-6.824219s6.824219 3.054687 6.824219 6.824219v27.308594c0 3.769531-3.054688 6.824218-6.824219 6.824218zm0 0" fill="#ffffff" data-original="#ffffff" class=""/>
    <path xmlns="http://www.w3.org/2000/svg" d="m89.046875 109.226562h-27.308594c-3.769531 0-6.824219-3.054687-6.824219-6.828124 0-3.769532 3.054688-6.824219 6.824219-6.824219h27.308594c3.769531 0 6.828125 3.054687 6.828125 6.824219 0 3.773437-3.058594 6.828124-6.828125 6.828124zm0 0" fill="#ffffff" data-original="#ffffff" class=""/>
    <path xmlns="http://www.w3.org/2000/svg" d="m27.605469 314.027344c-3.769531 0-6.824219-3.058594-6.824219-6.828125v-68.265625c0-3.769532 3.054688-6.828125 6.824219-6.828125s6.828125 3.058593 6.828125 6.828125v68.265625c0 3.769531-3.058594 6.828125-6.828125 6.828125zm0 0" fill="#ffffff" data-original="#ffffff" class=""/>
  </g>
</svg>
