<?xml version="1.0" encoding="UTF-8"?>
<svg xmlns="http://www.w3.org/2000/svg" xmlns:xlink="http://www.w3.org/1999/xlink" xmlns:svgjs="http://svgjs.com/svgjs" version="1.1" width="512" height="512" x="0" y="0" viewBox="0 0 401 401.38283" style="enable-background:new 0 0 512 512" xml:space="preserve" class="">
  <g>
    <path xmlns="http://www.w3.org/2000/svg" d="m225.851562 32.742188h-205.179687v361.8125h245.757813v-320.851563zm0 0" fill="#212529" data-original="#0e65e5" class=""/>
    <path xmlns="http://www.w3.org/2000/svg" d="m266.429688 401.382812h-245.757813c-3.769531 0-6.828125-3.054687-6.828125-6.828124v-361.8125c0-3.769532 3.058594-6.824219 6.828125-6.824219h205.183594c1.820312 0 3.566406.726562 4.847656 2.023437l40.578125 40.957032c1.265625 1.277343 1.976562 3.003906 1.976562 4.804687v320.851563c0 3.773437-3.054687 6.828124-6.828124 6.828124zm-238.929688-13.652343h232.105469v-311.21875l-36.597657-36.941407h-195.507812zm0 0" fill="#212529" data-original="#0e65e5" class=""/>
    <path xmlns="http://www.w3.org/2000/svg" d="m212.199219 32.742188h-205.179688v361.8125h245.757813v-320.851563zm0 0" fill="#ffffff" data-original="#d7e9ff" class=""/>
    <path xmlns="http://www.w3.org/2000/svg" d="m252.777344 401.382812h-245.757813c-3.769531 0-6.828125-3.054687-6.828125-6.828124v-361.8125c0-3.769532 3.058594-6.824219 6.828125-6.824219h205.179688c1.824219 0 3.566406.726562 4.851562 2.023437l40.574219 40.957032c1.269531 1.277343 1.976562 3.003906 1.976562 4.804687v320.851563c.003907 3.773437-3.054687 6.828124-6.824218 6.828124zm-238.933594-13.652343h232.109375v-311.21875l-36.597656-36.941407h-195.511719zm0 0" fill="#212529" data-original="#0e65e5" class=""/>
    <path xmlns="http://www.w3.org/2000/svg" d="m184.511719 169.277344h-150.1875c-3.769531 0-6.824219-3.058594-6.824219-6.828125s3.054688-6.828125 6.824219-6.828125h150.1875c3.769531 0 6.828125 3.058594 6.828125 6.828125s-3.058594 6.828125-6.828125 6.828125zm0 0" fill="#dee2e6" data-original="#ffffff" class=""/>
    <path xmlns="http://www.w3.org/2000/svg" d="m379.3125 65.078125-230.046875 230.046875-48.273437-48.269531 230.046874-230.050781c13.332032-13.328126 34.945313-13.328126 48.273438 0 13.332031 13.332031 13.332031 34.941406 0 48.273437zm0 0" fill="#ffffff" data-original="#d7e9ff" class=""/>
    <path xmlns="http://www.w3.org/2000/svg" d="m149.261719 301.953125c-1.808594 0-3.542969-.722656-4.824219-2l-48.269531-48.273437c-2.667969-2.667969-2.667969-6.988282 0-9.652344l230.046875-230.046875c15.964844-15.972657 41.960937-15.972657 57.925781 0 15.96875 15.96875 15.96875 41.953125 0 57.921875l-230.050781 230.050781c-1.28125 1.277344-3.015625 2-4.828125 2zm-38.613281-55.101563 38.613281 38.621094 225.226562-225.222656c10.644531-10.648438 10.644531-27.972656 0-38.617188-10.648437-10.648437-27.976562-10.648437-38.621093 0zm0 0" fill="#212529" data-original="#0e65e5" class=""/>
    <path xmlns="http://www.w3.org/2000/svg" d="m81.683594 314.433594 67.582031-19.308594-48.273437-48.269531zm0 0" fill="#dee2e6" data-original="#2a8ee6" class=""/>
    <path xmlns="http://www.w3.org/2000/svg" d="m81.683594 321.261719c-1.785156 0-3.527344-.699219-4.824219-2-1.753906-1.753907-2.421875-4.316407-1.738281-6.703125l19.308594-67.585938c.664062-2.320312 2.511718-4.125 4.851562-4.730468 2.339844-.605469 4.828125.070312 6.539062 1.78125l48.269532 48.273437c1.710937 1.710937 2.390625 4.199219 1.785156 6.539063-.605469 2.339843-2.410156 4.1875-4.734375 4.851562l-67.582031 19.308594c-.617188.179687-1.246094.265625-1.875.265625zm22.6875-61.378907-12.746094 44.613282 44.609375-12.746094zm0 0" fill="#212529" data-original="#0e65e5" class=""/>
    <path xmlns="http://www.w3.org/2000/svg" d="m149.261719 263.335938c-1.742188 0-3.492188-.667969-4.824219-2-2.667969-2.667969-2.667969-6.988282 0-9.652344l205.914062-205.914063c2.664063-2.664062 6.984376-2.664062 9.652344 0 2.664063 2.667969 2.664063 6.988281 0 9.652344l-205.914062 205.914063c-1.332032 1.332031-3.078125 2-4.828125 2zm0 0" fill="#212529" data-original="#0e65e5" class=""/>
    <path xmlns="http://www.w3.org/2000/svg" d="m34.324219 66.875h122.878906v61.441406h-122.878906zm0 0" fill="#dee2e6" data-original="#2a8ee6" class=""/>
    <g xmlns="http://www.w3.org/2000/svg" fill="#0e65e5">
      <path d="m157.203125 135.144531h-122.878906c-3.769531 0-6.824219-3.058593-6.824219-6.828125v-61.441406c0-3.769531 3.054688-6.824219 6.824219-6.824219h122.878906c3.773437 0 6.828125 3.054688 6.828125 6.824219v61.441406c0 3.769532-3.054688 6.828125-6.828125 6.828125zm-116.050781-13.65625h109.226562v-47.785156h-109.226562zm0 0" fill="#212529" data-original="#0e65e5" class=""/>
      <path d="m150.378906 203.410156h-116.054687c-3.769531 0-6.824219-3.058594-6.824219-6.828125s3.054688-6.824219 6.824219-6.824219h116.054687c3.769532 0 6.824219 3.054688 6.824219 6.824219s-3.054687 6.828125-6.824219 6.828125zm0 0" fill="#212529" data-original="#0e65e5" class=""/>
      <path d="m109.417969 346.769531h-75.09375c-3.769531 0-6.824219-3.058593-6.824219-6.828125 0-3.769531 3.054688-6.824218 6.824219-6.824218h75.09375c3.769531 0 6.828125 3.054687 6.828125 6.824218 0 3.769532-3.058594 6.828125-6.828125 6.828125zm0 0" fill="#212529" data-original="#0e65e5" class=""/>
    </g>
    <path xmlns="http://www.w3.org/2000/svg" d="m245.953125 339.941406c-3.773437 0-6.828125-3.054687-6.828125-6.824218v-27.308594c0-3.769532 3.054688-6.824219 6.828125-6.824219 3.769531 0 6.824219 3.054687 6.824219 6.824219v27.308594c0 3.769531-3.054688 6.824218-6.824219 6.824218zm0 0" fill="#dee2e6" data-original="#ffffff" class=""/>
    <path xmlns="http://www.w3.org/2000/svg" d="m259.605469 326.289062h-27.308594c-3.769531 0-6.824219-3.054687-6.824219-6.828124 0-3.769532 3.054688-6.824219 6.824219-6.824219h27.308594c3.769531 0 6.824219 3.054687 6.824219 6.824219 0 3.773437-3.054688 6.828124-6.824219 6.828124zm0 0" fill="#dee2e6" data-original="#ffffff" class=""/>
  </g>
</svg>
