<?xml version="1.0" encoding="UTF-8"?>
<svg xmlns="http://www.w3.org/2000/svg" xmlns:xlink="http://www.w3.org/1999/xlink" xmlns:svgjs="http://svgjs.com/svgjs" version="1.1" width="512" height="512" x="0" y="0" viewBox="0 0 612 612" style="enable-background:new 0 0 512 512" xml:space="preserve" class="">
  <g>
<g xmlns="http://www.w3.org/2000/svg">
	<g id="_x36__26_">
		<g>
			<path d="M153,191.25c21.133,0,38.25-17.117,38.25-38.25s-17.117-38.25-38.25-38.25s-38.25,17.136-38.25,38.25     S131.867,191.25,153,191.25z M535.5,0h-459C34.253,0,0,34.253,0,76.5v459C0,577.747,34.253,612,76.5,612h459     c42.247,0,76.5-34.253,76.5-76.5v-459C612,34.253,577.747,0,535.5,0z M153,76.5c42.247,0,76.5,34.253,76.5,76.5     s-34.253,76.5-76.5,76.5S76.5,195.247,76.5,153S110.753,76.5,153,76.5z M76.5,573.75c-21.133,0-38.25-17.136-38.25-38.25v-17.978     l151.948-136.074L382.52,573.75H76.5z M573.75,535.5c0,21.114-17.117,38.25-38.25,38.25h-98.838L295.749,430.981L459,267.731     l114.75,114.75V535.5z" fill="#212529" data-original="#000000" class=""/>
		</g>
	</g>
</g>















</g>
</svg>
