<?xml version="1.0"?>
<svg xmlns="http://www.w3.org/2000/svg" xmlns:xlink="http://www.w3.org/1999/xlink" xmlns:svgjs="http://svgjs.com/svgjs" version="1.1" width="512" height="512" x="0" y="0" viewBox="0 0 416 416.42667" style="enable-background:new 0 0 512 512" xml:space="preserve" class=""><g><g xmlns="http://www.w3.org/2000/svg" fill="#0e65e5"><path d="m123.09375 81.921875h-102.402344v-36.082031c0-21.546875 17.46875-39.011719 39.015625-39.011719h24.375c21.546875 0 39.011719 17.464844 39.011719 39.011719zm0 0" fill="#212429" data-original="#0e65e5"/><path d="m123.09375 88.746094h-102.402344c-3.769531 0-6.824218-3.054688-6.824218-6.824219v-36.082031c0-25.277344 20.5625-45.839844 45.839843-45.839844h24.371094c25.277344 0 45.84375 20.5625 45.84375 45.839844v36.082031c0 3.769531-3.058594 6.824219-6.828125 6.824219zm-95.574219-13.652344h88.746094v-29.253906c0-17.746094-14.4375-32.1875-32.183594-32.1875h-24.375c-17.746093 0-32.1875 14.441406-32.1875 32.1875zm0 0" fill="#212429" data-original="#0e65e5"/><path d="m20.691406 81.921875h102.402344v238.929687h-102.402344zm0 0" fill="#212429" data-original="#0e65e5"/><path d="m123.09375 327.679688h-102.402344c-3.769531 0-6.824218-3.054688-6.824218-6.828126v-238.929687c0-3.773437 3.054687-6.828125 6.824218-6.828125h102.402344c3.769531 0 6.828125 3.054688 6.828125 6.828125v238.929687c0 3.773438-3.058594 6.828126-6.828125 6.828126zm-95.574219-13.652344h88.746094v-225.28125h-88.746094zm0 0" fill="#212429" data-original="#0e65e5"/><path d="m43.914062 361.8125 17.738282 47.789062 61.441406-87.449218h-102.402344zm0 0" fill="#212429" data-original="#0e65e5"/><path d="m61.652344 416.425781c-.289063 0-.582032-.019531-.871094-.054687-2.519531-.324219-4.644531-2.019532-5.527344-4.394532l-17.53125-47.230468-22.917968-39.144532c-1.238282-2.113281-1.25-4.722656-.035157-6.847656 1.21875-2.117187 3.476563-3.429687 5.921875-3.429687h102.402344c2.546875 0 4.882812 1.421875 6.054688 3.679687 1.179687 2.261719.996093 4.988282-.46875 7.070313l-61.4375 87.449219c-1.292969 1.832031-3.382813 2.902343-5.589844 2.902343zm-29.050782-87.445312 17.203126 29.382812c.199218.34375.371093.703125.507812 1.074219l13.222656 35.613281 46.417969-66.070312zm0 0" fill="#212429" data-original="#0e65e5"/></g><path xmlns="http://www.w3.org/2000/svg" d="m109.441406 81.921875h-102.402344v-36.082031c0-21.546875 17.46875-39.011719 39.011719-39.011719h24.378907c21.542968 0 39.011718 17.464844 39.011718 39.011719zm0 0" fill="#dee2e6" data-original="#d7e9ff" class=""/><path xmlns="http://www.w3.org/2000/svg" d="m109.441406 88.746094h-102.402344c-3.769531 0-6.824218-3.054688-6.824218-6.824219v-36.082031c0-25.277344 20.5625-45.839844 45.835937-45.839844h24.375c25.277344 0 45.839844 20.5625 45.839844 45.839844v36.082031c0 3.769531-3.054687 6.824219-6.824219 6.824219zm-95.574218-13.652344h88.746093v-29.253906c0-17.746094-14.441406-32.1875-32.1875-32.1875h-24.371093c-17.746094 0-32.1875 14.441406-32.1875 32.1875zm0 0" fill="#212429" data-original="#0e65e5"/><path xmlns="http://www.w3.org/2000/svg" d="m7.039062 81.921875h102.402344v238.929687h-102.402344zm0 0" fill="#495057" data-original="#2a8ee6" class=""/><path xmlns="http://www.w3.org/2000/svg" d="m109.441406 327.679688h-102.402344c-3.769531 0-6.824218-3.054688-6.824218-6.828126v-238.929687c0-3.773437 3.054687-6.828125 6.824218-6.828125h102.402344c3.769532 0 6.824219 3.054688 6.824219 6.828125v238.929687c0 3.773438-3.054687 6.828126-6.824219 6.828126zm-95.574218-13.652344h88.746093v-225.28125h-88.746093zm0 0" fill="#212429" data-original="#0e65e5"/><path xmlns="http://www.w3.org/2000/svg" d="m86.21875 361.8125 23.222656-39.660156h-102.402344l23.222657 39.660156zm0 0" fill="#495057" data-original="#2a8ee6" class=""/><path xmlns="http://www.w3.org/2000/svg" d="m86.222656 368.640625h-55.960937c-2.425781 0-4.667969-1.289063-5.890625-3.378906l-23.21875-39.660157c-1.2382815-2.113281-1.2500002-4.722656-.035156-6.847656 1.21875-2.117187 3.476562-3.429687 5.925781-3.429687h102.398437c2.449219 0 4.707032 1.3125 5.925782 3.429687 1.214843 2.125 1.203124 4.734375-.035157 6.847656l-23.21875 39.660157c-1.226562 2.089843-3.472656 3.378906-5.890625 3.378906zm-52.050781-13.652344h48.132813l15.226562-26.007812h-78.585938zm0 0" fill="#212429" data-original="#0e65e5"/><path xmlns="http://www.w3.org/2000/svg" d="m86.21875 361.8125h-55.957031l27.976562 47.789062zm0 0" fill="#dee2e6" data-original="#d7e9ff" class=""/><path xmlns="http://www.w3.org/2000/svg" d="m58.238281 416.425781c-2.421875 0-4.664062-1.285156-5.886719-3.375l-27.980468-47.789062c-1.238282-2.113281-1.25-4.722657-.035156-6.847657 1.214843-2.117187 3.476562-3.429687 5.921874-3.429687h55.960938c2.449219 0 4.707031 1.3125 5.925781 3.429687 1.214844 2.125 1.203125 4.734376-.035156 6.847657l-27.980469 47.789062c-1.222656 2.089844-3.464844 3.375-5.890625 3.375zm-16.070312-47.785156 16.070312 27.449219 16.074219-27.449219zm0 0" fill="#212429" data-original="#0e65e5"/><path xmlns="http://www.w3.org/2000/svg" d="m27.519531 225.28125c-3.769531 0-6.828125-3.058594-6.828125-6.828125v-109.226563c0-3.769531 3.058594-6.828124 6.828125-6.828124s6.828125 3.058593 6.828125 6.828124v109.226563c0 3.769531-3.058594 6.828125-6.828125 6.828125zm0 0" fill="#ffffff" data-original="#ffffff" class=""/><path xmlns="http://www.w3.org/2000/svg" d="m102.613281 225.28125c-3.769531 0-6.828125-3.058594-6.828125-6.828125v-27.304687c0-3.773438 3.058594-6.828126 6.828125-6.828126s6.828125 3.054688 6.828125 6.828126v27.304687c0 3.769531-3.058594 6.828125-6.828125 6.828125zm0 0" fill="#ffffff" data-original="#ffffff" class=""/><path xmlns="http://www.w3.org/2000/svg" d="m116.265625 211.625h-27.304687c-3.769532 0-6.828126-3.054688-6.828126-6.824219s3.058594-6.828125 6.828126-6.828125h27.304687c3.769531 0 6.828125 3.058594 6.828125 6.828125s-3.058594 6.824219-6.828125 6.824219zm0 0" fill="#ffffff" data-original="#ffffff" class=""/></g></svg>
