<?xml version="1.0" encoding="UTF-8"?>
<svg xmlns="http://www.w3.org/2000/svg" xmlns:xlink="http://www.w3.org/1999/xlink" xmlns:svgjs="http://svgjs.com/svgjs" version="1.1" width="512" height="512" x="0" y="0" viewBox="0 0 792 792" style="enable-background:new 0 0 512 512" xml:space="preserve" class="">
  <g>
<g xmlns="http://www.w3.org/2000/svg">
	<g id="_x31__1_">
		<g>
			<path d="M396,222.75c-41.011,0-74.25,33.239-74.25,74.25s33.239,74.25,74.25,74.25s74.25-33.239,74.25-74.25     S437.011,222.75,396,222.75z M396,0C231.982,0,99,132.982,99,297c0,124.171,247.624,495.248,297,495     c48.609,0.247,297-372.487,297-495C693,132.982,560.019,0,396,0z M396,420.75c-68.335,0-123.75-55.415-123.75-123.75     S327.665,173.25,396,173.25S519.75,228.665,519.75,297S464.335,420.75,396,420.75z" fill="#212529" data-original="#000000"/>
		</g>
	</g>
</g>















</g>
</svg>
