<?xml version="1.0" encoding="UTF-8"?>
<svg xmlns="http://www.w3.org/2000/svg" xmlns:xlink="http://www.w3.org/1999/xlink" viewBox="0 0 480 480" width="480px" height="480px">
<g id="surface71572978">
<path style=" stroke:none;fill-rule:nonzero;fill:rgb(29.019609%,27.843139%,21.568628%);fill-opacity:1;" d="M 240 42 C 130.71875 42 42 130.71875 42 240 C 42 349.28125 130.71875 438 240 438 C 349.28125 438 438 349.28125 438 240 C 438 130.71875 349.28125 42 240 42 Z M 240 54 C 342.796875 54 426 137.203125 426 240 C 426 342.796875 342.796875 426 240 426 C 137.203125 426 54 342.796875 54 240 C 54 137.203125 137.203125 54 240 54 Z M 240 72 C 236.6875 72 234 74.6875 234 78 C 234 81.3125 236.6875 84 240 84 C 243.3125 84 246 81.3125 246 78 C 246 74.6875 243.3125 72 240 72 Z M 208.40625 75.117188 C 205.09375 75.117188 202.40625 77.804688 202.40625 81.117188 C 202.40625 84.429688 205.09375 87.117188 208.40625 87.117188 C 211.71875 87.117188 214.40625 84.429688 214.40625 81.117188 C 214.40625 77.804688 211.71875 75.117188 208.40625 75.117188 Z M 271.605469 75.117188 C 268.292969 75.117188 265.605469 77.804688 265.605469 81.117188 C 265.605469 84.429688 268.292969 87.117188 271.605469 87.117188 C 274.917969 87.117188 277.605469 84.429688 277.605469 81.117188 C 277.605469 77.804688 274.917969 75.117188 271.605469 75.117188 Z M 178.019531 84.328125 C 174.707031 84.328125 172.019531 87.015625 172.019531 90.328125 C 172.019531 93.640625 174.707031 96.328125 178.019531 96.328125 C 181.332031 96.328125 184.019531 93.640625 184.019531 90.328125 C 184.019531 87.015625 181.332031 84.328125 178.019531 84.328125 Z M 301.992188 84.328125 C 298.679688 84.328125 295.992188 87.015625 295.992188 90.328125 C 295.992188 93.640625 298.679688 96.328125 301.992188 96.328125 C 305.304688 96.328125 307.992188 93.640625 307.992188 90.328125 C 307.992188 87.015625 305.304688 84.328125 301.992188 84.328125 Z M 330.011719 99.292969 C 326.699219 99.292969 324.011719 101.980469 324.011719 105.292969 C 324.011719 108.605469 326.699219 111.292969 330.011719 111.292969 C 333.324219 111.292969 336.011719 108.605469 336.011719 105.292969 C 336.011719 101.980469 333.324219 99.292969 330.011719 99.292969 Z M 150.011719 99.304688 C 146.699219 99.304688 144.011719 101.992188 144.011719 105.304688 C 144.011719 108.617188 146.699219 111.304688 150.011719 111.304688 C 153.324219 111.304688 156.011719 108.617188 156.011719 105.304688 C 156.011719 101.992188 153.324219 99.304688 150.011719 99.304688 Z M 125.449219 119.449219 C 122.136719 119.449219 119.449219 122.136719 119.449219 125.449219 C 119.449219 128.761719 122.136719 131.449219 125.449219 131.449219 C 128.761719 131.449219 131.449219 128.761719 131.449219 125.449219 C 131.449219 122.136719 128.761719 119.449219 125.449219 119.449219 Z M 354.550781 119.449219 C 351.238281 119.449219 348.550781 122.136719 348.550781 125.449219 C 348.550781 128.761719 351.238281 131.449219 354.550781 131.449219 C 357.863281 131.449219 360.550781 128.761719 360.550781 125.449219 C 360.550781 122.136719 357.863281 119.449219 354.550781 119.449219 Z M 374.71875 143.988281 C 371.40625 143.988281 368.71875 146.675781 368.71875 149.988281 C 368.71875 153.300781 371.40625 155.988281 374.71875 155.988281 C 378.03125 155.988281 380.71875 153.300781 380.71875 149.988281 C 380.71875 146.675781 378.03125 143.988281 374.71875 143.988281 Z M 105.316406 144 C 102.003906 144 99.316406 146.6875 99.316406 150 C 99.316406 153.3125 102.003906 156 105.316406 156 C 108.628906 156 111.316406 153.3125 111.316406 150 C 111.316406 146.6875 108.628906 144 105.316406 144 Z M 210 150 L 210 210 L 150 210 L 150 270 L 210 270 L 210 330 L 270 330 L 270 270 L 330 270 L 330 210 L 270 210 L 270 150 Z M 222 162 L 258 162 L 258 222 L 318 222 L 318 258 L 258 258 L 258 318 L 222 318 L 222 258 L 162 258 L 162 222 L 222 222 Z M 90.339844 172.007812 C 87.027344 172.007812 84.339844 174.695312 84.339844 178.007812 C 84.339844 181.320312 87.027344 184.007812 90.339844 184.007812 C 93.652344 184.007812 96.339844 181.320312 96.339844 178.007812 C 96.339844 174.695312 93.652344 172.007812 90.339844 172.007812 Z M 389.683594 172.007812 C 386.371094 172.007812 383.683594 174.695312 383.683594 178.007812 C 383.683594 181.320312 386.371094 184.007812 389.683594 184.007812 C 392.996094 184.007812 395.683594 181.320312 395.683594 178.007812 C 395.683594 174.695312 392.996094 172.007812 389.683594 172.007812 Z M 81.117188 202.394531 C 77.804688 202.394531 75.117188 205.082031 75.117188 208.394531 C 75.117188 211.707031 77.804688 214.394531 81.117188 214.394531 C 84.429688 214.394531 87.117188 211.707031 87.117188 208.394531 C 87.117188 205.082031 84.429688 202.394531 81.117188 202.394531 Z M 398.894531 202.394531 C 395.582031 202.394531 392.894531 205.082031 392.894531 208.394531 C 392.894531 211.707031 395.582031 214.394531 398.894531 214.394531 C 402.207031 214.394531 404.894531 211.707031 404.894531 208.394531 C 404.894531 205.082031 402.207031 202.394531 398.894531 202.394531 Z M 78 234 C 74.6875 234 72 236.6875 72 240 C 72 243.3125 74.6875 246 78 246 C 81.3125 246 84 243.3125 84 240 C 84 236.6875 81.3125 234 78 234 Z M 402 234 C 398.6875 234 396 236.6875 396 240 C 396 243.3125 398.6875 246 402 246 C 405.3125 246 408 243.3125 408 240 C 408 236.6875 405.3125 234 402 234 Z M 81.117188 265.605469 C 77.804688 265.605469 75.117188 268.292969 75.117188 271.605469 C 75.117188 274.917969 77.804688 277.605469 81.117188 277.605469 C 84.429688 277.605469 87.117188 274.917969 87.117188 271.605469 C 87.117188 268.292969 84.429688 265.605469 81.117188 265.605469 Z M 398.894531 265.605469 C 395.582031 265.605469 392.894531 268.292969 392.894531 271.605469 C 392.894531 274.917969 395.582031 277.605469 398.894531 277.605469 C 402.207031 277.605469 404.894531 274.917969 404.894531 271.605469 C 404.894531 268.292969 402.207031 265.605469 398.894531 265.605469 Z M 90.339844 295.992188 C 87.027344 295.992188 84.339844 298.679688 84.339844 301.992188 C 84.339844 305.304688 87.027344 307.992188 90.339844 307.992188 C 93.652344 307.992188 96.339844 305.304688 96.339844 301.992188 C 96.339844 298.679688 93.652344 295.992188 90.339844 295.992188 Z M 389.671875 295.992188 C 386.359375 295.992188 383.671875 298.679688 383.671875 301.992188 C 383.671875 305.304688 386.359375 307.992188 389.671875 307.992188 C 392.984375 307.992188 395.671875 305.304688 395.671875 301.992188 C 395.671875 298.679688 392.984375 295.992188 389.671875 295.992188 Z M 374.71875 324 C 371.40625 324 368.71875 326.6875 368.71875 330 C 368.71875 333.3125 371.40625 336 374.71875 336 C 378.03125 336 380.71875 333.3125 380.71875 330 C 380.71875 326.6875 378.03125 324 374.71875 324 Z M 105.316406 324.011719 C 102.003906 324.011719 99.316406 326.699219 99.316406 330.011719 C 99.316406 333.324219 102.003906 336.011719 105.316406 336.011719 C 108.628906 336.011719 111.316406 333.324219 111.316406 330.011719 C 111.316406 326.699219 108.628906 324.011719 105.316406 324.011719 Z M 125.449219 348.550781 C 122.136719 348.550781 119.449219 351.238281 119.449219 354.550781 C 119.449219 357.863281 122.136719 360.550781 125.449219 360.550781 C 128.761719 360.550781 131.449219 357.863281 131.449219 354.550781 C 131.449219 351.238281 128.761719 348.550781 125.449219 348.550781 Z M 354.550781 348.550781 C 351.238281 348.550781 348.550781 351.238281 348.550781 354.550781 C 348.550781 357.863281 351.238281 360.550781 354.550781 360.550781 C 357.863281 360.550781 360.550781 357.863281 360.550781 354.550781 C 360.550781 351.238281 357.863281 348.550781 354.550781 348.550781 Z M 330.023438 368.695312 C 326.710938 368.695312 324.023438 371.382812 324.023438 374.695312 C 324.023438 378.007812 326.710938 380.695312 330.023438 380.695312 C 333.335938 380.695312 336.023438 378.007812 336.023438 374.695312 C 336.023438 371.382812 333.335938 368.695312 330.023438 368.695312 Z M 150.023438 368.707031 C 146.710938 368.707031 144.023438 371.394531 144.023438 374.707031 C 144.023438 378.019531 146.710938 380.707031 150.023438 380.707031 C 153.335938 380.707031 156.023438 378.019531 156.023438 374.707031 C 156.023438 371.394531 153.335938 368.707031 150.023438 368.707031 Z M 178.019531 383.671875 C 174.707031 383.671875 172.019531 386.359375 172.019531 389.671875 C 172.019531 392.984375 174.707031 395.671875 178.019531 395.671875 C 181.332031 395.671875 184.019531 392.984375 184.019531 389.671875 C 184.019531 386.359375 181.332031 383.671875 178.019531 383.671875 Z M 302.003906 383.671875 C 298.691406 383.671875 296.003906 386.359375 296.003906 389.671875 C 296.003906 392.984375 298.691406 395.671875 302.003906 395.671875 C 305.316406 395.671875 308.003906 392.984375 308.003906 389.671875 C 308.003906 386.359375 305.316406 383.671875 302.003906 383.671875 Z M 208.40625 392.882812 C 205.09375 392.882812 202.40625 395.570312 202.40625 398.882812 C 202.40625 402.195312 205.09375 404.882812 208.40625 404.882812 C 211.71875 404.882812 214.40625 402.195312 214.40625 398.882812 C 214.40625 395.570312 211.71875 392.882812 208.40625 392.882812 Z M 271.605469 392.894531 C 268.292969 392.894531 265.605469 395.582031 265.605469 398.894531 C 265.605469 402.207031 268.292969 404.894531 271.605469 404.894531 C 274.917969 404.894531 277.605469 402.207031 277.605469 398.894531 C 277.605469 395.582031 274.917969 392.894531 271.605469 392.894531 Z M 240 396 C 236.6875 396 234 398.6875 234 402 C 234 405.3125 236.6875 408 240 408 C 243.3125 408 246 405.3125 246 402 C 246 398.6875 243.3125 396 240 396 Z M 240 396 "/>
</g>
</svg>
