<?xml version="1.0" encoding="iso-8859-1"?>
<!-- Generator: Adobe Illustrator 16.0.0, SVG Export Plug-In . SVG Version: 6.00 Build 0)  -->
<!DOCTYPE svg PUBLIC "-//W3C//DTD SVG 1.1//EN" "http://www.w3.org/Graphics/SVG/1.1/DTD/svg11.dtd">
<svg version="1.1" id="Capa_1" xmlns="http://www.w3.org/2000/svg" xmlns:xlink="http://www.w3.org/1999/xlink" x="0px" y="0px"
	 width="612px" height="612px" viewBox="0 0 612 612" style="enable-background:new 0 0 612 612;" xml:space="preserve">
<g>
	<g id="_x32__24_">
		<g>
			<path d="M535.5,0h-38.25v229.5c0,21.114-17.117,38.25-38.25,38.25H153c-21.133,0-38.25-17.136-38.25-38.25V0H76.5
				C34.253,0,0,34.253,0,76.5v459C0,577.747,34.253,612,76.5,612h459c42.247,0,76.5-34.253,76.5-76.5v-459
				C612,34.253,577.747,0,535.5,0z M172.125,229.5h267.75c10.557,0,19.125-8.568,19.125-19.125V0H153v210.375
				C153,220.932,161.568,229.5,172.125,229.5z M344.25,95.625c0-10.557,8.568-19.125,19.125-19.125S382.5,85.068,382.5,95.625v76.5
				c0,10.557-8.568,19.125-19.125,19.125s-19.125-8.568-19.125-19.125V95.625z"/>
		</g>
	</g>
</g>
<g>
</g>
<g>
</g>
<g>
</g>
<g>
</g>
<g>
</g>
<g>
</g>
<g>
</g>
<g>
</g>
<g>
</g>
<g>
</g>
<g>
</g>
<g>
</g>
<g>
</g>
<g>
</g>
<g>
</g>
</svg>
