<?xml version="1.0"?>
<svg xmlns="http://www.w3.org/2000/svg" xmlns:xlink="http://www.w3.org/1999/xlink" xmlns:svgjs="http://svgjs.com/svgjs" version="1.1" width="512" height="512" x="0" y="0" viewBox="0 0 423.25333 423" style="enable-background:new 0 0 512 512" xml:space="preserve" class=""><g><path xmlns="http://www.w3.org/2000/svg" d="m143.359375 361.941406 11.171875 40.957032h33.691406l9.75-13.652344 6.828125 13.652344h27.304688l27.308593-54.613282 16.804688 54.613282h65.113281l-13.652343-184.320313h-232.105469l-13.652344 184.320313h46.078125zm0 0" fill="#212529" data-original="#0e65e5" class=""/><path xmlns="http://www.w3.org/2000/svg" d="m341.332031 409.726562h-65.113281c-3 0-5.644531-1.953124-6.523438-4.820312l-11.792968-38.324219-19.6875 39.371094c-1.160156 2.3125-3.519532 3.773437-6.109375 3.773437h-27.304688c-2.589843 0-4.949219-1.460937-6.105469-3.773437l-1.757812-3.515625-3.164062 4.429688c-1.28125 1.792968-3.351563 2.859374-5.554688 2.859374h-33.6875c-3.082031 0-5.777344-2.058593-6.585938-5.03125l-5.609374-20.574218-7.941407 21.179687c-1 2.660157-3.546875 4.425781-6.394531 4.425781h-46.078125c-1.898437 0-3.710937-.792968-5.003906-2.179687-1.292969-1.390625-1.945313-3.257813-1.804688-5.152344l13.652344-184.320312c.265625-3.5625 3.234375-6.320313 6.808594-6.320313h232.105469c3.574218 0 6.542968 2.757813 6.804687 6.320313l13.65625 184.320312c.140625 1.890625-.515625 3.757813-1.804687 5.152344-1.292969 1.386719-3.105469 2.179687-5.003907 2.179687zm-60.070312-13.652343h52.722656l-12.644531-170.667969h-219.425782l-12.644531 170.667969h34l13.699219-36.535157c1.039062-2.773437 3.796875-4.589843 6.707031-4.417968 2.957031.140625 5.492188 2.167968 6.273438 5.023437l9.792969 35.929688h24.964843l7.714844-10.792969c1.390625-1.953125 3.757813-2.980469 6.085937-2.839844 2.386719.183594 4.503907 1.613282 5.574219 3.753906l4.941407 9.878907h18.867187l25.417969-50.839844c1.25-2.5 3.902344-3.933594 6.671875-3.753906 2.78125.234375 5.140625 2.132812 5.960937 4.800781zm0 0" fill="#212529" data-original="#0e65e5" class=""/><path xmlns="http://www.w3.org/2000/svg" d="m116.054688 6.953125h204.796874v68.265625h-204.796874zm0 0" fill="#ffffff" data-original="#ffffff" class=""/><g xmlns="http://www.w3.org/2000/svg" fill="#0e65e5"><path d="m320.851562 82.046875h-204.796874c-3.769532 0-6.828126-3.054687-6.828126-6.828125v-68.265625c0-3.773437 3.058594-6.828125 6.828126-6.828125h204.796874c3.773438 0 6.828126 3.054688 6.828126 6.828125v68.265625c0 3.773438-3.054688 6.828125-6.828126 6.828125zm-197.972656-13.652344h191.148438v-54.613281h-191.148438zm0 0" fill="#212529" data-original="#0e65e5" class=""/><path d="m279.894531 41.085938h-122.882812c-3.769531 0-6.824219-3.050782-6.824219-6.824219 0-3.773438 3.054688-6.828125 6.824219-6.828125h122.882812c3.769531 0 6.824219 3.054687 6.824219 6.828125 0 3.773437-3.054688 6.824219-6.824219 6.824219zm0 0" fill="#212529" data-original="#0e65e5" class=""/><path d="m279.894531 61.566406h-122.882812c-3.769531 0-6.824219-3.054687-6.824219-6.828125 0-3.773437 3.054688-6.824219 6.824219-6.824219h122.882812c3.769531 0 6.824219 3.050782 6.824219 6.824219 0 3.773438-3.054688 6.828125-6.824219 6.828125zm0 0" fill="#212529" data-original="#0e65e5" class=""/></g><path xmlns="http://www.w3.org/2000/svg" d="m389.265625 280.019531h-355.277344c-15 0-27.160156-12.160156-27.160156-27.160156v-177.640625h409.597656v177.640625c0 15-12.160156 27.160156-27.160156 27.160156zm0 0" fill="#dee2e6" data-original="#d7e9ff" class=""/><path xmlns="http://www.w3.org/2000/svg" d="m389.261719 286.847656h-355.273438c-18.742187 0-33.988281-15.25-33.988281-33.988281v-177.640625c0-3.773438 3.054688-6.824219 6.828125-6.824219h409.597656c3.769531 0 6.828125 3.050781 6.828125 6.824219v177.640625c0 18.738281-15.246094 33.988281-33.992187 33.988281zm-375.609375-204.800781v170.8125c0 11.214844 9.125 20.332031 20.335937 20.332031h355.273438c11.214843 0 20.339843-9.117187 20.339843-20.332031v-170.8125zm0 0" fill="#212529" data-original="#0e65e5" class=""/><path xmlns="http://www.w3.org/2000/svg" d="m129.707031 109.351562h68.265625v20.480469h-68.265625zm0 0" fill="#6c757d" data-original="#94c1ff" class=""/><path xmlns="http://www.w3.org/2000/svg" d="m197.972656 136.660156h-68.265625c-3.769531 0-6.828125-3.054687-6.828125-6.828125v-20.480469c0-3.773437 3.058594-6.824218 6.828125-6.824218h68.265625c3.769532 0 6.828125 3.050781 6.828125 6.824218v20.480469c0 3.773438-3.058593 6.828125-6.828125 6.828125zm-61.4375-13.652344h54.613282v-6.828124h-54.613282zm0 0" fill="#212529" data-original="#0e65e5" class=""/><path xmlns="http://www.w3.org/2000/svg" d="m238.933594 109.351562h68.265625v20.480469h-68.265625zm0 0" fill="#e52e4e" data-original="#2a8ee6" class=""/><path xmlns="http://www.w3.org/2000/svg" d="m307.199219 136.660156h-68.265625c-3.769532 0-6.828125-3.054687-6.828125-6.828125v-20.480469c0-3.773437 3.058593-6.824218 6.828125-6.824218h68.265625c3.769531 0 6.828125 3.050781 6.828125 6.824218v20.480469c0 3.773438-3.058594 6.828125-6.828125 6.828125zm-61.4375-13.652344h54.613281v-6.828124h-54.613281zm0 0" fill="#212529" data-original="#0e65e5" class=""/><path xmlns="http://www.w3.org/2000/svg" d="m75.09375 170.792969h273.066406v27.308593h-273.066406zm0 0" fill="#6c757d" data-original="#94c1ff" class=""/><path xmlns="http://www.w3.org/2000/svg" d="m348.160156 204.925781h-273.066406c-3.769531 0-6.828125-3.050781-6.828125-6.824219v-27.308593c0-3.773438 3.058594-6.828125 6.828125-6.828125h273.066406c3.769532 0 6.828125 3.054687 6.828125 6.828125v27.308593c0 3.773438-3.058593 6.824219-6.828125 6.824219zm-266.238281-13.652343h259.410156v-13.652344h-259.410156zm0 0" fill="#212529" data-original="#0e65e5" class=""/><path xmlns="http://www.w3.org/2000/svg" d="m143.359375 341.460938 11.171875 40.960937h33.691406l9.75-13.65625 6.828125 13.65625h27.304688l27.308593-54.613281 16.804688 54.613281h65.113281l-13.652343-184.320313h-232.105469l-13.652344 184.320313h46.078125zm0 0" fill="#ffffff" data-original="#ffffff" class=""/><path xmlns="http://www.w3.org/2000/svg" d="m341.332031 389.246094h-65.113281c-3 0-5.644531-1.953125-6.523438-4.820313l-11.792968-38.324219-19.6875 39.371094c-1.160156 2.316406-3.519532 3.773438-6.109375 3.773438h-27.304688c-2.589843 0-4.949219-1.457032-6.105469-3.773438l-1.757812-3.511718-3.164062 4.425781c-1.28125 1.792969-3.351563 2.859375-5.554688 2.859375h-33.6875c-3.082031 0-5.777344-2.058594-6.585938-5.03125l-5.609374-20.574219-7.941407 21.179687c-1 2.660157-3.546875 4.425782-6.394531 4.425782h-46.078125c-1.898437 0-3.710937-.792969-5.003906-2.179688-1.292969-1.390625-1.945313-3.257812-1.804688-5.152344l13.652344-184.320312c.265625-3.5625 3.234375-6.320312 6.808594-6.320312h232.105469c3.574218 0 6.542968 2.757812 6.804687 6.320312l13.65625 184.320312c.140625 1.890626-.515625 3.757813-1.804687 5.152344-1.292969 1.386719-3.105469 2.179688-5.003907 2.179688zm-60.070312-13.652344h52.722656l-12.644531-170.667969h-219.425782l-12.644531 170.667969h34l13.699219-36.535156c1.039062-2.773438 3.796875-4.605469 6.707031-4.417969 2.957031.140625 5.492188 2.167969 6.273438 5.027344l9.792969 35.925781h24.964843l7.714844-10.792969c1.390625-1.953125 3.757813-2.980469 6.085937-2.839843 2.386719.1875 4.503907 1.613281 5.574219 3.753906l4.941407 9.878906h18.867187l25.417969-50.839844c1.25-2.5 3.902344-3.960937 6.671875-3.753906 2.78125.234375 5.140625 2.132812 5.960937 4.800781zm0 0" fill="#212529" data-original="#0e65e5" class=""/><path xmlns="http://www.w3.org/2000/svg" d="m375.464844 129.832031c-3.769532 0-6.824219-3.050781-6.824219-6.824219v-27.308593c0-3.773438 3.054687-6.824219 6.824219-6.824219 3.773437 0 6.828125 3.050781 6.828125 6.824219v27.308593c0 3.773438-3.054688 6.824219-6.828125 6.824219zm0 0" fill="#ffffff" data-original="#ffffff" class=""/><path xmlns="http://www.w3.org/2000/svg" d="m389.121094 116.179688h-27.308594c-3.769531 0-6.824219-3.054688-6.824219-6.828126 0-3.773437 3.054688-6.824218 6.824219-6.824218h27.308594c3.769531 0 6.824218 3.050781 6.824218 6.824218 0 3.773438-3.054687 6.828126-6.824218 6.828126zm0 0" fill="#ffffff" data-original="#ffffff" class=""/><path xmlns="http://www.w3.org/2000/svg" d="m75.09375 102.527344h-47.785156c-3.773438 0-6.828125-3.054688-6.828125-6.828125 0-3.773438 3.054687-6.824219 6.828125-6.824219h47.785156c3.769531 0 6.828125 3.050781 6.828125 6.824219 0 3.773437-3.058594 6.828125-6.828125 6.828125zm0 0" fill="#ffffff" data-original="#ffffff" class=""/></g></svg>
