<?xml version="1.0" encoding="utf-8"?>
<!-- Generator: Adobe Illustrator 26.0.1, SVG Export Plug-In . SVG Version: 6.00 Build 0)  -->
<svg version="1.1" id="_x2014_ÎÓÈ_x5F_1" xmlns="http://www.w3.org/2000/svg" xmlns:xlink="http://www.w3.org/1999/xlink"
	 x="0px" y="0px" viewBox="0 0 600 450" style="enable-background:new 0 0 600 450;" xml:space="preserve">
<style type="text/css">
	.st0{fill:#FFF3E1;}
	.st1{fill:#454099;}
	.st2{fill:#595FB7;}
	.st3{fill:#2C2277;}
	.st4{fill:#191D2B;}
	.st5{fill:#211960;}
	.st6{fill:#FF605C;}
	.st7{fill:#FFFFFF;}
	.st8{fill:#453B96;}
	.st9{fill:#F9E4C7;}
</style>
<g>
	<g>
		<path class="st0" d="M542.2,52.4c0.6,0.4,1.4,1.2,2,2.3c0,0,0.8,1.4,1,3.2c1.4,15.2-4.1,30-4.1,30c-5.4,14.5-14.1,33.4-15.9,32.7
			c-0.5-0.2-0.6-1.8,0.9-7.9c-1.2,1.3-2,1.8-2.4,1.6c-0.6-0.3-0.4-2.3,0.6-6.1c-1.1,0.7-1.8,0.9-2.2,0.6c-0.6-0.5-0.2-2.4,1.4-5.8
			c-1.3,0.7-2.2,0.9-2.6,0.6c-0.8-0.6-0.3-2.9,1.4-6.8c-1.1,0.8-1.8,1.1-2.2,0.9c-0.7-0.4-0.3-2.5,1.1-6.3c-1.3,1.7-2.2,2.4-2.7,2.2
			c-0.7-0.3-0.5-2.6,0.6-7c-1,0.5-1.6,0.7-2,0.4c-0.7-0.5-0.2-2.6,1.6-6.3c-1.4,1-2.3,1.4-2.7,1.1c-0.5-0.4,0.1-2,1.7-4.8
			c-1.5,1.6-2.5,2.2-2.9,2c-0.6-0.4,0.1-2.7,2.1-7.1C525.4,65.5,533.8,59,542.2,52.4z"/>
		<path class="st1" d="M537.2,95.9c0.2,0.2,0.5,0.3,0.7,0.4c-5.1,12.5-11.2,25-12.6,24.4c-0.5-0.2-0.6-1.9,0.9-7.9
			c-1.2,1.3-2,1.8-2.4,1.6c-0.6-0.3-0.4-2.3,0.6-6.1c-1.1,0.7-1.8,0.9-2.2,0.6c-0.6-0.5-0.2-2.4,1.4-5.8c-1.3,0.7-2.2,0.9-2.6,0.6
			c-0.8-0.6-0.3-2.9,1.4-6.8c-1.1,0.8-1.8,1.1-2.2,0.9c-0.7-0.4-0.3-2.5,1.1-6.3c-1.3,1.7-2.2,2.4-2.7,2.2c-0.7-0.3-0.5-2.6,0.6-7
			c-1,0.6-1.6,0.7-2,0.4c-0.7-0.5-0.2-2.6,1.6-6.3c-1.4,1-2.3,1.4-2.7,1.1c-0.5-0.4,0.1-2,1.7-4.8c-1.5,1.6-2.5,2.2-2.9,2
			c-0.6-0.4,0.1-2.7,2.1-7.1c3.5-2.7,6.9-5.4,10.4-8.1c-0.2,3.2,0.1,6.4,2.1,7.7c1.8,1.3,3.3-0.1,4.9,0.9
			C539.3,75.6,532,92.2,537.2,95.9z"/>
		<path class="st2" d="M531,94.8c0.2,2.8,0.5,3.8,1,4.7c0.8,1.5,1.7,1.8,2.6,3.4c0.1,0.1,0.2,0.3,0.2,0.4c-0.7,1.6-1.4,3.1-2.1,4.6
			c-0.3-1.2-0.9-2.3-1.8-3.2c-1.1-1.1-1.8-1-2.7-1.7c-4.5-3.6,3-15.4-1.7-20.9c-2-2.4-3.6-1.7-6.5-5.3c-1.3-1.7-2.2-3.5-2.7-5.1
			c1-0.8,2-1.5,2.9-2.3c0.9,2.5,2.1,3.6,3.2,4.2c1.3,0.7,2,0.4,3.7,1.2c2.7,1.3,3.7,4.1,3.9,4.5c0.5,1.3,0.3,1.9,0,5.9
			C530.9,88.4,530.8,91.5,531,94.8z"/>
	</g>
	<path class="st3" d="M496.9,70.1c-13.4,13-26.1,20.3-35.7,24.7c-9.8,4.5-21.7,8.3-21.4,9.1c0.2,0.5,6.5-1,8.5-1.5
		c3.9-1,7-2.2,9.4-3.2c-9.6,6.6-11.5,8.3-11.4,8.5c0.1,0.2,2.6-1.1,15.2-8c2.8-1.5,5.6-3.1,8.4-4.6c5.4-3,13.7-7.2,25.5-12.5
		C495.9,78.4,496.4,74.3,496.9,70.1z"/>
	<path class="st4" d="M548.9,38.4c0.3,0.7,0.5,1.3,0.8,2c1.8-0.8,4.1-1.9,4-2.4C553.5,37.5,550.8,38,548.9,38.4z"/>
	<path class="st0" d="M528.9,43.3c0.6-0.6,4.9-5,11.3-6.7c2.6-0.7,4.7-0.7,6.6,0.2c0.5,0.3,2.6,1.3,3.4,3.7c0.7,2.3-0.3,4.3-0.6,4.9
		c-1.1,2-2.5,2-4.8,4.4c-1.5,1.6-2.2,2.9-2.6,3.6c-2.3,3.8-15.4,19.7-36.7,25.9c-2.8,0.8-14.1,4.1-15.8,1.2
		c-0.7-1.4,0.8-3.6,3.3-6.7C507.6,56.5,517.4,55,528.9,43.3z"/>
	<path class="st5" d="M549.5,45.5c-1.1,2-2.5,2-4.8,4.4c-1.5,1.6-2.2,2.9-2.6,3.6c-0.9,1.6-3.8,5.2-8.2,9.4c0.2-0.8,0.1-1.4,0-1.9
		c-0.5-1.9-2-2.1-2.6-4.2c-0.3-1.2-0.1-2.2,0.2-3.4c0.5-2.3,1.3-2.4,1.8-4.3c0.2-0.8,0.9-3.7-0.7-5.3c-1.1-1.1-2.6-1.1-3.2-1.1
		c1.4-1.4,5.3-4.7,10.8-6.2c2.6-0.7,4.7-0.7,6.6,0.2c0.5,0.2,2.6,1.3,3.4,3.7C550.9,42.9,549.9,44.9,549.5,45.5z"/>
	<path class="st6" d="M549.5,45.5c-1.1,2-2.5,2-4.8,4.4c-1.5,1.6-2.2,2.9-2.6,3.6c-0.2,0.3-0.5,0.7-0.8,1.2
		c-0.3-1.1-0.4-2.5,0.1-4.1c0.2-0.5,0.9-2.4,2.5-3.6c1-0.7,1.5-0.7,2.3-1.6c0.3-0.3,1.1-1.3,1.4-2.6c0.4-2.1-1-3-0.5-4.4
		c0.1-0.3,0.3-0.6,0.6-0.9c0.8,0.6,1.9,1.6,2.4,3.1C550.9,42.9,549.9,44.9,549.5,45.5z"/>
	<g>
		<path class="st0" d="M545,40.5c0.3,0.7-0.1,1.6-0.8,1.9c-0.7,0.3-1.6-0.1-1.9-0.8c-0.3-0.7,0.1-1.6,0.8-1.9
			C543.9,39.4,544.7,39.8,545,40.5z"/>
		<path class="st4" d="M543,41.3c0.2,0.4,0.6,0.6,1,0.4c0.4-0.2,0.6-0.6,0.4-1c-0.2-0.4-0.6-0.6-1-0.4C543,40.5,542.8,41,543,41.3z"
			/>
		<path class="st7" d="M543.6,40.6c0.1,0.2,0.3,0.2,0.4,0.2c0.2-0.1,0.2-0.3,0.2-0.4c-0.1-0.2-0.3-0.2-0.4-0.2
			C543.6,40.3,543.5,40.5,543.6,40.6z"/>
	</g>
	<g>
		<path class="st5" d="M493.4,67.8c10.2-10.7,18.7-15.5,27.1-21.6c0.7-0.5,2.4-1.8,5-2.6c1.6-0.5,2.9-0.7,4-0.8
			c-1.5,1.4-3.6,3.5-5.9,6.2c-10.1,11.9-9.1,18.3-17.3,32.7c-2.6,4.5-10.3,17.4-23.1,26.9c-0.7,0.5-7.5,5.6-8,5
			c-0.3-0.3,1.7-2.5,3.5-4.4c-1.4,0.5-2.1,0.7-2.2,0.5c-0.3-0.4,1.8-2.3,6.2-5.6c-1.8,0.7-2.8,0.8-3,0.4c-0.4-0.6,1.2-2.4,4.7-5.6
			c-1.1,0.3-1.8,0.3-2,0c-0.4-0.6,1.2-2.5,4.9-5.7c-1.4,0.6-2.2,0.7-2.4,0.4c-0.4-0.5,1.1-2.4,4.5-5.7c-1.3,0.4-2.1,0.5-2.2,0.3
			c-0.3-0.5,1.4-2.1,4.9-4.8c-2.3,0.8-3.6,1.1-3.9,0.6c-0.4-0.6,1.2-2.4,4.7-5.4c-2.5,1.1-3.9,1.4-4.2,1c-0.4-0.6,1.1-2.5,4.6-5.8
			c-2.2,1.3-3.3,1.9-3.5,1.6c-0.2-0.3,0.8-1.6,3.1-4c-1.1,0.6-2.6,1.4-2.9,1C489.3,72.3,491.1,70.2,493.4,67.8z"/>
		<path class="st8" d="M497,73.3c-0.1,4.7,1.3,5.3,0.5,7.9c-0.7,2.6-2,2.1-3.6,5.2c-1.8,3.7-0.5,5.4-2.1,9c-1.2,2.6-2.1,2.1-4.5,5.3
			c-2.2,3-2.9,5.4-3.5,7.4c-0.2,0.2-0.5,0.4-0.7,0.5c-0.7,0.5-7.5,5.6-8,5c-0.3-0.3,1.7-2.5,3.5-4.4c-1.4,0.5-2.1,0.7-2.2,0.5
			c-0.3-0.4,1.8-2.3,6.2-5.6c-1.8,0.7-2.8,0.8-3,0.4c-0.4-0.6,1.2-2.4,4.7-5.6c-1.1,0.3-1.8,0.3-2,0c-0.4-0.6,1.2-2.5,4.9-5.7
			c-1.4,0.6-2.2,0.7-2.4,0.4c-0.4-0.5,1.1-2.4,4.5-5.7c-1.3,0.4-2.1,0.5-2.2,0.3c-0.3-0.5,1.3-2.1,4.9-4.8c-2.3,0.9-3.6,1.1-3.9,0.6
			c-0.4-0.6,1.2-2.4,4.7-5.4c-2.5,1.1-3.9,1.4-4.2,1c-0.4-0.6,1.1-2.5,4.6-5.8c-2.2,1.3-3.3,1.9-3.5,1.6c-0.2-0.3,0.8-1.6,3.1-4
			c-1.1,0.6-2.6,1.4-2.9,1c-0.4-0.5,1.4-2.5,3.7-4.9c0.7-0.7,1.3-1.4,2-2c0.7,0.7,1.2,1.6,1.5,2.4C497.5,69.8,497.1,70.6,497,73.3z"
			/>
	</g>
	<g>
		<path class="st9" d="M526.3,63.2c-0.6,0.4-1.1,0.9-1.7,1.3c-1.1,0.9-1.4,1.1-1.6,1.4c-0.1,0.2,0.1,0.3,0.2,0.3
			c0.3-0.1,0.6-0.4,0.9-0.6c1-0.8,1.7-1.4,2.4-2.1C526.8,63.4,526.5,63.1,526.3,63.2z"/>
		<path class="st9" d="M523.4,61.8c-0.4,0.4-0.8,0.8-1.2,1.2c-0.1,0.1-1,1-1.1,1.3c-0.1,0.1,0.1,0.3,0.2,0.2
			c0.2-0.1,0.4-0.4,0.6-0.6c0.5-0.5,0.5-0.5,1.8-1.9C523.9,61.9,523.6,61.6,523.4,61.8z"/>
		<path class="st9" d="M518.5,68.5c-0.5,0.4-1,0.8-1.5,1.2c-0.5,0.4-1,0.8-1.4,1.2c-0.1,0.1,0.1,0.2,0.2,0.2c0.5-0.3,1-0.7,1.5-1.1
			c0.5-0.4,0.9-0.8,1.4-1.2C518.9,68.6,518.7,68.4,518.5,68.5z"/>
		<path class="st9" d="M521.1,70.1c-0.5,0.4-0.9,0.7-1.4,1.1c-0.5,0.4-0.9,0.7-1.3,1.2c-0.1,0.1,0,0.4,0.2,0.3
			c0.5-0.3,1-0.7,1.4-1.1c0.5-0.4,0.9-0.8,1.4-1.1C521.6,70.2,521.3,69.9,521.1,70.1z"/>
		<path class="st9" d="M530.1,60.9c-0.8,1.1-0.9,1.2-1.1,1.4c-0.1,0.2-0.2,0.3-0.3,0.5c-0.1,0.1,0.1,0.2,0.2,0.1
			c0.2-0.2,0.6-0.7,0.8-0.9c0.2-0.3,0.5-0.6,0.7-0.9C530.5,61,530.2,60.7,530.1,60.9z"/>
	</g>
</g>
<g>
	<g>
		<path class="st3" d="M389.4,29.9c0.7,0.1,0.4,4.1,0.5,7.8c0,0,0.2,13,7.4,35.6c0.1,0.4,0.5,1.6,0.7,3.3c0.1,1.9-0.1,3.3-0.3,4.3
			c-1,4.7-2.6,10.5-2.9,11.5c-7.7,4.1-15.4,8.2-23,12.3c1.5-10.1,3-20.2,4.5-30.3c-1.2-3.7-1.4-5.7-0.8-6.1c0.4-0.2,1.2,0.2,2.3,1.3
			c-1.4-3.5-1.7-5.5-1-6c0.4-0.3,1-0.1,2,0.4c-1.3-3.9-1.6-6.1-0.9-6.5c0.4-0.2,1,0.1,1.9,0.8c-0.7-3.5-0.7-5.4,0-5.6
			c0.3-0.1,0.8,0.1,1.4,0.8c-0.8-4.4-0.9-6.7-0.3-7c0.3-0.1,0.7,0.2,1.3,1c-0.2-4.6,0.1-7,0.8-7.1c0.3-0.1,0.7,0.4,1.2,1.3
			c0.2-5.3,0.7-7.9,1.6-8.1c0.4-0.1,0.9,0.4,1.4,1.2C388,32.6,388.9,29.9,389.4,29.9z"/>
		<path class="st5" d="M375.2,68.6c0.7,2.9,1.9,7.1,3.6,7.1c1.4,0,2.7-2.7,3.2-4.5c0.6-2.1,0.2-3,0.2-5.9c0-2.5,0-6.5,1.9-10.2
			c1.5-2.9,2.6-2.5,3.4-4.9c0.7-2.4-0.2-3.1,0.1-7.7c0.2-2.8,0.3-4.2,1.4-5.6c0.3-0.4,0.6-0.7,0.9-0.9c0-3.1,0.1-6-0.5-6.1
			c-0.6-0.1-1.5,2.6-2.2,5c-0.5-0.9-1-1.3-1.4-1.2c-0.9,0.1-1.5,2.8-1.6,8.1c-0.5-0.9-0.9-1.3-1.2-1.3c-0.7,0.1-0.9,2.5-0.8,7.1
			c-0.6-0.8-1.1-1.1-1.3-1c-0.6,0.2-0.6,2.5,0.3,7c-0.6-0.7-1.1-0.9-1.4-0.8c-0.7,0.3-0.6,2.1,0,5.6c-0.9-0.7-1.5-1-1.9-0.8
			c-0.7,0.4-0.4,2.6,0.9,6.5c-0.9-0.6-1.6-0.7-2-0.4c-0.7,0.5-0.4,2.5,1,6c-1.1-1.1-1.9-1.5-2.3-1.3
			C375.4,68.4,375.3,68.4,375.2,68.6z"/>
	</g>
	<path class="st4" d="M413.9,91.4c0.2,0.6,0.4,1.1,0.6,1.7c1.7-0.6,4-1.6,3.9-2C418.3,90.8,415.7,91.1,413.9,91.4z"/>
	<path class="st5" d="M326.4,144.3c-0.2-0.4,7.5-4.1,16.3-11.3c0.9-0.7,3.3-2.8,6.3-5.7c3.3-3.2,6-6.3,8.1-8.8
		c2.2-3.1,5.8-8.1,9-11.4c1.1-1.1,2.2-2.2,2.2-2.2c0.2-0.2,0.5-0.4,0.8-0.7c1.4-1.2,5.7-4.8,20-11.8c0.6-0.3,1-0.5,1.2-0.6
		c12.6-5.8,20.5-4.6,22.6-3c1.2,0.9,1.7,2.1,1.7,2.1s0.7,1.6,0.3,3.6c-0.6,3.4-6.1,5.6-10.2,7.9c-4.8,2.6-17.7,14.6-32.4,20.2
		c0,0-10,2.9-10.3,3c-5.6,1.6-11.8,9.1-18.9,15.5c-7.1,6.3-13.9,10.3-14.2,9.9c-0.3-0.4,7-5.4,14.6-14.6c0.2-0.3,0.5-0.6,0.8-1
		c-4.6,2.7-8.6,4.9-11.9,6.5C328.4,143.7,326.5,144.5,326.4,144.3z"/>
	<path class="st0" d="M342.8,55.1c-1.1-0.3-2.1-0.4-2.4,0.1c-0.7,1.1,3.7,4.9,3.2,5.5c-0.3,0.4-2.2-1-2.6-0.6c-0.3,0.3,0.6,2,4,6.2
		c-1.8-0.9-2.9-1.2-3.1-0.9c-0.3,0.4,1.1,2.1,4.3,5c-1.9-0.8-2.9-1.1-3.1-0.8c-0.2,0.4,1.4,1.9,4.7,4.4c-2.2,0.1-3.3,0.4-3.4,0.9
		c-0.1,0.7,1.8,1.7,5.7,3c-1.9,0.6-2.8,1.2-2.8,1.7c0.1,0.7,2.1,1.3,6,1.7c-2.3,0.5-3.4,1-3.5,1.6c0,0.8,2.1,1.7,6.4,2.6
		c-2.8,0.8-3.1,1.5-3.1,1.8c0,1,3.5,1.7,5.2,2c-2.6-0.1-4,0.1-4.1,0.6c-0.1,0.6,1.7,1.7,5.5,3.2c-2.2,0-3.4,0.3-3.5,0.7
		c-0.1,0.7,1.8,1.8,5.7,3.4c-2.2,0.2-3.3,0.6-3.4,1.1c-0.1,0.7,1.8,1.7,5.6,2.8c-3,0.4-3.6,0.8-3.6,1.1c0,0.7,3.9,1.5,5.6,1.7
		c1.1,0.2,2,0.2,2.7,0.3c0,0,0.1,0.1,0.2,0.1c0,0,0.4,0.2,0.7,0.7c1,2,0.1,5.1,0.1,5.1c-0.7,2.5-1.7,4.1-2.5,5.7
		c-1.4,2.5-4.2,7.2-3.1,9c1-0.3,7-2,7.9-2.3c10.1-3.8,19.4-10.7,25.7-15.5c0.4-1.8,1-4.1-0.3-6c-2-3-6.8-2.4-8.3-5.9
		c-0.2-0.6-0.2-0.8-0.3-1.9c0-0.3-0.1-0.6-0.1-0.9c-0.3-1.7-1.2-4-4.4-10.9c-2.3-4.8-2.9-5.9-4-7.2c-1.4-1.8-2.8-2.8-3.3-3.2
		c-3.6-2.9-24-19.8-32.4-31.4c-0.6-0.9-2.4-3.3-3-3c-0.7,0.3,0.1,3.4,0.9,6c-1.4-1.5-2.3-2.2-2.7-1.9c-0.7,0.4,0,3.3,2.1,8.8
		c-1.4-1.2-2.2-1.6-2.5-1.4C339.2,48.5,340.2,50.8,342.8,55.1z"/>
	<path class="st6" d="M405.8,101.7c3.9-2,8.5-4.2,9.1-7.2c0.4-2-0.3-3.6-0.3-3.6s-0.5-1.2-1.7-2.1c-0.2-0.2-0.5-0.4-0.9-0.5
		c-1,0.5-1.7,1.3-1.9,2.1c-0.3,1.3,0.9,1.8,0.7,3.2c-0.3,1.9-2.7,2-4,4.4C406,99.2,405.7,100.6,405.8,101.7z"/>
	<g>
		<path class="st0" d="M409.3,92c0.1,0.8-0.5,1.4-1.3,1.5c-0.8,0.1-1.4-0.5-1.5-1.3c-0.1-0.8,0.5-1.4,1.3-1.5
			C408.5,90.7,409.2,91.2,409.3,92z"/>
		<path class="st4" d="M407.2,92.2c0,0.4,0.4,0.7,0.8,0.6c0.4,0,0.7-0.4,0.7-0.8c0-0.4-0.4-0.7-0.8-0.6
			C407.4,91.4,407.1,91.8,407.2,92.2z"/>
		<path class="st7" d="M407.9,91.7c0,0.2,0.2,0.3,0.3,0.3c0.2,0,0.3-0.2,0.3-0.3c0-0.2-0.2-0.3-0.3-0.3
			C408.1,91.4,407.9,91.5,407.9,91.7z"/>
	</g>
	<path class="st1" d="M342.8,55.1c-1.1-0.3-2.1-0.4-2.4,0.1c-0.7,1.1,3.7,4.9,3.2,5.5c-0.3,0.4-2.2-1-2.6-0.6c-0.3,0.3,0.6,2,4,6.2
		c-1.8-0.9-2.9-1.2-3.1-0.9c-0.3,0.4,1.1,2.1,4.3,5c-1.9-0.8-2.9-1.1-3.1-0.8c-0.2,0.4,1.3,1.9,4.7,4.4c-2.2,0.1-3.3,0.4-3.4,0.9
		c-0.1,0.7,1.8,1.7,5.7,3c-1.9,0.6-2.8,1.2-2.8,1.7c0.1,0.7,2.1,1.3,6,1.7c-2.3,0.5-3.4,1-3.5,1.6c0,0.8,2.1,1.7,6.4,2.6
		c-2.8,0.8-3.1,1.5-3.1,1.8c0,1,3.5,1.7,5.2,2c-2.6-0.1-4,0.1-4.1,0.6c-0.1,0.6,1.7,1.7,5.5,3.2c-2.2,0-3.4,0.3-3.5,0.7
		c-0.1,0.7,1.8,1.8,5.7,3.4c-2.2,0.2-3.3,0.6-3.4,1.1c-0.1,0.7,1.8,1.7,5.6,2.8c-3,0.4-3.6,0.8-3.6,1.1c0,0.7,3.9,1.5,5.6,1.7
		c1.1,0.2,2,0.2,2.7,0.3c0,0,0.1,0.1,0.2,0.1c0.7,0.2,1.6-1.3,1.7-1.5c1-1.7-1.2-5.1-2.9-8.2c-2.7-5.1-4.9-9.2-4.1-13.5
		c0.6-3.1,2.1-4,1.8-6.9c-0.3-2.1-1.2-3.2-2.8-5.5c-3.2-4.6-7.1-10.3-5.8-12.3c0.5-0.7,1.5-0.8,2.6-0.6
		c-5.6-5.3-11.3-11.2-14.9-16.1c-0.6-0.9-2.4-3.3-3-3c-0.7,0.3,0.1,3.4,0.9,6c-1.4-1.5-2.3-2.2-2.7-1.9c-0.7,0.4,0,3.3,2.1,8.8
		c-1.4-1.2-2.2-1.6-2.5-1.4C339.2,48.5,340.2,50.8,342.8,55.1z"/>
	<path class="st9" d="M385.9,93.6c-0.3,0.4-0.6,0.5-2.8,1.4c-1.6,0.7-2.6,1.1-3.2,1.4c-3.7,1.8-4.4,4.7-5.7,4.4
		c-0.8-0.2-1.1-1.4-1.5-3.1c-0.4-1.7-0.4-2.8-0.5-3.8c-0.2-2.7-1.7-4-2.7-6c-2.1-4,0.1-6.3-0.6-11.6c-1-7.6-6.6-11.4-5.8-12.2
		c0.9-0.9,8.8,4.1,14.5,11.6c3,4.1,1.3,3.3,6.3,11.5C385.1,89.3,386.9,92.2,385.9,93.6z"/>
	<path class="st2" d="M345,56.1c0,3.1,1.1,5.4,2,6.8c3.9,6.6,8.2,6.2,10.1,11.2c1.4,3.6-0.8,3.8,0.2,9.1c1.2,5.8,4.3,7.2,6.5,14.1
		c0.8,2.7,1.2,5,1.3,6.5c0.4,0.1,0.8,0.1,1.2,0.2c0.5,0.1,0.9,0.1,1.4,0.2c0-0.7,0-1.6-0.2-2.7c-0.8-5.4-3.5-6.4-5.8-12
		c-1.7-4-2-7.9-2.2-10.9c-0.3-4.2,0.3-3.9-0.2-5.8c-1.6-6.4-8.1-6.7-8.7-11.8c-0.3-2.7,1.4-3.1,1.9-8.3c0.1-1.4,0.1-2.7,0.1-3.9
		c-2-2.1-3.9-4.2-5.5-6.2c0.3,2.4,0.1,4.3-0.1,5.7C346.2,51.7,345,53,345,56.1z"/>
	<g>
		<path class="st9" d="M395.1,106.6c0.1-0.1,0.4,0.1,0.2,0.2c-0.2,0.3-0.5,0.6-0.7,0.8c-0.2,0.2-0.9,0.9-1.1,0.7
			C393.4,108.2,393.9,107.8,395.1,106.6z"/>
		<path class="st9" d="M392.6,106.3c0.2-0.1,0.4,0.2,0.2,0.3c-0.7,0.4-1.1,0.9-1.3,0.9C391,107.9,390.9,107,392.6,106.3z"/>
		<path class="st9" d="M389.4,110.4c0.3-0.3,0.7-0.4,1.7-0.9c0.2-0.1,0.3,0.2,0.1,0.3c-0.9,0.5-1.3,0.7-1.7,0.8
			C389.4,110.7,389.3,110.5,389.4,110.4z"/>
		<path class="st9" d="M387.9,109.5c0,0.3-0.2,0.2-0.9,0.5c-0.3,0.1-0.7,0.3-0.8,0.3C385.3,110.2,387.8,109,387.9,109.5z"/>
		<path class="st9" d="M384.9,113c0.3-0.3,0.5-0.4,2-1.1c0.3-0.1,0.4,0.3,0.2,0.4c-1.1,0.6-1.7,0.9-2.1,0.9
			C384.9,113.3,384.8,113.1,384.9,113z"/>
		<path class="st9" d="M380.9,113.1c0.3-0.3,1.1-0.6,1.8-0.9c0.2-0.1,0.4,0.2,0.2,0.3c-0.7,0.4-1.4,0.8-1.8,0.8
			C380.9,113.3,380.8,113.2,380.9,113.1z"/>
		<path class="st9" d="M379.5,116.1c0.4-0.3,1.3-0.7,1.9-1c0.2-0.1,0.4,0.2,0.1,0.3c-0.5,0.3-1.4,0.8-1.9,0.9
			C379.5,116.4,379.4,116.2,379.5,116.1z"/>
		<path class="st9" d="M376.1,116.1c0.1-0.2,1.4-0.9,1.6-1.1c0.2-0.1,0.4,0.2,0.2,0.3c-0.4,0.3-1.4,1-1.7,1
			C376.1,116.4,376,116.2,376.1,116.1z"/>
		<path class="st9" d="M375.5,118.8c0.4-0.3,0.8-0.5,1.6-0.9c0.2-0.1,0.3,0.2,0.1,0.3c-0.5,0.3-1.1,0.7-1.7,0.8
			C375.4,119.1,375.4,118.9,375.5,118.8z"/>
		<path class="st9" d="M380.5,110.2c0.4-0.2,0.8-0.3,1.2-0.6c1-0.5,1.1-1,1.3-0.7c0.3,0.4-1.5,1.5-2.4,1.5
			C380.5,110.5,380.4,110.3,380.5,110.2z"/>
	</g>
</g>
<g>
	<path class="st5" d="M453.3,190.1c-46.9,15.2-58.2,19.5-58.1,20.1c0.2,0.7,17.9-3.8,20.6-4.5c7.6-2,13.9-3.8,18.5-5.3
		c-2.7,2.8-3.9,4.5-3.5,5.1c0.3,0.5,1.8,0.1,4.4-1c-1.4,2-1.3,4-0.5,4.6c0.7,0.5,2.2,0,3.4-1.3c-1.9,2.4-3,4.6-2.4,5.2
		c0.6,0.6,3-0.4,5.8-2.5c-1.2,1.8-1.6,3.4-1.1,3.8c0.5,0.4,1.8-0.2,3.2-1.4c-0.6,3.2,0,3.8,0.2,3.9c1.1,0.5,3.6-2.8,4.5-4
		c-0.9,1.6-1.1,3-0.6,3.3c0.5,0.3,1.8-0.3,3-1.7c-13.9,22.9-20.6,34.6-20,34.9c0.7,0.4,12.6-16.6,35.6-51.1
		C461.8,195.6,457.6,192.9,453.3,190.1z"/>
	<g>
		<path class="st1" d="M485.3,176.5c19.9,2,33.8,3.3,35.5,3.3c0.2,0,1.2,0,2.2,0.5c0.9,0.4,1.4,1,1.6,1.2c4.7,5.5,28,30.3,26.1,31.9
			c-0.4,0.3-1.7-0.2-5.9-3.8c0.7,1.6,1,2.5,0.7,2.7c-0.4,0.3-2-0.8-4.6-3.4c0.7,1.6,0.9,2.4,0.7,2.6c-0.5,0.3-2.3-1.3-5.5-4.8
			c0.1,1.3-0.1,2-0.5,2.2c-0.8,0.4-2.4-1.1-5-4.4c0.4,1.4,0.4,2.3,0,2.5c-0.7,0.4-2.5-1.1-5.5-4.4c0.1,3.2-0.5,3.7-0.8,3.8
			c-1.1,0.3-2.9-3.1-3.7-4.6c0,0.2,0.4,2.4-0.5,2.9c-0.8,0.5-2.6-0.4-4.1-2.6c0.2,1.2,0.1,2-0.3,2.2c-0.7,0.4-2.2-0.7-4.6-3.1
			c0.3,1.2,0.3,2,0,2.2c-0.6,0.4-2.1-0.6-4.6-3c0.3,1.1,0.3,1.8,0,2c-0.5,0.3-1.6-0.4-3.4-2.2c0.5,1.9,0.6,3,0.1,3.3
			c-0.5,0.3-1.9-0.7-3.9-3.1c0.3,1.7,0.1,2.1-0.1,2.2c-0.6,0.3-2.1-1.3-3-2.4c0.2,2.1-0.3,2.5-0.5,2.6c-1.1,0.5-3.4-2.7-3.8-3.3
			c0.5,1.6,0.5,2.5,0.1,2.7c-0.5,0.3-1.9-0.7-4.1-3.1c0.2,1.1,0.1,1.7-0.3,2c-0.6,0.4-2-0.5-4.2-2.6c0.7,1.8,0.9,2.8,0.7,3
			c-0.4,0.2-1.5-0.9-3.5-3.4c-0.4,2.1-0.9,3.1-1.4,3.1c-0.7,0.1-1.6-1.7-2.6-5.2c-1.4,3.2-2.1,3.3-2.4,3.3c-1-0.2-1.2-4.1-1.2-5.6
			C477.1,187.9,481.2,182.2,485.3,176.5z"/>
		<path class="st0" d="M544.4,204c-3.4-0.1-5.7-0.9-7.2-1.8c-2-1.1-2.3-2-8.4-7.2c-2.9-2.5-3.8-3.1-5.1-3.5c-3-0.9-4.7,0.4-7.8,0.9
			c-6,0.8-7.2-2.7-14-3.3c-4.8-0.4-6,1.2-9.1,2c-1.4,0.3-2.8,0.7-4.4,0.4c-2.2-0.4-2.7-1.5-4.4-1.9c-1.2-0.2-2.9-0.1-5.3,1.6
			c-0.8-0.6-1.7-1.2-2.5-1.9c3.1-4.3,6.2-8.6,9.2-12.8c19.9,2,33.8,3.3,35.5,3.3c0.2,0,1.2,0,2.2,0.5c0.9,0.4,1.4,1,1.6,1.2
			C527.4,184.9,537.6,195.9,544.4,204z"/>
		<path class="st9" d="M487.3,180.1c-1.3,0.7-1.3,1.5-3.3,3.7c-2,2.1-3.5,2.9-3.3,3.3c0.2,0.5,2.7-1.2,6-0.7
			c1.8,0.3,2.2,0.9,3.8,1.4c3.2,0.9,4.9-0.8,8.4-1.4c5.7-1,6.2,2.7,12.5,1.9c3.7-0.5,4.6-1.8,8.8-1.7c3,0.1,5.1,0.8,5.4,0.2
			c0.3-0.6-1.6-2.2-3.3-3.2c-3.6-2-6.3-1.4-11.6-1.5c-1.1,0-11.1-0.4-18.6-2.1C491,179.6,489,179.1,487.3,180.1z"/>
		<path class="st2" d="M547.5,207.9c-1.8-0.1-4.2-0.4-6.9-0.9c-13.1-2.7-15.5-8.4-23.8-7.6c-2.8,0.3-6,1.3-9.7-0.3
			c-1.7-0.8-2.1-1.5-4.3-2.1c-2.8-0.9-5.3-0.7-7.4-0.5c-4.1,0.4-3.7,1.1-6.7,1.3c-4.4,0.2-7.8-1.3-9.8-2.1c-2-0.9-3.7-2-5.1-3
			c0.8-1.2,1.7-2.4,2.6-3.6c7.8,5.2,13.4,5.9,17.3,5.5c3.4-0.4,7.5-1.8,11.7,0.3c1.5,0.7,2.8,1.8,5.2,2.2c2.3,0.4,3.2-0.2,5.6-0.3
			c5-0.4,9.2,1.5,11.4,2.6c3,1.4,2.1,1.7,6.2,3.9c5.4,2.8,8.3,3.1,9.6,3.2c1,0,1.9,0,2.7-0.1C546.6,206.7,547.1,207.3,547.5,207.9z"
			/>
	</g>
	<g>
		<path class="st1" d="M476.6,170.3c-5.9-10-10.1-17.1-11.6-20.2c-0.3-0.7-1.2-2.5-3.1-4.4c-1.3-1.3-2.5-2.1-3-2.4
			c-15.1-9.6-37-23.4-38.2-21.5c-0.3,0.4,0.4,1.6,4.4,5.3c-2-0.8-3.2-1.1-3.4-0.7c-0.4,0.6,1.5,2.7,5.7,6.4c-2-0.2-3.1,0-3.2,0.4
			c-0.2,0.7,1.9,2.1,6.3,4.3c-2.6-0.5-4-0.5-4.2,0c-0.3,0.8,1.9,2.6,6.8,5.6c-1.8,0.4-2.7,0.8-2.7,1.4c-0.1,0.9,2.2,1.9,6.9,3.1
			c-1.8,0.3-2.7,0.8-2.7,1.4c-0.1,1,2.1,2.2,6.6,3.8c-2.1-0.2-3.2-0.1-3.3,0.3c-0.2,0.7,2.1,2.3,7.2,4.8c-3-0.2-4.5,0-4.7,0.6
			c-0.2,0.8,1.9,2.2,6.4,4.3c-3.4,0.3-3.7,0.8-3.7,1.1c-0.1,0.9,3.1,2,4.6,2.5c-1.5,0-2.3,0.2-2.5,0.7c-0.2,0.7,1.2,2,4.2,3.8
			c-1.9-0.1-2.9,0.1-3,0.6c-0.2,0.7,1.5,2.1,5.2,4.1c-1.9-0.4-2.9-0.5-3-0.2c-0.2,0.4,1.4,1.5,4.6,3.3c-1.8-0.1-2.7,0.1-2.8,0.5
			c-0.2,0.6,1.4,1.6,4.7,3.1c-1.7,0.5-2.6,1-2.6,1.5c0,0.7,1.9,1.4,5.8,2.1C464.1,180.7,470.4,175.5,476.6,170.3z"/>
		<path class="st0" d="M476.6,170.3c-3.9,3.3-7.9,6.6-11.8,9.8c-0.8,0.6-1.5,1.1-2.3,1.7c-0.2-0.8-0.5-2.1-0.7-3.6
			c-0.1-1.3,0-2-0.1-2.6c-0.6-2.9-2.5-3.7-4-6.2c-2.5-4.1,0.2-6.6-1.7-11.9c-1.7-4.6-4.7-7.6-6-8.9c-5.8-5.6-9.7-4.2-13.5-9.7
			c-1.9-2.8-2.7-5.7-2.9-6.7c-0.4-1.8-0.6-3.5-0.6-4.9c7.8,4.5,17.8,10.9,25.9,16c0.5,0.3,1.7,1.1,3,2.4c1.8,1.9,2.7,3.7,3.1,4.4
			C466.5,153.1,470.7,160.2,476.6,170.3z"/>
		<path class="st9" d="M474.7,170.1c-0.2,0.5-0.8,0.7-1.4,0.9c0,0-2.7,1-5.9,3.3c-2.6,1.9-3.3,4.1-3.8,3.9c-0.5-0.2,1-2.8,0.7-6
			c-0.4-3.7-3-4.3-4.8-8.4c-1.9-4.3,0.3-5.2-1.4-9.9c-1.9-5.5-6.5-8.8-8.3-10.1c-4.4-3.1-8.1-3.7-8-4.3c0.2-0.6,5.1-0.3,9.9,1.7
			c4.5,1.9,7.2,4.6,7.9,5.4c2.8,2.9,1.7,3.5,5.5,9c4.1,6.1,6.1,9.1,7.5,10.6C473.5,167,475.3,168.8,474.7,170.1z"/>
		<path class="st2" d="M458.8,185.1c0.1-1.8-0.2-3.2-0.5-4.1c-0.6-2.1-1.5-3.6-2.8-5.3c-3.2-4.1-3.5-3.5-4.2-5
			c-1.9-3.8,1-5.8-0.6-10.9c-1-3.3-3.1-5.4-3.8-6c-2.1-2-3.5-2.1-5.6-3.6c-0.9-0.6-2-1.5-6.2-7.8c-6.7-10-7.2-12.8-7.3-14.9
			c0-1.2,0.1-2.2,0.2-3c0.8,0.4,1.5,0.8,2.4,1.3c0,0.8,0.1,1.8,0.3,2.9c0.7,3.9,2.4,6.5,5.5,11.2c2,3,3,4.6,4.5,5.8
			c3,2.5,4.2,1.7,6.8,3.9c4.6,3.7,5.5,9.7,5.6,10.3c0.6,4.2-1.2,5-0.1,8c1.2,3.3,3.4,4,5.5,6.9c1.2,1.7,2.4,4.3,2.6,8.3
			C460.3,183.8,459.6,184.4,458.8,185.1z"/>
	</g>
	<path class="st0" d="M482.1,163.4c0.7-0.4,2.6-1.4,5-1c2.5,0.4,5.3,2.3,5.6,4.6c0,0.3,0,0.5,0,0.7c-0.3,3.4-3.4,6.9-4.4,8
		c-3.1,3.8-2,4.9-4.6,9.7c-0.4,0.8-1.4,4-9.2,8.7c-9,5.5-25.1,12.1-27.5,8.4c-1.1-1.7,1.1-5,4.7-10.4c2.4-3.6,4.8-6.1,7.6-9.1
		c2-2.1,4.2-4.3,6.7-6.6c2.3-2,5.7-4.8,10.6-7.4c0.5-0.5,1.3-1.3,2.2-2.5C479.1,166.2,478.6,165.4,482.1,163.4z"/>
	<path class="st5" d="M492.7,167.6c-0.3,3.3-3.4,6.9-4.4,8c-0.4,0.5-0.7,0.9-1,1.3c-1.8,0.9-2,1.5-4,2.3c-1.7,0.6-3.2,1.2-4.6,0.5
		c-1.5-0.7-2.5-2.4-2.5-3.9c0-1.6,1.3-2.1,1.3-3.9c0-1.2-0.4-2.2-0.9-2.8c0.9-0.9,1.7-1.7,2.3-2.7c0.3-0.4,1.3-2,3.2-3.1
		c0.7-0.4,2.6-1.4,5-1c2.6,0.4,5.3,2.3,5.6,4.6C492.8,167.2,492.8,167.4,492.7,167.6z"/>
	<path class="st4" d="M489.6,163.9c0.5,0.5,1,1.1,1.5,1.6c1.3-1.3,3-3.2,2.7-3.6C493.4,161.5,491.2,162.9,489.6,163.9z"/>
	<path class="st6" d="M492.7,167.6c-0.2,2.5-2,5-3.3,6.7c-1.1,0-2.4-0.2-3.4-1.2c-0.8-0.9-0.9-2-1-2.4c-0.2-2.9,2.6-4,2-6.3
		c-0.2-0.6-0.5-1.2-0.6-2.1c0.2,0,0.4,0,0.7,0.1c2.6,0.4,5.3,2.3,5.6,4.6C492.8,167.2,492.7,167.4,492.7,167.6z"/>
	<g>
		<path class="st0" d="M485.6,163.2c0.3,0.4,0.1,0.9-0.5,1.3c-0.6,0.4-1.3,0.4-1.7,0s-0.1-0.9,0.5-1.3
			C484.6,162.9,485.3,162.9,485.6,163.2z"/>
		<path class="st4" d="M484,164.2c0.2,0.2,0.6,0.2,0.9,0c0.3-0.2,0.4-0.5,0.2-0.7c-0.2-0.2-0.6-0.2-0.9,0
			C484,163.7,483.9,164,484,164.2z"/>
		<path class="st7" d="M484.5,163.7c0.1,0.1,0.2,0.1,0.4,0c0.1-0.1,0.2-0.2,0.1-0.3c-0.1-0.1-0.2-0.1-0.4,0
			C484.5,163.4,484.4,163.6,484.5,163.7z"/>
	</g>
	<g>
		<path class="st9" d="M471.1,178.4c-0.6,0.4-1.5,1.3-1.9,1.9c-0.1,0.2,0.1,0.3,0.3,0.2c0.6-0.5,0.8-0.9,1.9-1.9
			C471.4,178.6,471.3,178.2,471.1,178.4z"/>
		<path class="st9" d="M474.5,180.1c-1,1.2-1.3,1.6-1.5,2c-0.1,0.1,0.1,0.3,0.2,0.2c0.3-0.3,0.5-0.5,1.6-1.8
			C475,180.1,474.6,179.9,474.5,180.1z"/>
		<path class="st9" d="M477.3,183.4c-0.6,0.7-1.3,1.4-1.8,2.2c-0.1,0.1,0.1,0.3,0.2,0.2c0.7-0.6,1.2-1.4,1.8-2.1
			C477.7,183.4,477.4,183.2,477.3,183.4z"/>
		<path class="st9" d="M468.3,183.8c-1.3,1.6-1.4,1.7-1.5,2c0,0.1,0.1,0.2,0.2,0.2c0.1-0.1,0.1,0,1.6-1.9
			C468.8,183.9,468.5,183.7,468.3,183.8z"/>
		<path class="st9" d="M471.7,186.3c-0.3,0.3-0.6,0.7-0.8,1c-0.6,0.7-0.7,0.9-0.8,1.1c0,0.1,0.1,0.2,0.2,0.2
			c0.3-0.2,1.2-1.4,1.7-2.1C472,186.3,471.8,186.1,471.7,186.3z"/>
		<path class="st9" d="M472,190.4c-1.3,1.3-1.6,1.5-1.9,1.9c-0.1,0.1,0.1,0.3,0.2,0.2c0.4-0.3,0.6-0.5,1.9-1.9
			C472.4,190.4,472.1,190.2,472,190.4z"/>
		<path class="st9" d="M467.2,190.3c-0.3,0.2-1.6,1.4-1.8,1.7c-0.1,0.1,0.1,0.3,0.2,0.2c0.4-0.2,1.5-1.4,1.8-1.7
			C467.5,190.4,467.3,190.2,467.2,190.3z"/>
		<path class="st9" d="M462.2,192.1c-0.4,0.3-1.2,1.2-1.6,1.9c-0.1,0.1,0.1,0.2,0.2,0.2c0.6-0.5,1.4-1.5,1.6-1.9
			C462.6,192.1,462.3,192,462.2,192.1z"/>
		<path class="st9" d="M462.9,186.8c-0.6,1.2-1.4,2-1.9,2.5c-0.1,0.1,0,0.3,0.2,0.2c0.5-0.3,0.8-0.7,1.2-1.2
			c0.3-0.4,0.6-0.9,0.8-1.4C463.3,186.8,463,186.6,462.9,186.8z"/>
	</g>
</g>
<g>
	<path class="st4" d="M337.3,183c0.3,0.5,0.7,1,1,1.6c1.3-1,2.9-2.3,2.7-2.7C340.9,181.5,338.8,182.4,337.3,183z"/>
	<path class="st5" d="M336.1,181.2c-2.1-0.9-4.1-0.2-6.6,0.7c-1.9,0.7-4.7,2-7.7,4.5c-0.9,0.3-1.7,0.7-2.6,1c-0.1-0.4-0.2-1-0.3-1.8
		c-0.3-2.8,0.4-4.5,1-8.5c0.3-2,0.5-3.1,0.4-3.4c-1-4.6-13.4-5.7-16.5-6c-26.2-2.1-52,6-51.8,7.4c0.1,0.3,1.2,0.5,1.8,0.6
		c1.3,0.2,2.5,0.1,3.3-0.1c-1.4,0.8-2.1,1.3-2,1.6c0.1,0.4,1.7,0.2,4.7-0.4c-1.3,1.2-1.8,2-1.6,2.3c0.2,0.4,1.8-0.2,4.8-1.7
		c-1.4,1.3-2,2.2-1.8,2.5c0.3,0.4,1.9-0.1,5-1.4c-1.2,1.3-1.8,2.1-1.5,2.5c0.3,0.5,2,0.1,4.9-1.2c-1.5,1.3-2.1,2.1-1.9,2.4
		c0.2,0.4,2-0.2,5.2-1.6c-1.1,1.6-1.6,2.5-1.3,2.8c0.3,0.4,1.7-0.3,4.1-1.8c-0.8,1.3-1,2.1-0.7,2.4c0.5,0.5,2.4-0.4,5.7-2.7
		c-1.8,1.5-2.6,2.4-2.4,2.7c0.2,0.4,1.9,0,5.1-1.2c-1.5,1.3-2.1,2.1-1.9,2.4c0.3,0.4,2.1-0.1,5.5-1.5c-1.8,1.5-2.6,2.5-2.4,2.8
		c0.3,0.4,2.2-0.2,5.7-1.8c-2.2,1.2-2.2,1.6-2.2,1.7c0.2,0.5,2.4,0.3,3,0.2c1.2-0.1,2.2-0.4,2.8-0.6c-0.9,1.1-1.1,2.3-0.8,2.6
		c0.4,0.4,1.6,0.1,2.7-1c-3.6,4.1-3.3,4.6-3.3,4.6c0.2,0.3,0.8,0.4,3-0.3c-2.2,1.4-3.3,2.3-3.1,2.7c0.1,0.4,1,0.4,2.7,0.2
		c-0.8,0.7-3.6,3.3-3.1,4.2c0.1,0.2,0.6,0.7,3.5-0.2c-1.4,1-3.1,2.2-4.7,3.8c-1.5,1.5-2.8,2.9-3.8,4.2c-39,13.9-53.1,19.2-52.9,19.7
		c0.2,0.5,15-4.9,27.2-7.9c-0.5,0.4-0.8,0.9-0.7,1.2c0.1,0.4,0.7,0.9,4.2,0.7c-1.3,0.4-2,1.3-1.9,1.7c0.1,0.4,1.1,0.8,2.4,0.5
		c-1.4,1-3,2.2-2.7,2.9c0.3,0.8,3.8,0,5.2-0.3c-2.6,1.9-4.3,3.8-3.9,4.6c0.2,0.5,1.3,0.6,2.8,0.4c-9.4,7.8-21.8,16.3-21.4,16.8
		c0.4,0.5,12.1-6.8,42.8-27.2c2.1,0.1,4.6,0,7.4-0.6c1.1-0.2,2.1-0.5,3-0.8c-1,0.8-1.5,1.9-1.2,2.4c0.3,0.6,1.7,0.8,3.2-0.1
		c-1.1,0.8-1.7,1.8-1.5,2.3c0.3,0.5,1.6,0.6,3.4-0.1c-1.3,1.1-1.4,1.6-1.3,1.8c0.3,0.7,2.4,0.4,3.9,0.2c-0.3,0.2-2,1.2-1.8,1.9
		c0.2,0.7,1.8,1,4.1,0.8c-1.7,0.8-2.5,1.4-2.4,1.8c0.1,0.4,1.4,0.5,4,0.3c-3.3,2.7-4.9,4.2-4.6,4.7c0.2,0.3,1,0.2,2.4-0.3
		c-2.9,2.6-4.3,4.1-4,4.4c0.1,0.2,0.9,0,2.2-0.7c-3,1.8-4.3,3.1-4.1,3.7c0.1,0.4,0.8,0.5,2,0.5c-3.8,3-5.6,4.8-5.2,5.4
		c0.2,0.3,1.1,0.3,2.6-0.1c-3.1,2.9-4.5,4.7-4.1,5.3c0.2,0.3,1,0.3,2.2,0c-3,3-4.3,4.8-3.9,5.4c0.2,0.3,0.9,0.3,2.2-0.1
		c-2.7,3.3-3.9,5.3-3.4,5.7c0.2,0.2,0.8,0.1,1.8-0.3c-1.1,1.4-2.2,3.1-1.7,3.6c0.6,0.6,3.5-1.2,4.6-1.9
		c10.3-6.4,44.9-42.9,37.9-50.9c-0.7-0.9-1.4-0.7-5-3.2c-3.4-2.3-5.9-4.5-7.4-5.9c0.5-0.6,1.1-1.2,1.7-1.8c1.6-2,3-3.9,4-5.7
		c2.4-1.4,6.9-4.5,9.3-8.8c1-1.9,1.2-3.1,0.9-4.2C338.3,182.2,336.4,181.3,336.1,181.2z"/>
	<path class="st0" d="M321.1,199.7c1.2-1.2,1.6-1.8,2.3-1.8c0.5,0,1.2,0.2,1.6,0.7c0.4,0.4,0.4,0.7,0.6,1.2c0.2,0.5,0.5,0.8,0.7,1.1
		c-0.5,0.7-1,1.4-1.6,2.1c-0.5,0.7-1.1,1.3-1.7,1.8c-1.3-1.1-2.6-2.3-3.9-3.4C320,200.7,320.6,200.1,321.1,199.7z"/>
	<path class="st0" d="M298.4,218.2c-0.9,0.3-1.9,0.6-3,0.8c-2.8,0.6-5.4,0.7-7.4,0.6c0.7-0.8,1.5-1.7,2.7-2.6c2.8-2.1,5.7-2.8,7.3-3
		c-1.9,1.7-2.7,3.3-2.2,4C296.2,218.8,298.1,218.3,298.4,218.2z"/>
	<path class="st6" d="M337.9,182.5c-0.2,0-0.5,0-0.9,0.1c-2.1,0.4-2.6,1.6-4.1,1.6c-0.7,0-1.8-0.2-2.1-0.9c-0.2-0.6,0.3-1.7,1.5-2.3
		c1.3-0.3,2.5-0.3,3.8,0.2C336.3,181.3,337.1,181.7,337.9,182.5z"/>
	<g>
		<path class="st0" d="M334,185.6c0.4,0.5,0.4,1.3-0.1,1.7c-0.5,0.4-1.3,0.4-1.7-0.1c-0.4-0.5-0.4-1.3,0.1-1.7
			C332.8,185,333.5,185.1,334,185.6z"/>
		<path class="st4" d="M332.6,186.7c0.2,0.3,0.6,0.3,0.9,0.1c0.3-0.2,0.3-0.6,0.1-0.9c-0.2-0.3-0.6-0.3-0.9-0.1
			C332.4,186.1,332.3,186.5,332.6,186.7z"/>
		<path class="st7" d="M332.9,186c0.1,0.1,0.3,0.1,0.4,0c0.1-0.1,0.1-0.3,0-0.4c-0.1-0.1-0.3-0.1-0.4,0
			C332.8,185.7,332.8,185.9,332.9,186z"/>
	</g>
	<path class="st8" d="M296.8,185.3c1.4,1.8,2,2.6,2.3,3.2c1.5,3.6-2.4,8.4-3.7,9.9c-2.9,0.8-3.4,0.4-3.5,0.2
		c-0.5-0.9,2.3-3.5,3.1-4.2c-1.7,0.2-2.6,0.1-2.7-0.2c-0.2-0.5,0.9-1.4,3.1-2.7c-2.2,0.7-2.9,0.6-3,0.3c0,0-0.3-0.4,3.3-4.6
		c-1.1,1.1-2.3,1.3-2.7,1c-0.4-0.4-0.2-1.5,0.8-2.6c-0.6,0.2-1.6,0.5-2.8,0.6c-0.6,0.1-2.9,0.3-3-0.2c0-0.1-0.1-0.6,2.2-1.7
		c-3.6,1.6-5.5,2.3-5.7,1.8c-0.2-0.3,0.6-1.2,2.4-2.8c-3.4,1.4-5.2,1.9-5.5,1.5c-0.2-0.3,0.5-1.1,1.9-2.4c-3.1,1.2-4.8,1.6-5.1,1.2
		c-0.2-0.3,0.6-1.3,2.4-2.7c-3.3,2.3-5.2,3.2-5.7,2.7c-0.3-0.3,0-1.1,0.7-2.4c-2.4,1.6-3.8,2.2-4.1,1.8c-0.3-0.3,0.2-1.2,1.3-2.8
		c-3.2,1.5-5,2-5.2,1.6c-0.2-0.3,0.5-1.1,1.9-2.4c-3,1.3-4.6,1.7-4.9,1.2c-0.2-0.4,0.3-1.2,1.5-2.5c-3,1.4-4.7,1.8-5,1.4
		c-0.2-0.3,0.4-1.1,1.8-2.5c-3,1.5-4.6,2.1-4.8,1.7c-0.2-0.3,0.4-1,1.6-2.3c-3,0.7-4.6,0.8-4.7,0.4c-0.1-0.3,0.6-0.8,2-1.6
		c-0.8,0.2-2,0.4-3.3,0.1c-0.7-0.1-1.7-0.3-1.8-0.6c-0.1-0.3,1.2-1,3.4-1.7c0.9,0.4,1.9,1,3.5,1.4c2.8,0.7,3-0.3,6.4,0.3
		c3.5,0.6,3.7,1.6,7,2.2c3.2,0.5,3.2-0.4,6.9-0.1c1.5,0.1,1.2,0.3,8.6,2.2c3.6,1,4.3,1.1,5.4,1.9C294.3,182,295.1,183.1,296.8,185.3
		z"/>
	<path class="st8" d="M312.4,225.7c0.6,1.6-1.3,2.7-1.5,6c-0.1,1.4,0.2,1.8,0.2,2.8c0.2,3.9-3.7,5.1-6.5,10.3
		c-2.6,4.8-0.8,6.8-3.6,10.9c-0.5,0.7-1.8,2.5-2.9,5.2c-0.6,1.4-0.6,1.6-1,2.7c-0.3,0.7-0.7,1.5-1.2,2.3c-1.2,0.7-2.5,1.2-2.8,0.8
		c-0.4-0.5,0.7-2.1,1.7-3.6c-1,0.5-1.6,0.6-1.8,0.3c-0.4-0.5,0.7-2.4,3.4-5.7c-1.2,0.4-1.9,0.4-2.2,0.1c-0.4-0.6,0.9-2.4,3.9-5.4
		c-1.3,0.3-2,0.3-2.2,0c-0.4-0.6,1-2.4,4.1-5.3c-1.5,0.4-2.4,0.4-2.6,0.1c-0.4-0.6,1.4-2.4,5.2-5.4c-1.2,0-1.9-0.1-2-0.5
		c-0.2-0.6,1.1-1.9,4.1-3.7c-1.3,0.7-2.1,0.9-2.2,0.7c-0.2-0.3,1.1-1.8,4-4.4c-1.5,0.5-2.3,0.6-2.4,0.3c-0.3-0.5,1.2-2,4.6-4.7
		c-2.5,0.2-3.9,0.1-4-0.3c-0.1-0.4,0.7-0.9,2.4-1.8c-2.3,0.2-3.9-0.1-4.1-0.8c-0.2-0.7,1.5-1.7,1.8-1.9c-1.5,0.3-3.6,0.5-3.9-0.2
		c-0.1-0.2,0-0.7,1.3-1.8c-1.7,0.7-3.1,0.6-3.4,0.1c-0.2-0.5,0.4-1.4,1.5-2.3c-1.4,0.9-2.9,0.7-3.2,0.1c-0.3-0.5,0.1-1.6,1.2-2.4
		c0,0,0,0-0.1,0c-0.5,0.1-2.1,0.5-2.6-0.2c-0.5-0.7,0.3-2.3,2.2-4c2.3,2.6,4.4,3.9,5.9,4.6c0.7,0.3,1.8,0.7,3,1.8
		c1.1,0.9,1.1,1.4,2.3,2.5C311.1,225.1,312,224.6,312.4,225.7z"/>
	<path class="st3" d="M282.1,212.8c-0.3,0.7-0.5,1.5-0.1,2.2c0.7,1.1,4.1,1.6,5.2,1.3c0.1,0,0.1-0.2,0-0.2c-1.1,0-2.1-0.2-3.1-0.4
		c-1.2-0.3-2.2-0.7-1.9-1.9c0.2-1,1.5-3.1,2.3-4.2c0.3-0.5,0.8-0.9,1.1-1.4C286.2,207.2,283.7,209,282.1,212.8z"/>
	<path class="st3" d="M317.9,187.8c-2.5,0.2-13.3,3.9-20.9,9.5c-0.1,0.1,0,0.2,0.1,0.2c12-7.8,19-8.6,20.9-9.4
		C318.1,188,318,187.8,317.9,187.8z"/>
</g>
<g>
	<g>
		<path class="st3" d="M344.7,267.4c-2.4,0.9-3.6,1.7-3.5,2.2c0.1,0.9,3,1.3,8.6,1.4c-3.4,0.7-5.1,1.3-5,1.7
			c0.1,1.4,16.7,1.8,49.8,1.1c7.2,5.7,14.5,11.3,21.7,17c1.7-0.5,3.4-1,5.1-1.5c-6.1-8.7-10.8-15.1-12.7-17.7
			c-0.7-0.9-2-2.6-4.2-3.9c0,0-1.8-1-3.9-1.4c-6.6-1.3-63.2-4.7-63.2-1.1C337.2,265.8,338.7,266.5,344.7,267.4z"/>
		<path class="st8" d="M355.5,273.3c-0.1,0.3-0.3,0.5-0.3,0.5c-0.1,0.1-0.1,0.2-0.2,0.2c-6.8-0.2-10.2-0.6-10.2-1.3
			c0-0.5,1.7-1,5-1.7c-5.6-0.1-8.5-0.5-8.6-1.4c-0.1-0.6,1.1-1.3,3.5-2.2c-6-0.9-7.5-1.6-7.5-2.2c0-1.1,5-1.5,12.1-1.6
			c-0.1,0.7-0.1,1.8,0.4,2.7c1.4,2.4,5.3,1.6,6,3.7C356.2,271.2,355.5,273.2,355.5,273.3z"/>
	</g>
	<path class="st4" d="M437.2,285.2c0.3,0.7,0.5,1.4,0.8,2.1c1.8-0.8,4.1-2,3.9-2.5C441.8,284.4,439.1,284.8,437.2,285.2z"/>
	<path class="st5" d="M421,287.3c2.8-2.2,5.5-3.2,7.2-3.6c2.5-0.6,5.4-1.4,8,0.2c1.4,0.8,2.8,2.4,3.1,4c0.6,3.8-5,8.8-14.2,12.1
		c-14.4,6.7-28.8,13.4-43.3,20.1c-0.5,0.2-1.5,0.5-2.7,0.9c-3.9,1.3-5.4,1.6-7.8,2.7c0,0-1.3,0.6-3,1.6c-11.1,6.8-33.4,27.1-33.6,27
		c-0.1-0.1,8.1-11.4,23.3-23.1c5.7-4.4,10.3-7.2,9.9-8.1c-0.7-1.3-11.8,2.9-18.1,5.7c-5.5,2.5-10.1,4.9-13.6,6.9
		c-4.7,2.7-8,5.1-8.1,4.9c-0.2-0.2,3.5-3.4,7.5-6.3c12.6-9.3,25.4-14.2,33-17.1c2.3-0.9,4.2-1.5,5.3-1.9c4.3-5.5,8.6-9.2,11.7-11.5
		c10.4-7.8,21.4-10.9,29.2-13.1C417.5,288.2,419.6,287.7,421,287.3z"/>
	<path class="st6" d="M439.3,287.9c0.6,3.8-5,8.8-14.2,12.1c2.8-2.6,4.3-4.6,5.1-6.1c0.6-1.1,0.8-2.3,0.5-3.5
		c-0.4-1.5-1.5-1.8-1.6-3.4c0-0.3-0.1-1.6,0.7-2.7c0.8-0.9,1.8-1.2,2.1-1.3c1.4-0.1,2.9,0.1,4.2,0.9
		C437.6,284.8,439,286.3,439.3,287.9z"/>
	<g>
		<path class="st0" d="M435.3,286.7c0.3,0.7-0.1,1.5-0.7,1.7c-0.7,0.3-1.5-0.1-1.7-0.7c-0.3-0.7,0.1-1.5,0.7-1.7
			C434.2,285.7,435,286,435.3,286.7z"/>
		<path class="st4" d="M433.4,287.5c0.1,0.4,0.5,0.5,0.9,0.4c0.4-0.1,0.5-0.5,0.4-0.9c-0.1-0.4-0.5-0.5-0.9-0.4
			C433.4,286.7,433.3,287.1,433.4,287.5z"/>
		<path class="st7" d="M434,286.8c0.1,0.2,0.2,0.2,0.4,0.2c0.2-0.1,0.2-0.2,0.2-0.4c-0.1-0.2-0.2-0.2-0.4-0.2
			C434,286.5,433.9,286.7,434,286.8z"/>
	</g>
	<path class="st0" d="M425.1,294.8c-1-1.5-2.7-1.4-4.8-3.3c-1.3-1.2-2-2.5-2.5-3.5c-1.9-2.2-4.9-5.5-8.8-8.7c-3.6-3-6.2-4.4-7.5-5
		c-0.6-0.3-1-0.5-1.3-0.6c0,0-2.4-1.1-5.2-1.9c-11.1-3.2-61.7-1.9-61.5,2c0,0.6,1.5,1.4,7.2,2.1c-2.6,1.4-3.8,2.5-3.6,3.2
		c0.2,0.9,2.9,1.2,8,0.9c-2.5,0.9-3.6,1.7-3.5,2.2c0.1,0.8,3.4,1,9.9,0.6c-2.3,1-3.4,1.6-3.3,2.1c0.1,0.6,3.1,0.6,8.8,0
		c-1.6,1.6-2.2,2.7-1.9,3.3c0.5,0.9,3.3,0.6,8.6-0.9c-1,1.4-1.4,2.3-1.1,2.8c0.5,0.7,2.8,0.2,7-1.6c-0.7,1.1-0.9,2-0.6,2.5
		c0.6,1,3.2,0.7,7.7-0.9c-0.9,1.2-1.2,2-0.9,2.6c0.5,1.1,3.2,1,8-0.1c-1.9,1.4-2.7,2.4-2.5,2.9c0.3,0.6,2.2,0.5,5.9-0.3
		c-0.8,0.6-2.7,2-2.4,2.9c0.5,1.4,5.7,0.6,5.9,0.6c1-0.7,2.5-1.6,4.4-2.5c-2.4,1.5-3.3,3.1-3.7,4.3c-0.7,2-0.1,3.8-1.5,6.5
		c-0.4,0.8-0.8,1.3-1,1.6c-2.4,3.1-4.6,2.8-6.9,6.7c-1.1,1.9-1.1,2.9-1,3.6c0.1,0.5,0.4,1,0.7,1.4c4.7-0.8,10-2.1,15.8-4.2
		c12.3-4.5,21.4-10.8,27.5-15.9C426.1,297.3,425.7,295.7,425.1,294.8z"/>
	<path class="st9" d="M372,273.5c0.1-0.7,9-1.1,17.9,0.4c6.9,1.1,9.9,2.6,10.8,3.1c3.6,1.9,6.9,4.7,7.2,5c2,1.7,2.3,2.4,4.5,4
		c2.4,1.7,3.5,2.1,3.4,2.8c-0.1,1-2.4,1-7.5,2.9c-3.2,1.2-4.1,1.8-5,1.3c-1.6-0.9-0.1-3.6-2-5.8c-1.8-2.1-4.1-0.7-7.2-3.2
		c-1.4-1.2-1-1.5-2.9-3.4c-0.8-0.7-2.8-2.7-5.7-3.9c-2.4-1-2.9-0.5-7.7-1.4C375.2,274.6,371.9,273.9,372,273.5z"/>
	<g>
		<path class="st9" d="M420.4,300.2c-0.5,0.4-1.6,1.3-2,1.8c-0.1,0.2,0.1,0.3,0.2,0.2c0.5-0.3,1.5-1.3,2-1.7
			C420.8,300.4,420.6,300.1,420.4,300.2z"/>
		<path class="st9" d="M415.2,303.3c-0.8,0.6-1.5,1.2-2,2c-0.1,0.1,0.1,0.3,0.2,0.2c0.7-0.6,1.3-1.3,2.1-1.9
			C415.7,303.5,415.4,303.2,415.2,303.3z"/>
		<path class="st9" d="M412.6,307.5c-0.1,0.1,0,0.3,0.2,0.3c0.2-0.1,0.8-0.4,1-0.5c0.9-0.5,1.2-0.6,1-0.9
			C414.6,306.1,412.8,307.3,412.6,307.5z"/>
		<path class="st9" d="M406.1,308.1c-1.3,0.9-1.2,1.2-1,1.1c0.7-0.4,1.1-0.9,2.4-1.5C407.6,307.7,408.1,306.8,406.1,308.1z"/>
		<path class="st9" d="M398.8,312.1c-0.6,0.2-1,0.6-2.5,1.5c-0.2,0.1,0,0.4,0.2,0.3c1.4-0.9,1.9-1.2,2.4-1.6
			C399,312.2,398.9,312,398.8,312.1z"/>
		<path class="st9" d="M400.8,308.7c-0.6,0.3-1.1,0.6-1.5,1c-0.2,0.2,0.1,0.5,0.3,0.3c0.9-0.9,1.7-0.9,1.9-1.2
			C401.5,308.7,401.4,308.4,400.8,308.7z"/>
		<path class="st9" d="M402.7,312.1c-0.2,0.1-0.1,0.4,0.1,0.3c1.5-0.7,1.9-0.9,2-1.1C405.1,310.7,403.2,311.9,402.7,312.1z"/>
	</g>
	<path class="st1" d="M399.8,293.8c-3,1.6-6,3.1-9,4.7c-0.3,0-5.5,0.8-5.9-0.6c-0.3-0.9,1.6-2.3,2.4-2.9c-3.7,0.8-5.6,0.9-5.9,0.3
		c-0.2-0.5,0.6-1.5,2.5-2.9c-4.8,1.1-7.5,1.2-8,0.1c-0.3-0.5,0-1.4,0.9-2.6c-4.5,1.5-7.1,1.8-7.7,0.9c-0.3-0.5-0.1-1.3,0.6-2.5
		c-4.1,1.8-6.5,2.4-7,1.6c-0.3-0.5,0-1.4,1.1-2.8c-5.2,1.6-8.1,1.9-8.6,0.9c-0.3-0.6,0.3-1.7,1.9-3.3c-5.7,0.6-8.7,0.6-8.8,0
		c-0.1-0.4,1-1.1,3.3-2.1c-6.5,0.4-9.8,0.2-9.9-0.6c-0.1-0.5,1.1-1.2,3.5-2.2c-5.1,0.3-7.8,0-8-0.9c-0.2-0.7,1-1.8,3.6-3.2
		c-5.7-0.7-7.1-1.5-7.2-2.1c-0.1-1.6,8.4-2.7,19.1-3.3c-0.9,2.2-0.6,3.4-0.2,4.1c1.4,2.5,5.9,0.9,9.5,4.2c1.3,1.2,1.2,1.8,2.4,2.4
		c2.2,1.1,4.6,0.1,7.2-0.6c3.2-0.9,7.7-2.1,11.3-0.8c5.1,1.8,4.5,6.9,9.9,8.2c2.5,0.6,4.5,0,5.9,1.5
		C399.9,290.7,400,292.4,399.8,293.8z"/>
	<path class="st2" d="M398.1,294.7c-0.7,0.4-1.4,0.7-2.1,1.1c-0.7-1-1.5-1.8-2.7-2.4c-2.3-1.1-3.9,0-6.4-0.9c-3.5-1.2-3.1-4.1-6-6.4
		c-6.2-4.7-15.4,3-21.7-2c-1.3-1.1-2.2-2.4-4.6-3.6c-2.7-1.3-4.6-1.2-6.4-1.7c-2.2-0.6-5.1-2.3-7.9-7.2c2-0.3,4.3-0.5,6.8-0.7
		c0.4,1.9,1.3,3.1,2,3.9c2.3,2.4,4.9,1.4,8.8,3.9c3.2,2,2.3,3.1,4.8,4.3c2.7,1.3,4.2,0.2,12.1-0.2c6.1-0.3,7.5,0.3,8.3,1.2
		c1.6,1.6,0.8,3.3,2.5,4.7c1.9,1.6,4.2,0.5,6.9,1.2C394.1,290.3,396.2,291.4,398.1,294.7z"/>
</g>
<g>
	<path class="st5" d="M220.9,359.3c-4.6,0.4-6.4-0.3-2.3-2.7c-5-0.3-4.6-2,0-2.9c-4.9-1.1-6.2-2.8-1-3.3c-5.5-0.2-13.7,1.1-25.8,2.4
		c-5.4,0.6-9.7,0.9-12,1.1c0-0.2,10.7-2.1,57.6-9.5c1.6,4.1,3.1,8.1,4.7,12.2c-8,3.3-36.5,15.1-52.2,19.6c0,0-2.6,0.5-3.9,0.8
		c16.3-7.8,27.9-13.1,34-15.2C216.3,361.7,217.6,360.6,220.9,359.3z"/>
	<path class="st1" d="M235.9,341.9c0.3-1,2-1.8,3.7-1c-2.4-1.3-3.6-3-3.3-3.8c0.4-0.9,2.8-0.8,3-0.8c-2.1-1.2-3.1-2.9-2.7-3.7
		c0.4-0.7,1.8-0.8,2.2-0.8c-1.7-0.2-2.6-1.6-2.4-2.4c0.2-0.7,1.3-1.3,2.7-1.1c-2.4-0.7-3.6-2.1-3.4-2.9c0.2-1,2.3-1.2,2.4-1.3
		c-2-1.3-3.2-2.6-2.9-3.3c0.3-0.7,1.9-0.6,2.5-0.5c-2.8-1.5-4.1-2.5-3.9-3.2c0.1-0.4,0.8-0.7,2.2-0.8c-3.7-1-5.5-1.8-5.5-2.6
		c0-0.5,0.8-1,2.5-1.4c-3.4-1.2-5-2.1-4.9-2.8c0.1-0.4,0.7-0.7,1.9-0.9c-3.4-1.1-5-2-4.9-2.6c0.1-0.4,0.8-0.6,2.2-0.8
		c-3.2-1.5-4.7-2.6-4.6-3.3c0.1-0.4,0.9-0.7,2.3-0.8c-2.5-0.8-4-2-3.8-2.9c0-0.2,0.2-0.7,1.4-1.1c-3.1-1.9-4.5-3.1-4.3-3.7
		c0.1-0.3,0.9-0.4,2.2-0.2c-2.9-2.3-4.2-3.8-3.8-4.6c0.1-0.3,0.6-0.5,1.3-0.5c-2.5-2.4-3.6-3.9-3.2-4.6c0.2-0.3,0.6-0.4,1.4-0.4
		c-1.8-2.1-3.5-4.3-3-4.8c0.5-0.5,3.2,1.2,4.1,1.8c13.1,8.3,51.8,29.5,50.2,39.8c-0.4,2.3-0.8,3.7-0.8,3.7c-1.3,4.2-3.4,5.7-2.9,8
		c0.1,0.7,0.6,1.6,1.8,2.6c7.6-2.1,13.9-1.6,15.6,1.4c0.4,0.8,0.5,1.5,0.5,1.9c0.3,5.7-9.4,10.1-9.8,10.2c1.7,1.1,2.8,2.3,3.5,3.2
		c0.8,0.9,1.6,1.9,2,3.5c0,0,0.4,1.4,0.3,3c-0.4,4.6-10.7,63.4-14,62.5c-0.5-0.1-0.8-1.5-0.4-6.6c-1.3,0.6-1.8,0.3-1.9,0.2
		c-0.7-0.5-0.5-2.3,0.6-4.4c-1.1,0.7-1.6,0.5-1.8,0.4c-0.8-0.4-0.9-2.4,0-4.8c-0.9,0.2-1.4-0.1-1.5-0.3c-0.8-0.7-0.7-2.7,0.6-4.8
		c-1.4,0.3-1.9-0.2-2-0.3c-0.9-0.8-0.7-3,1-5.2c-1.2,1-2,1.4-2.4,1.1c-0.6-0.4-0.3-2.3,0.9-5.7c-0.7,0.4-1.2,0.6-1.5,0.4
		c-0.6-0.4-0.3-2.3,0.9-5.6c-1,0.7-1.7,0.9-2,0.6c-0.7-0.5-0.1-2.6,1.5-6.3c-0.8,0.5-1.3,0.6-1.7,0.4c-0.7-0.5-0.4-2.6,0.9-6.3
		c-0.8,0.8-1.4,1.2-1.8,1c-0.7-0.3-0.6-2.2,0.1-5.8c-0.2,0.2-1.4,1.7-2.3,1.4c-0.9-0.3-1.4-2.2-0.9-4.8c-0.3,0.3-1.2,1.3-1.9,1
		c-0.8-0.3-1-2-0.5-4.4c-0.5,0.9-1.4,1.4-2.2,1.3c-1-0.2-1.8-1.7-1.2-3.3c0,0-1,1-1.7,0.7c-0.7-0.2-1.3-1.6-0.6-3.2
		c-1.6-4.1-3.1-8.1-4.7-12.2C236.3,343.8,235.7,342.7,235.9,341.9z"/>
	<path class="st2" d="M243.7,355.3c0,1.8,0.5,2.8,1,3.4c1.5,2,4.1,1.6,6.1,4.1c0.2,0.3,0.5,0.6,0.7,1.1c0.6,1.4,0.2,2.5,1.4,4.5
		c0.1,0.1,0.1,0.2,0.2,0.4c1.6,2.3,2.9,2.2,4.3,3.7c3.2,3.5-0.6,8,0.7,15.6c0.8,5.1,2.8,5.2,5.9,13.4c1.5,4,2.4,7.6,2.9,10.3
		c0.8-3.1,1.7-6.8,2.6-10.9c-0.6-2.1-1.6-4.3-2.9-6.4c-2-3.2-2.9-3-3.7-5.4c-1.5-4.3,0.5-7.8-0.1-15.4c-0.1-1.1-0.2-2.6-1.3-3.8
		c-1.2-1.3-2.3-0.9-4-1.9c-2.5-1.5-1.6-3.2-4.1-5.6c-2.5-2.3-4.6-1.7-6.6-4.4c-0.7-1-1.1-1.9-1.3-2.5
		C244.9,355.4,244.3,355.3,243.7,355.3z"/>
	<path class="st2" d="M229.2,293.3c0.4,4.7,3.2,6.2,7.7,15.4c1.2,2.5,2,4.4,2.1,6.9c0.1,2.7-0.6,3.1-0.5,5.5
		c0.3,4.5,3.1,4.8,3.3,8.6c0.2,3.4-2,4.2-2.1,8.6c-0.1,2.4,0.5,4.3,0.9,5.5l1.5-0.5c-0.8-1.6-0.9-2.8-0.9-3.7
		c0.1-3.7,3.3-5.4,2.9-9.5c0-0.1-0.1-0.6-0.3-1.7c-1.1-5.7-1.3-5.4-1.3-6.7c-0.1-3,1.1-3.3,0.9-6.6c-0.1-1.2-0.3-2.2-0.7-3.3
		c-2.3-7.5-6.8-10.9-7.3-17.3c-0.1-1.2-0.1-2.3-0.1-3.2c-1.9-1.2-3.7-2.3-5.4-3.3C229.1,290.3,229.1,292.1,229.2,293.3z"/>
	<path class="st0" d="M229.4,353.8c0.4,1.5,3,1.9,5.8,2.4c2.9,0.5,5.3,0.5,6.9,0.4c1.1-0.3,3-0.5,5.2-0.1c1,0.2,4.4,0.8,6.7,3.4
		c2.3,2.6,1.5,4.6,3.5,5.7c2,1.1,3.4-0.5,5.3,0.3c2.8,1.1,3.4,6,3.9,11.4c0.9,8.8-0.5,12.1,2.1,15.2c0.5,0.6,1.3,1.3,2.1,1.8
		c3.3-16.2,6.4-34.5,6.7-37c0.1-1.6-0.3-3-0.3-3c-0.4-1.5-1.3-2.5-2-3.5c-0.7-0.9-1.8-2.1-3.5-3.2c0.4-0.2,10.1-4.5,9.8-10.2
		c0-0.4-0.1-1.1-0.5-1.9c-1.7-3.1-8-3.5-15.6-1.4c-1.3-1-1.7-1.9-1.8-2.6c-0.5-2.3,1.5-3.8,2.9-8c0,0,0.4-1.3,0.8-3.7
		c0.9-6-11.6-15.5-24.9-24.1c-1.5,0.2-2,0.8-2.2,1.2c-0.9,1.8,2.2,4.2,5.3,10.7c0.2,0.4,1.1,2.4,1.7,5.1c0.6,3.1,0.2,4.4-0.2,5.1
		c-0.6,1-1.1,0.9-1.7,1.7c-2.3,2.8,2,7,0.3,12.2c-0.6,2-1.4,2-2.1,4.6c-0.6,2.2-0.5,4.2-0.4,5.6c-1.9,0.8-3.8,1.5-5.7,2.3
		c-1.4,1-3.3,2.6-5.3,4.8C230.1,351.4,229,352.7,229.4,353.8z"/>
	<path class="st4" d="M280.8,336.7c0,0.6,0.1,1.2,0.1,1.8c1.8-0.2,4.2-0.5,4.2-0.8C285.1,337.3,282.6,336.9,280.8,336.7z"/>
	<path class="st5" d="M266.9,342.3c-0.1,2.1-0.9,2.8-0.4,3.8c0.7,1.5,3.3,1.7,5.3,1.7c0.4-0.2,10.1-4.5,9.8-10.2
		c0-0.4-0.1-1.1-0.5-1.9c-1.6-2.9-7.2-3.4-14.2-1.8c-0.7,0.8-1.2,1.8-1.3,2.8C265.5,338.7,267,339.5,266.9,342.3z"/>
	<path class="st6" d="M270.9,347.8c0.1,0,0.2,0,0.4,0c0.2,0,0.3,0,0.5,0c0,0,0,0,0.1,0c0.9-0.4,10-4.7,9.7-10.2c0-0.4-0.1-1-0.4-1.7
		c-0.5,0.1-1.2,0.4-1.8,1c-0.9,0.8-1,1.6-1.3,2.3c-1.2,2.2-3.9,1.6-5.6,3.3C271.5,343.3,270.7,344.8,270.9,347.8z"/>
	<g>
		<path class="st0" d="M277.7,336.3c0,0.6-0.5,1.2-1.2,1.2c-0.6,0-1.2-0.5-1.2-1.2c0-0.6,0.5-1.2,1.2-1.2
			C277.2,335.1,277.7,335.6,277.7,336.3z"/>
		<path class="st4" d="M275.9,336.3c0,0.3,0.3,0.6,0.6,0.6c0.3,0,0.6-0.3,0.6-0.6s-0.3-0.6-0.6-0.6
			C276.2,335.7,275.9,335.9,275.9,336.3z"/>
		<path class="st7" d="M276.6,335.9c0,0.1,0.1,0.3,0.3,0.3c0.1,0,0.3-0.1,0.3-0.3c0-0.1-0.1-0.3-0.3-0.3
			C276.7,335.7,276.6,335.8,276.6,335.9z"/>
	</g>
	<path class="st9" d="M262.9,335.1c-0.3,1.3-3.6,0.9-8.2,2.3c-5.1,1.6-7.3,4.2-8.4,3.3c-1-0.8-0.2-3.3,0.2-4.6
		c1-3.2,2.7-4.9,3.6-6.2c3.9-5.3,2.2-12.9,1.6-16.1c-1.7-7.9-6.3-11.2-5.6-11.9c1.5-1.4,20.7,12,18.3,20.9c-0.9,3.3-4.9,6.5-3.5,9.6
		C261.6,333.8,263,334.2,262.9,335.1z"/>
	<path class="st9" d="M267.9,349.5c-0.6,0-1.1,0.2-1.4,0.4c-1.4,0.6-2.8,1.1-4.1,1.8c-3.8,2.1-10.9,2.1-10.9,3.2
		c0,0.7,2.9,0.5,5.7,2.9c1.8,1.6,1.6,2.6,3.4,4.4c2.4,2.5,4.3,2.1,6.2,3.6c5,3.8,2.3,13.9,3.5,14c1.1,0.2,3-8,4-14.4
		c0.2-1.2,1.3-8.9-1.1-12.3c-0.6-0.8-1.6-1.9-2.7-2.6C269.1,349.6,268.4,349.5,267.9,349.5z"/>
	<g>
		<path class="st9" d="M260.8,340.3c0.2,0,0.2,0.3,0,0.3c-1.5,0.3-2,0.8-2.5,1C257.6,341.9,258.4,340.5,260.8,340.3z"/>
		<path class="st9" d="M258.1,343.9c0.5-0.6,1.7-0.9,2.5-0.9c0.2,0,0.3,0.3,0,0.4c-0.4,0.1-0.8,0.2-1.2,0.3
			c-0.4,0.1-0.8,0.3-1.2,0.4C258.1,344.2,258,344,258.1,343.9z"/>
		<path class="st9" d="M253.6,343.3c0.4-0.2,1.8-0.6,1.8-0.2c0,0.3-0.2,0.1-1.2,0.4c-0.5,0.2-0.8,0.3-1,0.3
			C253.1,344,252.9,343.7,253.6,343.3z"/>
		<path class="st9" d="M256.3,347.9c0.3-0.3,0.8-0.3,1.2-0.4c0.4-0.1,0.8-0.1,1.3-0.2c0.2,0,0.2,0.3,0,0.3c-0.4,0.1-0.8,0.2-1.2,0.2
			c-0.6,0.1-0.9,0.3-1.2,0.2C256.3,348.2,256.2,348,256.3,347.9z"/>
		<path class="st9" d="M263.2,347.5c0.2-0.1,0.4,0.3,0.2,0.4c-0.4,0.2-0.7,0.3-1.1,0.5C260.8,349,259.6,348.9,263.2,347.5z"/>
		<path class="st9" d="M249.4,346.4c0.4-0.4,1.5-0.7,2.1-0.7c0.3,0,0.3,0.4,0.1,0.4c-0.3,0.1-0.7,0.1-1,0.2c-0.2,0-0.3,0.1-0.5,0.2
			c-0.2,0.1-0.3,0.1-0.5,0.2C249.4,346.7,249.3,346.6,249.4,346.4z"/>
		<path class="st9" d="M252.3,349.2c0.2,0,0.2,0.3,0,0.4c-0.7,0.2-1,0.3-1.5,0.5C249.3,350.7,250.2,349.4,252.3,349.2z"/>
		<path class="st9" d="M246,348.5c0.8,0,1-0.2,1,0c0.1,0.2-0.4,0.3-1,0.3c-0.2,0-0.8,0.1-0.9-0.1C245,348.6,245.7,348.5,246,348.5z"
			/>
		<path class="st9" d="M244.3,344.8c0.4-0.2,0.7-0.2,2.4-0.4c0.2,0,0.3,0.3,0.1,0.3c-0.6,0.1-2,0.4-2.4,0.4
			C244.3,345,244.2,344.8,244.3,344.8z"/>
		<path class="st9" d="M254.3,351.5c0.1,0,0.3,0,0.4-0.1c0.4-0.1,0.6-0.1,1.1-0.3c0.1,0,0.1,0,0.2,0c0,0.1,0,0.1,0,0.2
			c-0.2,0.2-0.4,0.3-0.8,0.4c-0.2,0.1-0.7,0.1-0.9,0C254.2,351.7,254.2,351.5,254.3,351.5z"/>
		<path class="st9" d="M244.9,352c0.2-0.1,0.3-0.1,1.7-0.2c0.2,0,0.2,0.3,0,0.3c-1.3,0.2-1.4,0.2-1.7,0.2
			C244.8,352.3,244.8,352.1,244.9,352z"/>
	</g>
</g>
<g>
	<g>
		<path class="st3" d="M181.8,240.3c1.1-4.5,2-7.9,2.8-10.3c0.2-0.6,0.6-2,0.6-3.8c0-1-0.1-2.1-0.5-3.4
			c-1.2-3.9-13.5-38.1-16.1-37.1c-0.5,0.2-0.7,1.5,0.3,6.4c-0.9-0.8-1.5-1.1-1.9-0.9c-0.7,0.4-0.3,3,1.3,7.8c-0.9-1-1.5-1.5-1.8-1.3
			c-0.5,0.3,0,2.6,1.5,6.9c-0.8-0.3-1.3-0.4-1.6-0.1c-0.8,0.6-0.3,2.7,1.4,6.4c-0.8-0.6-1.4-0.7-1.7-0.5c-0.5,0.4,0,2.1,1.5,5.2
			c-1.3-1-2.2-1.3-2.5-1c-0.6,0.5,0.2,2.6,2.3,6.4c-1.3-0.6-2.1-0.7-2.4-0.3c-0.5,0.6,0.2,2.3,2.2,5.3c-1.1-0.7-1.9-0.9-2.3-0.7
			c-0.7,0.5,0.1,2.9,2.2,7c-0.3,4.4-0.6,8.9-0.9,13.3C171.4,243.8,176.6,242.1,181.8,240.3z"/>
		<path class="st8" d="M167.1,232.2c-0.1,1.2-0.2,2.4-0.2,3.6c0.4,0.3,0.7,0.5,1,0.7c-0.4-3.4,0-6.1,0.4-7.8c0.6-2.5,1.2-2.9,2-6.6
			c0.5-2.1,0.6-3.1,1.2-5.3c0.9-3,1.2-2.5,1.3-3.7c0.5-3.6-2.3-4.9-1.8-8.7c0.2-1.6,0.7-1.5,0.9-3.4c0.2-2.5-0.6-3.9,0.3-4.8
			c0.3-0.3,0.9-0.7,2.2-0.6c-2.6-5.9-4.8-10.3-5.8-9.9c-0.5,0.2-0.7,1.5,0.3,6.4c-0.9-0.8-1.5-1.1-1.9-0.9c-0.7,0.4-0.3,3,1.3,7.8
			c-0.9-1-1.5-1.4-1.8-1.3c-0.5,0.3,0,2.6,1.5,6.9c-0.8-0.3-1.3-0.4-1.6-0.1c-0.8,0.6-0.3,2.7,1.4,6.4c-0.8-0.5-1.4-0.7-1.7-0.5
			c-0.5,0.4,0,2.1,1.5,5.2c-1.3-1-2.2-1.3-2.5-1c-0.6,0.5,0.2,2.6,2.3,6.4c-1.3-0.6-2.1-0.7-2.4-0.3c-0.5,0.6,0.2,2.3,2.2,5.3
			c-1.1-0.7-1.9-0.9-2.3-0.7C164.2,225.8,164.9,228.1,167.1,232.2z"/>
	</g>
	<path class="st5" d="M141.4,293.2c-0.8,0.6-1.5,0.9-1.9,0.7c-0.4-0.2-0.6-1-0.1-3.3c-1.3,1.8-2.1,2.6-2.4,2.5
		c-0.4-0.2-0.2-1.9,0.7-5c-0.7,1-2.2,2.8-2.8,2.5c-0.3-0.1-0.4-0.7-0.4-1.4c-7.1,8.6-17.4,24.1-17.4,24.1s4-10.9,19.4-36.6
		c6.2-10.4,11.7-18.9,15.4-24.5c1.3-1,21.4-16.2,33.3-14.1c1.7,0.3,6.3,1.1,8.8,4.7c0.5,0.7,2.1,3,1.3,5.2c-0.5,1.3-1.5,2-2.4,2.5
		c-2.2,1.4-3.5,0.9-7.1,2c-1.1,0.3-2.5,0.8-4.1,1.7c-2.2,1.2-3.1,2.4-5.2,4.3c0,0-2.6,2.4-5.6,4.3c-5.4,3.5-8.1,2.9-12.8,6.5
		c-1.5,1.2-2.7,2.3-3.3,3c-16.4,39.5-20.5,48-21,47.8c-0.4-0.2,1.3-6.2,2.8-10.7C136.7,309.4,139.6,300.8,141.4,293.2z"/>
	<path class="st4" d="M194.7,247.7c-0.2,0.5-0.4,1-0.7,1.5c1.5,0.6,3.6,1.4,3.8,1.1C197.9,250,196,248.6,194.7,247.7z"/>
	<path class="st0" d="M116.2,212.7c-1.2,0.2-1.8,0.5-1.9,0.9c-0.1,0.7,1.4,1.7,4.6,3.1c-1.6,0.1-2.5,0.4-2.6,0.8
		c-0.1,0.6,1.5,1.7,4.8,3c-1,0.3-1.5,0.7-1.5,1c0,0.7,1.8,1.5,5.5,2.5c-1.7,0.1-2.6,0.3-2.7,0.8c-0.2,0.8,1.8,2,6,3.8
		c-0.8,0.3-1.2,0.7-1.3,1.1c-0.1,0.9,1.9,1.9,5.8,3c-1.1,0.2-1.7,0.5-1.8,0.9c-0.1,0.7,1.8,1.7,5.6,2.9c-1.7,0.2-2.5,0.5-2.6,0.9
		c-0.1,0.6,1.8,1.4,5.7,2.3c-1.4,0.5-2.1,0.9-2.1,1.3c0,0.7,2,1.3,5.8,1.9c-1.9,0.8-2.1,1.4-2.1,1.8c0.1,1.1,3.2,1.7,5.2,1.9
		c-1.2,0.5-1.8,0.9-1.7,1.3c0.1,0.6,1.6,1,4.6,1.3c-1.4,0.4-2.1,0.8-2.1,1.2c0,0.6,1.5,1.1,4.5,1.6c-4.2,6.3-6.3,12-7.5,16.2
		c-1.7,5.8-2.9,13.2-1.4,13.8c0.5,0.2,1.6-1,3.8-3.2c2.3-2.4,2.8-3.3,4.5-4.6c1.6-1.1,2.9-1.7,3.7-2c0.7-0.7,1.8-1.9,3.3-3
		c4.7-3.6,7.4-3,12.8-6.5c2.9-1.9,5.6-4.3,5.6-4.3c2.1-1.9,3-3,5.2-4.3c0.2-0.1,0.5-0.3,0.7-0.4c0.1-0.1,0.9-1.4,0.3-2.8
		c-0.6-1.6-2.3-1.8-2.4-1.9c-1-0.5-3-1.6-4.7-3.7c-1.8-2.3-2.3-4.6-2.5-5.7c-5.9-8.2-11-13.5-12.4-14.4c-1.6-1.1-3.2-1.8-3.2-1.8
		c-0.3-0.2-0.6-0.3-0.8-0.4c-17.3-7.4-33.3-11.5-33.3-11.5c-11.5-2.9-12.3-2.5-12.4-2.3C110.8,209.8,113.6,211.4,116.2,212.7z"/>
	<path class="st6" d="M180.5,254.9c0.3-0.2,0.7-0.5,1.2-0.7c0.2-0.1,0.5-0.3,0.7-0.4c1.3-0.6,2.4-1,3.4-1.3c3.6-1.1,4.9-0.7,7.1-2
		c0.9-0.6,1.9-1.2,2.4-2.5c0.8-2.2-0.9-4.6-1.3-5.2c-0.3-0.4-0.5-0.7-0.8-1c-0.2,0.1-0.3,0.3-0.4,0.4c-0.8,1.1,0.1,2.2-0.7,3.3
		c-0.9,1.4-3.2,1.4-4.1,1.4c-2.2,0-2.5-0.8-4-0.6c-1.7,0.2-3.5,1.5-4.2,3.2C178.8,251.3,179.4,253.4,180.5,254.9z"/>
	<g>
		<path class="st0" d="M190,244.5c-0.1,0.7-0.8,1.1-1.4,1c-0.7-0.1-1.1-0.8-1-1.4c0.1-0.7,0.8-1.1,1.4-1
			C189.7,243.2,190.1,243.8,190,244.5z"/>
		<path class="st4" d="M188.2,244.1c-0.1,0.3,0.2,0.7,0.5,0.7c0.3,0.1,0.7-0.2,0.7-0.5c0.1-0.3-0.2-0.7-0.5-0.7
			C188.6,243.6,188.2,243.8,188.2,244.1z"/>
		<path class="st7" d="M188.9,243.9c0,0.1,0.1,0.3,0.2,0.3c0.1,0,0.3-0.1,0.3-0.2c0-0.2-0.1-0.3-0.2-0.3
			C189.1,243.7,189,243.8,188.9,243.9z"/>
	</g>
	<path class="st1" d="M116.2,212.7c-1.2,0.2-1.8,0.5-1.9,0.9c-0.1,0.7,1.4,1.7,4.6,3.1c-1.6,0.1-2.5,0.4-2.6,0.8
		c-0.1,0.6,1.5,1.7,4.8,3c-1,0.3-1.5,0.7-1.5,1c0,0.7,1.8,1.5,5.5,2.5c-1.7,0.1-2.6,0.3-2.7,0.8c-0.2,0.8,1.8,2,6,3.8
		c-0.8,0.3-1.2,0.7-1.3,1.1c-0.1,0.9,1.9,1.9,5.8,3c-1.1,0.2-1.7,0.5-1.8,0.9c-0.1,0.7,1.8,1.7,5.6,2.9c-1.7,0.2-2.5,0.5-2.6,0.9
		c-0.1,0.6,1.8,1.4,5.7,2.3c-1.4,0.5-2.1,0.9-2.1,1.3c0,0.7,2,1.3,5.8,1.9c-1.9,0.8-2.1,1.4-2.1,1.8c0.1,1.1,3.2,1.7,5.2,1.9
		c-1.2,0.5-1.8,0.9-1.7,1.3c0.1,0.6,1.6,1,4.6,1.3c-1.4,0.4-2.1,0.8-2.1,1.2c0,0.6,1.5,1.1,4.5,1.6c2.1,0.4,4-0.4,4.6-1.8
		c0.9-1.8-0.7-3.9-1-4.4c-0.6-0.8-0.8-0.7-1.7-1.8c-1.3-1.4-2.5-2.8-2.3-4.2c0.2-1.2,1.4-1.2,1.9-2.7c0.4-1.2-0.1-2.3-0.4-2.9
		c-1.8-4.2-9.6-6.7-15.8-13.4c-2.3-2.5-2.7-3.7-2.3-4.5c0.2-0.5,0.8-0.9,1.4-1.1c-7.7-2.5-12.9-3.9-12.9-3.9
		c-11.5-2.9-12.3-2.5-12.4-2.3C110.8,209.8,113.6,211.4,116.2,212.7z"/>
	<path class="st9" d="M170.9,240.8c-0.4,1.9-4.4,1-8.8,4.3c-1.4,1-2.5,2.3-3.3,1.9c-0.6-0.3-0.4-1.2-1-2.8c-0.6-1.7-1.2-1.7-1.6-2.9
		c-0.8-2.2,1-3.4,0.9-5.8c-0.2-2.3-2-3.9-3.8-5.5c-2.7-2.4-4-2-7.1-4.2c-3.3-2.3-6.2-5.7-5.6-6.5c0.3-0.4,1.7,0.1,9,3.2
		c5.9,2.5,8.8,3.7,9.4,4.1c3.9,2.7,2.7,3.6,9.5,10.4C170.1,238.8,171.2,239.7,170.9,240.8z"/>
	<path class="st2" d="M121.6,211c0.3,1.7,1,4,2.1,6.4c1.1,2.4,3.6,7.5,8.8,10.5c4.5,2.6,7.8,1.7,9.2,4.6c0.9,1.8-0.3,2.4,0.7,4.9
		c0.9,2.2,2.1,2.3,4.5,6c1,1.4,0.7,1.3,1.7,2.7c1.8,2.6,2.7,3.1,3.3,4.9c0.1,0.3,0.2,0.7,0.3,1.2c1.2,0.1,2.2-0.1,3.1-0.6
		c-0.7-1.3-1.3-2.2-1.9-2.9c-0.8-1-1.6-1.7-2.5-3.2c-0.6-1-0.6-1.4-1.1-2.3c-1.6-3.2-3.3-3.2-4.1-5.4c-0.8-2.1,0.4-2.7-0.1-4.7
		c-0.7-2.9-3.7-3.2-8.7-6.8c-3.3-2.4-7.6-5.6-8.2-10.3c-0.1-1.1,0-2.1,0.1-2.9c-3.4-1-5.4-1.5-5.4-1.5
		C122.8,211.3,122.2,211.2,121.6,211z"/>
	<g>
		<path class="st9" d="M176.5,253.2c0.2-0.1,0.4,0.1,0.2,0.3c-1.1,0.9-1.4,1.3-2,1.8C174.4,255.5,173.8,255.2,176.5,253.2z"/>
		<path class="st9" d="M173.7,258c0.2-0.3,0.4-0.7,0.7-0.9c1.2-1.1,1.4-0.4,1.1-0.3c-0.5,0.2-1.1,0.7-1.5,1.4
			C173.8,258.3,173.6,258.2,173.7,258z"/>
		<path class="st9" d="M171.4,256.5c0.2-0.1,0.3,0.2,0.1,0.3c-0.4,0.2-1.6,0.9-1.9,0.8C168.9,257.5,170.7,256.8,171.4,256.5z"/>
		<path class="st9" d="M169.1,260.4c0.6-0.4,0.4-0.3,0.8-0.5c0.7-0.4,0.9-0.6,1.1-0.4c0.1,0.2-0.1,0.3-0.9,0.8
			c-0.4,0.2-0.2,0.1-0.9,0.5C169.1,260.8,168.9,260.5,169.1,260.4z"/>
		<path class="st9" d="M163.9,259.3c0.3-0.2,0.7-0.4,1.1-0.5c0.4-0.1,0.7-0.3,1.1-0.4c0.2-0.1,0.3,0.2,0.1,0.3
			c-0.3,0.1-1.7,0.8-2.2,0.9C163.9,259.6,163.8,259.4,163.9,259.3z"/>
		<path class="st9" d="M164,263.1c0.1-0.3,1.6-1,1.9-1.2c0.2-0.1,0.3,0.2,0.2,0.3c-0.3,0.2-1.5,1.2-1.9,1.2
			C164.1,263.4,163.9,263.3,164,263.1z"/>
		<path class="st9" d="M168.7,254.6c0.4-0.2,1.1-0.4,1.8-0.4c0.2,0,0.2,0.3,0,0.3c-1.2,0-1.8,0.6-2.1,0.7
			C168.3,255.3,167.9,255.1,168.7,254.6z"/>
		<path class="st9" d="M160.5,263c0.3,0,0.3,0.4,0,0.4c-0.3,0-0.5,0.1-0.8,0.2c-0.5,0.2-0.7,0.5-0.9,0.3
			C158.9,263.9,159.7,263.1,160.5,263z"/>
		<path class="st9" d="M157.4,267.3c0.3-0.4,0.8-0.7,1.3-0.8c0.2,0,0.3,0.3,0.1,0.4c-0.5,0.1-0.9,0.4-1.4,1.1
			C157.3,268.1,156.8,268,157.4,267.3z"/>
	</g>
</g>
<g>
	<path class="st4" d="M149.6,354.3c0.3,0.7,0.5,1.4,0.8,2.1c1.7-0.8,4.1-1.9,3.9-2.4C154.2,353.6,151.5,354,149.6,354.3z"/>
	<g>
		<path class="st1" d="M143.8,364.1c-6.3,4.4-12.7,8.9-19,13.3c-1.1,1.8-0.5,3.3,0.4,3.6c0.7,0.2,1.8-0.3,2.6-1.2
			c-3,3.4-4.2,5.3-3.7,5.8c0.3,0.3,1.4,0.1,3.2-0.8c-3.1,2.5-4.5,4.1-4.2,4.6c0.2,0.4,1.2,0.3,3-0.2c-2.8,3.6-3.9,5.6-3.5,6
			c0.3,0.2,1.3-0.3,3.1-1.6c-2.5,3-3.4,4.8-2.9,5.3c0.3,0.3,1.2,0.1,2.6-0.5c-2.5,3.2-3.5,5.1-3,5.6c0.4,0.3,1.4,0.1,3.1-0.8
			c-2.2,3-3,4.7-2.6,5.1c0.4,0.3,1.5-0.2,3.4-1.4c-3.6,4.4-5.1,6.8-4.5,7.2c0.3,0.3,1.3-0.1,3.1-1.2c-1.3,3-2.8,6.6-2.2,6.8
			c0.7,0.3,4.9-6.3,7-9.5c5.3-8.1,8.9-14.9,11.9-20.9c6-12,6.3-14.9,5.9-17.6C146.9,368.2,145.1,365.7,143.8,364.1z"/>
		<path class="st9" d="M133,404.9c3.6-5.9,6.3-11,8.6-15.6c6-12,6.3-14.9,5.9-17.6c-0.6-3.5-2.4-6-3.7-7.6
			c-4.4,3.1-8.8,6.2-13.2,9.3c0.5-0.2,2.5-0.8,4.6,0.2c0.6,0.3,2.2,1.1,2.4,2.4c0.2,1.6-1.9,2.2-2.5,4.7c-0.4,1.6,0.4,1.6,0.1,3.4
			c-0.4,2.9-2.3,3.6-3.3,7.4c-0.6,2.6,0.2,3.5,0.8,7.4C133,401.3,133.1,403.3,133,404.9z"/>
		<path class="st2" d="M129.4,410.7c0.1-0.2,0.2-0.3,0.3-0.5c0.4-0.6,0.8-1.2,1.1-1.8c0.1-3.4,0-6.2-0.2-8.4
			c-0.5-5.1-1.4-8,0.3-11.1c0.6-1.1,1.5-2.1,1.7-3.9c0.3-2.1-1.2-2.9-0.9-4.9c0.3-1.8,1.5-2.3,1.3-3.3c-0.2-0.7-1.1-1.6-4.3-2.2
			c-0.3,0.2-1.4,1-1.7,1.2c1.5,0.8,2.1,1.6,2.2,2.2c0.4,1.2-0.5,1.9-0.5,3.8c0,2,0.9,1.8,0.8,3.3c-0.1,2.2-2.3,3.9-2.4,5.9
			c-0.1,1.8,0.4,1.9,0.4,4.9c0,2.4-0.3,2.9-0.1,4.6c0.3,2,0.9,3.2,1.3,4C129.4,406.1,129.8,407.9,129.4,410.7z"/>
	</g>
	<path class="st1" d="M134.2,355.5c-1.1-0.8-2.6-1.9-4.5-3c-1.7-1-4.3-2.5-7.6-3.4c-3.2-0.9-5.8-0.9-7.3-0.8
		c-32.4,0.6-59.2,1.1-59.2,4c0,0.5,0.7,1.1,4.1,2c-1.2,0.3-1.7,0.7-1.7,1c0,0.7,2.4,1.5,7.3,2.2c-1.5,0.7-2.2,1.3-2.1,1.8
		c0.1,0.9,3.2,1.4,9.2,1.4c-1.4,0.8-2,1.4-1.9,1.9c0.2,1,3.3,1.4,9.3,1.4c-1.5,0.9-2.1,1.6-2,2c0.2,0.7,2.7,0.6,7.5-0.2
		c-1.7,1.1-2.5,1.9-2.3,2.4c0.2,0.7,2.5,0.7,6.8,0.1c-0.9,1.1-1.3,1.8-1,2.2c0.4,0.6,2.7,0.1,6.8-1.6c-1.1,1-1.6,1.7-1.4,2.1
		c0.3,0.6,2.7,0,7.1-1.8c-1.9,1.6-2.8,2.6-2.6,3c0.3,0.5,2.6,0,7-1.7c-1.4,1.3-1.5,2-1.4,2.3c0.4,0.9,3,0.5,5.3,0.1
		c1.4,0.5,2.8,1,4.3,1.6C120.6,368,127.4,361.7,134.2,355.5z"/>
	<path class="st5" d="M64.7,402.4c1-0.7,16.9-11.1,16.2-12.3c-0.4-0.6-4.9,1.7-16,6.3c-5.6,2.3-18.3,7.5-18.5,7.1
		c-0.2-0.4,13.7-7.4,65.7-32.2c7.4-6.1,14.7-11.5,21.6-16.3c1.4-1.4,3.8-3.4,7.2-4.2c1.1-0.3,7.5-1.7,10,1.6
		c0.7,0.9,0.8,1.8,0.9,2.2c0.9,5.4-7.3,10.6-7.8,10.9c-6.4,6-16.8,14.2-31.5,19.9c-8.5,3.3-16.4,5-22.7,5.9
		c-33.3,17.2-41,21-41.1,20.8C48.6,412,55.3,408.5,64.7,402.4z"/>
	<g>
		<path class="st0" d="M146.4,355.6c0.4,0.7,0.1,1.6-0.6,1.9c-0.7,0.4-1.6,0.1-1.9-0.6c-0.4-0.7-0.1-1.6,0.6-1.9
			C145.2,354.6,146.1,354.9,146.4,355.6z"/>
		<path class="st4" d="M144.5,356.6c0.2,0.4,0.6,0.5,1,0.3c0.4-0.2,0.5-0.6,0.3-1c-0.2-0.4-0.6-0.5-1-0.3
			C144.5,355.8,144.3,356.2,144.5,356.6z"/>
		<path class="st7" d="M145.1,355.8c0.1,0.2,0.3,0.2,0.4,0.1c0.2-0.1,0.2-0.3,0.1-0.4c-0.1-0.2-0.3-0.2-0.4-0.1
			C145,355.5,145,355.7,145.1,355.8z"/>
	</g>
	<path class="st0" d="M109.7,383.3c5.2-4.1,7.5-5.7,7.4-7.6c-0.1-0.8-0.6-2.5-5-4.3c2.1-4.8,1.6-7.4,0.7-8.9
		c-3.1-5.1-14-3.2-15.3-7.6c-0.5-1.7,1-2.6,0.3-4.2c-0.4-1-1.3-1.6-2.4-2c6.1-0.1,12.6-0.3,19.4-0.4c1.4,0,4-0.1,7.3,0.8
		c3.3,0.9,5.9,2.4,7.6,3.4c1.7,1,3,1.9,4,2.7c3.9,1.9,3.4,5.2,6.3,7.8c0.7,0.6,1.4,1.1,1.5,1.2c1.1,0.7,2,1,2.7,1.3
		c-0.1,0.1-0.1,0.1-0.2,0.1c-6.4,6-16.8,14.2-31.5,19.9c-2.7,1.1-5.4,2-8,2.7C106.4,386.2,108.2,384.5,109.7,383.3z"/>
	<path class="st6" d="M142.4,367c0.6-0.5,1.1-1,1.6-1.4c0,0,0.1-0.1,0.2-0.1c1.3-0.8,8.4-5.7,7.6-10.8c-0.1-0.3-0.2-1.3-0.9-2.2
		c-0.8-1-1.9-1.6-3.1-1.9c-0.4,0.3-0.6,0.6-0.8,1c-0.9,1.6,0.8,2.7,0.4,5.1c-0.6,3.1-3.9,3.2-4.9,6.7
		C142.2,364.5,142.1,366,142.4,367z"/>
	<path class="st9" d="M131.4,356.1c-0.1,0.6-1.7,0.3-3.4,1.7c-1.6,1.3-1.2,2.4-2.8,4.1c-1.2,1.3-1.7,0.9-3.9,2.5
		c-2.6,1.9-3.6,3.6-4.2,3.3c-0.7-0.4,0.8-2.8-0.5-4.7c-0.5-0.7-0.8-0.5-1.5-1.6c-0.9-1.2-0.8-1.9-1.5-2.8c-0.5-0.7-1.2-1-2.4-1.5
		c-1.5-0.7-2.1-0.7-4.6-1.5c-2.8-0.9-3.6-1.3-4.3-1.8c-0.2-0.1-2.3-1.5-2.1-2.2c0.2-0.5,2.1,0.1,4.7,0.2c4.2,0.2,5.1-1,9.3-1
		c2,0,3.4,0.3,6.1,0.8C125.3,352.8,131.6,354.9,131.4,356.1z"/>
	<path class="st2" d="M70.5,354.9c1.9,2.2,3.7,4.3,6.6,4.9c3.2,0.7,4.9-1,7.1,0.3c1.6,0.9,1.4,2.1,2.5,3.5
		c3.5,4.3,11.3,0.1,17.2,3.6c1.4,0.8,3.2,2.4,4.6,5.5c0.3,0,0.6-0.1,0.8-0.2c0,0,1.3-0.6,2-1c-0.6-2-1.6-3.3-2.2-4.1
		c-3.1-3.6-8.1-4.5-9.6-4.7c-3.8-0.7-5.9,0.1-7-1.4c-0.9-1.3,0.1-2.8-1.1-4.8c-0.9-1.5-2.3-2.3-3-2.6c-4-2-6.8,0.5-10-0.9
		c-1.1-0.5-2.5-1.5-3.6-3.9c-2.9,0.1-5.6,0.3-8,0.5C67.9,351.3,69,353.2,70.5,354.9z"/>
	<g>
		<path class="st9" d="M137.5,366.3c0.3-0.1,0.6-0.3,0.7,0c0.1,0.2-0.2,0.3-0.5,0.4c-0.6,0.3-0.9,0.6-1.1,0.6
			C136.4,367.3,136.4,366.7,137.5,366.3z"/>
		<path class="st9" d="M132.9,369.4c0.2-0.1,0.4-0.3,0.6-0.4c0.2-0.2,0.5-0.3,0.7-0.4c0.2-0.1,0.4,0.2,0.2,0.3
			c-0.3,0.2-1.2,0.9-1.5,0.9C132.8,369.9,132.6,369.7,132.9,369.4z"/>
		<path class="st9" d="M136.6,369.9c0.5-0.4,0.8-0.6,0.9-0.4c0.2,0.2-0.1,0.3-0.6,0.7c-0.3,0.2-0.7,0.6-0.9,0.4
			C135.8,370.4,136.3,370.1,136.6,369.9z"/>
		<path class="st9" d="M131,372.7c0,0,0.1-0.1,0.1-0.1c0.1-0.1,0.2-0.1,0.3-0.2c0.2-0.1,0.4-0.2,0.7-0.3c0.2-0.1,0.4,0.2,0.2,0.3
			c-0.2,0.1-0.6,0.3-1,0.5C130.8,373.2,130.7,372.9,131,372.7z"/>
		<path class="st9" d="M129.9,372c0.1,0.3-0.2,0.2-0.9,0.6c-0.5,0.3-0.8,0.6-1,0.4C127.9,372.8,129.7,371.6,129.9,372z"/>
		<path class="st9" d="M127.6,375.6c0.3-0.2,0.6-0.4,0.9-0.6c0.3-0.1,0.6-0.3,1-0.3c0.2,0,0.3,0.3,0.1,0.3c-0.5,0.2-1.7,0.7-1.8,0.8
			C127.6,375.8,127.5,375.6,127.6,375.6z"/>
		<path class="st9" d="M123.2,376.6c0.3-0.2,0.6-0.2,0.8-0.3c0.3-0.1,0.6-0.2,0.9-0.3c0.2-0.1,0.3,0.3,0.1,0.4
			c-1.2,0.4-1.4,0.5-1.7,0.6C123.1,376.9,123,376.7,123.2,376.6z"/>
		<path class="st9" d="M117,380.9c0.5-0.2,0.9-0.3,1.6-0.5c0.2-0.1,0.4,0.3,0.1,0.4c-0.7,0.2-1.1,0.4-1.7,0.4
			C116.9,381.1,116.8,380.9,117,380.9z"/>
		<path class="st9" d="M122.3,379.1c0.1,0,1-0.5,1.5-0.7c0.2-0.1,0.4,0.2,0.2,0.3c-0.3,0.2-0.6,0.4-0.9,0.5c-0.4,0.2-0.7,0.4-1,0.4
			C121.9,379.6,121.7,379.4,122.3,379.1z"/>
	</g>
</g>
</svg>
