<?xml version="1.0" encoding="UTF-8"?>
<svg xmlns="http://www.w3.org/2000/svg" xmlns:xlink="http://www.w3.org/1999/xlink" xmlns:svgjs="http://svgjs.com/svgjs" version="1.1" width="512" height="512" x="0" y="0" viewBox="0 0 612 612" style="enable-background:new 0 0 512 512" xml:space="preserve" class="">
  <g>
<g xmlns="http://www.w3.org/2000/svg">
	<g id="_x36__37_">
		<g>
			<path d="M573.75,306c0-147.875-119.875-267.75-267.75-267.75C158.125,38.25,38.25,158.125,38.25,306     c0,101.4,56.399,189.624,139.517,235.065L114.75,612h57.375l51.351-51.351c26.01,8.435,53.703,13.101,82.524,13.101     s56.515-4.686,82.524-13.101L439.875,612h57.375l-63.017-70.935C517.351,495.624,573.75,407.42,573.75,306z M439.875,325.125H306     c-10.557,0-19.125-8.568-19.125-19.125V153c0-10.557,8.568-19.125,19.125-19.125c10.557,0,19.125,8.568,19.125,19.125v133.875     h114.75c10.557,0,19.125,8.568,19.125,19.125C459,316.557,450.432,325.125,439.875,325.125z M38.25,95.625     c0-31.69,25.685-57.375,57.375-57.375h38.25V0h-38.25C42.821,0,0,42.821,0,95.625v38.25h38.25V95.625z M516.375,0h-38.25v38.25     h38.25c31.69,0,57.375,25.685,57.375,57.375v38.25H612v-38.25C612,42.821,569.179,0,516.375,0z" fill="#ffffff" data-original="#000000" class=""/>
		</g>
	</g>
</g>















</g>
</svg>
