<?xml version="1.0" encoding="UTF-8"?>
<svg xmlns="http://www.w3.org/2000/svg" id="Icons" viewBox="0 0 74 74" width="512" height="512"><path d="M35.882,67.8A30.8,30.8,0,1,1,66.679,37,30.832,30.832,0,0,1,35.882,67.8Zm0-59.594A28.8,28.8,0,1,0,64.679,37,28.83,28.83,0,0,0,35.882,8.2Z"/><path d="M12.562,55.34a18.159,18.159,0,0,1-5.556-.748,7.175,7.175,0,0,1-4.479-3.5c-1.495-3.009.367-8.061,2.875-11.733a1,1,0,0,1,1.651,1.128c-2.5,3.654-3.671,7.83-2.735,9.715a5.27,5.27,0,0,0,3.307,2.49c6.858,2.233,20.847-1.162,34.809-8.442,19.532-10.186,29.8-22.765,27.141-28.123-1.056-2.123-4.4-3.266-9.193-3.152a1,1,0,0,1-.049-2c5.679-.138,9.6,1.371,11.033,4.261,3.581,7.206-8.721,20.728-28.008,30.786C32,51.945,20.509,55.34,12.562,55.34Z"/><path d="M63.452,16.764a1,1,0,0,1-.775-.368l-3.094-3.789a1,1,0,0,1,.181-1.438L63.792,8.2a1,1,0,1,1,1.187,1.611L61.8,12.156l2.429,2.975a1,1,0,0,1-.774,1.633Z"/><path d="M34.771,57.3a5.047,5.047,0,0,1-1.961-.387c-2.248-.954-3.565-3.115-4.462-4.89l-.06-.118c-.537-1.068-1.093-2.173-1.978-2.492a4.208,4.208,0,0,0-.956-.177,7.942,7.942,0,0,1-.977-.151c-1.743-.4-3.24-1.762-4.564-4.171l-.371-.7a9.518,9.518,0,0,0-2.506-3.452,3,3,0,0,0-2.356-.468,1.421,1.421,0,0,0-.994.729c-.4.807.035,1.837.534,3.031.561,1.341,1.2,2.861.655,4.424-.786,2.243-3.513,3.011-5.8,2.607h0a1.077,1.077,0,0,1-.581-.3,1,1,0,0,1,.991-1.653c1.41.227,3.093-.148,3.5-1.307.291-.838-.147-1.885-.611-2.994-.6-1.435-1.281-3.062-.483-4.686a3.422,3.422,0,0,1,2.3-1.786,4.981,4.981,0,0,1,4.007.786A11.122,11.122,0,0,1,21.21,43.28l.359.673c1.03,1.875,2.1,2.917,3.263,3.182a6.266,6.266,0,0,0,.743.112A5.864,5.864,0,0,1,27,47.532c1.627.588,2.431,2.187,3.078,3.471l.058.117c.743,1.47,1.808,3.249,3.458,3.95a3.219,3.219,0,0,0,2.586-.09A1.841,1.841,0,0,0,37.2,53.809c.243-.976-.378-2.057-1.035-3.2-.2-.352-.405-.7-.584-1.053a11.045,11.045,0,0,1,2.725-13.209c.174-.141.352-.278.53-.415a5.368,5.368,0,0,0,1.293-1.222,5.256,5.256,0,0,0,.511-2.533,13.192,13.192,0,0,1,.168-1.789,12.5,12.5,0,0,1,.835-2.515,9.247,9.247,0,0,0,.755-2.388,2.512,2.512,0,0,0-.815-2.05.744.744,0,0,0-.761-.188,2.758,2.758,0,0,0-1.048,1.028,5.092,5.092,0,0,1-1.621,1.577,5.03,5.03,0,0,1-1.718.478q-3.73.512-7.455,1.04c-3.066.429-5.046-.207-5.884-1.895a5.326,5.326,0,0,1-.343-2.742c.072-1,.261-3.653,2.346-4.439,1.688-.623,3.25.46,4.389,1.25l.22.152c1.357.941,3.83,1.692,4.837.322.086-.121.165-.265.246-.408a4.237,4.237,0,0,1,.723-1.017,4.408,4.408,0,0,1,2.683-.988c.145-.017.289-.034.431-.055a5.722,5.722,0,0,0,4.279-2.39c.948-1.534,1-3.85.133-6.523a1,1,0,1,1,1.9-.614c.74,2.292,1.283,5.573-.336,8.189a7.615,7.615,0,0,1-5.686,3.317c-.165.024-.325.043-.486.062a2.854,2.854,0,0,0-1.534.443,2.7,2.7,0,0,0-.368.558,6.571,6.571,0,0,1-.368.6c-1.715,2.334-5.189,1.817-7.594.151l-.223-.154c-.907-.629-1.843-1.278-2.552-1.02-.588.223-.934,1.107-1.047,2.7a3.724,3.724,0,0,0,.142,1.722c.51,1.027,2.356,1,3.811.8,2.48-.35,4.972-.7,7.453-1.041a3.309,3.309,0,0,0,1.054-.261,3.531,3.531,0,0,0,.965-1.012,4.294,4.294,0,0,1,2.006-1.723,2.732,2.732,0,0,1,2.659.525,4.506,4.506,0,0,1,1.545,3.837,10.814,10.814,0,0,1-.893,2.923,10.9,10.9,0,0,0-.717,2.114,11.588,11.588,0,0,0-.136,1.52,6.894,6.894,0,0,1-.824,3.515,7.037,7.037,0,0,1-1.761,1.732c-.162.125-.323.248-.479.376a8.98,8.98,0,0,0-2.215,10.744c.167.327.353.649.539.973.788,1.369,1.681,2.921,1.243,4.679a3.8,3.8,0,0,1-2.07,2.479A5.182,5.182,0,0,1,34.771,57.3Z"/><path d="M58.719,57.13a1,1,0,0,1-.538-.158c-1.826-1.168-3.038-3.664-1.906-5.817a6.558,6.558,0,0,1,1.31-1.629c.207-.206.415-.41.6-.63.3-.358.331-.572.322-.61a1.011,1.011,0,0,0-1-.005,4.5,4.5,0,0,1-5.685-2.055,3.991,3.991,0,0,1,.1-3.434,3.678,3.678,0,0,1,2.489-2.029,6.261,6.261,0,0,1,1.53-.1,3.083,3.083,0,0,0,1.276-.131,1.955,1.955,0,0,0,.836-1.663,2.832,2.832,0,0,0-.911-2.507,10.578,10.578,0,0,0-1.877-1.3c-.372-.221-.751-.446-1.123-.692-.2-.132-.371-.236-.524-.328-1.286-.778-1.644-1.363-1.38-3.509a8.289,8.289,0,0,1,1.514-3.6c.13-.2.263-.413.4-.629,1.914-3.129,1.949-5.51,2-8.8.006-.444.013-.9.025-1.37a.985.985,0,0,1,1.025-.974,1,1,0,0,1,.974,1.025c-.011.463-.018.912-.024,1.349-.051,3.339-.094,6.223-2.292,9.817-.138.227-.278.446-.415.662a6.4,6.4,0,0,0-1.215,2.767,3.062,3.062,0,0,0-.036,1.242,2.938,2.938,0,0,0,.465.313c.175.105.371.225.593.372.341.225.694.434,1.041.64a12.209,12.209,0,0,1,2.224,1.558,4.852,4.852,0,0,1,1.538,4.081,3.77,3.77,0,0,1-1.993,3.363,4.7,4.7,0,0,1-2.155.315,4.737,4.737,0,0,0-1.065.052,1.7,1.7,0,0,0-1.121.961,2.005,2.005,0,0,0-.079,1.7,2.5,2.5,0,0,0,3.09,1.067,2.837,2.837,0,0,1,3.394.663c.24.326.921,1.511-.405,3.081-.223.265-.471.513-.72.76a4.909,4.909,0,0,0-.944,1.131c-.575,1.095.162,2.542,1.209,3.212a1,1,0,0,1-.54,1.842Z"/><path d="M45.5,66.2a1,1,0,0,1-.984-.828,4.15,4.15,0,0,0-.538-1.44,6.494,6.494,0,0,0-2.818-2.414,4.377,4.377,0,0,0-2.266-.542,6.834,6.834,0,0,0-3.024,1.512c-1.4.987-2.977,2.11-4.922,1.723a6.5,6.5,0,0,1-1.662-.641l-3.849-1.9a1.854,1.854,0,0,0-1.593-.13,2.884,2.884,0,0,0-1.44,1.828,1,1,0,1,1-1.9-.608,4.817,4.817,0,0,1,2.564-3.062,3.819,3.819,0,0,1,3.262.18l3.861,1.91a4.807,4.807,0,0,0,1.155.466c1.093.22,2.152-.531,3.374-1.4a8.5,8.5,0,0,1,3.994-1.871,6.26,6.26,0,0,1,3.327.736A8.457,8.457,0,0,1,45.689,62.9a6.171,6.171,0,0,1,.8,2.131,1,1,0,0,1-.813,1.158A1.131,1.131,0,0,1,45.5,66.2Z"/></svg>
