<?xml version="1.0" encoding="UTF-8"?>
<svg xmlns="http://www.w3.org/2000/svg" xmlns:xlink="http://www.w3.org/1999/xlink" xmlns:svgjs="http://svgjs.com/svgjs" version="1.1" width="512" height="512" x="0" y="0" viewBox="0 0 612.01 612.01" style="enable-background:new 0 0 512 512" xml:space="preserve" class="">
  <g>
<g xmlns="http://www.w3.org/2000/svg">
	<g id="_x35__23_">
		<g>
			<path d="M596.905,15.396c-23.856-23.914-65.753-18.308-89.724,5.72L385.202,142.828l-226.3-84.578     c-21.656-5.605-43.485-12.837-70.383,14.1c-13.698,13.736-42.222,42.318,0,84.616L243.69,284.015L142.736,384.758l-94.201-23.531     c-13.984-3.616-23.378-0.784-30.552,7.116c-3.616,4.516-29.844,23.972-11.574,42.28l109.544,85.209l85.19,109.544     c13.239,13.258,25.54,4.993,42.356-10.981c10.656-10.675,8.36-16.165,5.146-31.738l-21.293-93.531l100.266-100.609     l126.838,155.171c42.223,42.299,70.747,13.717,84.444,0c26.898-26.955,19.667-48.822,14.08-70.517L469.13,226.526     l121.501-121.922C614.621,80.557,620.762,39.292,596.905,15.396z" fill="#212529" data-original="#000000" class=""/>
		</g>
	</g>
</g>















</g>
</svg>
