<?xml version="1.0" encoding="UTF-8"?>
<svg xmlns="http://www.w3.org/2000/svg" xmlns:xlink="http://www.w3.org/1999/xlink" xmlns:svgjs="http://svgjs.com/svgjs" version="1.1" width="512" height="512" x="0" y="0" viewBox="0 0 612 612" style="enable-background:new 0 0 512 512" xml:space="preserve" class="">
  <g>
<g xmlns="http://www.w3.org/2000/svg">
	<g id="_x36__25_">
		<g>
			<path d="M325.125,267.643h-191.25c-10.557,0-19.125,8.568-19.125,19.125v191.25c0,10.558,8.568,19.125,19.125,19.125h191.25     c10.557,0,19.125-8.567,19.125-19.125v-191.25C344.25,276.21,335.682,267.643,325.125,267.643z M535.5,152.893H358.518     L526.282,37.473c8.874-6.101,11.398-18.685,5.66-28.095c-5.737-9.41-17.575-12.106-26.449-6.005     c0,0-183.791,126.895-199.321,136.266L106.507,3.373c-8.855-6.101-20.693-3.404-26.431,6.005     c-5.737,9.41-3.213,21.994,5.661,28.095l167.765,115.419H76.5c-42.247,0-76.5,34.252-76.5,76.5v306     c0,42.247,34.253,76.5,76.5,76.5h459c42.247,0,76.5-34.253,76.5-76.5v-306C612,187.145,577.747,152.893,535.5,152.893z      M382.5,497.143c0,21.114-17.117,38.25-38.25,38.25h-229.5c-21.133,0-38.25-17.116-38.25-38.25v-229.5     c0-21.114,17.117-38.25,38.25-38.25h229.5c21.133,0,38.25,17.136,38.25,38.25V497.143z M516.375,535.393h-76.5     c-10.557,0-19.125-8.567-19.125-19.125c0-10.557,8.568-19.125,19.125-19.125h76.5c10.557,0,19.125,8.568,19.125,19.125     C535.5,526.825,526.932,535.393,516.375,535.393z M516.375,478.018h-76.5c-10.557,0-19.125-8.567-19.125-19.125     c0-10.557,8.568-19.125,19.125-19.125h76.5c10.557,0,19.125,8.568,19.125,19.125C535.5,469.45,526.932,478.018,516.375,478.018z      M478.125,344.143c-31.69,0-57.375-25.685-57.375-57.375s25.685-57.375,57.375-57.375s57.375,25.685,57.375,57.375     S509.815,344.143,478.125,344.143z M459,305.893h38.25v-38.25H459V305.893z" fill="#212529" data-original="#000000" class=""/>
		</g>
	</g>
</g>















</g>
</svg>
