<svg width="25" height="25" viewBox="0 0 25 25" fill="none" xmlns="http://www.w3.org/2000/svg">
<path d="M8.71429 8.71429C10.8445 8.71429 12.5714 6.98738 12.5714 4.85714C12.5714 2.7269 10.8445 1 8.71429 1C6.58405 1 4.85715 2.7269 4.85715 4.85714C4.85715 6.98738 6.58405 8.71429 8.71429 8.71429Z" stroke="#E5E5E5" stroke-width="1.71429" stroke-linecap="round" stroke-linejoin="round"/>
<path d="M6.14286 21.5714H1V19C1.01365 17.6934 1.35825 16.4115 2.00161 15.2741C2.64498 14.1368 3.56611 13.1811 4.67899 12.4962C5.79186 11.8114 7.06015 11.4198 8.3654 11.358C9.67065 11.2962 10.9703 11.5662 12.1429 12.1429" stroke="#E5E5E5" stroke-width="1.71429" stroke-linecap="round" stroke-linejoin="round"/>
<path d="M23.2857 14.7143L15.2114 22.7886L11.56 23.2857L12.0743 19.6343L20.1314 11.56L23.2857 14.7143Z" stroke="#E5E5E5" stroke-width="1.71429" stroke-linecap="round" stroke-linejoin="round"/>
</svg>
