<svg viewBox="0 0 200 200" xmlns="http://www.w3.org/2000/svg" width="200" height="200">
  <path fill="#F1C21B" d="M43,-63.8C57.3,-57.7,71.6,-48.4,76.2,-35.6C80.8,-22.8,75.8,-6.3,68.5,6.4C61.3,19,51.9,27.9,42.1,33.2C32.4,38.4,22.3,40,11.9,45.1C1.5,50.2,-9.1,58.8,-21.6,60.9C-34,63,-48.2,58.5,-59.1,49.3C-70,40.1,-77.6,26.2,-76.9,12.7C-76.2,-0.7,-67.3,-13.7,-59.4,-25.5C-51.5,-37.3,-44.6,-48,-34.9,-56.2C-25.2,-64.5,-12.6,-70.2,0.9,-71.6C14.3,-72.9,28.7,-69.9,43,-63.8Z" transform="translate(100 100)" />
</svg>