<svg viewBox="0 0 200 200" xmlns="http://www.w3.org/2000/svg" width="500" height="500">
  <path fill="#F1C21B" d="M30.7,-52C39.5,-42.1,46.3,-33.1,52.4,-23C58.5,-12.8,64,-1.4,63.2,9.6C62.4,20.6,55.3,31.2,47.2,41.2C39,51.1,29.8,60.5,17.5,67.9C5.2,75.4,-10.1,81,-24.4,78.7C-38.7,76.5,-51.9,66.5,-57,53.4C-62.1,40.3,-59.1,24.2,-62.1,8.5C-65.1,-7.3,-74.1,-22.6,-73.1,-36.9C-72.1,-51.3,-61.1,-64.6,-47.2,-72.2C-33.4,-79.9,-16.7,-81.9,-2.9,-77.4C10.9,-72.9,21.9,-62,30.7,-52Z" transform="translate(100 100)" />
</svg>