<svg xmlns="http://www.w3.org/2000/svg" viewBox="0 0 48 60" x="0px" y="0px"><title>ui vol.1</title><g data-name="Layer 25"><path d="M37.333,7.36621H30.06885a5.91641,5.91641,0,0,0-11.83106,0H10.667a2.93563,2.93563,0,0,0-2.918,3.01465v4.31543a2.9149,2.9149,0,0,0,1.918,2.73114V38.19727a7.14728,7.14728,0,0,0,7.13965,7.13867h14.3877A7.14644,7.14644,0,0,0,38.333,38.19727V17.42743a2.9149,2.9149,0,0,0,1.918-2.73114V10.38086A2.93563,2.93563,0,0,0,37.333,7.36621ZM24.15332,3.55176a3.92607,3.92607,0,0,1,3.91992,3.81445H20.2334A3.92607,3.92607,0,0,1,24.15332,3.55176ZM9.749,10.38086a.94868.94868,0,0,1,.918-1.01465H37.333a.94868.94868,0,0,1,.918,1.01465v4.31543a.91961.91961,0,0,1-.918.91894H10.667a.91961.91961,0,0,1-.918-.91894ZM36.333,38.19727a5.2079,5.2079,0,0,1-5.13867,5.13867H16.80664A5.1453,5.1453,0,0,1,11.667,38.19727v-20.582H36.333Z"/><path d="M17.05859,37.99707a.99942.99942,0,0,0,1-1V23.95117a1,1,0,0,0-2,0v13.0459A.99943.99943,0,0,0,17.05859,37.99707Z"/><path d="M24.15332,37.99707a.99943.99943,0,0,0,1-1V23.95117a1,1,0,1,0-2,0v13.0459A.99943.99943,0,0,0,24.15332,37.99707Z"/><path d="M31.249,37.99707a.99942.99942,0,0,0,1-1V23.95117a1,1,0,0,0-2,0v13.0459A.99943.99943,0,0,0,31.249,37.99707Z"/></g></svg>