<?xml version="1.0" encoding="UTF-8" standalone="no"?>
<!-- Created with Inkscape (http://www.inkscape.org/) -->

<svg
   width="73.165535mm"
   height="63.333004mm"
   viewBox="0 0 73.165535 63.333004"
   version="1.1"
   id="svg5"
   xmlns="http://www.w3.org/2000/svg"
   xmlns:svg="http://www.w3.org/2000/svg">
  <defs
     id="defs2" />
  <g
     id="layer1"
     transform="translate(-7.8081786,-21.400195)">
    <path
       d="m 26.734687,30.71503 c 1.554412,2.376862 22.704097,34.817407 31.833798,48.653288 0.407834,0.618065 0.819107,1.236922 1.30623,1.794636 0.487122,0.557715 1.052655,1.054116 1.703269,1.407719 0.650613,0.353603 1.385935,0.55981 2.126424,0.556774 0.740489,-0.003 1.480553,-0.218287 2.100158,-0.623778 0.619605,-0.405491 1.113092,-0.997519 1.412278,-1.674883 0.299186,-0.677363 0.404555,-1.433747 0.340944,-2.171505 -0.06361,-0.737758 -0.292139,-1.454708 -0.608238,-2.124345 -0.316099,-0.669638 -0.718591,-1.294243 -1.121733,-1.915379 -3.330535,-5.131482 -6.820511,-10.557445 -10.461794,-15.800304 -0.733668,-1.056362 -1.52548,-2.127542 -2.645585,-2.75963 -0.560052,-0.316045 -1.189156,-0.515951 -1.831342,-0.549712 -0.642185,-0.03376 -1.293704,0.100851 -1.865226,0.395648 -0.571522,0.294797 -1.058897,0.747636 -1.403665,1.290478 -0.344768,0.542843 -0.546573,1.17134 -0.613716,1.810898 -0.134286,1.279116 0.279523,2.545273 0.714965,3.755463 0.106344,0.295552 0.22594,0.557114 0.323055,0.755834 0.10351,0.211805 0.212023,0.414081 0.31238,0.593711 0.207258,0.370976 0.438662,0.749941 0.632457,1.061778 0.202033,0.325093 0.411687,0.654652 0.602022,0.957832 0.184913,0.294543 0.334276,0.536897 0.444192,0.727018 0.02866,0.04957 0.05829,0.09856 0.08888,0.14695 3.097863,4.899916 6.071201,9.837466 9.337073,14.704895 0.121977,0.18973 0.258849,0.381786 0.415915,0.572958 0.18738,0.228069 0.390361,0.438576 0.610878,0.631402 0.229624,0.200789 0.433144,0.342602 0.564704,0.429448 0.131513,0.08681 0.148219,0.09755 0.05397,0.034 -0.114705,-0.07735 -0.30133,-0.213205 -0.505592,-0.41085 -0.219328,-0.212222 -0.381754,-0.420524 -0.497673,-0.593248 -0.122979,-0.183245 -0.194722,-0.328339 -0.224212,-0.390745 -0.04252,-0.08997 -0.04522,-0.104639 -0.04019,-0.09093 A 4.3378772,4.3378772 90 0 0 67.983465,78.9002 c -0.05914,-0.161083 -0.145868,-0.384195 -0.259943,-0.625593 -0.09233,-0.195387 -0.227404,-0.456129 -0.415985,-0.737123 -0.173576,-0.258636 -0.393449,-0.536189 -0.673287,-0.806961 -0.259688,-0.251275 -0.50175,-0.429435 -0.676872,-0.54752 -0.150169,-0.101259 -0.192346,-0.125843 -0.124796,-0.08125 0.07126,0.04704 0.208754,0.141949 0.366625,0.279995 0.151423,0.132408 0.278486,0.266541 0.381665,0.392124 0.09569,0.116471 0.157402,0.20905 0.190369,0.26178 l -0.07672,-0.118385 c -3.178551,-4.734257 -5.968865,-9.37869 -9.194194,-14.482259 -0.183561,-0.313811 -0.385939,-0.639217 -0.56118,-0.918355 -0.210616,-0.335484 -0.411257,-0.651041 -0.581085,-0.924312 -0.175284,-0.282051 -0.320987,-0.523553 -0.427281,-0.71381 -0.04964,-0.08885 -0.07828,-0.144485 -0.09154,-0.171608 -0.01046,-0.02141 0.0016,-0.0062 0.0456,0.116178 0.435442,1.21019 0.849252,2.476347 0.714965,3.755463 -0.06714,0.639558 -0.268948,1.268055 -0.613716,1.810897 -0.344768,0.542842 -0.832143,0.995682 -1.403665,1.290478 -0.571522,0.294797 -1.223041,0.42941 -1.865227,0.395649 -0.642186,-0.03376 -1.271289,-0.233668 -1.831341,-0.549713 -1.120105,-0.632088 -1.911917,-1.703268 -2.645585,-2.75963 3.54479,5.103923 6.946567,10.392084 10.310216,15.574586 l 7.259332,-4.750761 C 56.691763,60.771822 35.576688,28.384225 33.995595,25.966566 a 4.3378772,4.3378772 90 0 0 -7.260908,4.748464 z"
       id="path-1"
       style="display:inline;opacity:0.95;fill:#ff0009;fill-opacity:1;fill-rule:nonzero;stroke:none" />
    <path
       d="m 75.004046,21.718812 c -3.927252,1.594433 -9.553554,4.260879 -16.728588,9.153146 -3.378204,2.303415 -6.56295,4.729317 -9.506553,7.094337 -1.640099,1.317727 -3.351666,2.734101 -5.226962,4.323451 -0.0059,0.005 -0.01182,0.01004 -0.01771,0.01509 C 36.571317,48.261922 29.983154,54.595127 23.42217,61.135041 17.176287,67.360865 11.85789,72.802303 9.0724742,75.599085 a 4.3378772,4.3378772 90 0 0 6.1471638,6.12218 c 2.807962,-2.81942 8.150774,-8.284951 14.327341,-14.441683 6.494999,-6.474142 12.904257,-12.630279 19.613149,-18.378871 1.824793,-1.54644 3.474361,-2.91112 5.042668,-4.171167 2.824764,-2.269538 5.822031,-4.549805 8.960171,-6.689533 6.609778,-4.506851 11.681188,-6.892779 15.104653,-8.282679 a 4.3378772,4.3378772 90 0 0 -3.263574,-8.03852 z"
       id="path-1-4"
       style="opacity:0.95;fill:#ff0009;fill-opacity:1;fill-rule:nonzero;stroke:none" />
  </g>
</svg>
