<?xml version="1.0" encoding="utf-8"?>
<!-- Generator: Adobe Illustrator 26.5.0, SVG Export Plug-In . SVG Version: 6.00 Build 0)  -->
<svg version="1.1" id="Lager_1" xmlns="http://www.w3.org/2000/svg" xmlns:xlink="http://www.w3.org/1999/xlink" x="0px" y="0px"
	 viewBox="0 0 391.8 95.7" style="enable-background:new 0 0 391.8 95.7;" xml:space="preserve">
<style type="text/css">
	.st0{fill:#6FB2A5;}
</style>
<g>
	<g>
		<path class="st0" d="M93.4,13.1c0.1-0.3,0.2-0.5,0.2-0.6c0.1-0.1,0.6,0,1.2,0.2c0,0,0,0,0.7-0.8c0.3-0.3,0.3-0.3,0.3-0.3
			c0.3,0.2,0.8,0.3,1.2,0.3c0.4,0,1.7-1,1.8-0.9c0,0,0,0,0,0.1c0,0.4,0,0.4,0,0.4c0,0.4,0.5,0.5,1,0.2c0.5-0.3,2.4,0.2,3,0.3
			s2.3-0.9,2.7-0.8c0.4,0.1,1.3,0.6,1.6,0.7c0.3,0.1,1.1-0.5,1.3-0.6c0.2-0.1,0.7-0.1,0.7-0.5c0-0.4,1.1,0.3,1.5,0.3
			c0,0,0,0,0.2-0.2c0.6-0.5,0.7-0.2,0.8,0.5c0.1,0.5,0.1,0.5,0.1,0.5c0.4-0.6,0.9-1,1.1-0.8c0.2,0.2,1.3,0.3,1.8,0.1
			c0,0,0,0,0.4-0.3c0.3-0.3,0.3-0.3,0.3-0.3c0.3,0.1,0.8,0.2,1.1,0.3c0,0,0,0,0.1,0.2c0.2,0.3,0.4,0.7,0.6,1
			c0.1,0.1,0.1,0.1,0.1,0.1c0.2-0.1,0.4-0.5,0.4-0.7c0-0.3,0.7-0.7,1.2-0.9c0,0,0,0,0.4,0.5c0.1,0.1,0.1,0.1,0.1,0.1
			c0.5,0.4,1.2,0.4,1.5,0.1c0,0,0,0,0.3-0.2c0.2-0.1,0.2-0.1,0.2-0.1c0.3,0,0.5,0.2,0.4,0.5c0,0,0,0,0,0.3c0,0.2,0,0.2,0,0.2
			c0,0.2,0.2,0.3,0.4,0.3c0,0,0,0,0.1-0.1c0.2-0.3,0.3-0.6,0.4-0.9c0.2-0.4,0.2-0.4,0.2-0.4c0.3,0.2,0.7,0.2,0.9,0.2
			s1.2,0.1,1.9,0.9c0,0,0,0,0.9-0.8c0.1-0.1,0.6-0.1,0.6,0c0.4,0.9,0.4,0.9,0.4,0.9c0.5-0.4,1.1-0.9,1.2-1.1
			c0.2-0.2,0.8-0.7,0.9-0.3c0.1,0.4,0.8,1.1,1.1,0.7c0,0,0,0,0.3-0.1c0.5-0.2,0.5-0.2,0.5-0.2c0.6,0,1.3-0.1,1.4-0.1
			c0.1,0,0.7-0.2,1.1-0.4c0.4-0.1,2,0.7,2.1,0.4c0,0,0,0,0.2-0.2c0.2-0.2,0.2-0.2,0.2-0.2c0.3-0.1,0.4,0.1,0.2,0.3c0,0,0,0,0,0.2
			c0,0.2,0.2,0.3,0.4,0.5c0.3,0.3,0.3,0.3,0.3,0.3c0.1-0.4,0.2-0.9,0.3-1.1c0.1-0.2,0.9-0.6,1.5-0.5c0,0,0,0,0.6,0.2
			c0.1,0,0.1,0,0.1,0c0.1,0.2,0.2,0.4,0.1,0.4c-0.1,0-0.3,0.5-0.4,1.1c-0.2,0.6-1.7,0.4-1.8,0.5c0,0,0,0,0,0.1c0,0.1,0,0.1,0,0.1
			c0,0.2,0.7,0.8,1.4,1.3c0,0,0,0,0.9-0.5c0.4-0.2,0.4-0.2,0.4-0.2c0.5-0.2,0.5-0.4,0-0.6s0.1-2,0.5-2.2c0,0,0,0,0.5,0
			c1,0,2,0.3,3-0.3c0.3-0.2,0.8,0.1,1.1,0.3c0.3,0.3,0.3,0.3,0.3,0.3c0.1,0.6,0.3,0.8,0.5,0.4c0.1-0.3,0.9-1.2,1.3-1.1
			s1.8-0.1,2.1-0.8c0,0,0,0,0.4,0.4c0.1,0.1,0.1,0.1,0.1,0.1c0.1,0.1,0.4,0.6,0.6,1c0,0,0,0,0.5-0.4c0.1-0.1,0.1-0.1,0.1-0.1
			c0.3,0,0.6,0.3,0.6,0.5s0.3,0.9,0.4,0.5c0,0,0,0,0-0.2c0-0.1,0-0.3,0-0.5c0.2-0.5,0.4-0.4,0.7-0.1c0.8,0.6,0.2-0.6,0.5-0.6
			c0.2,0,0.2,0,0.2,0c0.3-0.1,0.8-0.1,1.3,0.1c0,0,0,0,0.4-0.4c0.1-0.1,0.4-0.2,0.5-0.1c0.8,1.2,0.8,1.2,0.8,1.2
			c0.5-0.9,1.3-1.4,1.6-0.9c0.4,0.4,2,0,2.3,0.2c0.3,0.3,1.6-0.5,2.2-0.4c0,0,0,0,0.5-0.4c0.1-0.1,0.1-0.1,0.1-0.1
			c0.2,0.1,0.8,0.3,1.3,0.5c0,0,0,0,0.9-0.2c0.6-0.2,0.6-0.2,0.6-0.2c0.1,0.6,0.4,0.8,0.7,0.5s1.4,0.1,1.6,0.1
			c0.2,0,0.8-0.4,1.2-0.6c0,0,0,0,0.5,0.2c0.6,0.2,0.6,0.2,0.6,0.2c0.7-0.1,1.3-0.1,1.4,0.1c0.1,0.1,0.4,0.2,0.6-0.1
			c0.2-0.2,1-0.9,1.2-0.6c0.1,0.3,0.7,0.8,0.9,1c0.3,0.1,1.4-0.1,2-0.4c0.6-0.3,2,0,2.3,0s1.2-0.4,1.5-0.2c0.2,0.2,1,0.5,1.2,0.5
			c0,0,0,0,0.1-0.1c0.4-0.5,0.4-0.5,0.4-0.5c0.6,0.1,1.2,0.1,1.4,0.1c0.2,0,0.9-0.2,1.3-0.3c0.4-0.1,1.4,0.1,1.4-0.7
			c0,0,0,0,0.8,0.7c0.1,0.1,0.1,0.1,0.1,0.1c0.2,0.1,0.6,0.2,1,0.1c0.4,0,1.7,0.2,2.1-0.1c0.4-0.3,1.7-0.6,2-0.6c0,0,0,0,0.2,0.1
			c0.3,0.3,0.6,0.7,1.1,0.7c0.5-0.1,0.5-0.1,0.5-0.1c0.2-0.4,0.6-0.8,0.7-0.9c0,0,0,0,0.2,0c0.5-0.1,0.5-0.1,0.5-0.1
			c0.6-0.2,1.4-0.5,1.8-0.7c0,0,0,0,0.3,0.7c0.3,0.7,0.9,0.8,1.4,0.2l2.6-0.4c0.8,0.1,0.8,0.1,0.8,0.1c0.8,0.1,1.8,0.1,2,0.1
			c0.3-0.1,1,0.6,1,0.3c0-0.3,0.4-0.6,0.6-0.1c0.3,0.5,2-0.1,2.7,0s2.4-0.5,2.5-0.6c0,0,0,0,0.1,0.1c1,1,1,1,1,1
			c1.3-0.2,2.5-0.3,2.6-0.2c0,0,0,0,0,0c0.4-0.5,0.7-0.8,1.3-0.4c0.3,0.2,0.3,0.2,0.3,0.2c0.5-0.3,1.4-0.6,2-0.7c0,0,0,0,0.5,0
			c0.7,0,0.7,0,0.7,0c0.7,0.1,1.4,0.3,1.6,0.4c0.1,0.2,0.6,0.5,0.6,0.3s0.5-0.6,0.9-0.7c0.4-0.1,1.6-0.1,1.8,0.1c0,0,0,0,0,0.2
			c0,0.9,0,0.9,0,0.9c0.5-0.1,1.3-0.4,1.8-0.6c0,0,0,0,0.5,0.4c0.2,0.2,0.8,0.2,0.9,0c0.4-0.5,0.9-0.4,1.4-0.4
			c0.5-0.1,0.5-0.1,0.5-0.1c0.5-0.2,1.1-0.4,1.3-0.5c0.2-0.1,1,0.5,1.4,0.4c0.4-0.1,1.6-0.2,1.8-0.2c0.2,0,0.7-0.3,0.8-0.2
			c0.1,0.1,1.1,1,1.9,1.6c0,0,0,0,0.1-1.7c0,0,0.4-0.1,0.6,0c1.1,0.5,1.1,0.5,1.1,0.5c0.5-0.2,1.8-0.5,2.9-0.6c0,0,0,0,1,0
			c0.1,0,0.1,0,0.1,0c0.1,0.5,1.1,0.6,2.3,0.3c0,0,0,0,1.1,0.1c0.3,0,0.2,0.6-0.1,0.9c-0.1,0.1-0.1,0.1-0.1,0.1
			c-0.2,0-0.3,0.2-0.1,0.3s0.8,0.2,0.8-0.2s0.3-1.6,0.7-1.7c0.4-0.1,1.8,0.5,2.3,0.4c0,0,0,0,0.4,0c0.5,0,1,0,1.4,0.3
			c0.7,0.4,0.7,0.4,0.7,0.4c0.7-0.3,1.5-0.8,1.8-1c0.3-0.2,0.8,0.9,0.9,0.9s0.4-0.2,0.6-0.5c0,0,0,0,0.3,0.3
			c0.5,0.5,0.8,0.5,0.8-0.4c0-0.2,0-0.2,0-0.2c0.3-0.2,0.7-0.1,0.9,0.2c0.2,0.4,1.3,0.1,1.8,0.1s2.3-0.2,2.6-0.2c0,0,0,0,0.1-0.4
			c0-0.1,0.5-0.2,0.6-0.1c0.2,0.3,0.1,1.1,0.7,0.7c0.2-0.1,0.2-0.1,0.2-0.1c0.1-0.6,0.7-0.8,1.3-0.4c0,0,0,0,0.6,0.4
			c0.1,0.1,1.6-0.1,1.7-0.3c0.4-0.5,0.8-1,1,0.2c0,0.1,0,0.1,0,0.1c0.1,0.1,0.5,0.2,0.7,0.2c0.3,0.1,1.1,0.3,1.2,0.1
			c0.1-0.1,0.4-0.6,0.4-0.7s0.5-0.4,0.9-0.5c0.4-0.1,1.4,0.3,1.5,0.2c0.1-0.1,0.7-0.2,0.9,0c0.2,0.2,1,0.9,1.2,0.7
			c0.2-0.2,0.8-0.6,0.9-0.4c0.1,0.2,0.6,0.5,0.7,0.2c0-0.3,0.4-0.6,0.6-0.1c0,0,0,0,0.3,0c0.5,0,0.5,0,0.5,0
			c0.2,0.5,0.5,0.6,0.7,0.3s0.8-1.2,0.9-1c0.1,0.2,0.4,0.5,0.6,0.4c0.2-0.1,0.9-0.4,1-0.2c0,0,0,0,0,0.2c0.1,0.5,0.6,0.5,0.7,0.2
			c0.2-1,0.7-1,1.2-0.6c0.4,0.3,0.4,0.3,0.4,0.3c0.4-0.2,1.2-0.5,1.7-0.7c0,0,0,0,0.4,0.5c0.4,0.6,0.9,0.8,1.5,0.3
			c0,0,0.3,0.1,0.3,0.2c0.5,0.6,0.5,0.6,0.5,0.6c0.2-0.3,0.4-0.7,0.6-1c0,0,0,0,0.1,0c0.6,0,0.6,0,0.6,0c0.7,0.1,1.3,0.2,1.4,0.2
			c0.1,0,0.6-0.2,0.9-0.3s1.3,0.8,1.7,0.5s1.4-0.6,1.5-0.1c0.1,0.5,1.5-0.4,2.1-0.4s2.1,0.5,2.2,0.2c0-0.3,0.3-0.9,0.4-0.7
			c0,0,0,0,0.1,0.1c0.1,0.1,0.1,0.1,0.1,0.1c0,0.1,0.5,0.3,0.9,0.4c0.5,0.1,1.5,0.7,1.3,0.9c-0.2,0.3-3.5,0.4-4.1,0.5
			c-0.7,0.2-0.6,0.7-0.2,0.5c0,0,0,0,0.4,0.2c0,0,0,0,0,0c0.1-0.2,0.5-0.5,0.9-0.8c0.4-0.3,0.9,1.2,1.1,1.3c0.2,0.1,0.4-0.5,0.4-0.8
			c0,0,0,0,0-0.2c0.2-0.8,0.1-0.7-0.3-0.9c-0.5-0.2-0.5-0.2-0.5-0.2c-0.5,0.2-1,0.4-1.1,0.5c0,0,0,0-0.1,0.1
			C298,8.3,298,8.3,298,8.3c0.6-0.2,1.5-0.1,2,0.4c0.5,0.4,1.7,0.5,2.1,0.4c0.3-0.1,1.5,0.2,1.8,0.1s0.3-1,0.2-1.2s-0.5-0.7-0.8-0.7
			S302.7,7,303,6.8c0.3-0.2,1.3-1,1.3-1.1c0.1-0.2,0.8-0.1,0.9,0c0.1,0.1,0.6,0.8,0.8,1.1s1.4,1.1,1.5,1.2c0.1,0.2,0.2-0.5,0.2-0.8
			c0,0,0,0-0.1-0.1c-0.4-0.3-0.4-0.3-0.4-0.3c-0.5-0.2-0.7-0.6-0.6-0.9c0,0,0,0-0.1-0.1c-0.2-0.3-0.3-0.7,0.1-0.5
			c0.6,0.3,0.6,0.3,0.6,0.3c0.6,0.1,1.5,0.3,1.9,0.5s2.1-0.4,2.3-0.5c0.2-0.1,0.8-0.2,1.1-0.4c0,0,0,0,0.3,0.2c0.1,0,0.2,0,0.2,0
			c0.2,0.3,0.2,0.3,0.2,0.3c0.2,0.3,0.5,0.4,0.7,0.2s0.8-0.2,1.1,0c0.3,0.2,1.4-0.2,1.9,0.1c0,0,0,0,0.4,0.3c0,0-0.1,0.4-0.2,0.6
			c0,0.2,0,0.2,0,0.2c0,0.2,0.2,0.1,0.3-0.3c0.1-0.4,1.1-0.8,1-0.9s0.1-0.5,0.4-0.5c0.3,0,1.6,0.6,2.1,0.8c0.5,0.3,2.1-0.3,2.2-0.3
			c0.1,0,0.4,0.3,0.3,0.4c-0.1,0.1-0.4,0.5-0.6,0.7s0.3,1.6,1.1,1.8c0,0,0,0,0.3-0.9c0.3-0.7,0.3-0.7,0.3-0.7
			c-0.5-0.9-0.4-1.8,0.1-1.9c0,0,0,0,0.2,0.2c0.3,0.3,0.4,1,1,1c0,0,0,0.1,0,0.2c0.1,1,0.1,1,1,1.2c0.4,0.1,0.4,0.1,0.4,0.1
			c0.6,0.2,1,0.1,1-0.4s0.2-1.6,0.4-1.6c0,0,0,0,0.1,0.1c0.3,0.4,0.3,0.4,0.3,0.4c0.3,0.4,0.3,0.9,0,1s-0.2,1.2,0,1.3s1-0.7,1.1-0.5
			c0.1,0.2,0.5,0.5,0.6,0.5c0,0,0,0,0.1-0.1c0.1-0.1,0.1-0.1,0.1-0.1c0.1-0.1,0.3-0.4,0.5-0.5c0.2-0.2,0.9,0.7,1.1,0.4
			c0.1-0.3,0.7-0.7,0.9-0.6s1.1,0.4,1.3,0.3c0.2-0.1,0.6-0.6,0.7-0.3c0.1,0.3,0.4,1,0.6,1c0,0,0,0,0.1-0.1c0.9-0.6,0.9-0.6,0.9-0.6
			c0.9,0.6,1.7,1.2,1.8,1.3c0.1,0.1,0.5,0.3,0.6,0.3c0-0.1,0.1-0.5,0.2-0.9c0.1-0.3,0.9-0.1,1.1,0s0.8,0.1,0.8,0.3
			c0,0.2,0.8-0.1,1.1-0.4s1.3-0.5,1.5-0.7c0,0,0,0,0.2-0.2c0.1-0.1,0.3-0.2,0.3-0.2c0.9,1.1,0.9,1.1,0.9,1.1c0.1-1,0.5-1.6,1-1.5
			c0.5,0.2,1.1,1.6,1.1,1.4c0-0.2,0.2-0.7,0.3-0.8c0,0,0,0,0,0c0.3,0.4,0.7,0.7,0.9,1.1c0.1,0.1-0.2,0.5-0.2,0.8c0,0.3,0,0.3,0,0.3
			c0,0.3,0.2,0.6,0.5,0.6c0,0,0,0,0.1-0.1c0.6-0.7,0.8-0.4,1,0.4c0,0.1,0,0.1,0,0.1c0.3,0,0.6-0.2,0.6-0.5s0-0.7-0.2-0.8
			c-0.2-0.1,0.1-0.8,0.4-0.9c0.3-0.1,0.8,1,0.9,1.6c0,0,0,0,0,0.6c0,0.2-0.4,0.6-0.5,0.6c-0.8,0-0.8,0-0.8,0c-0.8-0.2-1.5,0-1.5,0.3
			c0,0.3,1.3,0.5,1.5,0.9s0.2,1,0.3,1.3c0,0.2-0.2,1.1-0.4,1.5c0,0,0,0-0.2,0.3c-0.3,0.4-0.6,0.8-0.9,1.1c0,0,0,0,0,0
			c-0.1,0-0.1-0.4-0.1-0.8s-0.6-1.7-0.8-1.4c-0.3,0.2-0.9,1-0.7,1.3c0,0,0,0,0.1,0.1c0.2,0.2,0.2,0.2,0.2,0.2
			c0.2,0.2,0.3,0.4,0.1,0.5c-0.1,0.1-0.3,0.6-0.2,0.8s2.7,0.7,2.5,0.8c-0.2,0.1-0.3,0.3,0,0.3c0.4,0,0.7,1.1,0.8,1.1
			c0.1,0,0.4-0.2,0.4-0.3c0-0.1,0-0.4,0.3-0.3c0,0,0,0,0.2,0.1l0,0c0.7,0.5,1.1,1,0.7,1c-0.3,0-1.2,0.4-1.2,0.7
			c0,0.3,0.3,0.9,0.6,1.3c0.2,0.4,1.4,0.6,1.5,0.5c0.1-0.1,0.6-0.4,0.9-0.2c0.3,0.2,1,0.3,0.8-0.2c-0.2-0.5,0.8-2.1,1.2-2.8
			c0,0,0,0,0.5,0c0.7,0,0.7,0,0.7,0c0.2-0.5,0.4-0.8,0.4-0.5c0,0.3,0.3,1,0.4,0.7s0.7-0.6,1.1-0.3c0.3,0.3,1.4,1.1,1.8,1
			c0.4-0.1,1.3-1.1,2.1-0.8c0,0,0,0,0.7,0.2c0,0,0.1-0.3,0.2-0.4c0.1-0.2,0.3-0.5,0.5-0.5c0.5,0.1,0.5,0.1,0.5,0.1
			c-0.1,0.5-0.3,1-0.5,1.3s0,1.5,0.8,1.9c0,0,0,0,0.4-1.3c0.1-0.3,0.6-0.5,0.9-0.6c0.1,0,0.4,0.2,0.5,0.4c0.1,0.3,0.1,0.6,0.4,0.2
			c0.3-0.3,0.6-0.4,0.7,0.1c0.1,0.3,0.3,0.8,0.2,1.1c-0.2,0.5-0.5,1-0.8,1.4c-0.3,0.5-0.3,0.5-0.3,0.5c0.2,0.5,0.8,1.1,1.3,1.4
			c0.5,0.3,1.6,0.4,2,0.4s1.9,1.3,2.1,1.7c0.2,0.4,1.4,0.7,1.5,0.8c0.1,0.1,0.1,1,0,1.9c0,0,0,0,0.4,0.8c0.2,0.3,0.2,0.3,0.2,0.3
			c0.1,0.4-0.1,0.9-0.5,1.1c0,0,0,0-0.3,0.4c-0.4,0.6-0.4,0.6-0.7,0.3c0,0-0.1-0.1-0.1-0.2c-0.5-0.5-0.5-0.5-0.5-0.5
			c-0.2,0.6-0.5,0.8-0.7,0.3c-0.1-0.4-1.4-0.5-1.7-0.4c-0.4,0.1-1.3,0.6-0.9,0.8c0.5,0.2,1.3,1,1.2,1.4c0,0,0,0,0.4,0.3
			c0.6,0.4,0.6,0.4,0.6,0.4c0.4-0.7,0.8-1.1,0.8-1c0,0.1,0.3,0.5,0.6,0.5c0.3,0.1-0.1,1.2-0.5,1.3c0,0,0,0-0.2,0.3
			c-0.3,0.4-0.3,0.4-0.3,0.4c-0.2,0.7-0.3,1.3-0.1,1.4c0.2,0.1,0.2,0.8-0.2,1.4c-0.4,0.6-1.4,2.1-1.3,2.2c0.1,0.1,0.4,0.5,0.2,0.8
			c0,0,0,0-0.2,0c-0.3,0-0.3,0-0.3,0c-0.3,0.1-0.7,0.7-0.8,1.2c0,0,0,0,0.4,0.4c0.1,0.1-0.5,2.6-0.6,2.8c-0.4,0.3-0.4,0.3-0.4,0.3
			c-0.4,0.4-0.8,0.9-0.8,1.2c0,0.3-0.5,1.2-0.6,1.6c0,0,0,0-0.2,0.3c-0.4,0.6-0.4,0.6-0.4,0.6c0.3,0.6,0.5,1.7,0.5,2.3
			c0,0,0,0-0.1,0.6c-0.1,0.8-0.1,0.8-0.1,0.8c0.5,0.1,0.7,0.4,0.5,0.7c-0.3,0.3-1.3,1.1-1.8,1.1c0,0,0,0-0.4,0c-0.7,0-0.7,0-0.7,0
			c-0.5,0.6-1,1.1-1.2,1.2c0,0,0,0,0,0c-0.4-0.8-0.8,0.4-1.2,0c-0.4-0.3-0.8-0.5-1.3-0.6c0,0,0,0,0,0c-0.2,0.5-0.6,0.7-1,0.4
			c-0.4-0.3-1.4,0.5-1.5,0.5c0,0,0,0,0,0c-0.3-0.4-0.8,0-1-0.2c-0.6-0.4-0.6-0.4-0.6-0.4c-0.5,0.3-1.3,0.3-1.8-0.1c0,0,0,0-0.5,0.6
			c-0.1,0.1-0.1,0.1-0.1,0.1c-0.2-0.1-1.1-0.4-1.9-0.7c0,0,0,0-0.7,0.7c-0.1,0.1-0.1,0.1-0.1,0.1c-0.2,0-0.6,0-0.9,0.1
			s-1.2-0.4-1.5-0.5s-1,0.1-1.2,0.3s-1.5,0-2.1,0c0,0,0,0-0.5,0c-0.2,0-0.6,0-0.7-0.1c-0.4-0.4-0.4-0.4-0.4-0.4
			c-0.3,0.2-1.1,0.6-1.6,0.8c0,0,0,0-0.5,0.2c-0.1,0.1-0.2,0.3-0.3,0.4c-0.3,0.4-0.3,0.4-0.3,0.4c-0.1-0.4-0.4-0.7-0.6-0.6
			c-0.2,0.1-0.7,1-0.7,1.8c0,0,0,0,0,0.7c0,0.1,0,0.1,0,0.1c-0.9,0-1.9,0.1-2.2,0.3c0,0,0,0,0.1-0.1c0.9-1,0.9-1,0.9-1
			c0,0.9,0.2,1.6,0.4,1.5c0.3-0.1,0.3-1.1,0.3-1.4c0-0.4-0.4-1.4-0.5-1.5c-0.1-0.1-0.8,0.5-1,0.8s1.3,1.9,2.4,2.4c0,0,0,0,0.3-0.4
			c0.4-0.4,0.4-0.4,0.4-0.4c0.3-0.7,1-1.2,1.5-1s1.6,1,1.6,0.4c0,0,0,0,0.1-0.3c0-0.1,0-0.1,0-0.1c0.3,0,0.5,0,0.5,0.2
			c0,0.1,0,0.5,0.2,0.6c0.2,0,0.7,0.3,0.6,0.5c0,0,0,0,0,0c-0.5-0.1-0.5-0.1-0.5-0.1c-0.5,0.5-0.5,1-0.2,1.1c0,0,0,0,0.1-0.1
			c0.5-0.6,0.5-0.6,0.5-0.6c0.6,0,1.4,0.1,1.7,0.3s1.1-0.6,1.2-0.7c0,0,0,0,0.1,0.1c0.3,0.2,0.3,0.2,0.3,0.2
			c0.3,0.3,0.9,0.3,1.2,0.2c0,0,0,0,0.3,0.4c0.1,0.1,0.4,0,0.6-0.1c0.1,0,0.1,0,0.1,0c0.1,0,0.3,0.2,0.3,0.5c0,0,0,0,0,0.2
			c0,0.3,0,0.3,0,0.3c0,0.3-0.2,1-0.5,1.6c0,0,0,0-0.6,0c-0.6,0-0.6,0-0.6,0c-0.9,0-0.8,0.7,0.2,1.5c0,0,0,0,1-0.1
			c0.4,0,0.4,0,0.4,0c0.2-0.4,0.6-0.8,0.9-0.9c0,0,0,0,0.1,0.1c0.3,0.4,0.3,0.4,0.3,0.4c0,0.7,0.2,1.6,0.4,1.8c0,0,0,0,0.3-0.1
			c0.1,0,0.2-0.4,0.2-0.5c0-0.1,0-0.1,0-0.1c-0.2-0.1-0.6-0.1-0.9,0c0,0,0,0-0.4-0.1c-0.2-0.1-0.5,0.3-1.1,0.1
			c-0.7-0.3-0.7-0.3-0.7-0.3c-0.9,0.3-2,1-2.3,1.5c0,0,0,0,0.4,0.6c0.1,0.1,0.1,0.1,0.1,0.1c0.2,0.1,0.9-0.4,1.6-1.2
			c0,0,0,0,0.9,0.5l1.5,1.2c0.6-1,0.6-1,0.6-1c-0.3-0.7-0.5-1.6-0.3-2c0.2-0.4,0.9-1.1,1.4-0.5c0,0,0,0,0.2,0.4
			c0.1,0.2,0,0.5-0.1,0.7c-0.1,0.3-0.1,0.3-0.1,0.3c-0.2,1.1,0.1,1.8,0.5,1.7c0.5-0.1,1.2,1.4,1,1.6c-0.2,0.2-0.8,1-0.4,0.9
			c0.4-0.1,4.2-0.8,4.7-1.1c0.6-0.3-0.2-0.5-1-0.4c0,0,0,0-0.7,0.4c-0.2,0.1-0.2,0.1-0.2,0.1c-0.2,0-0.4,0-0.4-0.1
			c0-0.1,0-0.5-0.3-0.7c0,0,0,0,0,0.1c-0.3,0.4-0.5,0.8-0.7,1.2c-0.2,0.3-0.2,0.3-0.2,0.3c0.2,0.4,0.7,0.9,1.1,1
			c0.4,0.2,1.2-1,1.3-1.1s0.5,0.1,0.5,0.8c0,0,0,0,0.7-0.4c0.4-0.2,0.4-0.2,0.4-0.2c-0.9-0.1-2.2-0.5-2.9-0.8
			c-0.7-0.3-0.7-1.2-0.5-1.5s0.7-1,0.7-0.9c0,0,0,0,0,0.1c0.1,0.4,0.1,1,0.3,1.2c0.6,0.3,0.6,0.3,0.6,0.3c0-0.6,0.2-1.2,0.3-1.4
			c0.1-0.2,1.8,0.2,3,0.6c0,0,0,0,1.1-0.7c0.4-0.3,0.4-0.3,0.4-0.3c-0.1,0.4,0,0.9,0.2,1.1s0.7,0.5,0.8,0.2s0.5-0.8,1-0.7
			c0.5,0.2,0.1,1.8,0.3,2.1c0.2,0.3,1.6,0.4,2.6-0.2c0,0,0,0,1-0.4c0.1-0.1,0.1-0.1,0.1-0.1c0.3,0.5,0.7,0.8,0.7,0.7
			s0.4-0.4,0.4-0.5c0,0,0,0,0,0c-0.4-0.3-0.4-0.3-0.4-0.3c-0.4-0.3-1-0.6-1.2-0.6c0,0,0,0-0.2,0c-0.1,0-0.3,0.1-0.4,0
			c-0.9-0.6-0.8,0.1-0.8,0.7c0,0.1,0,0.1,0,0.1c-0.1,0.1-0.2,0-0.2-0.3c0-0.3-0.8-0.5-1-0.7c0,0,0,0,0-0.2c0-0.1,0.3-0.4,0.4-0.3
			c0.5,0.2,0.9-0.7,1.5-0.1c0.1,0.1,0.1,0.1,0.1,0.1c0.6-0.5,1.1-0.6,1.2-0.3c0,0,0,0,0.2,0.2c0.1,0.1,0.1,0.1,0.1,0.1
			c0.3-0.2,0.7-0.5,1-0.7c0.2-0.2,1.1-0.5,1.2-0.2c0.1,0.3,0.5,1.2,0.5,1.1c0,0,0,0,0.1,0c0.7-0.3,0.7-0.3,0.7-0.3
			c0.8-0.3,1.8-0.4,2.2-0.2c0,0,0,0,0,0.1c0,0.8,0.3,1.7-0.3,2.3c-0.1,0.1,0,0.5,0.1,0.6c0.1,0.1,0.4,0.1,0.5,0
			c0.2-0.3,0.3-0.7,0.5-1.1c0.1-0.2,0.1-0.2,0.1-0.2c0.2-0.2,0.3-0.2,0.4,0.1c0.1,0.3,0.4,1,0.6,1.1c0.2,0.1,0.7-0.1,0.9,0.1
			c0.1,0.2,0.6,0.5,0.7,0.3c0-0.2,0.3-0.4,0.4-0.2s0.9,0.6,1.3,0c0,0,0,0,0.4-0.4c0,0,0,0,0,0c0.3,0.4,0.4,0.8,0.3,1
			s-0.4,0.8-0.2,0.8s0.8,0.4,0.7,0.6c-0.1,0.3-0.1,1.1,0.2,1.2c0.3,0.1,0.6,0.6-0.2,1.1c0,0,0,0-0.6,0.4c-0.2,0.2-0.4,0.4-0.5,0.7
			c-0.1,0.3-0.1,0.7,0.1,0.9c0.1,0.2,0.5,0.2,0.7,0.2c0.4-0.2,0.4-0.2,0.4-0.2c0-0.5,0.1-1.1,0.2-1.3c0,0,0,0,0.2-0.1
			c0.5-0.3,1.8,0.5,1.9,1c0,0.2,0,0.2,0,0.2c-0.2,0.2-0.6,0.6-0.9,0.9c-0.3,0.3-1,1.2-1,1.3c0,0.1-0.3,0.1-0.5-0.3c0,0,0,0-0.2-0.1
			c-0.2-0.1-0.2-0.1-0.2-0.1c-0.4,0.4-0.5,0.8-0.3,1c0.2,0.2,0.9,1.6,0.8,2.7c0,0,0,0,0,1.1c0,1.2,0,1.2,0,1.2
			c-0.8,0.7-1.5,1.1-1.5,0.9c0-0.2-0.3-0.7-0.5-0.5c-0.2,0.2-0.1,1.3-0.3,1.3s-0.7,0.5-0.4,0.9c0,0,0,0,0.2,0c0.3,0,0.7-0.3,1-0.4
			c0.3,0,0.7-0.2,0.7,0.4c0,0.3-0.1,0.8-0.3,0.9c-0.6,0.3-0.6,0.3-0.6,0.3c-0.6,0.2-1.1-0.5-1-1.4c0,0,0,0-0.9,0.2
			c-0.7,0.2-0.7,0.2-0.7,0.2c0.3,0.8,0.3,1.5-0.1,1.5c-0.3,0-1.3-0.1-1.3-0.3s-0.3-0.7-0.5-0.3c-0.2,0.3-0.9,1.2-1,0.9
			c0-0.3-0.3-1-0.5-0.7c-0.2,0.3-1.2,0.9-2,0.8c0,0,0,0-0.5,0.4c-0.5,0.4-0.5,0.4-0.5,0.4c-0.5-0.1-1.4,0-2,0c0,0,0,0-0.5,0
			c-0.2,0-0.2,0-0.2,0c-0.2,0.1-0.8,0-1.4-0.1s-2.3,0.4-2.4,0.3s-0.8-0.2-1.1-0.3c-0.3,0-1.2,0.1-1.5-0.2s-1.4,0.8-1.9,1.1
			c0,0,0,0-0.1-1.1c0-0.4,0-0.4,0-0.4c-0.4,0.2-0.9,0.5-1.1,0.6c-0.2,0.1-0.7,0.6-0.8,0.3c-0.1-0.3-1.3,0.1-1.6,0.1
			c-0.3,0.1-1.3-0.2-1.4-0.3c-0.2-0.1-0.7,0.5-0.9,0.6c-0.1,0.1-0.7-0.1-0.9-0.2c-0.2-0.1-1,0.1-1.5,0.4c-0.5,0.3-2.3-0.6-2.8-0.6
			c-0.5-0.1-1.9,0.9-2.2,1c-0.2,0.1-1.1-0.1-1.5,0.4c0,0,0,0-0.6-0.6c-0.3-0.3-1,0.2-1.5,0.2c-0.4,0-0.8-0.2-1.2-0.3
			c-0.3,0-0.6,0.2-0.9,0.3c-0.7,0.3-0.7,0.3-0.7,0.3c0-0.6,0-0.8,0-0.4c0,0.4-1.1-0.1-1.5,0.1c0,0,0,0-0.4,0
			c-1.5-0.2-1.5-0.2-1.5-0.2c-1.7-0.1-3.6-0.2-4.2-0.1s-2.2,0.6-2.4,0.7c-0.1,0.1-0.7,0.2-1.3,0.3c0,0,0,0-0.2-0.2
			c-0.5-0.7-1,0-1.4-0.2c-0.6-0.4-0.6-0.4-0.6-0.4c-0.6,0.1-1.3,0.1-1.7,0c-0.3-0.1-1.6,0.6-2.3,0.7c0,0,0,0-0.7-0.5
			c-0.4-0.3-0.4-0.3-0.4-0.3c-0.7,0.2-1.4,0.3-1.6,0.2s-0.8,0.2-0.9,0c-0.1-0.2-0.7-0.6-1-0.4c-0.3,0.2-1.4,0.8-1.7,0.8
			c-0.3,0-1.1-0.2-1.3-0.3c-0.2-0.2-1.5,0.4-2.3,0.7c-0.8,0.2-3-0.4-3.2-0.2s-0.9-0.3-1.1-0.4s-0.7,0.1-0.7,0
			c-0.1-0.2-0.3-0.5-0.4-0.3c-0.1,0.2-0.6,0.5-0.9,0.2c-0.4-0.3-1.6,0.5-1.9,0.5c0,0,0,0-0.2-0.1c-0.6-0.5-1.2-0.5-1.8,0
			c-0.6,0.5-1.1-0.7-1.5-0.3c-0.5,0.5-1.1,0.6-1.6,0.3c-0.4-0.2-0.5-0.2-0.8,0c-0.2,0.1-0.7-0.3-0.7-0.2c-0.3,0.7-0.6-0.3-0.8,0
			c-0.2,0.3-0.3,0.2-0.6,0c-0.5-0.4-0.5-0.4-0.5-0.4c-0.6,0.1-1.9,0.4-2.8,0.5c-1,0.2-4.3,0-4.7,0.1c0,0,0,0-0.4,0
			c-1.1,0-1.1,0-1.1,0c-1.2,0-2.4,0.1-2.7,0.3c-0.3,0.2-1.7-0.2-2.3-0.3c0,0,0,0-0.5,0c-0.6,0-1.3,0-1.9,0c-0.4,0-0.4,0-0.4,0
			c-0.2-0.4-0.3-0.7-0.4-0.7c-0.1,0-0.4,0.2-0.6,0.3c-0.2,0.2-0.8,0.6-1,0.4s-1.6,0.3-2.5,0.3c-1,0-3.8-0.4-4.1-0.5
			c-0.3-0.1-1.4,0.4-1.7,0.1c-0.3-0.3-1.5,0.3-1.8,0.4c-0.3,0-1.6,0.2-2,0.2c-0.4,0.1-1.7-0.5-2-0.4c-0.3,0.1-1.4,0.1-1.8,0
			c-0.3-0.1-1.8,0.1-2.4,0.1c0,0,0,0-0.6-0.2c-0.5-0.2-0.5-0.2-0.5-0.2c-0.8,0.3-2.3,0.5-3.3,0.5c-1,0-4.3,0.1-5.1,0.3
			c0,0,0,0-0.2-1.2c0-0.1,0-0.1,0-0.1c-0.5,0-0.9,0.2-0.8,0.3c0.1,0.2,0,0.6-0.3,0.6s-1.5,0.2-2,0.4c0,0,0,0-0.5-0.4
			c-0.3-0.2-0.3-0.2-0.3-0.2c-0.2-0.3-0.5-0.5-0.7-0.6c0,0,0,0-0.1,0.1c-0.1,0.2-0.3,0.6-0.3,0.6c-1.5-0.3-1.5-0.3-1.5-0.3
			c-1.7,0.4-3.1,0.5-3.1,0.2c0-0.3-0.4-1-0.8-0.8c0,0,0,0-0.3,0c-0.6-0.1-0.4,0.7-0.7,0.8c-0.3,0.2-0.6,0-0.9,0.1
			c-0.3,0.1-0.7,0.3-1,0.4c-0.2,0-0.2,0-0.2,0c-0.2-0.1-0.7-0.3-1-0.4c-0.3-0.1-1.2,0.1-1.4,0.3c-0.2,0.1-1.2-0.1-1.5,0
			c-0.3,0.1-1.8,0.2-2.7,0.5c0,0,0,0-0.8-0.7c-0.2-0.2-0.7-0.2-0.9,0c-0.6,0.6-0.6,0.6-0.6,0.6c-0.7-0.3-1.6-0.6-2-0.7
			c0,0,0,0-0.1,0.1c-0.4,1-0.9-0.3-1.4,0.2c-0.4,0.5-0.4,0.5-0.4,0.5c-0.5-0.4-1.4-0.8-2.1-1c0,0,0,0-0.6,0.5
			c-0.4,0.4-0.4,0.4-0.4,0.4c-0.3-0.6-1-1-1.5-0.8c0,0,0,0-0.1,0.3c-0.3,0.6-0.6-0.3-0.8,0c-0.1,0.1-0.1,0.1-0.1,0.1
			c-0.1,0.1-0.6,0-1.2-0.1c-0.6-0.2-3.7,0.3-3.8,0.4c0,0,0,0-0.1-0.1c-0.4-0.5-0.9-0.7-1.3-0.3c-0.5,0.6-0.6-0.5-1.1-0.2
			c-0.4,0.2-0.4,0.2-0.4,0.2c-0.6-0.3-1.8-0.4-2.7-0.2c0,0,0,0-0.8,0.1c-0.5,0-1.3,0.1-1.4-0.1c-0.4-0.8-0.4-0.8-0.4-0.8
			c-0.4,0.3-0.8,0.6-0.9,0.6s-0.7,0-1.1-0.1c0,0,0,0-0.4,0c-0.3,0-0.7,0.3-1,0.4c0,0,0,0,0,0c-0.1-0.3-0.3-0.6-0.5-0.8
			c-0.2-0.2-0.5,0.5-0.7,0.9c0,0,0,0-0.4,0c-0.5-0.1-0.5-0.1-0.5-0.1c-0.5,0-1.4,0.1-2,0.2c0,0,0,0-0.5-0.1
			c-0.5-0.1-0.5-0.1-0.5-0.1c-0.6,0-1.2-0.1-1.2-0.4c0-0.3-0.1-0.9-0.2-0.9c0,0-0.1,0.2-0.2,0.5c0,0.3-0.4,0.9-0.7,0.9
			c0,0,0,0-0.1-0.1c-0.5-0.8-0.5-0.8-1.2-0.1c-0.1,0.1-0.1,0.1-0.1,0.1c-0.1,0.1-0.7,0.2-1.5,0.3s-2.6-0.8-2.8-0.6
			c-0.2,0.2-0.6-0.2-0.4-0.4c0.2-0.2,0.6-1,0.2-0.8c-0.4,0.1-1.2,1-1.4,1.3c0,0,0,0-0.1,0c-0.3,0-0.6-0.3-0.8-0.3
			c-0.3,0-0.5,0.3-0.8,0.3c-0.3,0-0.7,0.1-0.9-0.1c-0.9-0.5-0.9-0.5-0.9-0.5c-0.9,0.3-2,0.6-2.3,0.6c0,0,0,0-0.3-0.1
			c-0.4-0.2-1.5-0.5-1.9-0.3c-0.8,0.4-0.8,0.4-0.8,0.4c-0.8-0.5-1.5-0.6-1.6-0.4c-0.1,0.3-2,0-3.1-0.1c0,0,0,0-1,0
			c-0.8,0-0.8,0-0.8,0c-0.8-0.1-2.1,0.1-2.8,0.3c0,0,0,0-0.7-0.3c-0.4-0.2-1.4-0.5-1.7-0.8c-0.2-0.1-0.6,0-0.6,0
			c-0.1,0.9-0.4,1-1,0.4c0,0,0,0,0,0c-0.1,0-0.7,0.2-1.5,0.4c0,0,0,0-0.6-0.2c-0.7-0.2-1.2-0.5-1.9,0.1c-0.2,0.2-0.6,0-0.9-0.1
			c-0.2-0.1-0.2-0.1-0.2-0.1c-0.2-0.1-0.7,0-0.9,0.2s-1.5-0.2-1.8-0.2c-0.3-0.1-1.8-0.1-2.5,0.1c0,0,0,0-0.5-0.7
			c0,0-0.2,0.2-0.3,0.2c-1.6,0.4-1.6,0.4-1.6,0.4c-0.9-0.3-1.7-0.5-1.8-0.5s-1.3,0.1-2.3,0.1c0,0,0,0-0.9,0.2c-0.1,0-0.1,0-0.1,0
			c-0.2-0.5-0.4-0.6-0.4-0.3s-1.7,0.5-2.6,0.7c0,0,0,0-0.8-0.8c-0.1-0.1-0.1-0.1-0.1-0.1c-0.2,0.1-0.9,0.3-1.4,0.3c0,0,0,0-0.5-0.2
			c-0.4-0.2-0.7,1-1.3,0.2c-0.1-0.1-0.4,0-0.6,0c-0.1,0-0.3,0.1-0.4,0.1c-0.2,0-0.2,0-0.2,0c-0.2-0.1-0.8,0-1.3,0.2c0,0,0,0-0.3-0.5
			c-0.4-0.8-0.7,0.5-1.2,0c-0.5-0.5-0.2-1.2-0.5-1.6c-0.1-0.2-0.6-0.2-0.9-0.1c-0.5,0.3-0.5,0.3-0.5,0.3c-0.4,0.5-0.7,0.9-0.6,0.9
			c0.1,0.1,0,0.3-0.5,0.5c0,0,0,0-0.5-0.1c-0.3-0.1-0.6-0.3-0.9-0.3c-0.9,0.1-0.9,0.1-0.9,0.1c-0.5-0.8-1-1.1-1-0.9
			c0,0.3-0.4,1.4-0.9,1.4c-0.5,0-1.7-0.9-1.7-0.8c0,0,0,0-0.1,0.1c-0.1,0.2-0.1,0.2-0.1,0.2c-0.1,0.2-0.7,0.3-1.2,0.2
			s-2.1-0.5-2.3-0.7c-0.2-0.2-0.7-0.2-0.7,0.1c0,0.3-0.8,0.3-0.8,0.3c0,0-0.2-0.6-0.2-1.3c0,0,0,0-0.8,0.7c-0.4,0.3-0.9,0.5-1.3,0.6
			c-0.2,0.1-0.2,0.1-0.2,0.1c-0.4,0-0.7-0.4-0.7-0.8c0,0,0,0,0-0.4c0-0.4,0-0.8-0.5-0.7c-0.5,0.1-0.3,0.6-0.3,0.9c0,0.1,0,0.1,0,0.1
			c-0.1,0.3-0.3,0.3-0.4,0.1c-0.1-0.2-0.7-0.5-0.9,0.1c0,0,0,0-0.2,0.3c-0.1,0.1-0.3,0.3-0.4,0.3c-0.1,0-0.1,0-0.1,0
			c-0.1-0.2-0.3-0.7-0.4-1c-0.1-0.4-0.8-0.5-0.7-0.4c0.2,0.1,0,1-0.8,1.8c0,0,0,0-0.7-0.9c-0.3-0.4-0.3-0.4-0.3-0.4
			c-0.3,0.2-0.7,0.5-1,0.7c-0.3,0.2-1.6-0.5-1.7-0.6c0,0,0,0-0.1,0c-0.1,0-0.1,0-0.1,0c-0.1,0.1-0.2,0.2-0.1,0.3s-0.4,0.6-1.3,0.8
			c0,0,0,0-0.4-0.3c-0.7-0.5-0.7-0.5-0.7-0.5c-0.7,0.2-1.1,0.2-1.1-0.1s-0.3-1.5-1.1-2.1c0,0,0,0-1,0.8c-0.6,0.5-0.6,0.5-0.6,0.5
			c-1-0.4-1.7-0.8-1.4-0.8c0,0,0,0,0-0.1c0.3-0.9,0.3-0.9,0.3-0.9c0.6,0.2,1.3,0.4,1.4,0.4c0.1,0,0.2-0.7-0.5-0.7c0,0,0,0-0.4-0.3
			c-0.8-0.7-0.8-0.7-0.8-0.7c-0.3,0.7-0.5,1.2-0.5,1s-0.3-0.6-0.5-0.7s-0.7,0.5-0.7,0.7c-0.1,0.2-0.5,0.8-0.9,1.1s-0.8,2.1-0.9,1.8
			c0-0.3-0.4-1.2-0.6-1.2S97.4,88,97.3,88s-0.6,0.1-0.3,0.3c0.2,0.1,0.8,0.7,0.8,0.9c0,0,0,0,0,0.1c0,0.1-0.2,0.2-0.2,0.2
			c-0.4-0.2-0.4-0.2-0.4-0.2c-0.5-0.2-0.9-0.7-0.9-0.9s-0.2-1-0.4-0.9c-0.2,0.1-0.4,1.2-0.5,1.5c-0.1,0.3-1,0.2-1,0.1
			c-0.1,0-0.3-0.8,0-1.5c0.3-0.7,0.4-2,0-1.4c-0.4,0.7-1.6,2.2-1.8,1.9c-0.2-0.2-0.8,0.5-0.9,0.8c-0.1,0.3-1.1,0.4-1.2,0
			c-0.2-0.4,1.1-1,1.4-1.2c0.3-0.2,1.3-0.7,1.3-0.8s0.1-0.8,0.1-1c0,0,0,0-0.1,0c-0.2-0.1-0.4-0.1-0.5,0c-0.3,0.4-0.3,0.4-0.3,0.4
			c-0.2,0.5-0.5,0.8-0.6,0.8c-0.1,0-0.3-0.3-0.4-0.5c0-0.2-0.4-1-0.5-1.3c-0.1-0.2-0.6-0.8-0.7-0.7c-0.1,0.1-0.6,0.6-0.9,1.1
			c0,0,0,0,0.3,0c0.7,0.1,0.7,0.1,0.7,0.1c0.3,0.6,0.6,1.2,0.6,1.3c0,0.1-0.2,0.5-0.6,0.5c0,0,0,0-0.3,0.1c-0.2,0-0.2,0-0.2,0
			c-0.2,0.1-0.5,0.3-0.6,0.3c-0.1,0.1-0.5-0.2-0.6-0.1s-0.6,0.3-0.7-0.1c-0.1-0.3-0.9-1.1-1.3-0.7c0,0,0,0-0.3,0.3
			c-0.3,0.3-0.3,0.3-0.3,0.3c-0.2-0.2-0.8-0.7-1.2-1c0,0,0,0-0.3-0.5c-0.3-0.5-0.3-0.5-0.3-0.5c-0.4,0.3-0.9,0.7-1.2,0.8
			c0,0,0,0-0.1,0.2c-0.2,0.4-0.2,0.4-0.2,0.4c-0.2,0.5-0.8,0.8-1.2,0.6c-0.4-0.2-1.2-1-1.4-1.1c-0.3-0.1-0.9-0.2-0.8,0.3
			c0,0,0,0-0.1,0.1c-0.2,0.2-0.5,0.3-0.7,0.5c-0.1,0.1-0.1,0.1-0.1,0.1c0.1,0.3,0.1,0.6,0,0.7s-0.5-0.2-0.6-0.5s-1.2-1.2-1.9-1
			c0,0,0,0,0.1,1.3c0,0.4-0.9,0.5-1.1,0.2c-0.2-0.4-0.1-0.7,0.4-0.8c0.1,0,0.4-0.5,0.3-0.6c-0.2-0.5-0.2-0.5-0.2-0.5
			c-0.2,0.3-0.7,0.5-1.2,0.5s-1.8,0.6-1.9,0.4c0,0,0,0-0.2,0c-0.2-0.1-0.5-0.1-0.6,0c-0.6,0.5-0.6,0.5-0.6,0.5
			c-0.6-0.3-1.2-0.5-1.3-0.6c-0.1,0-0.7,0-1.2,0.1c0,0,0,0-0.4-0.4c-0.1-0.1-0.1-0.1-0.1-0.1c-0.3-0.1-0.5,0-0.6,0.3
			c0,0.3-0.6,1.2-1.1,1.2c-0.5,0-1.9-0.1-1.9,0c0,0,0,0-0.1,0.1c-0.1,0.1-0.1,0.1-0.1,0.1c-0.1,0.2-0.2,0.2-0.2,0c0,0,0,0-0.1-0.1
			c-0.2-0.3-0.2-0.3-0.2-0.3c-0.2-0.3-0.7-0.2-1.2,0.2c0,0,0,0-0.1-0.1c-0.5-0.6-0.5-0.6-0.5-0.6c-0.3,0.4-0.8,0.6-0.9,0.5
			c-0.2-0.1-1.1,0.1-1.4-0.1c-0.4-0.2-1.5,0.5-1.8,0.5c-0.3,0.1-1.3-0.3-1.7,0c0,0,0,0-0.5-0.6C55,87.7,55,87.7,55,87.7
			c-0.6,0.3-1.5,0.5-2,0.5c0,0,0,0-0.4,0.3c-0.4,0.3-0.4,0.3-0.4,0.3c-0.5-0.3-1-0.7-1.3-1.1c0,0,0,0-0.4,0.6
			c-0.3,0.5-0.6-0.3-0.9-0.3c-0.3,0-0.8,0.5-1,0.4c-0.5-0.5-1-0.5-1.6-0.4c-0.7,0.1-1.4-0.4-2,0.4c-0.1,0.1-0.1,0.1-0.1,0.1
			c-0.2,0-0.5-0.2-0.8-0.3c-0.3-0.2-1.5-0.4-2.1-0.1c0,0,0,0-0.5-0.1c-1-0.2-2.1-0.6-3.1-1c-0.2-0.1-0.3-0.6-0.5-0.9
			c-0.1-0.1-0.3-0.3-0.4-0.3c-0.2,0-0.5,0.3-0.7,0.2c-0.1,0-0.1,0-0.1,0c-0.1-0.4-0.4-0.8-0.8-1c-0.4-0.2-1.5,0.1-1.7,0.1
			c0,0,0,0-0.2-0.2c-0.5-0.5-1.2-0.6-2.2-0.6c-0.1,0-0.3-0.5-0.3-0.5c0.2-0.4,0.7-0.6-0.2-0.7c-0.4-0.1-0.3-0.6-0.1-0.9
			c0.1-0.2,0.1-0.2,0.1-0.2c0.1-0.2,0.2-0.6,0-0.8c-0.1-0.3,0.4-0.7,0.6-0.4c0.2,0.2,1-0.1,1.2,0.1c0,0,0,0,0.1,0.3
			c0.1,0.2,0,0.5,0,0.7c0,0.2,0.2,0.3,0.4,0.4c0.1,0,0.1,0,0.1,0c0.1-0.1,0.4-0.5,0.6-0.9s0.7-1.8,0.6-2.1c-0.1-0.4-1.3,0-1.6-0.2
			c0,0,0,0,0-0.2c-0.1-0.6-0.1-0.6-0.1-0.6c-0.3-0.5-0.6-0.7-0.7-0.5c-0.1,0.3-0.3,1.4-0.6,1c-0.3-0.4-1.7-1.1-1.9-1.3
			c-0.2-0.3,0.4-1.1,0.7-0.9c0.3,0.3,1.1,0.9,1.2,0.8c0.1-0.1,0.4-0.8,0.6-1.3c0,0,0,0,0.5,0.4c0.1,0.1,0.6,0.1,0.6,0
			c0.2-0.3,0.1-0.6-0.3-0.8C33,75.6,33,75.6,33,75.6c-0.3-0.6-0.3-1.2,0-1.4c0,0,0,0,0.2-0.3c0.1-0.2,0.1-0.2,0.1-0.2
			c-0.1-0.3-0.2-0.7-0.4-0.8c-0.1-0.1-1-0.7-1.6-0.9c0,0,0,0-0.2,0.7c-0.2,1.1-0.2,1.1-0.2,1.1c-0.7-0.3-1.1-0.6-0.9-0.7
			c0.2-0.1,0.6-0.4,0.5-0.5c-0.1-0.1-0.5-0.6-0.8-1c0,0,0,0-0.3-0.3c-0.2-0.3-0.2-0.3-0.2-0.3c-0.3,0.1-0.9,0-1.2-0.2
			c0,0,0,0-0.3-0.1c-0.4-0.1-0.8,0-1.1,0c-0.6,0-1.3-0.1-1.9,0c-0.6,0.1-1.1-0.4-1.7-0.2c-0.3,0.1-0.7-0.2-1-0.4
			c-0.4-0.3-0.4-0.3-0.4-0.3c-0.5,0-1.4-0.1-2.1-0.2c-0.6-0.1-2.7-1.5-3.5-1.8c0,0,0,0-0.7-0.2c-0.5-0.1-0.5-0.1-0.5-0.1
			c-0.5-0.1-1.2-0.2-1.5-0.3c0,0,0,0-0.3-0.2C11.7,66,11.7,66,11.7,66c0.2-0.9,0.4-2.1,0.6-2.5c0,0,0,0-0.9,0.2
			c-0.4,0.1-0.7-0.2-0.6-0.7c0.1-0.3,0.1-0.3,0.1-0.3c0.1-0.4,0-0.9-0.1-1c-0.1-0.2-0.4-0.8-0.3-0.9s0.8-0.7,1-1.1c0,0,0,0-0.5-0.2
			c-0.4-0.2-0.6-0.4-0.4-0.8c0.3-0.6,0.3-0.6,0.3-0.6c-0.3-0.3-0.9-1.7-1.2-3.1c0,0,0,0-0.7-1.1C9,53.5,9,53.5,9,53.5
			c0.3-0.8,0.4-1.4,0.2-1.5c-0.2,0-0.5-0.4-0.3-0.7s0-1.4,0.2-1.5c0.2-0.1,0.7-0.7,0.6-1.3c0,0,0,0-0.1-0.5
			c-0.1-0.5-0.4-1.1-0.3-1.6c0.1-0.5,0.4-1.1,0.7-1.4c0.2-0.3,0.8-0.1,1-0.4c0.3-0.5,0.3-0.5,0.3-0.5c0.4,0.1,0.8,0.1,1,0.2
			c0.2,0,1.2-1.3,1.4-1.1c0.2,0.1,1.3-0.4,1.7-0.4c0,0,0,0,0.4-0.2c0.3-0.1,0.8,0.4,1.1,0.2c0.4-0.3,0.6-0.2,1,0
			c0.2,0.2,0.7,0.1,1-0.1c0.8-0.5,0.8-0.5,0.8-0.5c-0.1,0.6,0.5,0.4,1.3-0.4c0,0,0,0,1.2,0.3c0.2,0,0.2,0,0.2,0
			c0.2-0.2,0.6-0.3,0.7-0.2c0.2,0.1,1.1,0,1.8-0.7c0,0,0,0,1,0.6c0.3,0.2,1.1-0.4,1.2-0.2c0.5,0.7,0.5,0.7,0.5,0.7
			c0.4-0.4,1.1-1,1.6-1.3c0,0,0,0,0.4-0.1c0.4-0.1,1-0.1,1.4,0c0.7,0.2,1.4,0.4,2.1-0.1c0.6-0.4,0.6-0.4,0.6-0.4
			c0.8,0,1.4,0.1,1.5,0.2c0,0,0,0,0.1,0.1c0.2,0.3,0.2,0.3,0.2,0.3c0.2,0.3,0.6,0.2,0.8-0.3c0.2-0.5,1.9-0.1,2.4,0
			c0.5,0,2.1-0.9,2.5-0.9c0,0,0,0,0.4,0c0.9,0,1.3,0,1.7-0.2c0.2-0.1,0.3-0.3,0.5-0.2c0.3,0,0.3,0,0.3,0c0.3-0.2,0.8-0.4,1.2-0.6
			c0,0,0,0,0.3,0.1c0.3,0.1,0.3,0.1,0.3,0.1c0.2,0.4,0.4,0.3,0.4-0.3c0,0,0,0,0.7,0.2c0.5,0.1,1,0.3,1.4-0.3c0,0,0.2,0,0.3,0.1
			c0,0.4,0.1,0.8,0.5,0.7c0.2-0.1,0.2-0.7,0.5-0.8c0.5-0.3,1-0.5,1.5-0.5c0.6,0,0.6,0,0.6,0c0.7,0.1,1.5,0.1,1.7-0.1
			c0.3-0.1,1.2-0.3,1.5-0.3c0.2,0,1.1,0.1,1.2,0c0.1-0.1,0.5-0.4,0.5-0.3c0,0.2,0.4,0.5,0.7,0.3c0.3-0.2,1.2-0.5,1.4-0.3
			c0.2,0.2,0.9,0.7,1,0.5c0.2-0.1,0.5-0.8,0.7-1.1c0.2-0.3,1.1-0.1,1.4-0.3c0,0,0,0,0.3,0c0.4,0,0.4,0,0.4,0c0.5,0,1.3,0.1,1.8,0.2
			c0,0,0,0,0.5,0.1c0.1,0,0.3,0,0.4-0.1c1-0.8,1-0.8,1-0.8c0.6,0.6,1.2,0.8,1.2,0.6s0.3-0.9,0.6-0.7c0,0,0,0,0.2,0.1
			c0.2,0.1,0.2,0.1,0.2,0.1c0.2,0,0.7-0.3,1-0.8c0,0,0,0,0.5-0.1c0.2,0,0.2,0,0.2,0c0.2-0.4,0.2-0.9,0-1.2c0,0,0,0-0.3-0.1
			c-0.4-0.1-0.4,0.3-0.5,0.7c0,0.1-0.4,0.2-0.7,0.2c-0.5,0.1-1.1,0.5-1.5,0.3c-0.6-0.4-1.1-0.2-1.6-0.2c-0.6-0.1-1.1,0-1.7,0
			c-0.6,0-1.2-0.1-1.7,0c-0.8,0.1-1.1-0.7-1.5-1.2c-0.5-0.6-0.5-0.6-0.5-0.6c-0.5,0-1.2,0.1-1.5,0.2c-0.3,0.1-0.7,0.2-0.9,0.2
			c-0.2,0-0.9-0.6-1.1-0.7s-1.1-0.6-1.2-0.3c0,0,0,0-0.1,0.3c-0.2,0.4-0.1,0.4,0.4,0.4c0.1,0,0.3,0.1,0.3,0.1c0,0.2,0,0.6-0.1,0.6
			c-0.4,0.1-0.9,0.5-1-0.3c0-0.4,0-0.4,0-0.4c0.1-0.5,0.2-1.1,0.2-1.2c0-0.1,0-0.4-0.1-0.4c0,0,0,0-0.1,0c-0.2,0.1-0.3,0.1-0.5,0.1
			c-0.7,0.2-0.7,0.2-0.7,0.2c0.3,0.5,0.1,1.2-0.3,1.5s-1.8,0.3-1.8,0.1c0,0,0,0,0-0.2c0.1-0.3,0.1-0.3,0.1-0.3
			c0.1-0.3,0-0.6-0.1-0.6c-0.2,0-0.7-0.5-0.6-1.2c0,0,0,0-0.1-0.1c-1.3-0.6-1.3-0.6-1.3-0.6c0.3-1.3,0.8-2.3,1.2-2.1
			c0,0,0,0,0.3,0.1c0.3,0.1,0.5,0.3,0.8,0.4c0.2,0,0.4,0,0.5-0.2c0.3-0.3,0.3-0.3,0.3-0.3c0.4,0,1-0.3,1.2-0.7c0,0,0,0,0-0.3
			c0-0.3,0-0.3,0-0.3c-0.3-0.3-0.8-0.5-1.2-0.5c0,0,0,0-0.2,0.2c-0.2,0.1,0,0.9-0.5,0.7c-0.3-0.1-0.3-0.1-0.3-0.1
			c-0.3-0.4-0.7-0.4-0.8,0c-0.1,0.4-1,0-0.9-0.2s0-0.5-0.1-0.5s-0.7,0.2-0.8,0.4c0,0.2-0.2,0.8-0.4,0.8c0,0,0,0,0-0.1
			c-0.1-0.2-0.1-0.4-0.2-0.6c-0.4-0.6-0.4-0.6-0.4-0.6c-0.7,0-1.3,0.1-1.4,0c-0.1,0-0.2-0.8,0.2-1.7c0,0,0,0,0.7,0.5
			c0.5,0.4,0.5,0.4,0.5,0.4c0.6,0,1.1-0.4,1.1-0.8s-0.1-1.5-0.3-1.5c-0.2,0-0.7,0.2-0.5,0.4c0,0,0,0,0.1,0.2c0,0.2,0,0.2,0,0.2
			c0,0.3-0.4,0.4-0.7,0.3c-0.3-0.1-0.9-0.6-0.5-0.8c0,0,0,0,0-0.2c0-0.3-0.2-0.6-0.4-0.9c0-0.1-0.4,0.3-0.5,0.3
			c-0.2,0-0.4-0.2-0.5-0.4c0,0,0.2-0.3,0.3-0.5c0,0,0,0,0,0c0.1,0,0.7,0.2,1.3,0.3c0.6,0.2,2.3-0.6,2.5-0.4c0,0,0,0,0.1,0
			c0.2,0,0.4-0.2,0.5-0.4c0,0,0.1-0.2,0-0.3c-0.1-0.1-0.1-0.1-0.1-0.1c-0.1-0.1-0.1-0.3,0.1-0.4c0.2-0.1,0.8-0.3,0.9-0.1
			c0.1,0.1,0.6,0.4,0.7,0.3c0.1-0.2,0.7-0.3,0.9,0.2s0.8,1.5,0.8,1.5c0,0,0-0.7-0.1-1.5c0,0,0,0-0.1-0.7c0-0.2,0-0.2,0-0.2
			c0.2-0.2,0.6-0.2,0.7-0.1c0,0,0,0,0.1,0.2c0.1,0.5,0.1,0.5,0.1,0.5c0.2,0.6,0.5,0.5,0.8-0.3c0,0,0,0,0.3-0.4
			c0.4-0.5,0.4-0.5,0.4-0.5c0.2-0.6,0.4-1,0.5-0.8c0.1,0.1,0.6,0.6,1,0.6c0,0,0,0,0.3,0.2c0.3,0.2,0.3,0.2,0.3,0.2
			c0.5,0.1,0.9,0,0.9-0.3s0.1-0.9,0.3-0.7c0,0,0,0,0.2,0.1c0.4,0.2,0.7,0.5,1.1,0.5c0.2,0,0.4-0.8,0.6-0.8c0.4,0,0.4,0,0.4,0
			c0.4,0,0.9,0.1,1,0.2c0.1,0.1,0.6-0.1,0.6-0.7c0,0,0,0,0.1-0.4c0.1-0.5,0.1-0.5,0.1-0.5c0.2-0.5,1-0.6,1.8-0.2c0,0,0,0,0.9-1
			c0.6-0.6,1-1.7,2-0.6c0,0,0,0,0,0c0.4-0.5,0.9-0.6,1.2-0.3c0,0,0,0,0.3,0.2c0.1,0.1,0.1,0.1,0.1,0.1c0.2,0,0.6,0,0.9,0
			c0.3,0,1.2-0.5,1.5-0.6c0.4-0.1,1.7-0.2,2.1-0.2s1.5-0.8,1.7-0.5c0.2,0.3,0.8,1.2,0.8,1.4c0,0.2,0.1,1,0.4,0.9c0,0,0,0,0.4,0
			c0.6,0.1,0.6,0.1,0.6,0.1c0.4-0.5,0.8-1.2,1-1.7c0.2-0.4,1-1.5,1.1-1.3c0,0,0,0,0.1,0.1c0.7,0.5,0.7,0.5,0.7,0.5
			c-0.1,0.5-0.4,1.1-0.6,1.3c0,0,0,0-0.1,0.3c-0.1,0.2-0.1,0.2-0.1,0.2c0.1,0.3,0.3,0.5,0.4,0.5c0.1,0,0.8-0.7,1.3-1.2
			c0,0,0,0,0.7,0.4c0.2,0.1,0.2,0.1,0.2,0.1c0.2,0.2,0.5-0.1,0.7-0.6s1-1.7,1.3-1.4c0,0,0,0,0.3,0.1c0.5,0.2,0.5,0.2,0.5,0.2
			c0.4,0.4,0.9,0.7,1.2,0.8c0.2,0.1,0.2,1.1,0.3,1.2c0.1,0.2,0.5,0.2,0.5,0.4c0.1,0.2,0.6-0.1,0.7-0.4c0.1-0.3,1-0.2,1.2-0.2
			c0.2,0.1,1-0.4,1.7-0.2c0,0,0,0,0.7,0.1c0.6,0.1,0.6,0.1,0.6,0.1c0.7,0.2,1.3,0.1,1.5-0.2C93.8,14.5,93.3,13.4,93.4,13.1z
			 M362.5,23.1c0.3-0.6,0.1-1.3-0.4-1.6c0,0,0,0-0.5-0.1c-0.7-0.2-0.7-0.2-0.7-0.2c-0.8-0.1-1.2,0.1-0.9,0.4
			C360.3,21.9,362.2,23.7,362.5,23.1z M369.2,29.1c0.1-0.2,0-1-0.2-1.8c0,0,0,0-1,0c-1,0-1,0-1,0c-0.4,0.8-0.5,1.9-0.2,2.3
			c0,0,0,0,0.2,0c0.4-0.1,0.4-0.1,0.4-0.1c0.4-0.4,0.9-0.5,1-0.4C368.5,29.2,369.1,29.3,369.2,29.1z M373.9,79.4
			c0.2,0.1,0.6-0.4,0.9-1c0.3-0.6-0.6-2.1-0.5-2.2c0,0,0,0,0-0.1c0-0.5,0-0.5,0-0.5c-0.4-0.2-0.9-0.2-0.9,0
			c-0.1,0.2,0.2,0.9,0.3,1.1s-0.1,1.1,0.1,1.4C374,78.5,373.8,79.3,373.9,79.4z M61.7,26.7c0,0.4-0.2,0.5-0.5,0.3
			c-0.3-0.2-0.1,0.7,0.5,0.7c0,0,0,0,0.5,0.1c1,0.2,1,0.2,1,0.2c0.4-0.7,0.4-1.2,0.1-1.1c-0.3,0.1-1.2-0.2-1.3-0.4s-0.2-0.8-0.2-0.8
			C61.8,25.6,61.7,26.4,61.7,26.7z M75.1,16.4c0.2-0.6-0.1-1.1-0.8-1.1c0,0,0,0-0.4-0.6c0,0,0,0,0,0c-0.3,0.2-0.5,0.6-0.6,0.9
			c-0.1,0.3,0.8,0.9,1.1,0.9c0,0,0,0,0,0.1c0,0.7,0.2,0.9,0.6,0.3C75.1,16.4,75.1,16.4,75.1,16.4z M346.4,17.2
			c0-0.4-0.1-0.5-0.2-0.3c-0.1,0.3-0.6,0.6-0.8,0.4s-1.2-0.4-1.1-0.2c0.1,0.1,0.2,0.5,0,0.7c-0.2,0.1-0.2,0.6,0.5,0.3
			c0,0,0,0,0.3,0.2c0.5,0.3,0.5,0.3,0.5,0.3C346,18.4,346.4,17.6,346.4,17.2z M374.3,70.2c0.2,0.2,0.5,0.1,0.6-0.2
			c0.1-0.3-0.4-1.4-0.5-1.7c0,0,0,0-0.3,0.4c-0.6,0.7-0.6,0.7-0.6,0.7c-0.5-0.2-1.1-0.3-1.2-0.3c0,0,0,0-0.1,0.1
			c-0.1,0.1,0,0.3,0,0.4c0.3,0.3,0.7,0.5,1,0.8c0.1,0.1,0.1,0.1,0.1,0.1C373.4,70.6,374.1,70,374.3,70.2z M66.9,17.2
			c0.5,0.2,0.9,0.2,0.9,0.1c0-0.1,0.1-0.7,0.2-1s-0.2-0.5-0.5-0.2c0,0,0,0-0.5-0.4c-0.5-0.4-0.6,0.5-0.9,0.7c-0.3,0.3-0.3,0.6,0,0.9
			c0.2,0.3,0.3,0.5,0.7,0.1C66.9,17.2,66.9,17.2,66.9,17.2z M337.9,62.8c-0.2,0.2,0,0.3,0.4,0.2c0.4-0.1,1.4,0.8,1.8,0.8
			s0.5-1.3,0.1-1.3C339.7,62.5,338.1,62.6,337.9,62.8z M244.9,88.8c-0.2-0.1-0.4,0-0.4,0.3c0,0.3-0.1,1-0.2,1s-0.5,0.1-0.5,0.3
			s0.1,0.7,0.1,0.8s0.9-0.1,1.9-0.4c0,0,0,0-0.1-0.5c0-0.3,0-0.3,0-0.3C245.6,89.6,245.1,89,244.9,88.8z M320.8,8.7
			c0.2,0.3,0.7,0.1,1-0.3c0,0,0,0,0.1-0.4c0.1-0.3-0.1-0.7-0.2-0.9c-0.2-0.3-0.4-0.5-0.8-0.2c-0.3,0.2-0.3,0.2-0.3,0.2
			C320.1,7.4,320.5,8.4,320.8,8.7z M312.8,8.8c0.5-0.2,0.9-0.6,0.8-0.9c-0.1-0.3-1-0.8-1.2-0.6C312.2,7.4,312.3,8.9,312.8,8.8z
			 M378.7,73.4c0.1-0.5-0.2-0.7-0.7-0.5c0,0,0,0-0.4,0.3c-0.3,0.2-0.6,0.5-0.1,1c0.1,0.1,0.1,0.1,0.1,0.1
			C377.7,74.8,378.5,73.9,378.7,73.4z M101.9,13.2c-0.5,0.3-0.2,0.7,0.5,1c0,0,0,0,0.5,0.2c0.5,0.2,0.7-0.2,0.9-0.5
			c0.1-0.1,0.1-0.4,0.1-0.6c0-0.1-1.4-0.4-1.6-0.3C101.9,13.2,101.9,13.2,101.9,13.2z M51.7,23.7c-0.1-0.3-0.3-0.6-0.5-0.6
			c-0.2,0-0.7,0.2-1,0.5c-0.3,0.2-0.8,1.5-0.8,1.6c0,0,0,0,0.1,0.1c0.1,0.1,0.1,0.1,0.1,0.1c0.1,0,0.8-0.5,1.5-1.1
			C51.1,24.4,51.1,24.4,51.7,23.7C51.7,23.7,51.7,23.7,51.7,23.7z M98.5,14.6c0,0.3,0.2,0.4,0.5,0.2c0.3-0.2,1.1-0.9,1.3-1.1
			c0,0,0,0-0.2-0.3c-0.2-0.2,0-0.8-0.5-0.7c-0.4,0.1-0.4,0.1-0.4,0.1C98.8,13.3,98.5,14.3,98.5,14.6z M233.4,10
			C233.8,10.3,233.8,10.3,233.4,10c-0.3-0.3-1.1-1.3-1.2-1c-0.1,0.3,0.1,1.4,0.6,1.7c0,0,0,0,0.1-0.1C233.4,10,233.4,10,233.4,10z
			 M126.1,13.7c0,0.3,0.3,0.2,0.5-0.2c0.3-0.4,0.4-1.6,0-1.5c-0.4,0.1-1.2,0.5-1.2,0.6s0,0.4,0.2,0.4S126.1,13.4,126.1,13.7z
			 M176.4,11c-0.9-0.1-1.3,0.3-1,0.8c0,0,0,0,0.5-0.1c0.5-0.1,1-0.4,1.5-0.6c0.1,0,0-0.4,0-0.6c0-0.1-0.3-0.2-0.3-0.1
			C176.4,11,176.4,11,176.4,11z M46.4,82.4c0.2-0.5,0.3-1.2,0.2-1.7c0,0,0,0-0.5,0.2c-0.2,0.1-0.4,0.6-0.5,0.1
			c-0.1-0.6-0.3-0.8-0.7-0.5c-0.1,0.1-0.1,0.1-0.1,0.1c0.2,0.5,0.5,1.1,0.8,1.4c0,0,0,0,0.3,0.2C46.4,82.4,46.4,82.4,46.4,82.4z
			 M332.1,59.9c0.1-0.3-0.2-0.6-0.7-0.7c0,0,0,0-0.3,0.2c-0.3,0.2-0.3,0.2-0.3,0.2c-0.2,0.5-0.3,1.1-0.1,1.4c0,0,0,0,0.2,0
			c0.2,0,0.2,0,0.2,0C331.4,60.9,332,60.1,332.1,59.9z M282.6,8.5c0.2-0.4,0.1-0.6-0.3-0.4c-0.4,0.2-1.3,0.1-1.4,0.2c0,0,0,0,0,0.2
			c0,0.3-0.2,0.8,0.3,0.9c0.3,0.1,0.3,0.1,0.3,0.1C281.8,9.7,282.4,9,282.6,8.5z M338.9,17.9c-0.4-0.5-0.5-0.6-0.1-0.3
			c0.4,0.4,1.7,0.9,1.9,0.8s-0.1-0.8-0.7-1.1c0,0,0,0-0.3,0.2C338.9,17.9,338.9,17.9,338.9,17.9z M291.8,9.4
			c0.4,0.3,0.6,0.4,0.6,0.2c0-0.2,0.1-0.7,0.1-0.9c0.1-0.2-0.1-0.7-0.5-0.7C291.6,8,291.4,9.1,291.8,9.4z M238.6,9.6
			c-0.4,0-0.3,0.4,0.2,1c0,0,0,0,0.5,0.2c0.1,0.1,0.1,0.1,0.1,0.1C239.8,10.1,239,9.6,238.6,9.6z M100.2,83.2
			c-0.4,0-0.6,0.3-0.5,0.6s0.7,1,1.1,0.8C101.2,84.4,100.6,83.2,100.2,83.2z M341.7,67.6c0.1,0.1-0.1,0.4-0.3,0.6
			c-0.2,0.2-0.3,1,0.1,0.8c0,0,0,0,0.3-0.2c0.4-0.2,0.4-0.2,0.4-0.2c0.5-0.2,0.7-0.6,0.4-0.9c0,0,0,0-0.2-0.3
			c-0.1-0.1-0.2-0.3-0.3-0.3c-0.2,0-0.2,0-0.2,0C341.6,67.2,341.7,67.5,341.7,67.6z M336.1,60.6c0.5,0,0.7-0.3,0.4-0.6
			s-1.4,0-1.8,0.1C334.3,60.2,335.6,60.7,336.1,60.6z M223.2,10.3c0.5,0.6,1,0.2,1.2-0.8c0,0,0,0-0.9-0.5c-0.2-0.1-0.2-0.1-0.2-0.1
			c-0.4,0.4-0.7,0.8-0.6,0.9c0,0,0,0,0,0.1C223.2,10.3,223.2,10.3,223.2,10.3z M85.1,24.4c-0.2,0.2-0.2,0.5,0,0.7
			c0.2,0.2,1,0.7,1.3,0.8c0,0,0,0,0.3,0c0.1,0,0.2-0.1,0.3-0.3c0-0.1,0-0.4,0-0.4c-0.4-0.4-0.4-0.4-0.4-0.4
			C86,24.5,85.3,24.2,85.1,24.4z M59,27.6c-0.6-0.9-1.2-0.9-2-0.5C57.8,28.5,57.8,28.5,59,27.6z"/>
	</g>
	<g>
		<path class="st0" d="M377.8,68.6c-0.4-0.3-0.4-0.6-0.1-0.6c0.3-0.1,1.5-1,2-1.4c0,0,0,0,0.2,1.1c0,0.2,0,0.2,0,0.2
			c0.4,0.1,0.9,0,1.2-0.1c0.2-0.1,1.2-0.2,1.6,0.3c0,0,0,0-0.1,0.7c0,0.1-0.3,0.2-0.5,0.2c-0.1,0-0.2-0.2-0.2-0.3
			c0-0.2,0.5-0.3,0.1-0.6c-0.1-0.1-0.1-0.1-0.1-0.1c-0.2,0.1-0.7,0.6-1.2,1.1c0,0,0,0-0.3,0.5c-0.4,0.6-0.4,0.6-0.4,0.6
			C379.4,69.9,378.1,68.9,377.8,68.6z"/>
	</g>
	<g>
		<path class="st0" d="M93.1,12.4c0.2,0.1,0.3,0.4,0.2,0.7c-0.1,0.3-0.6,1-1.1,1c-0.4,0.1-1.6-0.3-1.8-0.3c-0.3,0-0.9,0.7-1,0.8
			c-0.1,0.1-0.2-0.6,0.2-1.7c0,0,0,0,0.8-0.6c0.2-0.1,0.2-0.1,0.2-0.1c0.2,0,0.6-0.1,0.9-0.1C91.8,12.2,92.9,12.3,93.1,12.4z"/>
	</g>
	<g>
		<path class="st0" d="M352.7,64c-0.5-0.3-0.9-0.7-0.9-0.9c0-0.2,0.1-0.7,0.3-0.8c0.1-0.1,0.6-0.5,0.7-0.6c0.1-0.1,0.8,0.2,1,0.3
			c0.3,0.1,0.9,0.3,0.8,1.2c0,0,0,0-0.8-0.3c-0.2-0.1-0.4-0.3-0.6-0.4c-0.1,0-0.2,0.1-0.3,0.3c0,0.1,0,0.4,0,0.4
			c0.2,0.1,0.5,0.2,0.6,0.3c0.1,0.1,0.1,0.4,0.1,0.6c-0.1,0.1-0.4,0.3-0.5,0.2C352.7,64,352.7,64,352.7,64z"/>
	</g>
	<g>
		<path class="st0" d="M59.7,16.4c0.8,0,1.6,0.4,1.7,0.9c0,0,0,0-0.6-0.1c-0.2,0-0.2,0-0.2,0c-0.2-0.1-0.7-0.2-1.1-0.3
			s-1.1,1.1-1.3,1.5c-0.2,0.4-0.5-0.9-0.7-1c-0.1-0.1-0.4-0.5-0.2-0.6c0.2-0.1,1-0.6,1.3-0.8c0,0,0,0,0.4,0.2
			C59.7,16.4,59.7,16.4,59.7,16.4z"/>
	</g>
	<g>
		<path class="st0" d="M330.7,5.9c0.3-0.4,0.9-0.4,1.4-0.2c0,0,0,0,0.1-0.1c0.4-0.5,0.5,0.2,0.7,0.2c0.4,0,0.8,0,1.1,0.1
			c0.1,0,0.1,0.3,0.1,0.4c0,0.1,0,0.1,0,0.1c-0.1,0.1-0.4,0.1-0.5,0s-0.8,0.3-1.1,0.4c0,0,0,0,0-0.1c-0.6-0.9-0.9-0.3-1.4,0.2
			c-0.1,0.1-0.3,0.1-0.4,0c-0.1-0.2-0.3-0.5-0.2-0.6C330.7,5.9,330.7,5.9,330.7,5.9z"/>
	</g>
	<g>
		<path class="st0" d="M357,62.3c0.3,0.2,0.3,0.7,0,1c-0.3,0.3-0.8,1.2-1,0.9c-0.1-0.3-0.1-1.6,0.2-2.3c0,0,0,0,0.5,0.2
			C357,62.3,357,62.3,357,62.3z"/>
	</g>
	<g>
		<path class="st0" d="M48.6,30.8c0,0.5-0.3,1.1-0.7,1.1c-0.4,0.1-0.9-1-0.6-1c0,0,0,0,0.1,0.2c0.2,0.3,0.4,0.2,0.6,0
			c0.2-0.2,0.3-0.3,0.1-0.7c-0.1-0.1-0.1-0.1-0.1-0.1c0-0.3,0.3-0.6,0.5-0.6c0,0,0,0,0.2,0.1c0.2,0.2,0.5,0.4,0.1,0.8
			C48.6,30.8,48.6,30.8,48.6,30.8z"/>
	</g>
	<g>
		<path class="st0" d="M63.6,15.3c0,0.3-0.1,0.5-0.3,0.5c0,0,0,0-0.1,0.1c-0.3,0.2-0.5,0.7-0.7,0.7c-0.4,0.1-0.4,0.1-0.4,0.1
			c-0.4-0.2-0.6-0.6-0.3-0.9C62.1,15.5,63.6,15,63.6,15.3z"/>
	</g>
	<g>
		<path class="st0" d="M77.1,14.4c-0.2,0-0.5-0.2-0.5-0.5c0-0.3,0.1-1.2,0.3-1.2c0.2,0,0.6,0.3,0.9,0.5c0.4,0.2-0.1,1.5-0.3,1.4
			c0,0,0,0-0.2-0.1C77.1,14.4,77.1,14.4,77.1,14.4z"/>
	</g>
	<g>
		<path class="st0" d="M103.7,89.3c0.5,0,0.3,0.4-0.4,0.9c0,0,0,0-0.8-0.3c-0.1,0-0.1,0-0.1,0c-0.1-0.4,0.3-0.9,0.8-1.2
			c0,0,0,0,0.1,0.1C103.7,89.3,103.7,89.3,103.7,89.3z"/>
	</g>
</g>
</svg>
