<?xml version="1.0" encoding="UTF-8" standalone="no"?>
<!-- Created with Inkscape (http://www.inkscape.org/) -->

<svg
   width="104.73746mm"
   height="133.5871mm"
   viewBox="0 0 104.73746 133.5871"
   version="1.1"
   id="svg4846"
   inkscape:export-filename="bitmap.svg"
   inkscape:export-xdpi="96"
   inkscape:export-ydpi="96"
   xmlns:inkscape="http://www.inkscape.org/namespaces/inkscape"
   xmlns:sodipodi="http://sodipodi.sourceforge.net/DTD/sodipodi-0.dtd"
   xmlns="http://www.w3.org/2000/svg"
   xmlns:svg="http://www.w3.org/2000/svg">
  <sodipodi:namedview
     id="namedview4848"
     pagecolor="#ffffff"
     bordercolor="#000000"
     borderopacity="0.25"
     inkscape:showpageshadow="2"
     inkscape:pageopacity="0.0"
     inkscape:pagecheckerboard="0"
     inkscape:deskcolor="#d1d1d1"
     inkscape:document-units="mm"
     showgrid="false" />
  <defs
     id="defs4843" />
  <g
     inkscape:label="Lager 1"
     inkscape:groupmode="layer"
     id="layer1"
     transform="translate(-56.65225,-63.812544)">
    <path
       style="opacity:0.75;fill:#ff0009;fill-opacity:1;stroke-width:0.264583"
       id="path5030"
       d="m 106.65148,74.576513 c -4.80895,-0.04142 -9.62282,-0.02395 -14.42596,0.250211 -2.016873,0.11512 -4.037285,0.214464 -6.043871,0.448239 -2.300624,0.268028 -4.578559,0.704008 -6.86784,1.056013 -4.908156,1.757312 -9.585563,3.010926 -13.850001,6.19715 -1.91285,1.429208 -3.613362,3.177238 -5.033841,5.096579 -1.3272,1.793303 -2.511999,3.774707 -3.120268,5.921195 -1.574387,5.55576 -0.03855,7.64688 1.642578,12.7989 1.79519,1.86087 3.296693,4.05875 5.38557,5.5826 3.178532,2.31877 6.665648,4.23598 10.261719,5.83223 2.882403,1.27946 5.968823,2.09219 9.054738,2.74211 6.020855,1.26806 13.741323,1.65406 19.861216,1.16865 3.42524,-0.27167 6.79569,-1.02121 10.19354,-1.53182 3.20572,-0.81062 6.44869,-1.48606 9.61716,-2.43186 5.38578,-1.60768 10.90915,-3.8068 15.98133,-6.24854 3.66049,-1.76215 7.62201,-4.0102 10.97742,-6.35315 1.31023,-0.91489 2.52331,-1.96157 3.78497,-2.94235 0.95286,-0.92978 1.97017,-1.79779 2.85857,-2.789336 2.08222,-2.323973 3.80519,-5.164886 4.29193,-8.297037 0.40847,-2.62841 0.0242,-3.131571 -0.5831,-5.67586 -0.47887,-0.924811 -0.85705,-1.909159 -1.43661,-2.774431 -2.19063,-3.27057 -5.50292,-5.629627 -8.89281,-7.510566 -6.97199,-3.868541 -6.00807,-3.293575 -12.22091,-5.690637 -11.43016,-3.695705 -23.43336,-4.667213 -35.35027,-5.362342 -6.493562,-0.219601 -3.359707,-0.13984 -9.40129,-0.249915 0,0 2.854875,2.080239 2.854875,2.080239 v 0 c 5.960915,0.05625 2.865239,-7.94e-4 9.286765,0.184491 1.83776,0.101333 3.67703,0.17815 5.51326,0.303999 10.07701,0.690641 20.17452,1.982366 29.80097,5.166248 1.61842,0.637419 3.22297,1.311249 4.85527,1.91225 0.44466,0.163722 0.95008,0.159972 1.36984,0.379807 3.34741,1.753073 6.65629,4.141094 8.84033,7.282889 0.58072,0.835371 0.96898,1.789239 1.45347,2.683859 0.64039,2.461167 1.02782,2.944746 0.66841,5.508212 -0.43114,3.075096 -2.09703,5.882103 -4.09502,8.191659 -0.85828,0.992126 -1.84305,1.867365 -2.76457,2.801041 -1.22603,0.99063 -2.40226,2.04627 -3.67809,2.97188 -5.51918,4.00416 -11.69764,7.20069 -18.01637,9.73024 -2.79639,1.11947 -5.62877,2.1618 -8.51194,3.03378 -3.14862,0.95225 -6.37585,1.62198 -9.56378,2.43297 -3.39876,0.49314 -6.77155,1.22255 -10.19628,1.47943 -6.186714,0.46404 -13.778372,0.058 -19.85198,-1.27372 -3.481184,-0.76327 -10.675183,-2.8946 -14.034455,-5.53731 -1.988592,-1.56441 -3.556145,-3.60019 -5.334217,-5.40029 -1.709878,-5.02769 -3.263699,-7.10889 -1.772817,-12.56941 0.579382,-2.122051 1.729005,-4.088181 3.027667,-5.863641 4.893183,-6.689693 11.261865,-8.701542 18.781329,-11.110505 2.31046,-0.326554 4.610809,-0.735107 6.931379,-0.979667 2.025565,-0.213468 4.062952,-0.301646 6.097664,-0.393422 4.932998,-0.222509 9.8796,-0.166254 14.81075,0.06324 0,0 -3.15643,-2.314303 -3.15643,-2.314303 z" />
    <circle
       id="path5689"
       style="fill:#ff0009;stroke:#000000;stroke-width:0.264583"
       cx="108.15774"
       cy="197.22882"
       r="0.038520064" />
  </g>
</svg>
