<svg xmlns="http://www.w3.org/2000/svg" viewBox="0 0 32 40" x="0px" y="0px"><g data-name="Project II"><path d="M27,7.24v21a2,2,0,0,1-2,2H7a2,2,0,0,1-2-2v-21a2,2,0,0,1,2-2H8a1,1,0,0,1,0,2H7v21H25v-21H24a1,1,0,0,1,0-2h1A2,2,0,0,1,27,7.24ZM10.94,6.82a5.06,5.06,0,1,1,10.12,0c0,.79-.1,2-1.13,2S18.81,8,19,7.24H13c.15.65.09,1.39-.66,1.58C11.14,9.1,10.91,7.69,10.94,6.82Zm2.45-1.58h5.22a3,3,0,0,0-5.22,0ZM9.23,19.43l3.38,3.39a1,1,0,0,0,1.42,0l8.74-8.74a1,1,0,0,0,0-1.42,1,1,0,0,0-1.41,0l-8,8L10.64,18A1,1,0,0,0,9.23,19.43Z"/></g><text x="0" y="47" fill="#3f3d56" font-size="5px" font-weight="bold" font-family="'Helvetica Neue', Helvetica, Arial-Unicode, Arial, Sans-serif">Created by Zky Icon</text><text x="0" y="52" fill="#3f3d56" font-size="5px" font-weight="bold" font-family="'Helvetica Neue', Helvetica, Arial-Unicode, Arial, Sans-serif">from the Noun Project</text></svg>