<svg xmlns="http://www.w3.org/2000/svg" viewBox="0 0 32 32" id="task-schedule"><path d="M22.855,19.735a3.974,3.974,0,1,0,3.974,3.974A3.979,3.979,0,0,0,22.855,19.735Zm0,6.87a2.9,2.9,0,1,1,0-5.792h0v2.9h2.9A2.9,2.9,0,0,1,22.855,26.605Z"></path><path d="M27.38,19.945l.56-.56-.76-.76-.56.56a6.062,6.062,0,0,0-2.01-1.1v-.07a1.752,1.752,0,0,0-1.26-1.68V7.925L17.83,2.4H3.26V29.6H22.3v-.03a5.068,5.068,0,0,0,.55.03,5.887,5.887,0,0,0,4.53-9.65ZM4.34,28.515V3.485H17.07v5.2h5.2v7.68a1.745,1.745,0,0,0-1.17,1.65v.05H11.39v1.08h7.75a5.9,5.9,0,0,0-2.15,4.14h-5.6v1.08h5.62a5.872,5.872,0,0,0,2.46,4.15Zm18.51,0a4.81,4.81,0,1,1,4.81-4.81A4.8,4.8,0,0,1,22.85,28.515Z"></path><rect width="4.458" height="1.078" x="11.395" y="7.636"></rect><rect width="9.647" height="1.078" x="11.395" y="12.853"></rect><rect width="4.287" height="4.287" x="5.758" y="6.032"></rect><rect width="4.287" height="4.287" x="5.758" y="11.249"></rect><path d="M5.758 20.752h4.287V16.465H5.758zm1.078-3.209H8.967v2.13H6.836zM5.758 25.968h4.287V21.681H5.758zm1.078-3.209H8.967V24.89H6.836z"></path></svg>