<?xml version="1.0" encoding="UTF-8" standalone="no"?><!-- Generator: Gravit.io --><svg xmlns="http://www.w3.org/2000/svg" xmlns:xlink="http://www.w3.org/1999/xlink" style="isolation:isolate" viewBox="0 0 96 96" width="96pt" height="96pt"><defs><clipPath id="_clipPath_2XtumPxH1yzHBdXL3BfPjtB9EdyUHSUi"><rect width="96" height="96"/></clipPath></defs><g clip-path="url(#_clipPath_2XtumPxH1yzHBdXL3BfPjtB9EdyUHSUi)"><g opacity="0.67"><linearGradient id="_lgradient_0" x1="0.5" y1="-0.0833750000000002" x2="0.4999999999999998" y2="1.0833750000000002" gradientTransform="matrix(12,0,0,12,55.5,51)" gradientUnits="userSpaceOnUse"><stop offset="0%" stop-opacity="1" style="stop-color:rgb(109,199,255)"/><stop offset="47.82608695652174%" stop-opacity="1" style="stop-color:rgb(166,186,255)"/><stop offset="100%" stop-opacity="1" style="stop-color:rgb(230,171,255)"/></linearGradient><path d=" M 61.5 51 C 58.186 51 55.5 53.686 55.5 57 C 55.5 60.314 58.186 63 61.5 63 C 64.814 63 67.5 60.314 67.5 57 C 67.5 53.686 64.814 51 61.5 51 Z " fill="url(#_lgradient_0)"/></g><g opacity="0.67"><linearGradient id="_lgradient_1" x1="0.5" y1="-0.0833750000000002" x2="0.4999999999999998" y2="1.0833750000000002" gradientTransform="matrix(12,0,0,12,28.5,51)" gradientUnits="userSpaceOnUse"><stop offset="0%" stop-opacity="1" style="stop-color:rgb(109,199,255)"/><stop offset="47.82608695652174%" stop-opacity="1" style="stop-color:rgb(166,186,255)"/><stop offset="100%" stop-opacity="1" style="stop-color:rgb(230,171,255)"/></linearGradient><path d=" M 34.5 51 C 31.186 51 28.5 53.686 28.5 57 C 28.5 60.314 31.186 63 34.5 63 C 37.814 63 40.5 60.314 40.5 57 C 40.5 53.686 37.814 51 34.5 51 Z " fill="url(#_lgradient_1)"/></g><g opacity="0.67"><linearGradient id="_lgradient_2" x1="0.5" y1="-0.0833750000000002" x2="0.4999999999999998" y2="1.0833750000000002" gradientTransform="matrix(72,0,0,72,12,9)" gradientUnits="userSpaceOnUse"><stop offset="0%" stop-opacity="1" style="stop-color:rgb(109,199,255)"/><stop offset="47.82608695652174%" stop-opacity="1" style="stop-color:rgb(166,186,255)"/><stop offset="100%" stop-opacity="1" style="stop-color:rgb(230,171,255)"/></linearGradient><path d=" M 76.5 15 L 60.927 15 L 59.171 11.489 C 58.404 9.954 56.86 9 55.144 9 L 40.857 9 C 39.14 9 37.598 9.954 36.83 11.489 L 35.073 15 L 19.5 15 C 15.365 15 12 18.365 12 22.5 L 12 27 L 15 27 C 17.481 27 19.5 29.019 19.5 31.5 L 19.5 70.5 C 19.5 76.289 24.211 81 30 81 L 66 81 C 71.789 81 76.5 76.289 76.5 70.5 L 76.5 31.5 C 76.5 29.019 78.519 27 81 27 L 84 27 L 84 22.5 C 84 18.365 80.636 15 76.5 15 Z  M 39.513 12.831 C 39.77 12.318 40.283 12 40.856 12 L 55.143 12 C 55.716 12 56.231 12.318 56.487 12.831 L 57.573 15 L 38.427 15 L 39.513 12.831 Z  M 73.5 31.5 L 73.5 70.5 C 73.5 74.636 70.136 78 66 78 L 30 78 C 25.865 78 22.5 74.636 22.5 70.5 L 22.5 31.5 C 22.5 29.805 21.914 28.257 20.961 27 L 28.5 27 L 28.5 33 L 31.5 33 L 31.5 27 L 37.5 27 L 37.5 36 L 40.5 36 L 40.5 27 L 46.5 27 L 46.5 40.5 L 49.5 40.5 L 49.5 27 L 55.5 27 L 55.5 36 L 58.5 36 L 58.5 27 L 64.5 27 L 64.5 33 L 67.5 33 L 67.5 27 L 75.039 27 C 74.087 28.257 73.5 29.805 73.5 31.5 Z  M 81 24 L 15 24 L 15 22.5 C 15 20.019 17.019 18 19.5 18 L 76.5 18 C 78.981 18 81 20.019 81 22.5 L 81 24 Z " fill="url(#_lgradient_2)"/></g><g opacity="0.67"><linearGradient id="_lgradient_3" x1="0.5" y1="-0.0833750000000002" x2="0.4999999999999998" y2="1.0833750000000002" gradientTransform="matrix(15,0,0,24,40.5,63)" gradientUnits="userSpaceOnUse"><stop offset="0%" stop-opacity="1" style="stop-color:rgb(109,199,255)"/><stop offset="47.82608695652174%" stop-opacity="1" style="stop-color:rgb(166,186,255)"/><stop offset="100%" stop-opacity="1" style="stop-color:rgb(230,171,255)"/></linearGradient><path d=" M 48 63 C 43.859 63 40.5 66.358 40.5 70.5 L 40.5 84 C 40.5 85.658 41.843 87 43.5 87 L 52.5 87 C 54.158 87 55.5 85.658 55.5 84 L 55.5 70.5 C 55.5 66.358 52.142 63 48 63 Z " fill="url(#_lgradient_3)"/></g></g></svg>