<svg id="Layer_1" data-name="Layer 1" xmlns="http://www.w3.org/2000/svg" viewBox="0 0 400 300" width="406" height="306" class="illustration styles_illustrationTablet__1DWOa"><title>_</title><ellipse cx="201.53" cy="243.44" rx="124.6" ry="12.43" fill="#e6e6e6" opacity="0.45"></ellipse><path d="M163.88,197.45a36.65,36.65,0,0,1-1.11,9,37.37,37.37,0,0,1-2,5.77,40.49,40.49,0,0,1-10.92,14.61,48.78,48.78,0,0,1-59.16,2.23A40.86,40.86,0,0,1,76.44,211a37.35,37.35,0,0,1-2.2-8.27c-.16-1.12-.27-2.25-.32-3.39,0-.62,0-1.24,0-1.86a36.61,36.61,0,0,1,.24-4.21,37.15,37.15,0,0,1,.61-3.68,37.67,37.67,0,0,1,3-8.61c7-14.15,22.79-24,41.12-24,.93,0,1.86,0,2.77.08A48.42,48.42,0,0,1,139,161.19h0a43,43,0,0,1,20.89,19.61,36.79,36.79,0,0,1,4,16.65Z" fill="#68e1fd"></path><path d="M159.91,180.8a6.32,6.32,0,0,1-1.32.79c-5.17,2.17-9.59-7.34-15-5.68-2.84.87-5.18,4.76-7.78,3.32a3.83,3.83,0,0,1-1.16-1.11c-.22-.28-.42-.58-.63-.86a8.37,8.37,0,0,0-11.61-1.17,11.06,11.06,0,0,1-2.9,2.33c-3.8,1.47-8.08-4.43-11.46-2.17-1.73,1.16-2.52,4.21-4.57,3.81-.88-.16-1.48-1-2.31-1.31-1.78-.69-3.49,1-4.67,2.54s-3.08,3.12-4.75,2.19c-.63-.35-1-1-1.61-1.44a4.05,4.05,0,0,0-4.42.09,18.86,18.86,0,0,0-3.47,3.16,17.41,17.41,0,0,1-7.58,4.27,37.67,37.67,0,0,1,3-8.61,11,11,0,0,0,4.71-3.78c1.07-1.55,2.17-3.63,4-3.53a12.55,12.55,0,0,1,2.59.93c2,.6,4.93-1.32,6.37-2.67,2-1.83,3.22-4.49,6-5.25,4-1.08,8.63,2.7,12,.33,1.83-1.29,2.29-3.9,4-5.28,2.13-1.67,5.24-.91,7.73.17l1,.43c2.2,1,4.52,1.92,6.8,1.29,2.05-.57,3.74-2.38,5.87-2.4H139A43,43,0,0,1,159.91,180.8Z" opacity="0.08"></path><path d="M160.8,212.21a40.49,40.49,0,0,1-10.92,14.61,18.42,18.42,0,0,0-6.46,2.4c-1.43.87-2.87,2-4.54,2-2.13,0-3.82-1.83-5.87-2.4-2.62-.72-5.29.64-7.78,1.72s-5.6,1.84-7.73.17c-1.76-1.38-2.22-4-4-5.28-3.35-2.36-8,1.42-12,.33A6.29,6.29,0,0,1,98.66,224c-1.12-1.09-2-2.45-3.18-3.53-1.44-1.35-4.35-3.27-6.37-2.67a12,12,0,0,1-2.59.93c-1.88.1-3-2-4-3.52a11.07,11.07,0,0,0-6-4.25,37.35,37.35,0,0,1-2.2-8.27,17.43,17.43,0,0,1,8.06,4.4,19.16,19.16,0,0,0,3.47,3.15,4.05,4.05,0,0,0,4.42.1c.58-.44,1-1.1,1.61-1.45,1.67-.93,3.58.69,4.75,2.19s2.89,3.23,4.67,2.54c.83-.32,1.43-1.14,2.31-1.31,2-.4,2.84,2.65,4.57,3.81,3.28,2.2,7.42-3.31,11.14-2.28l.32.11a11.06,11.06,0,0,1,2.9,2.33,8.36,8.36,0,0,0,11.61-1.16,6.44,6.44,0,0,1,1.79-2c2.6-1.44,4.94,2.45,7.78,3.32,5.36,1.66,9.78-7.85,15-5.68A13,13,0,0,1,160.8,212.21Z" opacity="0.08"></path><path d="M163.88,197.45a36.65,36.65,0,0,1-1.11,9c-3.35-.08-6.41-3.16-9.65-2.26a26.52,26.52,0,0,0-2.62,1.17,6.12,6.12,0,0,1-5-.21c-1-.5-1.83-1.26-2.8-1.79a7.08,7.08,0,0,0-6.46-.1c-1.13.58-2.16,1.48-3.43,1.62a3.49,3.49,0,0,1-.56,0,9.09,9.09,0,0,1-3.69-1.55,16.63,16.63,0,0,0-3.65-1.51,1.88,1.88,0,0,0-1-.08,2.48,2.48,0,0,0-1,.77,6,6,0,0,1-5.9,1.58c-2-.61-3.68-2.31-5.78-2.68-2.37-.42-4.89.94-7.15.12-1.21-.44-2.14-1.44-3.33-1.92a4.28,4.28,0,0,0-4.23.65,6.89,6.89,0,0,1-1.39,1.09c-1.21.52-2.51-.34-3.68-.94-2.91-1.5-6.35-1.44-9.63-1.34l-7.9.24c0-.62,0-1.24,0-1.86a36.61,36.61,0,0,1,.24-4.21,15,15,0,0,0,2.61-.51c2.91-.87,5.7-2.56,8.84-2.4,2.1.11,4.12,1.1,6.21.92a13.26,13.26,0,0,1,2.65-.24c1.72.22,3,1.88,4.77,1.93,1.89,0,3.28-1.83,5.11-2.31,2.72-.71,5.39,1.79,8.19,1.48,1.55-.16,3.07-1.19,4.56-.74.79.24,1.42.87,2.19,1.17,2.22.87,4.54-1.18,6.93-1.17s4.24,1.94,6.54,2.27c1.59.22,3.18-.35,4.78-.54a6.84,6.84,0,0,1,1.63,0c1.13.16,2.17.7,3.28,1a13.64,13.64,0,0,0,5.09-.13l12.83-2a5.53,5.53,0,0,1,3,.09l.21.1A37,37,0,0,1,163.88,197.45Z" opacity="0.08"></path><path d="M163.88,197.45a36.65,36.65,0,0,1-1.11,9,37.37,37.37,0,0,1-2,5.77,40.49,40.49,0,0,1-10.92,14.61,48.78,48.78,0,0,1-59.16,2.23q.9-.77,1.86-1.44a47.16,47.16,0,0,1,6.08-3.6c3.27-1.66,6.69-3.06,10-4.61,3.6-1.68,7.13-3.53,10.56-5.55q4.52-2.64,8.81-5.67a40.24,40.24,0,0,0,4.19-3.3,16.75,16.75,0,0,0,3.3-4.06,16.47,16.47,0,0,0,2-7.72,31.57,31.57,0,0,0-.65-7.06,56.8,56.8,0,0,0-2.14-7.92,57.67,57.67,0,0,0-8.49-15.82,53.22,53.22,0,0,0-4.56-5.29A48.42,48.42,0,0,1,139,161.19h0a43,43,0,0,1,20.89,19.61,36.79,36.79,0,0,1,4,16.65Z" opacity="0.08"></path><path d="M247,218,162,215.16s-39.26-105.75,0-135.81C178.14,67,193.77,63.86,206.56,64.47a65.15,65.15,0,0,1,30.84,9.4c4.77,3.08,9.1,6.17,13,9.31C328.71,145.36,247,218,247,218Z" fill="#ffd200"></path><path d="M250.45,83.18c-10,23-33,50.39-43.91,37.29-15.12-18.2,0-54.93,0-55.7,0-.1,0-.21,0-.3a65.15,65.15,0,0,1,30.84,9.4C242.17,77,246.5,80,250.45,83.18Z" fill="#f4a28c"></path><path d="M250.45,83.18c-10,23-33,50.39-43.91,37.29-15.12-18.2,0-54.93,0-55.7,0-.1,0-.21,0-.3a65.15,65.15,0,0,1,30.84,9.4C242.17,77,246.5,80,250.45,83.18Z" opacity="0.08"></path><path d="M272.38,106.25c-4.49-6.22,54.22,72.49,16.65,88.3H256.16S220.82,97.2,272.38,106.25Z" fill="#ffd200"></path><path d="M278.06,194.55l-15.38-63.34-4.58-9.57-11.05-12h-16.8s-7.42,8.93,2.63,15,9.66,6.6,8,20.12c0,.13,0,.27,0,.4a71.32,71.32,0,0,1-45.25,58l-31.7,12.12S276.21,258.22,278.06,194.55Z" opacity="0.08"></path><path d="M232.21,75.78a60.11,60.11,0,0,0-4.76,5c-2,2.41-5.71,5.45-10.17,3.1-6.89-3.62-1-14.38-1-14.38s3.24-11.88,10.7-8C233.7,65,239.85,68.55,232.21,75.78Z" fill="#f4a28c"></path><path d="M216.36,70.13s1.93-3.15-.69-5S209.8,69.43,216.36,70.13Z" fill="#f4a28c"></path><path d="M228.7,77.26s1.3-3.47,4.37-2.55S233.29,82,228.7,77.26Z" fill="#f4a28c"></path><path d="M232.21,75.78s10.84,6.28,12.12-4.31-3.9-6-1.58-13.15,1.31-9.69-3.57-9.7-5.88,7.26-9.34,2.27-5.54-8.73-9.38-5.64S216,50.81,218,54.44s-6.69,5.05-.95,12.94S233,70.23,233,70.23Z" fill="#24285b"></path><path d="M258.53,106.25l-9.79,8.54s1.6,80,37.91,79.89c0,0,24.34.83,16.47-27.72S287,143,258.53,106.25Z" fill="#68e1fd"></path><path d="M258.53,106.25l-9.79,8.54s1.6,80,37.91,79.89c0,0,24.34.83,16.47-27.72S287,143,258.53,106.25Z" fill="#f4a28c"></path><path d="M163.88,215.23a197.23,197.23,0,0,0,82.23-15.4c15.82-6.57,34.6-11.23,49-5.28,30.42,12.59,6.16,62-71.88,50.07l-72.07-3.26s-45.09,0-50-9.92c-6-12.11,3.25-21.27,60.83-16.27Z" fill="#24285b"></path><path d="M166.86,242.07l1.46-10.41s21,1.13,17.75,8S166.86,242.07,166.86,242.07Z" fill="#f4a28c"></path><path d="M257.21,175.85c0,3.27-4.43,41.09-24.95,57.7a36.06,36.06,0,0,1-6.93,4.42,32.86,32.86,0,0,1-9.88,3,35.4,35.4,0,0,1-4.91.33c-.35,0-.7,0-1,0A33.3,33.3,0,0,1,195.77,238a35.38,35.38,0,0,1-6.92-4.42c-20.53-16.61-25-54.43-25-57.7,0-4.2,20.9-7.61,46.66-7.61S257.21,171.65,257.21,175.85Z" fill="#68e1fd"></path><path d="M197.33,230c-.63,1.87-.37,3.63-.78,5.52-.19.85-.57,1.63-.78,2.48a35.38,35.38,0,0,1-6.92-4.42c.31-.87.76-1.71,1-2.6,1.79-6.33-4.76-9.29-5.93-14.58-.51-2.39,1-4.83.62-7.24s-2.73-4.52-2.67-7c0-1.41.81-2.7.83-4.11,0-2.22-1.7-3.78-2.75-5.55a11.74,11.74,0,0,1-1.76-6.39c.05-3.3,1.16-7.5,3.61-9.87,2.25-2.18,5.31-1.79,6.35,1.48,1,3.11-1.86,6.87.35,9.72.72.93,1.9,1.45,2.48,2.48,1.57,2.85-2.83,5.8-2.63,9,.15,2.54,3,4,4,6.35,1.83,4-2.11,8.76-.8,13,1,3.35,4.78,4.72,6.17,7.81C198.57,228,197.88,228.27,197.33,230Z" opacity="0.08"></path><path d="M241.16,192.42c-1.06,1.77-2.78,3.33-2.76,5.55,0,1.41.8,2.7.83,4.11.06,2.53-2.27,4.53-2.66,7s1.13,4.85.61,7.24c-1.15,5.29-7.72,8.25-5.92,14.58.24.89.68,1.73,1,2.6a36.06,36.06,0,0,1-6.93,4.42c-.2-.85-.59-1.63-.77-2.48-.41-1.89-.15-3.65-.78-5.52-.56-1.7-1.24-2-.39-4,1.39-3.09,5.13-4.46,6.18-7.81,1.32-4.2-2.65-8.94-.81-13,1-2.31,3.85-3.81,4-6.35.2-3.25-4.21-6.2-2.63-9,.57-1,1.76-1.55,2.48-2.48,2.2-2.85-.63-6.61.35-9.72,1-3.27,4.09-3.66,6.35-1.48,2.44,2.37,3.57,6.57,3.61,9.87A11.82,11.82,0,0,1,241.16,192.42Z" opacity="0.08"></path><path d="M217.32,192.36c-.76,1.91-2.2,3.72-1.82,5.92.24,1.37,1.23,2.54,1.47,3.91.48,2.5-1.5,4.85-1.48,7.4s1.9,4.61,1.77,7C217,222,211,226,213.78,232c.54,1.17,1.45,2.15,1.89,3.35.65,1.78.22,3.76-.22,5.61a35.4,35.4,0,0,1-4.91.33c-.35,0-.7,0-1,0a6.68,6.68,0,0,0-.39-1.35c-.35-.81-.87-1.53-1.21-2.37-.72-1.81-.74-3.59-1.64-5.31s-1.58-1.79-1-3.85c.85-3.28,4.33-5.24,4.83-8.7.61-4.37-4.05-8.4-2.9-12.66.66-2.46,3.18-4.39,2.92-6.92-.33-3.26-5.16-5.43-4.05-8.52.39-1.09,1.46-1.81,2-2.83,1.72-3.17-1.68-6.42-1.22-9.64.48-3.41,3.44-4.3,6-2.5,2.79,1.94,4.59,5.9,5.14,9.14A11.66,11.66,0,0,1,217.32,192.36Z" opacity="0.08"></path><ellipse cx="210.55" cy="175.84" rx="46.67" ry="7.61" fill="#68e1fd"></ellipse><ellipse cx="210.55" cy="175.84" rx="46.67" ry="7.61" fill="#fff" opacity="0.44"></ellipse><ellipse cx="210.55" cy="175.84" rx="36.64" ry="5.4" fill="#fff" opacity="0.44"></ellipse><path d="M190.51,173.61l-.19-.14a.84.84,0,0,0-.46-.13l-1.77-.14a.91.91,0,0,0-.66.27.93.93,0,0,0-.27.65,1,1,0,0,0,.27.66l.19.14a.85.85,0,0,0,.47.13l1.77.14a.89.89,0,0,0,.65-.27.93.93,0,0,0,.27-.65A1,1,0,0,0,190.51,173.61Z" fill="#24285b"></path><path d="M188.56,176.74a.93.93,0,0,0,0,1.86A.93.93,0,0,0,188.56,176.74Z" fill="#24285b"></path><path d="M235.53,174.3a1,1,0,0,0-.66-.27,4.66,4.66,0,0,0-1.12.06,3.88,3.88,0,0,0-.89.23,1,1,0,0,0-.55.42.91.91,0,0,0-.09.72.93.93,0,0,0,.42.55.91.91,0,0,0,.72.09,3.47,3.47,0,0,1,.8-.2,3.37,3.37,0,0,1,.71,0,1,1,0,0,0,.66-.27,1,1,0,0,0,.27-.66A.91.91,0,0,0,235.53,174.3Z" fill="#24285b"></path><path d="M231,178.38l-.14-.19a1,1,0,0,0-.41-.24l-1.89-.72a.92.92,0,0,0-1,1.36l.14.19a.93.93,0,0,0,.41.23l1.88.73a1,1,0,0,0,.72-.1.93.93,0,0,0,.42-.55A.88.88,0,0,0,231,178.38Z" fill="#24285b"></path><path d="M225.16,172a.88.88,0,0,0-.55-.43l-.25,0a.93.93,0,0,0-.46.12,6.34,6.34,0,0,0-1.28.82.67.67,0,0,0-.19.3.62.62,0,0,0-.08.35.64.64,0,0,0,.08.36.67.67,0,0,0,.19.3,1,1,0,0,0,.65.27l.25,0a1,1,0,0,0,.4-.24l-.1.08a5.43,5.43,0,0,1,1-.61.6.6,0,0,0,.26-.24.67.67,0,0,0,.17-.31.77.77,0,0,0,0-.37A.6.6,0,0,0,225.16,172Z" fill="#24285b"></path><path d="M211.9,172a.87.87,0,0,0-.42-.55.92.92,0,0,0-1.27.33,1,1,0,0,0-.09.71,3,3,0,0,1,.06.32,4,4,0,0,1,0,.85.64.64,0,0,0,.08.36.7.7,0,0,0,.19.3.93.93,0,0,0,.65.27,1,1,0,0,0,.66-.27l.14-.19a1,1,0,0,0,.13-.47A4.67,4.67,0,0,0,211.9,172Z" fill="#24285b"></path><path d="M201.16,172.75l-1.3-1.18a1,1,0,0,0-.66-.27.62.62,0,0,0-.35.08.6.6,0,0,0-.3.19.93.93,0,0,0,0,1.31l1.3,1.18a1,1,0,0,0,.65.27.64.64,0,0,0,.36-.08.8.8,0,0,0,.3-.19.93.93,0,0,0,0-1.31Z" fill="#24285b"></path><path d="M201,176.36a.94.94,0,0,0-1.26-.34l-.18.09a4.81,4.81,0,0,1-1,.29h-.18a1,1,0,0,0-.66.28.93.93,0,0,0-.27.65.94.94,0,0,0,.93.93,5.66,5.66,0,0,0,2.34-.65,1,1,0,0,0,.43-.55A.93.93,0,0,0,201,176.36Z" fill="#24285b"></path><path d="M210.44,176.49a.69.69,0,0,0-.2-.3.91.91,0,0,0-.65-.27l-.25,0a1,1,0,0,0-.41.24,4,4,0,0,0-.55.61,2.7,2.7,0,0,0-.3.52.72.72,0,0,0-.11.35.63.63,0,0,0,0,.36.69.69,0,0,0,.16.32.75.75,0,0,0,.26.24l.22.09a.85.85,0,0,0,.5,0l.22-.09a1,1,0,0,0,.33-.33,2.51,2.51,0,0,1,.26-.45,2.94,2.94,0,0,1,.3-.31.75.75,0,0,0,.2-.3.73.73,0,0,0,.07-.36A.71.71,0,0,0,210.44,176.49Z" fill="#24285b"></path><path d="M221,177.18a1,1,0,0,0-.55-.43l-.67-.26a17,17,0,0,1-1.6-.79.92.92,0,1,0-.94,1.59,17.14,17.14,0,0,0,2.72,1.25.95.95,0,0,0,1.14-.65A.93.93,0,0,0,221,177.18Z" fill="#24285b"></path><path d="M229.17,231.66S195.6,236.19,203.7,244s27.94,2,27.94,2Z" fill="#f4a28c"></path><path d="M155.13,86.55s-53.65,83.56-38.53,109.39,71.55,11,71.55,11v-13.8s-43.3-1.21-43.61-11.92,16-15.14,25.23-45.41S155.13,86.55,155.13,86.55Z" fill="#f4a28c"></path><path d="M188.15,193.17s12-1.44,11.7.57a4,4,0,0,1-2.41,2.83s4.47-1.16,7.61,3.55,2.53,7.63-1.37,9.55-15.53-2-15.53-2Z" fill="#f4a28c"></path><path d="M230.28,93.27l0,0c-3.85,5-12.2,5.77-16.34,1,0,0-.1.07-.16.09a8,8,0,0,1-5.46.4,8.11,8.11,0,0,1-4.24-2.47,7.35,7.35,0,0,1-1.51-3l-25.86-3.71c-2.4,16.66,11.72,32.48,31.53,35.32s37.81-8.36,40.2-25Z" fill="#68e1fd"></path><path d="M230.28,93.27l0,0c-3.85,5-12.2,5.77-16.34,1,0,0-.1.07-.16.09a8,8,0,0,1-5.46.4,8.11,8.11,0,0,1-4.24-2.47,7.35,7.35,0,0,1-1.51-3l-18.8-2.7c-1.92,13.38,9.42,26.09,25.32,28.37s30.36-6.72,32.28-20.1Z" fill="#fff" opacity="0.44"></path><path d="M228.64,104.39a7,7,0,0,1-.49-.72,5,5,0,0,1-.25-.52.92.92,0,0,0-.49-.5.66.66,0,0,0-.36-.07.74.74,0,0,0-.36.06,1,1,0,0,0-.5.49.94.94,0,0,0,0,.72,8.53,8.53,0,0,0,.49,1,8,8,0,0,0,.49.7,1,1,0,0,0,.61.36.74.74,0,0,0,.36,0,.63.63,0,0,0,.32-.15.88.88,0,0,0,.36-.61A.91.91,0,0,0,228.64,104.39Z" fill="#24285b"></path><path d="M218.75,105.89a.9.9,0,0,0-.34-.61.94.94,0,0,0-.7-.2.91.91,0,0,0-.6.35l-.13.2a1,1,0,0,0-.07.49c0,.56,0,1.11,0,1.67a.91.91,0,0,0,1,.8,1,1,0,0,0,.61-.34l.12-.21a.88.88,0,0,0,.07-.48Z" fill="#24285b"></path><path d="M207,104.83c0-.5-.28-.92-.93-.81a3,3,0,0,0-1.26.88,4.15,4.15,0,0,0-.67,1,.88.88,0,0,0,1.14,1.25,3,3,0,0,0,1.61-1.71A1.76,1.76,0,0,0,207,104.83Z" fill="#24285b"></path><path d="M199,100.59a1,1,0,0,0-.49-.5.94.94,0,0,0-.72,0l-1.92,1.06a.75.75,0,0,0-.29.2.66.66,0,0,0-.21.29,1,1,0,0,0,0,.72,1,1,0,0,0,.49.5.9.9,0,0,0,.72,0l1.92-1.06a.66.66,0,0,0,.29-.2.68.68,0,0,0,.21-.29A.94.94,0,0,0,199,100.59Z" fill="#24285b"></path><path d="M193.2,93.81c-.16-.89-1.2-.62-1.8-.39a3.25,3.25,0,0,0-.81.35.9.9,0,0,0,.54,1.6C191.94,95.47,193.38,94.79,193.2,93.81Z" fill="#24285b"></path><path d="M210.23,97.09a.79.79,0,0,0-1-.46,1.65,1.65,0,0,0-.51.33l-.85.68a1.34,1.34,0,0,0-.27.26.63.63,0,0,0,0,.61,1,1,0,0,0,.28.37l.21.12a.83.83,0,0,0,.49.07,1.83,1.83,0,0,0,.52-.15,2,2,0,0,0,.47-.27,2.19,2.19,0,0,0,.67-.84.68.68,0,0,0,.07-.37A.7.7,0,0,0,210.23,97.09Z" fill="#24285b"></path><path d="M219.5,99.58l-.36-1a.75.75,0,0,0-.2-.29.61.61,0,0,0-.29-.21.66.66,0,0,0-.36-.07.74.74,0,0,0-.36.06l-.21.12a.89.89,0,0,0-.29.37l-.07.24a1,1,0,0,0,.06.48l.37,1a.72.72,0,0,0,.2.29.78.78,0,0,0,.29.21.86.86,0,0,0,.36.07.76.76,0,0,0,.36-.06l.2-.12a1,1,0,0,0,.3-.37l.06-.24A.79.79,0,0,0,219.5,99.58Z" fill="#24285b"></path><path d="M231.93,99.78a.9.9,0,0,0-.18-.44l-.5-.56a.78.78,0,0,0-.27-.24.94.94,0,0,0-.71-.1.72.72,0,0,0-.32.15l-.17.17a1,1,0,0,0-.19.44v.25a.9.9,0,0,0,.18.44l.5.56a.67.67,0,0,0,.27.23.67.67,0,0,0,.34.13.77.77,0,0,0,.37,0,.83.83,0,0,0,.32-.14l.17-.17a1,1,0,0,0,.19-.44Z" fill="#24285b"></path><path d="M202.82,93.71a.76.76,0,0,0-.11-.34.67.67,0,0,0-.23-.27l-.2-.12a.92.92,0,0,0-.49-.07l-.23.06a.88.88,0,0,0-.38.28l-.57.63a.58.58,0,0,0-.16.32.8.8,0,0,0,.08.7.85.85,0,0,0,.22.28l.21.12a.92.92,0,0,0,.49.07l.23-.06a.93.93,0,0,0,.37-.28l.58-.63a.65.65,0,0,0,.16-.32A.66.66,0,0,0,202.82,93.71Z" fill="#24285b"></path><path d="M276.1,191.63c12.55,8.34,29.17-2.39,26.79-17.27a35.81,35.81,0,0,0-6.23-14.83c-13.87-19.9-38.13-53.28-38.13-53.28s-21.9-14.16-28.83-3.51,19,12.05,19,12.05S249.26,173.8,276.1,191.63Z" fill="#f4a28c"></path></svg>