<?xml version="1.0" encoding="utf-8"?>
<!-- Generator: Adobe Illustrator 26.4.1, SVG Export Plug-In . SVG Version: 6.00 Build 0)  -->
<svg version="1.1" id="Lager_1" xmlns="http://www.w3.org/2000/svg" xmlns:xlink="http://www.w3.org/1999/xlink" x="0px" y="0px"
	 viewBox="0 0 319.2 420" style="enable-background:new 0 0 319.2 420;" xml:space="preserve">
<style type="text/css">
	.st0{fill:#1322D5;}
</style>
<path class="st0" d="M266,91.7l-10.4,285.6c-0.1,1.8-1.8,3.5-3.7,3.5H67.2c-1.8,0-3.6-1.7-3.7-3.5L53.2,91.7
	c-0.4-10.8-9.5-19.3-20.3-18.9C22.1,73.2,13.6,82.3,14,93.1l10.4,285.6c0.8,22.9,19.9,41.3,42.8,41.3H252c23,0,42-18.4,42.8-41.3
	l10.4-285.6c0.4-10.8-8-19.9-18.9-20.3C275.5,72.4,266.4,80.9,266,91.7L266,91.7L266,91.7z"/>
<path class="st0" d="M145.6,148.4v190.4c0,7.7,6.3,14,14,14s14-6.3,14-14V148.4c0-7.7-6.3-14-14-14S145.6,140.7,145.6,148.4z"/>
<path class="st0" d="M81.2,148.8l5.6,190.4c0.2,7.7,6.7,13.8,14.4,13.6s13.8-6.7,13.6-14.4L109.2,148c-0.2-7.7-6.7-13.8-14.4-13.6
	S81,141.1,81.2,148.8L81.2,148.8z"/>
<path class="st0" d="M210,148l-5.6,190.4c-0.2,7.7,5.9,14.2,13.6,14.4c7.7,0.2,14.2-5.9,14.4-13.6l5.6-190.4
	c0.2-7.7-5.9-14.2-13.6-14.4C216.7,134.2,210.2,140.3,210,148L210,148L210,148z"/>
<path class="st0" d="M19.6,98h280c10.8,0,19.6-8.8,19.6-19.6s-8.8-19.6-19.6-19.6h-280C8.8,58.8,0,67.6,0,78.4S8.8,98,19.6,98
	L19.6,98z"/>
<path class="st0" d="M122.6,69.2l5.8-23.1c0.8-3.3,5.4-6.9,8.8-6.9H182c3.4,0,8,3.6,8.8,6.9l5.8,23.1l38-9.5l-5.8-23.1
	C223.7,15.9,203.4,0,182,0h-44.8c-21.4,0-41.6,15.9-46.8,36.6l-5.8,23L122.6,69.2z"/>
</svg>
