<svg width="16" height="16" viewBox="0 0 16 16" fill="none" xmlns="http://www.w3.org/2000/svg">
<path d="M2.78942 4.18195C2.4049 3.79743 2.4049 3.174 2.78942 2.78947C3.17395 2.40495 3.79738 2.40495 4.1819 2.78947L13.2105 11.8181C13.595 12.2026 13.595 12.826 13.2105 13.2105C12.826 13.5951 12.2025 13.5951 11.818 13.2105L2.78942 4.18195Z" fill="#959595"/>
<path d="M11.8191 2.78839C12.2037 2.40387 12.8271 2.40387 13.2116 2.78839C13.5961 3.17291 13.5961 3.79634 13.2116 4.18086L4.18086 13.2116C3.79634 13.5961 3.17291 13.5961 2.78839 13.2116C2.40387 12.8271 2.40387 12.2037 2.78839 11.8191L11.8191 2.78839Z" fill="#959595"/>
</svg>
