<svg enable-background="new 0 0 24 24" height="24" viewBox="0 0 24 24" width="24" xmlns="http://www.w3.org/2000/svg"><path d="m0 0h24v24h-24z" fill="none"/><path d="m0 0h24v24h-24z" fill="none"/><path d="m18 12c-.55 0-1 .45-1 1v5.22c0 .55-.45 1-1 1h-10c-.55 0-1-.45-1-1v-10.22c0-.55.45-1 1-1h5c.55 0 1-.45 1-1s-.45-1-1-1h-6c-1.1 0-2 .9-2 2v12c0 1.1.9 2 2 2h12c1.1 0 2-.9 2-2v-6c0-.55-.45-1-1-1z"/><path d="m21.02 5h-2.02v-2.02c0-.54-.44-.98-.98-.98h-.03c-.55 0-.99.44-.99.98v2.02h-2.01c-.54 0-.98.44-.99.98v.03c0 .55.44.99.99.99h2.01v2.01c0 .54.44.99.99.98h.03c.54 0 .98-.44.98-.98v-2.01h2.02c.54 0 .98-.44.98-.98v-.04c0-.54-.44-.98-.98-.98z"/><path d="m14 9h-6c-.55 0-1 .45-1 1s.45 1 1 1h6c.55 0 1-.45 1-1s-.45-1-1-1z"/><path d="m14 12h-6c-.55 0-1 .45-1 1s.45 1 1 1h6c.55 0 1-.45 1-1s-.45-1-1-1z"/><path d="m14 15h-6c-.55 0-1 .45-1 1s.45 1 1 1h6c.55 0 1-.45 1-1s-.45-1-1-1z"/></svg>