<svg width="30" height="30" viewBox="0 0 30 30" fill="none" xmlns="http://www.w3.org/2000/svg">
<path d="M18.7409 9.32009C18.8359 9.43409 18.9766 9.5 19.125 9.5H22.8C23.3683 9.5 23.7645 9.50039 24.0729 9.52559C24.3755 9.55031 24.5493 9.5964 24.681 9.66349C24.9632 9.8073 25.1927 10.0368 25.3365 10.319C25.4036 10.4507 25.4497 10.6245 25.4744 10.9271C25.4996 11.2355 25.5 11.6317 25.5 12.2V17.05C25.5 17.6183 25.4996 18.0145 25.4744 18.3229C25.4497 18.6255 25.4036 18.7993 25.3365 18.931C25.1927 19.2132 24.9632 19.4427 24.681 19.5865C24.5493 19.6536 24.3755 19.6997 24.0729 19.7244C23.7645 19.7496 23.3683 19.75 22.8 19.75H11.7C11.1317 19.75 10.7355 19.7496 10.4271 19.7244C10.1245 19.6997 9.95069 19.6536 9.81901 19.5865C9.53677 19.4427 9.3073 19.2132 9.16349 18.931C9.0964 18.7993 9.05031 18.6255 9.02559 18.3229C9.00039 18.0145 9 17.6183 9 17.05V8.45C9 7.8817 9.00039 7.48554 9.02559 7.17712C9.05031 6.87454 9.0964 6.70069 9.16349 6.56901C9.3073 6.28677 9.53677 6.0573 9.81901 5.91349C9.95069 5.8464 10.1245 5.80031 10.4271 5.77559C10.7355 5.75039 11.1317 5.75 11.7 5.75H14.5012C15.0792 5.75 15.2764 5.75402 15.453 5.80151C15.6226 5.84714 15.7829 5.92222 15.9265 6.02332C16.076 6.12852 16.2054 6.27748 16.5754 6.7215L18.7409 9.32009Z" stroke="black" stroke-linejoin="round"/>
<path d="M21.25 20V22.6C21.25 23.4401 21.25 23.8601 21.0865 24.181C20.9427 24.4632 20.7132 24.6927 20.431 24.8365C20.1101 25 19.6901 25 18.85 25H6.15C5.30992 25 4.88988 25 4.56901 24.8365C4.28677 24.6927 4.0573 24.4632 3.91349 24.181C3.75 23.8601 3.75 23.4401 3.75 22.6V12.4C3.75 11.5599 3.75 11.1399 3.91349 10.819C4.0573 10.5368 4.28677 10.3073 4.56901 10.1635C4.88988 10 5.30992 10 6.15 10H8.75" stroke="black" stroke-linejoin="round"/>
</svg>
