<svg width="31" height="31" viewBox="0 0 31 31" fill="none" xmlns="http://www.w3.org/2000/svg">
<path d="M12.2709 18.7292L12.2709 14.8542" stroke="black" stroke-width="2" stroke-linecap="round"/>
<path d="M18.7291 18.7292L18.7291 14.8542" stroke="black" stroke-width="2" stroke-linecap="round"/>
<path d="M3.875 8.39584H27.125H26.6042C24.7185 8.39584 23.7757 8.39584 23.19 8.98163C22.6042 9.56742 22.6042 10.5102 22.6042 12.3958V21.1875C22.6042 23.0731 22.6042 24.0159 22.0184 24.6017C21.4326 25.1875 20.4898 25.1875 18.6042 25.1875H12.3958C10.5102 25.1875 9.56741 25.1875 8.98162 24.6017C8.39583 24.0159 8.39583 23.0731 8.39583 21.1875V12.3958C8.39583 10.5102 8.39583 9.56742 7.81005 8.98163C7.22426 8.39584 6.28145 8.39584 4.39583 8.39584H3.875Z" stroke="black" stroke-width="2" stroke-linecap="round"/>
<path d="M12.2708 4.52114C12.2708 4.52114 12.9166 3.22916 15.5 3.22916C18.0833 3.22916 18.7291 4.52082 18.7291 4.52082" stroke="black" stroke-width="2" stroke-linecap="round"/>
</svg>

