<?xml version="1.0" encoding="iso-8859-1"?>
<!-- Generator: Adobe Illustrator 19.0.0, SVG Export Plug-In . SVG Version: 6.00 Build 0)  -->
<svg version="1.1" id="Capa_1" xmlns="http://www.w3.org/2000/svg" xmlns:xlink="http://www.w3.org/1999/xlink" x="0px" y="0px"
	 viewBox="0 0 477.867 477.867" style="enable-background:new 0 0 477.867 477.867;" xml:space="preserve">
<g>
	<g>
		<path d="M443.733,68.267H324.267V51.2c0-28.277-22.923-51.2-51.2-51.2H204.8c-28.277,0-51.2,22.923-51.2,51.2v17.067H34.133
			c-9.426,0-17.067,7.641-17.067,17.067S24.708,102.4,34.133,102.4h18.551l32.649,359.953c0.805,8.814,8.216,15.55,17.067,15.514
			h273.067c8.851,0.037,16.261-6.699,17.067-15.514L425.182,102.4h18.552c9.426,0,17.067-7.641,17.067-17.067
			S453.159,68.267,443.733,68.267z M187.733,51.2c0-9.426,7.641-17.067,17.067-17.067h68.267c9.426,0,17.067,7.641,17.067,17.067
			v17.067h-102.4V51.2z M171.964,409.594c-0.029,0.002-0.057,0.004-0.086,0.006h-1.212c-8.972,0.023-16.43-6.906-17.067-15.855
			l-17.067-238.933c-0.669-9.426,6.429-17.609,15.855-18.278c9.426-0.669,17.609,6.429,18.278,15.855l17.067,238.933
			C188.425,400.722,181.365,408.903,171.964,409.594z M256,392.533c0,9.426-7.641,17.067-17.067,17.067s-17.067-7.641-17.067-17.067
			V153.6c0-9.426,7.641-17.067,17.067-17.067S256,144.174,256,153.6V392.533z M341.333,154.812l-17.067,238.933
			c-0.637,8.949-8.095,15.878-17.067,15.855h-1.229c-9.403-0.653-16.496-8.805-15.843-18.208c0.002-0.023,0.003-0.047,0.005-0.07
			L307.2,152.388c0.669-9.426,8.853-16.524,18.278-15.855C334.904,137.203,342.003,145.386,341.333,154.812z"/>
	</g>
</g>
<g>
</g>
<g>
</g>
<g>
</g>
<g>
</g>
<g>
</g>
<g>
</g>
<g>
</g>
<g>
</g>
<g>
</g>
<g>
</g>
<g>
</g>
<g>
</g>
<g>
</g>
<g>
</g>
<g>
</g>
</svg>
