<?xml version="1.0" encoding="utf-8"?>
<!-- Svg Vector Icons : http://www.onlinewebfonts.com/icon -->
<!DOCTYPE svg PUBLIC "-//W3C//DTD SVG 1.1//EN" "http://www.w3.org/Graphics/SVG/1.1/DTD/svg11.dtd">
<svg version="1.1" xmlns="http://www.w3.org/2000/svg" xmlns:xlink="http://www.w3.org/1999/xlink" x="0px" y="0px" viewBox="0 0 1000 1000" enable-background="new 0 0 1000 1000" xml:space="preserve">
<metadata> Svg Vector Icons : http://www.onlinewebfonts.com/icon </metadata>
<g><path d="M976.2,166.7c-18.3-18.3-42.8-18.3-61.2,0L462.5,619.3L285.2,441.9c-18.3-18.3-42.8-18.3-61.2,0c-18.3,18.3-18.3,42.8,0,61.2L432,711c6.1,6.1,18.3,12.2,30.6,12.2s24.5-6.1,30.6-12.2l483.1-483.1C994.6,209.5,994.6,185.1,976.2,166.7z"/><path d="M890.6,564.2c-24.5-6.1-48.9,6.1-55,30.6c-42.8,165.1-195.7,287.4-366.9,287.4C260.7,882.2,89.5,711,89.5,503.1c0-207.9,171.2-379.2,379.2-379.2c73.4,0,146.8,24.5,207.9,61.2c18.3,12.2,48.9,6.1,61.2-12.2c12.2-18.3,6.1-48.9-12.2-61.2c-73.4-48.9-165.1-79.5-256.8-79.5C217.9,38.3,10,246.2,10,503.1s207.9,464.8,464.8,464.8c214,0,397.5-146.8,452.5-348.6C933.4,594.8,915.1,570.3,890.6,564.2z"/></g>
</svg>