<svg width="5046" height="3671" viewBox="0 0 5046 3671" fill="none" xmlns="http://www.w3.org/2000/svg">
<ellipse cx="1950.48" cy="1354.17" rx="787.949" ry="745.582" transform="rotate(-180 1950.48 1354.17)" fill="#ECECEC"/>
<ellipse cx="1057.95" cy="1789.42" rx="787.949" ry="745.582" transform="rotate(-180 1057.95 1789.42)" fill="#ECECEC"/>
<ellipse cx="3852.32" cy="1641.45" rx="787.949" ry="745.582" transform="rotate(-180 3852.32 1641.45)" fill="#ECECEC"/>
<ellipse cx="3032.9" cy="1123.58" rx="787.949" ry="745.582" transform="rotate(-180 3032.9 1123.58)" fill="#ECECEC"/>
<ellipse cx="3092.81" cy="2145.62" rx="787.949" ry="740.398" fill="#ECECEC"/>
<ellipse cx="3985.34" cy="1713.4" rx="787.949" ry="740.398" fill="#ECECEC"/>
<ellipse cx="1190.97" cy="1860.34" rx="787.949" ry="740.398" fill="#ECECEC"/>
<ellipse cx="2010.39" cy="2374.61" rx="787.949" ry="740.398" fill="#ECECEC"/>
<rect x="1041.49" y="1713.09" width="2516.59" height="414.712" rx="40" stroke="#A9D7CC" stroke-width="28" stroke-dasharray="56 56"/>
<rect x="1119.67" y="1645.35" width="2516.59" height="414.712" rx="40" stroke="#A9D7CC" stroke-width="28" stroke-dasharray="56 56"/>
<rect x="1196.84" y="1578.56" width="2516.59" height="414.712" rx="40" fill="white" stroke="#A9D7CC" stroke-width="28" stroke-dasharray="48 48"/>
<ellipse cx="4084.85" cy="1801.18" rx="189.879" ry="178.421" fill="#D5DBDC"/>
<path d="M4056.25 1912.89V1711.76H4107.1V1912.89H4056.25ZM3981.11 1837.75V1786.9H4182.25V1837.75H3981.11Z" fill="#002D51"/>
<path d="M1562.51 1412.27H1514.72L1576.8 1228.27H1636L1698.09 1412.27H1650.29L1607.08 1274.63H1605.64L1562.51 1412.27ZM1556.13 1339.86H1656.04V1373.64H1556.13V1339.86ZM1785.91 1412.27H1717.9V1228.27H1785.82C1804.57 1228.27 1820.71 1231.96 1834.25 1239.32C1847.84 1246.63 1858.32 1257.17 1865.69 1270.95C1873.06 1284.66 1876.74 1301.07 1876.74 1320.18C1876.74 1339.35 1873.06 1355.82 1865.69 1369.6C1858.38 1383.37 1847.93 1393.94 1834.33 1401.31C1820.74 1408.62 1804.6 1412.27 1785.91 1412.27ZM1762.37 1374.36H1784.2C1794.5 1374.36 1803.22 1372.62 1810.35 1369.15C1817.53 1365.61 1822.95 1359.89 1826.61 1351.99C1830.32 1344.02 1832.18 1333.42 1832.18 1320.18C1832.18 1306.94 1830.32 1296.4 1826.61 1288.56C1822.89 1280.65 1817.41 1274.96 1810.17 1271.49C1802.98 1267.95 1794.11 1266.19 1783.57 1266.19H1762.37V1374.36ZM1970.72 1412.27H1902.71V1228.27H1970.63C1989.38 1228.27 2005.52 1231.96 2019.05 1239.32C2032.65 1246.63 2043.13 1257.17 2050.5 1270.95C2057.87 1284.66 2061.55 1301.07 2061.55 1320.18C2061.55 1339.35 2057.87 1355.82 2050.5 1369.6C2043.19 1383.37 2032.74 1393.94 2019.14 1401.31C2005.55 1408.62 1989.41 1412.27 1970.72 1412.27ZM1947.18 1374.36H1969.01C1979.31 1374.36 1988.03 1372.62 1995.16 1369.15C2002.34 1365.61 2007.76 1359.89 2011.42 1351.99C2015.13 1344.02 2016.99 1333.42 2016.99 1320.18C2016.99 1306.94 2015.13 1296.4 2011.42 1288.56C2007.7 1280.65 2002.22 1274.96 1994.98 1271.49C1987.79 1267.95 1978.92 1266.19 1968.38 1266.19H1947.18V1374.36ZM2181.67 1412.27H2133.87L2195.96 1228.27H2255.16L2317.25 1412.27H2269.45L2226.23 1274.63H2224.8L2181.67 1412.27ZM2175.29 1339.86H2275.2V1373.64H2175.29V1339.86ZM2385.39 1264.39V1228.27H2540.91V1264.39H2485.12V1412.27H2441.27V1264.39H2385.39ZM2727.9 1320.27C2727.9 1340.52 2724.01 1357.68 2716.22 1371.75C2708.43 1385.83 2697.89 1396.52 2684.59 1403.83C2671.36 1411.13 2656.5 1414.79 2640.03 1414.79C2623.5 1414.79 2608.62 1411.1 2595.38 1403.74C2582.14 1396.37 2571.63 1385.68 2563.84 1371.66C2556.12 1357.59 2552.25 1340.46 2552.25 1320.27C2552.25 1300.03 2556.12 1282.87 2563.84 1268.79C2571.63 1254.72 2582.14 1244.02 2595.38 1236.72C2608.62 1229.41 2623.5 1225.76 2640.03 1225.76C2656.5 1225.76 2671.36 1229.41 2684.59 1236.72C2697.89 1244.02 2708.43 1254.72 2716.22 1268.79C2724.01 1282.87 2727.9 1300.03 2727.9 1320.27ZM2682.44 1320.27C2682.44 1308.29 2680.73 1298.17 2677.32 1289.9C2673.96 1281.64 2669.11 1275.38 2662.76 1271.13C2656.47 1266.87 2648.9 1264.75 2640.03 1264.75C2631.23 1264.75 2623.65 1266.87 2617.3 1271.13C2610.95 1275.38 2606.07 1281.64 2602.66 1289.9C2599.3 1298.17 2597.62 1308.29 2597.62 1320.27C2597.62 1332.25 2599.3 1342.37 2602.66 1350.64C2606.07 1358.9 2610.95 1365.16 2617.3 1369.42C2623.65 1373.67 2631.23 1375.79 2640.03 1375.79C2648.9 1375.79 2656.47 1373.67 2662.76 1369.42C2669.11 1365.16 2673.96 1358.9 2677.32 1350.64C2680.73 1342.37 2682.44 1332.25 2682.44 1320.27ZM2876.23 1412.27H2808.22V1228.27H2876.14C2894.89 1228.27 2911.03 1231.96 2924.57 1239.32C2938.16 1246.63 2948.64 1257.17 2956.01 1270.95C2963.38 1284.66 2967.06 1301.07 2967.06 1320.18C2967.06 1339.35 2963.38 1355.82 2956.01 1369.6C2948.7 1383.37 2938.25 1393.94 2924.66 1401.31C2911.06 1408.62 2894.92 1412.27 2876.23 1412.27ZM2852.69 1374.36H2874.52C2884.83 1374.36 2893.54 1372.62 2900.67 1369.15C2907.86 1365.61 2913.28 1359.89 2916.93 1351.99C2920.64 1344.02 2922.5 1333.42 2922.5 1320.18C2922.5 1306.94 2920.64 1296.4 2916.93 1288.56C2913.22 1280.65 2907.74 1274.96 2900.49 1271.49C2893.3 1267.95 2884.44 1266.19 2873.89 1266.19H2852.69V1374.36ZM3166.7 1320.27C3166.7 1340.52 3162.8 1357.68 3155.02 1371.75C3147.23 1385.83 3136.69 1396.52 3123.39 1403.83C3110.15 1411.13 3095.3 1414.79 3078.83 1414.79C3062.3 1414.79 3047.41 1411.1 3034.18 1403.74C3020.94 1396.37 3010.43 1385.68 3002.64 1371.66C2994.91 1357.59 2991.05 1340.46 2991.05 1320.27C2991.05 1300.03 2994.91 1282.87 3002.64 1268.79C3010.43 1254.72 3020.94 1244.02 3034.18 1236.72C3047.41 1229.41 3062.3 1225.76 3078.83 1225.76C3095.3 1225.76 3110.15 1229.41 3123.39 1236.72C3136.69 1244.02 3147.23 1254.72 3155.02 1268.79C3162.8 1282.87 3166.7 1300.03 3166.7 1320.27ZM3121.23 1320.27C3121.23 1308.29 3119.53 1298.17 3116.11 1289.9C3112.76 1281.64 3107.91 1275.38 3101.56 1271.13C3095.27 1266.87 3087.69 1264.75 3078.83 1264.75C3070.02 1264.75 3062.45 1266.87 3056.1 1271.13C3049.75 1275.38 3044.87 1281.64 3041.45 1289.9C3038.1 1298.17 3036.42 1308.29 3036.42 1320.27C3036.42 1332.25 3038.1 1342.37 3041.45 1350.64C3044.87 1358.9 3049.75 1365.16 3056.1 1369.42C3062.45 1373.67 3070.02 1375.79 3078.83 1375.79C3087.69 1375.79 3095.27 1373.67 3101.56 1369.42C3107.91 1365.16 3112.76 1358.9 3116.11 1350.64C3119.53 1342.37 3121.23 1332.25 3121.23 1320.27Z" fill="#A9D7CC"/>
<path d="M1664.22 1088.45H1682.83L1700.74 1122.28H1701.5L1719.41 1088.45H1738.01L1709.37 1139.23V1167H1692.87V1139.23L1664.22 1088.45ZM1761.05 1168.15C1755.1 1168.15 1749.94 1166.88 1745.6 1164.35C1741.28 1161.8 1737.94 1158.24 1735.59 1153.69C1733.24 1149.12 1732.06 1143.81 1732.06 1137.78C1732.06 1131.69 1733.24 1126.37 1735.59 1121.82C1737.94 1117.24 1741.28 1113.69 1745.6 1111.16C1749.94 1108.6 1755.1 1107.32 1761.05 1107.32C1767.01 1107.32 1772.15 1108.6 1776.47 1111.16C1780.82 1113.69 1784.17 1117.24 1786.52 1121.82C1788.87 1126.37 1790.05 1131.69 1790.05 1137.78C1790.05 1143.81 1788.87 1149.12 1786.52 1153.69C1784.17 1158.24 1780.82 1161.8 1776.47 1164.35C1772.15 1166.88 1767.01 1168.15 1761.05 1168.15ZM1761.13 1155.49C1763.84 1155.49 1766.1 1154.73 1767.92 1153.19C1769.73 1151.63 1771.1 1149.51 1772.02 1146.83C1772.97 1144.14 1773.44 1141.09 1773.44 1137.66C1773.44 1134.23 1772.97 1131.18 1772.02 1128.49C1771.1 1125.81 1769.73 1123.69 1767.92 1122.13C1766.1 1120.57 1763.84 1119.79 1761.13 1119.79C1758.4 1119.79 1756.09 1120.57 1754.23 1122.13C1752.39 1123.69 1750.99 1125.81 1750.05 1128.49C1749.13 1131.18 1748.67 1134.23 1748.67 1137.66C1748.67 1141.09 1749.13 1144.14 1750.05 1146.83C1750.99 1149.51 1752.39 1151.63 1754.23 1153.19C1756.09 1154.73 1758.4 1155.49 1761.13 1155.49ZM1838.45 1141.92V1108.09H1854.79V1167H1839.1V1156.3H1838.49C1837.16 1159.75 1834.95 1162.53 1831.85 1164.62C1828.78 1166.72 1825.04 1167.77 1820.62 1167.77C1816.68 1167.77 1813.21 1166.87 1810.22 1165.08C1807.23 1163.29 1804.89 1160.75 1803.2 1157.45C1801.54 1154.15 1800.7 1150.2 1800.67 1145.6V1108.09H1817.01V1142.68C1817.04 1146.16 1817.97 1148.91 1819.81 1150.93C1821.65 1152.95 1824.12 1153.96 1827.21 1153.96C1829.18 1153.96 1831.02 1153.51 1832.73 1152.62C1834.45 1151.7 1835.83 1150.34 1836.88 1148.55C1837.95 1146.76 1838.47 1144.55 1838.45 1141.92ZM1919.39 1190.32C1914.1 1190.32 1909.56 1189.59 1905.78 1188.13C1902.02 1186.7 1899.03 1184.74 1896.8 1182.26C1894.58 1179.78 1893.13 1177 1892.47 1173.9L1907.58 1171.87C1908.04 1173.05 1908.77 1174.15 1909.77 1175.17C1910.76 1176.19 1912.08 1177.01 1913.72 1177.62C1915.38 1178.26 1917.4 1178.58 1919.78 1178.58C1923.33 1178.58 1926.26 1177.71 1928.56 1175.97C1930.88 1174.26 1932.05 1171.38 1932.05 1167.35V1156.57H1931.36C1930.64 1158.2 1929.57 1159.75 1928.14 1161.21C1926.7 1162.67 1924.86 1163.86 1922.61 1164.78C1920.36 1165.7 1917.68 1166.16 1914.56 1166.16C1910.14 1166.16 1906.11 1165.13 1902.48 1163.09C1898.87 1161.02 1896 1157.86 1893.85 1153.62C1891.73 1149.35 1890.67 1143.95 1890.67 1137.43C1890.67 1130.76 1891.75 1125.18 1893.93 1120.71C1896.1 1116.23 1898.99 1112.88 1902.59 1110.66C1906.22 1108.44 1910.2 1107.32 1914.52 1107.32C1917.82 1107.32 1920.58 1107.89 1922.81 1109.01C1925.03 1110.11 1926.82 1111.49 1928.17 1113.15C1929.56 1114.79 1930.62 1116.4 1931.36 1117.99H1931.97V1108.09H1948.19V1167.58C1948.19 1172.59 1946.97 1176.78 1944.51 1180.15C1942.06 1183.53 1938.66 1186.06 1934.31 1187.75C1929.99 1189.46 1925.02 1190.32 1919.39 1190.32ZM1919.74 1153.88C1922.37 1153.88 1924.59 1153.23 1926.41 1151.93C1928.25 1150.6 1929.66 1148.71 1930.63 1146.25C1931.63 1143.77 1932.12 1140.81 1932.12 1137.35C1932.12 1133.9 1931.64 1130.91 1930.67 1128.38C1929.7 1125.82 1928.29 1123.84 1926.45 1122.43C1924.61 1121.03 1922.37 1120.33 1919.74 1120.33C1917.05 1120.33 1914.79 1121.05 1912.95 1122.51C1911.11 1123.94 1909.71 1125.94 1908.77 1128.49C1907.82 1131.05 1907.35 1134 1907.35 1137.35C1907.35 1140.75 1907.82 1143.69 1908.77 1146.17C1909.74 1148.63 1911.13 1150.53 1912.95 1151.89C1914.79 1153.22 1917.05 1153.88 1919.74 1153.88ZM1987.81 1168.15C1981.85 1168.15 1976.7 1166.88 1972.36 1164.35C1968.04 1161.8 1964.7 1158.24 1962.35 1153.69C1959.99 1149.12 1958.82 1143.81 1958.82 1137.78C1958.82 1131.69 1959.99 1126.37 1962.35 1121.82C1964.7 1117.24 1968.04 1113.69 1972.36 1111.16C1976.7 1108.6 1981.85 1107.32 1987.81 1107.32C1993.77 1107.32 1998.91 1108.6 2003.23 1111.16C2007.58 1113.69 2010.93 1117.24 2013.28 1121.82C2015.63 1126.37 2016.81 1131.69 2016.81 1137.78C2016.81 1143.81 2015.63 1149.12 2013.28 1153.69C2010.93 1158.24 2007.58 1161.8 2003.23 1164.35C1998.91 1166.88 1993.77 1168.15 1987.81 1168.15ZM1987.89 1155.49C1990.6 1155.49 1992.86 1154.73 1994.68 1153.19C1996.49 1151.63 1997.86 1149.51 1998.78 1146.83C1999.73 1144.14 2000.2 1141.09 2000.2 1137.66C2000.2 1134.23 1999.73 1131.18 1998.78 1128.49C1997.86 1125.81 1996.49 1123.69 1994.68 1122.13C1992.86 1120.57 1990.6 1119.79 1987.89 1119.79C1985.15 1119.79 1982.85 1120.57 1980.99 1122.13C1979.14 1123.69 1977.75 1125.81 1976.81 1128.49C1975.88 1131.18 1975.42 1134.23 1975.42 1137.66C1975.42 1141.09 1975.88 1144.14 1976.81 1146.83C1977.75 1149.51 1979.14 1151.63 1980.99 1153.19C1982.85 1154.73 1985.15 1155.49 1987.89 1155.49ZM2058.76 1108.09V1120.36H2023.29V1108.09H2058.76ZM2031.34 1093.98H2047.68V1148.9C2047.68 1150.41 2047.91 1151.58 2048.37 1152.43C2048.83 1153.24 2049.47 1153.82 2050.29 1154.15C2051.13 1154.48 2052.1 1154.65 2053.2 1154.65C2053.97 1154.65 2054.74 1154.59 2055.5 1154.46C2056.27 1154.31 2056.86 1154.19 2057.27 1154.11L2059.84 1166.27C2059.02 1166.53 2057.87 1166.82 2056.39 1167.15C2054.9 1167.51 2053.1 1167.73 2050.98 1167.81C2047.04 1167.96 2043.59 1167.43 2040.62 1166.23C2037.68 1165.03 2035.39 1163.16 2033.76 1160.63C2032.12 1158.1 2031.32 1154.91 2031.34 1151.05V1093.98ZM2110.74 1132.94V1167H2094.4V1108.09H2109.97V1118.48H2110.66C2111.97 1115.06 2114.15 1112.35 2117.22 1110.35C2120.29 1108.33 2124.01 1107.32 2128.38 1107.32C2132.47 1107.32 2136.04 1108.22 2139.08 1110.01C2142.13 1111.8 2144.49 1114.36 2146.18 1117.68C2147.87 1120.98 2148.71 1124.91 2148.71 1129.49V1167H2132.37V1132.41C2132.4 1128.8 2131.48 1125.99 2129.61 1123.97C2127.74 1121.92 2125.17 1120.9 2121.9 1120.9C2119.7 1120.9 2117.76 1121.37 2116.07 1122.32C2114.41 1123.27 2113.11 1124.65 2112.16 1126.46C2111.24 1128.25 2110.77 1130.41 2110.74 1132.94ZM2188.2 1168.15C2182.25 1168.15 2177.09 1166.88 2172.75 1164.35C2168.43 1161.8 2165.09 1158.24 2162.74 1153.69C2160.38 1149.12 2159.21 1143.81 2159.21 1137.78C2159.21 1131.69 2160.38 1126.37 2162.74 1121.82C2165.09 1117.24 2168.43 1113.69 2172.75 1111.16C2177.09 1108.6 2182.25 1107.32 2188.2 1107.32C2194.16 1107.32 2199.3 1108.6 2203.62 1111.16C2207.97 1113.69 2211.32 1117.24 2213.67 1121.82C2216.02 1126.37 2217.2 1131.69 2217.2 1137.78C2217.2 1143.81 2216.02 1149.12 2213.67 1153.69C2211.32 1158.24 2207.97 1161.8 2203.62 1164.35C2199.3 1166.88 2194.16 1168.15 2188.2 1168.15ZM2188.28 1155.49C2190.99 1155.49 2193.25 1154.73 2195.07 1153.19C2196.88 1151.63 2198.25 1149.51 2199.17 1146.83C2200.12 1144.14 2200.59 1141.09 2200.59 1137.66C2200.59 1134.23 2200.12 1131.18 2199.17 1128.49C2198.25 1125.81 2196.88 1123.69 2195.07 1122.13C2193.25 1120.57 2190.99 1119.79 2188.28 1119.79C2185.54 1119.79 2183.24 1120.57 2181.38 1122.13C2179.54 1123.69 2178.14 1125.81 2177.2 1128.49C2176.28 1131.18 2175.81 1134.23 2175.81 1137.66C2175.81 1141.09 2176.28 1144.14 2177.2 1146.83C2178.14 1149.51 2179.54 1151.63 2181.38 1153.19C2183.24 1154.73 2185.54 1155.49 2188.28 1155.49ZM2259.15 1108.09V1120.36H2223.68V1108.09H2259.15ZM2231.73 1093.98H2248.07V1148.9C2248.07 1150.41 2248.3 1151.58 2248.76 1152.43C2249.22 1153.24 2249.86 1153.82 2250.68 1154.15C2251.52 1154.48 2252.49 1154.65 2253.59 1154.65C2254.36 1154.65 2255.13 1154.59 2255.89 1154.46C2256.66 1154.31 2257.25 1154.19 2257.66 1154.11L2260.23 1166.27C2259.41 1166.53 2258.26 1166.82 2256.78 1167.15C2255.29 1167.51 2253.49 1167.73 2251.37 1167.81C2247.43 1167.96 2243.98 1167.43 2241.01 1166.23C2238.07 1165.03 2235.79 1163.16 2234.15 1160.63C2232.51 1158.1 2231.71 1154.91 2231.73 1151.05V1093.98ZM2287.4 1132.94V1167H2271.06V1088.45H2286.94V1118.48H2287.63C2288.96 1115.01 2291.11 1112.28 2294.07 1110.32C2297.04 1108.32 2300.76 1107.32 2305.23 1107.32C2309.33 1107.32 2312.89 1108.22 2315.94 1110.01C2319 1111.77 2321.38 1114.32 2323.07 1117.64C2324.78 1120.94 2325.63 1124.89 2325.6 1129.49V1167H2309.26V1132.41C2309.29 1128.78 2308.37 1125.95 2306.5 1123.93C2304.66 1121.91 2302.08 1120.9 2298.75 1120.9C2296.53 1120.9 2294.56 1121.37 2292.85 1122.32C2291.16 1123.27 2289.83 1124.65 2288.86 1126.46C2287.91 1128.25 2287.43 1130.41 2287.4 1132.94ZM2338.46 1167V1108.09H2354.8V1167H2338.46ZM2346.66 1100.5C2344.24 1100.5 2342.15 1099.69 2340.41 1098.08C2338.7 1096.44 2337.84 1094.49 2337.84 1092.21C2337.84 1089.96 2338.7 1088.03 2340.41 1086.42C2342.15 1084.79 2344.24 1083.97 2346.66 1083.97C2349.09 1083.97 2351.16 1084.79 2352.88 1086.42C2354.62 1088.03 2355.49 1089.96 2355.49 1092.21C2355.49 1094.49 2354.62 1096.44 2352.88 1098.08C2351.16 1099.69 2349.09 1100.5 2346.66 1100.5ZM2384.22 1132.94V1167H2367.88V1108.09H2383.45V1118.48H2384.14C2385.45 1115.06 2387.63 1112.35 2390.7 1110.35C2393.77 1108.33 2397.49 1107.32 2401.86 1107.32C2405.95 1107.32 2409.52 1108.22 2412.56 1110.01C2415.61 1111.8 2417.97 1114.36 2419.66 1117.68C2421.35 1120.98 2422.19 1124.91 2422.19 1129.49V1167H2405.85V1132.41C2405.88 1128.8 2404.96 1125.99 2403.09 1123.97C2401.22 1121.92 2398.65 1120.9 2395.38 1120.9C2393.18 1120.9 2391.24 1121.37 2389.55 1122.32C2387.89 1123.27 2386.59 1124.65 2385.64 1126.46C2384.72 1128.25 2384.25 1130.41 2384.22 1132.94ZM2461.61 1190.32C2456.31 1190.32 2451.78 1189.59 2447.99 1188.13C2444.23 1186.7 2441.24 1184.74 2439.02 1182.26C2436.79 1179.78 2435.35 1177 2434.68 1173.9L2449.79 1171.87C2450.25 1173.05 2450.98 1174.15 2451.98 1175.17C2452.98 1176.19 2454.29 1177.01 2455.93 1177.62C2457.59 1178.26 2459.61 1178.58 2461.99 1178.58C2465.54 1178.58 2468.47 1177.71 2470.77 1175.97C2473.1 1174.26 2474.26 1171.38 2474.26 1167.35V1156.57H2473.57C2472.86 1158.2 2471.78 1159.75 2470.35 1161.21C2468.92 1162.67 2467.08 1163.86 2464.83 1164.78C2462.58 1165.7 2459.89 1166.16 2456.77 1166.16C2452.35 1166.16 2448.32 1165.13 2444.69 1163.09C2441.09 1161.02 2438.21 1157.86 2436.06 1153.62C2433.94 1149.35 2432.88 1143.95 2432.88 1137.43C2432.88 1130.76 2433.97 1125.18 2436.14 1120.71C2438.31 1116.23 2441.2 1112.88 2444.81 1110.66C2448.44 1108.44 2452.41 1107.32 2456.74 1107.32C2460.03 1107.32 2462.8 1107.89 2465.02 1109.01C2467.24 1110.11 2469.03 1111.49 2470.39 1113.15C2471.77 1114.79 2472.83 1116.4 2473.57 1117.99H2474.19V1108.09H2490.41V1167.58C2490.41 1172.59 2489.18 1176.78 2486.73 1180.15C2484.27 1183.53 2480.87 1186.06 2476.53 1187.75C2472.2 1189.46 2467.23 1190.32 2461.61 1190.32ZM2461.95 1153.88C2464.59 1153.88 2466.81 1153.23 2468.62 1151.93C2470.47 1150.6 2471.87 1148.71 2472.84 1146.25C2473.84 1143.77 2474.34 1140.81 2474.34 1137.35C2474.34 1133.9 2473.85 1130.91 2472.88 1128.38C2471.91 1125.82 2470.5 1123.84 2468.66 1122.43C2466.82 1121.03 2464.59 1120.33 2461.95 1120.33C2459.27 1120.33 2457 1121.05 2455.16 1122.51C2453.32 1123.94 2451.93 1125.94 2450.98 1128.49C2450.04 1131.05 2449.56 1134 2449.56 1137.35C2449.56 1140.75 2450.04 1143.69 2450.98 1146.17C2451.95 1148.63 2453.35 1150.53 2455.16 1151.89C2457 1153.22 2459.27 1153.88 2461.95 1153.88ZM2555.02 1168.15C2549.07 1168.15 2543.91 1166.88 2539.57 1164.35C2535.25 1161.8 2531.91 1158.24 2529.56 1153.69C2527.2 1149.12 2526.03 1143.81 2526.03 1137.78C2526.03 1131.69 2527.2 1126.37 2529.56 1121.82C2531.91 1117.24 2535.25 1113.69 2539.57 1111.16C2543.91 1108.6 2549.07 1107.32 2555.02 1107.32C2560.98 1107.32 2566.12 1108.6 2570.44 1111.16C2574.79 1113.69 2578.14 1117.24 2580.49 1121.82C2582.84 1126.37 2584.02 1131.69 2584.02 1137.78C2584.02 1143.81 2582.84 1149.12 2580.49 1153.69C2578.14 1158.24 2574.79 1161.8 2570.44 1164.35C2566.12 1166.88 2560.98 1168.15 2555.02 1168.15ZM2555.1 1155.49C2557.81 1155.49 2560.07 1154.73 2561.89 1153.19C2563.7 1151.63 2565.07 1149.51 2565.99 1146.83C2566.94 1144.14 2567.41 1141.09 2567.41 1137.66C2567.41 1134.23 2566.94 1131.18 2565.99 1128.49C2565.07 1125.81 2563.7 1123.69 2561.89 1122.13C2560.07 1120.57 2557.81 1119.79 2555.1 1119.79C2552.36 1119.79 2550.06 1120.57 2548.2 1122.13C2546.36 1123.69 2544.96 1125.81 2544.02 1128.49C2543.1 1131.18 2542.64 1134.23 2542.64 1137.66C2542.64 1141.09 2543.1 1144.14 2544.02 1146.83C2544.96 1149.51 2546.36 1151.63 2548.2 1153.19C2550.06 1154.73 2552.36 1155.49 2555.1 1155.49ZM2610.98 1132.94V1167H2594.64V1108.09H2610.21V1118.48H2610.9C2612.21 1115.06 2614.39 1112.35 2617.46 1110.35C2620.53 1108.33 2624.25 1107.32 2628.62 1107.32C2632.71 1107.32 2636.28 1108.22 2639.32 1110.01C2642.36 1111.8 2644.73 1114.36 2646.42 1117.68C2648.1 1120.98 2648.95 1124.91 2648.95 1129.49V1167H2632.61V1132.41C2632.64 1128.8 2631.71 1125.99 2629.85 1123.97C2627.98 1121.92 2625.41 1120.9 2622.14 1120.9C2619.94 1120.9 2618 1121.37 2616.31 1122.32C2614.65 1123.27 2613.34 1124.65 2612.4 1126.46C2611.48 1128.25 2611 1130.41 2610.98 1132.94ZM2696.91 1189.09C2694.84 1189.09 2692.89 1188.92 2691.08 1188.59C2689.29 1188.29 2687.81 1187.89 2686.63 1187.4L2690.31 1175.21C2692.23 1175.8 2693.95 1176.12 2695.49 1176.17C2697.05 1176.22 2698.39 1175.86 2699.52 1175.09C2700.67 1174.33 2701.6 1173.02 2702.31 1171.18L2703.27 1168.69L2682.14 1108.09H2699.32L2711.52 1151.35H2712.13L2724.44 1108.09H2741.74L2718.84 1173.37C2717.75 1176.54 2716.25 1179.3 2714.36 1181.65C2712.49 1184.03 2710.13 1185.86 2707.26 1187.13C2704.4 1188.44 2700.95 1189.09 2696.91 1189.09ZM2774.82 1168.15C2768.86 1168.15 2763.71 1166.88 2759.36 1164.35C2755.04 1161.8 2751.71 1158.24 2749.35 1153.69C2747 1149.12 2745.83 1143.81 2745.83 1137.78C2745.83 1131.69 2747 1126.37 2749.35 1121.82C2751.71 1117.24 2755.04 1113.69 2759.36 1111.16C2763.71 1108.6 2768.86 1107.32 2774.82 1107.32C2780.78 1107.32 2785.92 1108.6 2790.24 1111.16C2794.58 1113.69 2797.93 1117.24 2800.29 1121.82C2802.64 1126.37 2803.81 1131.69 2803.81 1137.78C2803.81 1143.81 2802.64 1149.12 2800.29 1153.69C2797.93 1158.24 2794.58 1161.8 2790.24 1164.35C2785.92 1166.88 2780.78 1168.15 2774.82 1168.15ZM2774.9 1155.49C2777.61 1155.49 2779.87 1154.73 2781.69 1153.19C2783.5 1151.63 2784.87 1149.51 2785.79 1146.83C2786.73 1144.14 2787.21 1141.09 2787.21 1137.66C2787.21 1134.23 2786.73 1131.18 2785.79 1128.49C2784.87 1125.81 2783.5 1123.69 2781.69 1122.13C2779.87 1120.57 2777.61 1119.79 2774.9 1119.79C2772.16 1119.79 2769.86 1120.57 2767.99 1122.13C2766.15 1123.69 2764.76 1125.81 2763.81 1128.49C2762.89 1131.18 2762.43 1134.23 2762.43 1137.66C2762.43 1141.09 2762.89 1144.14 2763.81 1146.83C2764.76 1149.51 2766.15 1151.63 2767.99 1153.19C2769.86 1154.73 2772.16 1155.49 2774.9 1155.49ZM2852.21 1141.92V1108.09H2868.55V1167H2852.87V1156.3H2852.25C2850.92 1159.75 2848.71 1162.53 2845.62 1164.62C2842.55 1166.72 2838.8 1167.77 2834.38 1167.77C2830.44 1167.77 2826.98 1166.87 2823.99 1165.08C2821 1163.29 2818.66 1160.75 2816.97 1157.45C2815.31 1154.15 2814.46 1150.2 2814.44 1145.6V1108.09H2830.78V1142.68C2830.8 1146.16 2831.73 1148.91 2833.58 1150.93C2835.42 1152.95 2837.88 1153.96 2840.98 1153.96C2842.95 1153.96 2844.79 1153.51 2846.5 1152.62C2848.21 1151.7 2849.59 1150.34 2850.64 1148.55C2851.72 1146.76 2852.24 1144.55 2852.21 1141.92ZM2881.62 1167V1108.09H2897.46V1118.37H2898.07C2899.15 1114.71 2900.95 1111.95 2903.48 1110.09C2906.01 1108.19 2908.93 1107.25 2912.23 1107.25C2913.04 1107.25 2913.93 1107.3 2914.87 1107.4C2915.82 1107.5 2916.65 1107.64 2917.37 1107.82V1122.32C2916.6 1122.09 2915.54 1121.88 2914.18 1121.71C2912.83 1121.53 2911.59 1121.44 2910.46 1121.44C2908.06 1121.44 2905.91 1121.96 2904.02 1123.01C2902.15 1124.03 2900.67 1125.46 2899.57 1127.31C2898.5 1129.15 2897.96 1131.27 2897.96 1133.67V1167H2881.62ZM2967.15 1088.45V1167H2950.81V1088.45H2967.15ZM2980.23 1167V1108.09H2996.57V1167H2980.23ZM2988.44 1100.5C2986.01 1100.5 2983.93 1099.69 2982.19 1098.08C2980.48 1096.44 2979.62 1094.49 2979.62 1092.21C2979.62 1089.96 2980.48 1088.03 2982.19 1086.42C2983.93 1084.79 2986.01 1083.97 2988.44 1083.97C2990.87 1083.97 2992.94 1084.79 2994.66 1086.42C2996.39 1088.03 2997.26 1089.96 2997.26 1092.21C2997.26 1094.49 2996.39 1096.44 2994.66 1098.08C2992.94 1099.69 2990.87 1100.5 2988.44 1100.5ZM3058.67 1124.89L3043.72 1125.81C3043.46 1124.53 3042.91 1123.38 3042.07 1122.36C3041.22 1121.31 3040.11 1120.48 3038.73 1119.87C3037.38 1119.23 3035.75 1118.91 3033.86 1118.91C3031.33 1118.91 3029.19 1119.44 3027.46 1120.52C3025.72 1121.57 3024.85 1122.97 3024.85 1124.74C3024.85 1126.14 3025.41 1127.33 3026.54 1128.3C3027.66 1129.27 3029.59 1130.05 3032.33 1130.64L3042.99 1132.79C3048.72 1133.97 3052.99 1135.86 3055.8 1138.47C3058.61 1141.07 3060.02 1144.5 3060.02 1148.74C3060.02 1152.61 3058.88 1155.99 3056.6 1158.91C3054.35 1161.82 3051.26 1164.1 3047.32 1165.73C3043.41 1167.35 3038.9 1168.15 3033.78 1168.15C3025.99 1168.15 3019.77 1166.53 3015.14 1163.28C3010.54 1160.01 3007.85 1155.56 3007.05 1149.93L3023.12 1149.09C3023.61 1151.47 3024.78 1153.28 3026.65 1154.54C3028.52 1155.76 3030.91 1156.38 3033.82 1156.38C3036.69 1156.38 3038.99 1155.83 3040.73 1154.73C3042.49 1153.6 3043.38 1152.16 3043.41 1150.39C3043.38 1148.91 3042.76 1147.7 3041.53 1146.75C3040.3 1145.78 3038.41 1145.04 3035.86 1144.53L3025.65 1142.49C3019.9 1141.34 3015.62 1139.35 3012.81 1136.51C3010.02 1133.67 3008.62 1130.05 3008.62 1125.66C3008.62 1121.87 3009.65 1118.61 3011.69 1115.88C3013.76 1113.14 3016.67 1111.03 3020.4 1109.55C3024.16 1108.07 3028.56 1107.32 3033.59 1107.32C3041.03 1107.32 3046.89 1108.9 3051.16 1112.04C3055.45 1115.19 3057.96 1119.47 3058.67 1124.89ZM3101.64 1108.09V1120.36H3066.16V1108.09H3101.64ZM3074.22 1093.98H3090.56V1148.9C3090.56 1150.41 3090.79 1151.58 3091.25 1152.43C3091.71 1153.24 3092.34 1153.82 3093.16 1154.15C3094.01 1154.48 3094.98 1154.65 3096.08 1154.65C3096.84 1154.65 3097.61 1154.59 3098.38 1154.46C3099.15 1154.31 3099.73 1154.19 3100.14 1154.11L3102.71 1166.27C3101.89 1166.53 3100.74 1166.82 3099.26 1167.15C3097.78 1167.51 3095.98 1167.73 3093.85 1167.81C3089.92 1167.96 3086.46 1167.43 3083.5 1166.23C3080.56 1165.03 3078.27 1163.16 3076.63 1160.63C3075 1158.1 3074.19 1154.91 3074.22 1151.05V1093.98Z" fill="#A9D7CC"/>
</svg>
