<svg width="3322" height="1002" viewBox="0 0 3322 1002" fill="none" xmlns="http://www.w3.org/2000/svg">
<ellipse cx="3124.47" cy="549.781" rx="197.467" ry="202.781" fill="#A9D7CC"/>
<line x1="3123.94" y1="460.5" x2="3123.94" y2="639.5" stroke="white" stroke-width="55" stroke-linecap="round"/>
<line x1="3211.11" y1="551.5" x2="3038.25" y2="551.5" stroke="white" stroke-width="55" stroke-linecap="round"/>
<rect x="14" y="448.125" width="2609.58" height="539.875" rx="40" stroke="#A9D7CC" stroke-width="28" stroke-dasharray="56 56"/>
<rect x="95.043" y="361.231" width="2609.58" height="539.875" rx="40" stroke="#A9D7CC" stroke-width="28" stroke-dasharray="56 56"/>
<rect x="175.033" y="275.56" width="2609.58" height="539.875" rx="40" fill="white" stroke="#A9D7CC" stroke-width="28" stroke-dasharray="48 48"/>
<path d="M715.158 633H671.329L738.112 439.545H790.821L857.51 633H813.68L765.222 483.753H763.711L715.158 633ZM712.419 556.96H815.947V588.887H712.419V556.96ZM936.073 633H867.494V439.545H936.639C956.098 439.545 972.849 443.418 986.892 451.164C1000.94 458.847 1011.74 469.899 1019.29 484.32C1026.91 498.741 1030.72 515.995 1030.72 536.084C1030.72 556.235 1026.91 573.553 1019.29 588.037C1011.74 602.521 1000.87 613.636 986.703 621.381C972.597 629.127 955.72 633 936.073 633ZM908.396 597.955H934.372C946.463 597.955 956.633 595.814 964.883 591.532C973.195 587.187 979.43 580.48 983.586 571.412C987.805 562.281 989.915 550.505 989.915 536.084C989.915 521.789 987.805 510.107 983.586 501.039C979.43 491.971 973.227 485.296 964.977 481.013C956.728 476.731 946.558 474.59 934.467 474.59H908.396V597.955ZM1116.3 633H1047.72V439.545H1116.86C1136.32 439.545 1153.07 443.418 1167.12 451.164C1181.16 458.847 1191.96 469.899 1199.52 484.32C1207.14 498.741 1210.95 515.995 1210.95 536.084C1210.95 556.235 1207.14 573.553 1199.52 588.037C1191.96 602.521 1181.1 613.636 1166.93 621.381C1152.82 629.127 1135.95 633 1116.3 633ZM1088.62 597.955H1114.6C1126.69 597.955 1136.86 595.814 1145.11 591.532C1153.42 587.187 1159.66 580.48 1163.81 571.412C1168.03 562.281 1170.14 550.505 1170.14 536.084C1170.14 521.789 1168.03 510.107 1163.81 501.039C1159.66 491.971 1153.45 485.296 1145.2 481.013C1136.95 476.731 1126.78 474.59 1114.69 474.59H1088.62V597.955ZM1309.55 633H1265.72L1332.51 439.545H1385.22L1451.91 633H1408.08L1359.62 483.753H1358.11L1309.55 633ZM1306.81 556.96H1410.34V588.887H1306.81V556.96ZM1502.79 473.268V439.545H1661.67V473.268H1602.44V633H1562.01V473.268H1502.79ZM1843.48 536.273C1843.48 557.369 1839.48 575.316 1831.48 590.115C1823.55 604.914 1812.71 616.218 1798.99 624.026C1785.32 631.772 1769.95 635.645 1752.89 635.645C1735.7 635.645 1720.27 631.741 1706.6 623.932C1692.94 616.123 1682.14 604.819 1674.2 590.021C1666.27 575.222 1662.3 557.306 1662.3 536.273C1662.3 515.177 1666.27 497.229 1674.2 482.43C1682.14 467.632 1692.94 456.359 1706.6 448.614C1720.27 440.805 1735.7 436.901 1752.89 436.901C1769.95 436.901 1785.32 440.805 1798.99 448.614C1812.71 456.359 1823.55 467.632 1831.48 482.43C1839.48 497.229 1843.48 515.177 1843.48 536.273ZM1802.01 536.273C1802.01 522.607 1799.96 511.083 1795.87 501.7C1791.84 492.317 1786.14 485.201 1778.77 480.352C1771.4 475.503 1762.78 473.079 1752.89 473.079C1743 473.079 1734.37 475.503 1727.01 480.352C1719.64 485.201 1713.91 492.317 1709.82 501.7C1705.78 511.083 1703.77 522.607 1703.77 536.273C1703.77 549.938 1705.78 561.462 1709.82 570.845C1713.91 580.228 1719.64 587.344 1727.01 592.193C1734.37 597.042 1743 599.467 1752.89 599.467C1762.78 599.467 1771.4 597.042 1778.77 592.193C1786.14 587.344 1791.84 580.228 1795.87 570.845C1799.96 561.462 1802.01 549.938 1802.01 536.273ZM1977.32 633H1908.74V439.545H1977.88C1997.34 439.545 2014.09 443.418 2028.14 451.164C2042.18 458.847 2052.98 469.899 2060.54 484.32C2068.16 498.741 2071.97 515.995 2071.97 536.084C2071.97 556.235 2068.16 573.553 2060.54 588.037C2052.98 602.521 2042.12 613.636 2027.95 621.381C2013.84 629.127 1996.96 633 1977.32 633ZM1949.64 597.955H1975.62C1987.71 597.955 1997.88 595.814 2006.13 591.532C2014.44 587.187 2020.67 580.48 2024.83 571.412C2029.05 562.281 2031.16 550.505 2031.16 536.084C2031.16 521.789 2029.05 510.107 2024.83 501.039C2020.67 491.971 2014.47 485.296 2006.22 481.013C1997.97 476.731 1987.8 474.59 1975.71 474.59H1949.64V597.955ZM2266.74 536.273C2266.74 557.369 2262.74 575.316 2254.74 590.115C2246.81 604.914 2235.98 616.218 2222.25 624.026C2208.58 631.772 2193.22 635.645 2176.15 635.645C2158.96 635.645 2143.53 631.741 2129.87 623.932C2116.2 616.123 2105.4 604.819 2097.47 590.021C2089.53 575.222 2085.56 557.306 2085.56 536.273C2085.56 515.177 2089.53 497.229 2097.47 482.43C2105.4 467.632 2116.2 456.359 2129.87 448.614C2143.53 440.805 2158.96 436.901 2176.15 436.901C2193.22 436.901 2208.58 440.805 2222.25 448.614C2235.98 456.359 2246.81 467.632 2254.74 482.43C2262.74 497.229 2266.74 515.177 2266.74 536.273ZM2225.27 536.273C2225.27 522.607 2223.22 511.083 2219.13 501.7C2215.1 492.317 2209.4 485.201 2202.03 480.352C2194.67 475.503 2186.04 473.079 2176.15 473.079C2166.26 473.079 2157.64 475.503 2150.27 480.352C2142.9 485.201 2137.17 492.317 2133.08 501.7C2129.05 511.083 2127.03 522.607 2127.03 536.273C2127.03 549.938 2129.05 561.462 2133.08 570.845C2137.17 580.228 2142.9 587.344 2150.27 592.193C2157.64 597.042 2166.26 599.467 2176.15 599.467C2186.04 599.467 2194.67 597.042 2202.03 592.193C2209.4 587.344 2215.1 580.228 2219.13 570.845C2223.22 561.462 2225.27 549.938 2225.27 536.273Z" fill="#A9D7CC"/>
<path d="M437.867 133V93.818L442.936 107.244L400.74 37.1H424.304L456.636 90.941H443.073L475.542 37.1H497.325L455.129 107.244L460.061 93.818V133H437.867ZM532.015 134.096C524.16 134.096 517.173 132.452 511.054 129.164C505.026 125.876 500.231 121.401 496.669 115.738C493.198 109.984 491.463 103.454 491.463 96.147C491.463 88.749 493.198 82.2187 496.669 76.556C500.231 70.802 505.026 66.3267 511.054 63.13C517.173 59.842 524.16 58.198 532.015 58.198C539.778 58.198 546.72 59.842 552.839 63.13C558.958 66.3267 563.753 70.7563 567.224 76.419C570.695 82.0817 572.43 88.6577 572.43 96.147C572.43 103.454 570.695 109.984 567.224 115.738C563.753 121.401 558.958 125.876 552.839 129.164C546.72 132.452 539.778 134.096 532.015 134.096ZM532.015 116.56C535.577 116.56 538.774 115.738 541.605 114.094C544.436 112.45 546.674 110.121 548.318 107.107C549.962 104.002 550.784 100.348 550.784 96.147C550.784 91.8543 549.962 88.201 548.318 85.187C546.674 82.173 544.436 79.844 541.605 78.2C538.774 76.556 535.577 75.734 532.015 75.734C528.453 75.734 525.256 76.556 522.425 78.2C519.594 79.844 517.31 82.173 515.575 85.187C513.931 88.201 513.109 91.8543 513.109 96.147C513.109 100.348 513.931 104.002 515.575 107.107C517.31 110.121 519.594 112.45 522.425 114.094C525.256 115.738 528.453 116.56 532.015 116.56ZM617.815 134.096C611.695 134.096 606.215 132.909 601.375 130.534C596.625 128.159 592.926 124.552 590.278 119.711C587.629 114.779 586.305 108.523 586.305 100.942V59.294H607.677V97.791C607.677 103.91 608.955 108.431 611.513 111.354C614.161 114.185 617.86 115.601 622.61 115.601C625.898 115.601 628.82 114.916 631.378 113.546C633.935 112.085 635.944 109.893 637.406 106.97C638.867 103.956 639.598 100.211 639.598 95.736V59.294H660.97V133H640.694V112.724L644.393 118.615C641.927 123.73 638.273 127.611 633.433 130.26C628.683 132.817 623.477 134.096 617.815 134.096ZM754.229 160.674C747.288 160.674 740.575 159.806 734.09 158.071C727.697 156.427 722.354 153.915 718.061 150.536L726.555 135.192C729.66 137.749 733.588 139.759 738.337 141.22C743.178 142.773 747.927 143.549 752.585 143.549C760.166 143.549 765.646 141.859 769.025 138.48C772.496 135.101 774.231 130.077 774.231 123.41V112.313L775.601 93.818L775.327 75.186V59.294H795.603V120.67C795.603 134.37 792.041 144.462 784.917 150.947C777.793 157.432 767.564 160.674 754.229 160.674ZM750.941 129.438C744.091 129.438 737.88 127.977 732.309 125.054C726.829 122.04 722.399 117.884 719.02 112.587C715.732 107.198 714.088 100.942 714.088 93.818C714.088 86.6027 715.732 80.3463 719.02 75.049C722.399 69.6603 726.829 65.5047 732.309 62.582C737.88 59.6593 744.091 58.198 750.941 58.198C757.152 58.198 762.632 59.4767 767.381 62.034C772.13 64.5 775.829 68.3817 778.478 73.679C781.127 78.885 782.451 85.598 782.451 93.818C782.451 101.947 781.127 108.66 778.478 113.957C775.829 119.163 772.13 123.045 767.381 125.602C762.632 128.159 757.152 129.438 750.941 129.438ZM755.188 111.902C758.933 111.902 762.266 111.171 765.189 109.71C768.112 108.157 770.395 106.011 772.039 103.271C773.683 100.531 774.505 97.38 774.505 93.818C774.505 90.1647 773.683 87.0137 772.039 84.365C770.395 81.625 768.112 79.5243 765.189 78.063C762.266 76.5103 758.933 75.734 755.188 75.734C751.443 75.734 748.11 76.5103 745.187 78.063C742.264 79.5243 739.935 81.625 738.2 84.365C736.556 87.0137 735.734 90.1647 735.734 93.818C735.734 97.38 736.556 100.531 738.2 103.271C739.935 106.011 742.264 108.157 745.187 109.71C748.11 111.171 751.443 111.902 755.188 111.902ZM850.567 134.096C842.712 134.096 835.725 132.452 829.606 129.164C823.578 125.876 818.783 121.401 815.221 115.738C811.75 109.984 810.015 103.454 810.015 96.147C810.015 88.749 811.75 82.2187 815.221 76.556C818.783 70.802 823.578 66.3267 829.606 63.13C835.725 59.842 842.712 58.198 850.567 58.198C858.33 58.198 865.272 59.842 871.391 63.13C877.51 66.3267 882.305 70.7563 885.776 76.419C889.247 82.0817 890.982 88.6577 890.982 96.147C890.982 103.454 889.247 109.984 885.776 115.738C882.305 121.401 877.51 125.876 871.391 129.164C865.272 132.452 858.33 134.096 850.567 134.096ZM850.567 116.56C854.129 116.56 857.326 115.738 860.157 114.094C862.988 112.45 865.226 110.121 866.87 107.107C868.514 104.002 869.336 100.348 869.336 96.147C869.336 91.8543 868.514 88.201 866.87 85.187C865.226 82.173 862.988 79.844 860.157 78.2C857.326 76.556 854.129 75.734 850.567 75.734C847.005 75.734 843.808 76.556 840.977 78.2C838.146 79.844 835.862 82.173 834.127 85.187C832.483 88.201 831.661 91.8543 831.661 96.147C831.661 100.348 832.483 104.002 834.127 107.107C835.862 110.121 838.146 112.45 840.977 114.094C843.808 115.738 847.005 116.56 850.567 116.56ZM935.407 134.096C926.731 134.096 919.972 131.904 915.131 127.52C910.291 123.045 907.87 116.423 907.87 107.655V42.991H929.242V107.381C929.242 110.486 930.064 112.907 931.708 114.642C933.352 116.286 935.59 117.108 938.421 117.108C941.801 117.108 944.678 116.195 947.052 114.368L952.806 129.438C950.614 130.991 947.966 132.178 944.86 133C941.846 133.731 938.695 134.096 935.407 134.096ZM896.499 77.378V60.938H947.6V77.378H896.499ZM1048.4 58.198C1054.25 58.198 1059.45 59.3853 1064.02 61.76C1068.68 64.0433 1072.33 67.6053 1074.98 72.446C1077.63 77.1953 1078.95 83.3147 1078.95 90.804V133H1057.58V94.092C1057.58 88.1553 1056.26 83.7713 1053.61 80.94C1051.05 78.1087 1047.4 76.693 1042.65 76.693C1039.27 76.693 1036.21 77.4237 1033.47 78.885C1030.82 80.255 1028.72 82.4013 1027.17 85.324C1025.7 88.2467 1024.97 91.9913 1024.97 96.558V133H1003.6V59.294H1024.02V79.707L1020.18 73.542C1022.83 68.61 1026.62 64.8197 1031.55 62.171C1036.48 59.5223 1042.1 58.198 1048.4 58.198ZM1133.93 134.096C1126.08 134.096 1119.09 132.452 1112.97 129.164C1106.94 125.876 1102.15 121.401 1098.59 115.738C1095.12 109.984 1093.38 103.454 1093.38 96.147C1093.38 88.749 1095.12 82.2187 1098.59 76.556C1102.15 70.802 1106.94 66.3267 1112.97 63.13C1119.09 59.842 1126.08 58.198 1133.93 58.198C1141.7 58.198 1148.64 59.842 1154.76 63.13C1160.88 66.3267 1165.67 70.7563 1169.14 76.419C1172.61 82.0817 1174.35 88.6577 1174.35 96.147C1174.35 103.454 1172.61 109.984 1169.14 115.738C1165.67 121.401 1160.88 125.876 1154.76 129.164C1148.64 132.452 1141.7 134.096 1133.93 134.096ZM1133.93 116.56C1137.49 116.56 1140.69 115.738 1143.52 114.094C1146.35 112.45 1148.59 110.121 1150.24 107.107C1151.88 104.002 1152.7 100.348 1152.7 96.147C1152.7 91.8543 1151.88 88.201 1150.24 85.187C1148.59 82.173 1146.35 79.844 1143.52 78.2C1140.69 76.556 1137.49 75.734 1133.93 75.734C1130.37 75.734 1127.17 76.556 1124.34 78.2C1121.51 79.844 1119.23 82.173 1117.49 85.187C1115.85 88.201 1115.03 91.8543 1115.03 96.147C1115.03 100.348 1115.85 104.002 1117.49 107.107C1119.23 110.121 1121.51 112.45 1124.34 114.094C1127.17 115.738 1130.37 116.56 1133.93 116.56ZM1218.77 134.096C1210.1 134.096 1203.34 131.904 1198.5 127.52C1193.66 123.045 1191.24 116.423 1191.24 107.655V42.991H1212.61V107.381C1212.61 110.486 1213.43 112.907 1215.07 114.642C1216.72 116.286 1218.96 117.108 1221.79 117.108C1225.17 117.108 1228.04 116.195 1230.42 114.368L1236.17 129.438C1233.98 130.991 1231.33 132.178 1228.23 133C1225.21 133.731 1222.06 134.096 1218.77 134.096ZM1179.86 77.378V60.938H1230.97V77.378H1179.86ZM1292.97 58.198C1298.81 58.198 1304.02 59.3853 1308.59 61.76C1313.24 64.0433 1316.9 67.6053 1319.55 72.446C1322.19 77.1953 1323.52 83.3147 1323.52 90.804V133H1302.15V94.092C1302.15 88.1553 1300.82 83.7713 1298.17 80.94C1295.62 78.1087 1291.96 76.693 1287.21 76.693C1283.83 76.693 1280.77 77.4237 1278.03 78.885C1275.39 80.255 1273.29 82.4013 1271.73 85.324C1270.27 88.2467 1269.54 91.9913 1269.54 96.558V133H1248.17V31.346H1269.54V79.707L1264.75 73.542C1267.39 68.61 1271.18 64.8197 1276.12 62.171C1281.05 59.5223 1286.67 58.198 1292.97 58.198ZM1342.89 133V59.294H1364.26V133H1342.89ZM1353.58 49.019C1349.65 49.019 1346.45 47.8773 1343.99 45.594C1341.52 43.3107 1340.29 40.4793 1340.29 37.1C1340.29 33.7207 1341.52 30.8893 1343.99 28.606C1346.45 26.3227 1349.65 25.181 1353.58 25.181C1357.5 25.181 1360.7 26.277 1363.17 28.469C1365.63 30.5697 1366.87 33.3097 1366.87 36.689C1366.87 40.251 1365.63 43.2193 1363.17 45.594C1360.79 47.8773 1357.6 49.019 1353.58 49.019ZM1428.9 58.198C1434.74 58.198 1439.95 59.3853 1444.52 61.76C1449.17 64.0433 1452.83 67.6053 1455.48 72.446C1458.12 77.1953 1459.45 83.3147 1459.45 90.804V133H1438.08V94.092C1438.08 88.1553 1436.75 83.7713 1434.1 80.94C1431.55 78.1087 1427.89 76.693 1423.14 76.693C1419.76 76.693 1416.7 77.4237 1413.96 78.885C1411.32 80.255 1409.22 82.4013 1407.66 85.324C1406.2 88.2467 1405.47 91.9913 1405.47 96.558V133H1384.1V59.294H1404.51V79.707L1400.68 73.542C1403.32 68.61 1407.11 64.8197 1412.05 62.171C1416.98 59.5223 1422.6 58.198 1428.9 58.198ZM1514.02 160.674C1507.08 160.674 1500.36 159.806 1493.88 158.071C1487.48 156.427 1482.14 153.915 1477.85 150.536L1486.34 135.192C1489.45 137.749 1493.38 139.759 1498.13 141.22C1502.97 142.773 1507.72 143.549 1512.37 143.549C1519.95 143.549 1525.43 141.859 1528.81 138.48C1532.28 135.101 1534.02 130.077 1534.02 123.41V112.313L1535.39 93.818L1535.12 75.186V59.294H1555.39V120.67C1555.39 134.37 1551.83 144.462 1544.71 150.947C1537.58 157.432 1527.35 160.674 1514.02 160.674ZM1510.73 129.438C1503.88 129.438 1497.67 127.977 1492.1 125.054C1486.62 122.04 1482.19 117.884 1478.81 112.587C1475.52 107.198 1473.88 100.942 1473.88 93.818C1473.88 86.6027 1475.52 80.3463 1478.81 75.049C1482.19 69.6603 1486.62 65.5047 1492.1 62.582C1497.67 59.6593 1503.88 58.198 1510.73 58.198C1516.94 58.198 1522.42 59.4767 1527.17 62.034C1531.92 64.5 1535.62 68.3817 1538.27 73.679C1540.91 78.885 1542.24 85.598 1542.24 93.818C1542.24 101.947 1540.91 108.66 1538.27 113.957C1535.62 119.163 1531.92 123.045 1527.17 125.602C1522.42 128.159 1516.94 129.438 1510.73 129.438ZM1514.98 111.902C1518.72 111.902 1522.05 111.171 1524.98 109.71C1527.9 108.157 1530.18 106.011 1531.83 103.271C1533.47 100.531 1534.29 97.38 1534.29 93.818C1534.29 90.1647 1533.47 87.0137 1531.83 84.365C1530.18 81.625 1527.9 79.5243 1524.98 78.063C1522.05 76.5103 1518.72 75.734 1514.98 75.734C1511.23 75.734 1507.9 76.5103 1504.98 78.063C1502.05 79.5243 1499.72 81.625 1497.99 84.365C1496.34 87.0137 1495.52 90.1647 1495.52 93.818C1495.52 97.38 1496.34 100.531 1497.99 103.271C1499.72 106.011 1502.05 108.157 1504.98 109.71C1507.9 111.171 1511.23 111.902 1514.98 111.902ZM1649.15 134.096C1641.3 134.096 1634.31 132.452 1628.19 129.164C1622.16 125.876 1617.37 121.401 1613.81 115.738C1610.34 109.984 1608.6 103.454 1608.6 96.147C1608.6 88.749 1610.34 82.2187 1613.81 76.556C1617.37 70.802 1622.16 66.3267 1628.19 63.13C1634.31 59.842 1641.3 58.198 1649.15 58.198C1656.92 58.198 1663.86 59.842 1669.98 63.13C1676.1 66.3267 1680.89 70.7563 1684.36 76.419C1687.83 82.0817 1689.57 88.6577 1689.57 96.147C1689.57 103.454 1687.83 109.984 1684.36 115.738C1680.89 121.401 1676.1 125.876 1669.98 129.164C1663.86 132.452 1656.92 134.096 1649.15 134.096ZM1649.15 116.56C1652.72 116.56 1655.91 115.738 1658.74 114.094C1661.58 112.45 1663.81 110.121 1665.46 107.107C1667.1 104.002 1667.92 100.348 1667.92 96.147C1667.92 91.8543 1667.1 88.201 1665.46 85.187C1663.81 82.173 1661.58 79.844 1658.74 78.2C1655.91 76.556 1652.72 75.734 1649.15 75.734C1645.59 75.734 1642.4 76.556 1639.56 78.2C1636.73 79.844 1634.45 82.173 1632.71 85.187C1631.07 88.201 1630.25 91.8543 1630.25 96.147C1630.25 100.348 1631.07 104.002 1632.71 107.107C1634.45 110.121 1636.73 112.45 1639.56 114.094C1642.4 115.738 1645.59 116.56 1649.15 116.56ZM1748.65 58.198C1754.5 58.198 1759.7 59.3853 1764.27 61.76C1768.93 64.0433 1772.58 67.6053 1775.23 72.446C1777.88 77.1953 1779.2 83.3147 1779.2 90.804V133H1757.83V94.092C1757.83 88.1553 1756.51 83.7713 1753.86 80.94C1751.3 78.1087 1747.65 76.693 1742.9 76.693C1739.52 76.693 1736.46 77.4237 1733.72 78.885C1731.07 80.255 1728.97 82.4013 1727.42 85.324C1725.96 88.2467 1725.23 91.9913 1725.23 96.558V133H1703.85V59.294H1724.27V79.707L1720.43 73.542C1723.08 68.61 1726.87 64.8197 1731.8 62.171C1736.73 59.5223 1742.35 58.198 1748.65 58.198ZM1846.69 160.674C1842.86 160.674 1839.07 160.08 1835.32 158.893C1831.58 157.706 1828.52 156.062 1826.14 153.961L1833.95 138.754C1835.59 140.215 1837.47 141.357 1839.57 142.179C1841.76 143.001 1843.91 143.412 1846.01 143.412C1849.02 143.412 1851.4 142.681 1853.13 141.22C1854.96 139.85 1856.6 137.521 1858.06 134.233L1861.9 125.191L1863.54 122.862L1889.98 59.294H1910.53L1877.24 137.521C1874.87 143.458 1872.13 148.116 1869.02 151.495C1866.01 154.874 1862.63 157.249 1858.88 158.619C1855.23 159.989 1851.17 160.674 1846.69 160.674ZM1859.3 135.877L1826.42 59.294H1848.47L1873.95 120.944L1859.3 135.877ZM1952.32 134.096C1944.47 134.096 1937.48 132.452 1931.36 129.164C1925.33 125.876 1920.54 121.401 1916.97 115.738C1913.5 109.984 1911.77 103.454 1911.77 96.147C1911.77 88.749 1913.5 82.2187 1916.97 76.556C1920.54 70.802 1925.33 66.3267 1931.36 63.13C1937.48 59.842 1944.47 58.198 1952.32 58.198C1960.08 58.198 1967.02 59.842 1973.14 63.13C1979.26 66.3267 1984.06 70.7563 1987.53 76.419C1991 82.0817 1992.73 88.6577 1992.73 96.147C1992.73 103.454 1991 109.984 1987.53 115.738C1984.06 121.401 1979.26 125.876 1973.14 129.164C1967.02 132.452 1960.08 134.096 1952.32 134.096ZM1952.32 116.56C1955.88 116.56 1959.08 115.738 1961.91 114.094C1964.74 112.45 1966.98 110.121 1968.62 107.107C1970.27 104.002 1971.09 100.348 1971.09 96.147C1971.09 91.8543 1970.27 88.201 1968.62 85.187C1966.98 82.173 1964.74 79.844 1961.91 78.2C1959.08 76.556 1955.88 75.734 1952.32 75.734C1948.76 75.734 1945.56 76.556 1942.73 78.2C1939.9 79.844 1937.62 82.173 1935.88 85.187C1934.24 88.201 1933.41 91.8543 1933.41 96.147C1933.41 100.348 1934.24 104.002 1935.88 107.107C1937.62 110.121 1939.9 112.45 1942.73 114.094C1945.56 115.738 1948.76 116.56 1952.32 116.56ZM2038.12 134.096C2032 134.096 2026.52 132.909 2021.68 130.534C2016.93 128.159 2013.23 124.552 2010.58 119.711C2007.93 114.779 2006.61 108.523 2006.61 100.942V59.294H2027.98V97.791C2027.98 103.91 2029.26 108.431 2031.82 111.354C2034.47 114.185 2038.16 115.601 2042.91 115.601C2046.2 115.601 2049.12 114.916 2051.68 113.546C2054.24 112.085 2056.25 109.893 2057.71 106.97C2059.17 103.956 2059.9 100.211 2059.9 95.736V59.294H2081.27V133H2061V112.724L2064.7 118.615C2062.23 123.73 2058.58 127.611 2053.74 130.26C2048.99 132.817 2043.78 134.096 2038.12 134.096ZM2101.07 133V59.294H2121.49V80.118L2118.61 74.09C2120.8 68.884 2124.32 64.9567 2129.16 62.308C2134 59.568 2139.89 58.198 2146.83 58.198V77.926C2145.92 77.8347 2145.1 77.789 2144.37 77.789C2143.64 77.6977 2142.86 77.652 2142.04 77.652C2136.19 77.652 2131.44 79.3417 2127.79 82.721C2124.23 86.009 2122.45 91.1693 2122.45 98.202V133H2101.07ZM2198.87 133V31.346H2220.25V133H2198.87ZM2240.08 133V59.294H2261.45V133H2240.08ZM2250.77 49.019C2246.84 49.019 2243.64 47.8773 2241.18 45.594C2238.71 43.3107 2237.48 40.4793 2237.48 37.1C2237.48 33.7207 2238.71 30.8893 2241.18 28.606C2243.64 26.3227 2246.84 25.181 2250.77 25.181C2254.69 25.181 2257.89 26.277 2260.36 28.469C2262.82 30.5697 2264.06 33.3097 2264.06 36.689C2264.06 40.251 2262.82 43.2193 2260.36 45.594C2257.98 47.8773 2254.79 49.019 2250.77 49.019ZM2306.08 134.096C2299.78 134.096 2293.71 133.365 2287.86 131.904C2282.11 130.351 2277.54 128.433 2274.16 126.15L2281.29 110.806C2284.67 112.907 2288.64 114.642 2293.21 116.012C2297.86 117.291 2302.43 117.93 2306.91 117.93C2311.84 117.93 2315.31 117.336 2317.32 116.149C2319.42 114.962 2320.47 113.318 2320.47 111.217C2320.47 109.482 2319.65 108.203 2318 107.381C2316.45 106.468 2314.35 105.783 2311.7 105.326C2309.05 104.869 2306.13 104.413 2302.93 103.956C2299.83 103.499 2296.68 102.906 2293.48 102.175C2290.28 101.353 2287.36 100.166 2284.71 98.613C2282.06 97.0603 2279.92 94.9597 2278.27 92.311C2276.72 89.6623 2275.94 86.2373 2275.94 82.036C2275.94 77.378 2277.27 73.268 2279.92 69.706C2282.66 66.144 2286.59 63.3583 2291.7 61.349C2296.81 59.2483 2302.93 58.198 2310.06 58.198C2315.08 58.198 2320.2 58.746 2325.4 59.842C2330.61 60.938 2334.95 62.5363 2338.42 64.637L2331.29 79.844C2327.73 77.7433 2324.12 76.3277 2320.47 75.597C2316.91 74.775 2313.44 74.364 2310.06 74.364C2305.31 74.364 2301.84 75.0033 2299.65 76.282C2297.45 77.5607 2296.36 79.2047 2296.36 81.214C2296.36 83.0407 2297.13 84.4107 2298.69 85.324C2300.33 86.2373 2302.48 86.968 2305.13 87.516C2307.77 88.064 2310.65 88.5663 2313.76 89.023C2316.95 89.3883 2320.15 89.982 2323.35 90.804C2326.54 91.626 2329.42 92.8133 2331.98 94.366C2334.63 95.8273 2336.77 97.8823 2338.42 100.531C2340.06 103.088 2340.88 106.468 2340.88 110.669C2340.88 115.236 2339.51 119.3 2336.77 122.862C2334.03 126.333 2330.06 129.073 2324.85 131.082C2319.74 133.091 2313.48 134.096 2306.08 134.096ZM2384.21 134.096C2375.53 134.096 2368.77 131.904 2363.93 127.52C2359.09 123.045 2356.67 116.423 2356.67 107.655V42.991H2378.04V107.381C2378.04 110.486 2378.87 112.907 2380.51 114.642C2382.15 116.286 2384.39 117.108 2387.22 117.108C2390.6 117.108 2393.48 116.195 2395.85 114.368L2401.61 129.438C2399.42 130.991 2396.77 132.178 2393.66 133C2390.65 133.731 2387.5 134.096 2384.21 134.096ZM2345.3 77.378V60.938H2396.4V77.378H2345.3Z" fill="#A9D7CC"/>
</svg>
