<svg id="Capa_1" enable-background="new 0 0 493.468 493.468" height="512" viewBox="0 0 493.468 493.468" width="512" xmlns="http://www.w3.org/2000/svg"><g><g><path d="m59.959 345.272v-328.048c0-9.512 7.712-17.224 17.225-17.224h339.101c9.513 0 17.224 7.712 17.224 17.224v328.543c0 5.196-2.346 10.115-6.384 13.385l-161.117 130.478c-6.089 4.931-14.738 5.131-21.049.487l-177.984-130.972c-4.411-3.246-7.016-8.397-7.016-13.873z" fill="#cc98ff"/></g><path d="m416.285 0h-13.088c.198 1.046.312 2.121.312 3.224v328.543c0 5.196-2.346 10.115-6.384 13.385l-161.117 130.478c-1.91 1.547-4.072 2.627-6.334 3.239l15.286 11.248c6.311 4.644 14.96 4.443 21.049-.487l161.117-130.478c4.038-3.27 6.384-8.189 6.384-13.385v-328.543c-.001-9.512-7.713-17.224-17.225-17.224z" fill="#ba87ee"/><g><path d="m368.247 329.651h-243.026c-6.87 0-12.439-5.569-12.439-12.439v-256.901c0-6.87 5.569-12.439 12.439-12.439h243.025c6.87 0 12.439 5.569 12.439 12.439v256.901c0 6.87-5.569 12.439-12.438 12.439z" fill="#f5f5f5"/></g><g><path d="m368.247 47.873h-30c6.87 0 12.439 5.569 12.439 12.439v256.901c0 6.87-5.569 12.439-12.439 12.439h30c6.87 0 12.439-5.569 12.439-12.439v-256.901c-.001-6.87-5.57-12.439-12.439-12.439z" fill="#efe9f1"/></g><g fill="#c8c3ca"><path d="m187.856 101.166v73.235c0 4.142 3.358 7.5 7.5 7.5s7.5-3.358 7.5-7.5v-73.235h14.883c4.142 0 7.5-3.358 7.5-7.5s-3.358-7.5-7.5-7.5h-44.587c-4.142 0-7.5 3.358-7.5 7.5s3.358 7.5 7.5 7.5z"/><path d="m327.164 133.952c0-26.395-21.473-47.868-47.867-47.868-26.395 0-47.868 21.473-47.868 47.868s21.473 47.868 47.868 47.868c26.394 0 47.867-21.474 47.867-47.868zm-80.735 0c0-18.124 14.744-32.868 32.868-32.868 18.123 0 32.867 14.744 32.867 32.868 0 18.123-14.744 32.868-32.867 32.868-18.124 0-32.868-14.745-32.868-32.868z"/><path d="m197.24 202.133h-18.015c-1.992 0-3.901.792-5.308 2.202s-2.196 3.321-2.192 5.313c0 .001.046 24.467.046 31.719 0 8.841.083 31.9.083 31.9.007 1.99.805 3.894 2.216 5.296 1.405 1.395 3.305 2.177 5.284 2.177h.029c.544-.002 13.386-.052 18.516-.141 18.848-.33 32.528-16.8 32.528-39.163 0-23.508-13.337-39.303-33.187-39.303zm.397 63.468c-2.475.043-6.918.078-10.808.101-.024-7.522-.058-18.76-.058-24.336 0-4.658-.019-16.409-.032-24.233h10.501c13.409 0 18.186 12.554 18.186 24.303.001 16.478-8.934 24.01-17.789 24.165z"/><path d="m287.542 202.001c-22.207 0-40.273 18.066-40.273 40.273s18.066 40.273 40.273 40.273c22.206 0 40.273-18.066 40.273-40.273s-18.066-40.273-40.273-40.273zm0 65.546c-13.936 0-25.273-11.337-25.273-25.273s11.337-25.273 25.273-25.273c13.935 0 25.273 11.337 25.273 25.273 0 13.935-11.337 25.273-25.273 25.273z"/></g><g><path d="m302.865 398.45h-96.6c-4.142 0-7.5-3.358-7.5-7.5s3.358-7.5 7.5-7.5h96.6c4.142 0 7.5 3.358 7.5 7.5s-3.358 7.5-7.5 7.5z" fill="#ba87ee"/></g></g></svg>