<svg width="64" height="64" xmlns="http://www.w3.org/2000/svg">
 <title/>

 <g>
  <title>background</title>
  <rect fill="none" id="canvas_background" height="402" width="582" y="-1" x="-1"/>
 </g>
 <g>
  <title>Layer 1</title>
  <path fill="#366999" id="svg_1" d="m61,18.34a3.43,3.43 0 0 0 -1.24,-2.34l-1.91,-1.6a3.48,3.48 0 0 0 -4.9,0.43l-2.4,2.85l-3.55,4.22l0,-10.07a3,3 0 0 0 -0.88,-2.12l-6.83,-6.83a3,3 0 0 0 -2.12,-0.88l-31.17,0a3,3 0 0 0 -3,3l0,54a3,3 0 0 0 3,3l38,0a3,3 0 0 0 3,-3l0,-22a0.93,0.93 0 0 0 -0.07,-0.33l13.26,-15.79a3.48,3.48 0 0 0 0.81,-2.54zm-16,40.66a1,1 0 0 1 -1,1l-38,0a1,1 0 0 1 -1,-1l0,-54a1,1 0 0 1 1,-1l31,0l0,7a1,1 0 0 0 1,1l7,0l0,12a1,1 0 0 0 0,0.23l-12.8,15.31a0.93,0.93 0 0 0 -0.2,0.38s0,0 0,0l-1.93,8.1a1,1 0 0 0 0.33,1a1,1 0 0 0 0.64,0.24a1.14,1.14 0 0 0 0.4,-0.08l7.64,-3.32l0,0a1,1 0 0 0 0.36,-0.27l5.56,-6.59l0,20zm-6.45,-15.44l-4.18,-3.5l17.07,-20.35l4.18,3.51l-17.07,20.34z"/>
  <path fill="#366999" id="svg_2" d="m22,14l11,0a1,1 0 0 0 0,-2l-11,0a1,1 0 0 0 0,2z"/>
  <path fill="#366999" id="svg_3" d="m21,26l18,0a1,1 0 0 0 0,-2l-18,0a1,1 0 0 0 0,2z"/>
  <path fill="#366999" id="svg_4" d="m31,37a1,1 0 0 0 -1,-1l-9,0a1,1 0 0 0 0,2l9,0a1,1 0 0 0 1,-1z"/>
  <path fill="#366999" id="svg_5" d="m17,33l-6,0a1,1 0 0 0 -1,1l0,6a1,1 0 0 0 1,1l6,0a1,1 0 0 0 1,-1l0,-6a1,1 0 0 0 -1,-1zm-1,6l-4,0l0,-4l4,0l0,4z"/>
  <path fill="#366999" id="svg_6" d="m27,48l-6,0a1,1 0 0 0 0,2l6,0a1,1 0 0 0 0,-2z"/>
  <path fill="#366999" id="svg_7" d="m17,45l-6,0a1,1 0 0 0 -1,1l0,6a1,1 0 0 0 1,1l6,0a1,1 0 0 0 1,-1l0,-6a1,1 0 0 0 -1,-1zm-1,6l-4,0l0,-4l4,0l0,4z"/>
  <path fill="#366999" id="svg_8" d="m13.29,28.71a1,1 0 0 0 0.71,0.29l0.16,0a1,1 0 0 0 0.73,-0.54l3,-6a1,1 0 1 0 -1.78,-0.9l-2.38,4.76l-2,-2a1,1 0 0 0 -1.42,1.42l2.98,2.97z"/>
  <path fill="#366999" id="svg_9" d="m13.29,16.71a1,1 0 0 0 0.71,0.29l0.16,0a1,1 0 0 0 0.73,-0.54l3,-6a1,1 0 1 0 -1.78,-0.9l-2.38,4.76l-2,-2a1,1 0 0 0 -1.42,1.42l2.98,2.97z"/>
 </g>
</svg>