<svg version="1.2" xmlns="http://www.w3.org/2000/svg" viewBox="0 0 580 574" width="580" height="574"><style>.a{fill:none;stroke:#000;stroke-linecap:round;stroke-linejoin:round;stroke-width:18.7}</style><path class="a" d="m430.1 118.4c-0.1 30-0.3 65.2-0.3 70.1 0 26.5-7.6 49.9-19.2 70.3-21.3 37.7-56.4 65.2-82.9 81.8-21.9 13.7-49.8 13.7-71.7 0-26.6-16.7-61.8-44.2-83.2-82.1-11.5-20.3-18.9-43.6-18.9-70 0-4.9 0.2-40.1 0.4-70.1 0.2-21.5 0.5-40.3 0.8-43.7h274.7c0.2 3.4 0.3 22.3 0.3 43.7z"/><path class="a" d="m292 427.9v-77"/><path class="a" d="m250.3 427.9h83.4c19.7 0 35.7 15.7 35.7 35.2v22.2h-154.7v-22.2c0-19.5 15.9-35.2 35.6-35.2z"/><path class="a" d="m172.8 258.5c-39.7-22.6-66.2-64.3-66.2-111.9v-28.2h47.7"/><path class="a" d="m430.1 118.4h47.3v28.2c0 47.8-26.8 89.6-66.8 112.2"/><path class="a" d="m334 214.1l9.9 52.3-51.9-24.7-51.9 24.7 9.9-52.3-42-37.1 58-7.6 26-47.6 26 47.6 58 7.6z"/><path  d="m43.3 698.1q-2.5 1.3-5.1 1.9-2.6 0.7-5.4 0.7-8.5 0-13.5-4.8-5-4.7-5-12.9 0-8.1 5-12.9 5-4.7 13.5-4.7 2.8 0 5.4 0.6 2.6 0.6 5.1 1.9v7q-2.5-1.6-4.8-2.4-2.4-0.8-5-0.8-4.7 0-7.4 3-2.7 3-2.7 8.3 0 5.3 2.7 8.3 2.7 3 7.4 3 2.6 0 5-0.8 2.3-0.7 4.8-2.4z"/><path  d="m69.1 681.4q-1-0.5-2.1-0.7-1.1-0.2-2.1-0.2-3.2 0-4.9 2-1.7 2-1.7 5.7v11.8h-8.1v-25.5h8.1v4.2q1.6-2.5 3.6-3.7 2.1-1.1 4.9-1.1 0.4 0 0.9 0 0.5 0 1.4 0.1z"/><path fill-rule="evenodd" d="m98.7 687.2v2.3h-19.1q0.3 2.9 2.1 4.3 1.7 1.4 4.9 1.4 2.6 0 5.3-0.7 2.7-0.8 5.6-2.3v6.3q-2.9 1-5.8 1.6-2.9 0.6-5.8 0.6-7 0-10.8-3.6-3.8-3.5-3.8-9.8 0-6.3 3.7-9.9 3.8-3.5 10.4-3.5 6 0 9.6 3.6 3.7 3.6 3.7 9.7zm-8.4-2.7q0-2.4-1.4-3.8-1.3-1.4-3.5-1.4-2.4 0-3.9 1.3-1.5 1.4-1.8 3.9z"/><path fill-rule="evenodd" d="m128.7 685.4v14.6h-8.2v-3.8q-1.6 2.3-3.7 3.4-2 1.1-5 1.1-3.9 0-6.4-2.4-2.5-2.3-2.5-6 0-4.4 3.1-6.5 3.1-2.1 9.7-2.1h4.8v-0.7q0-1.9-1.5-2.8-1.5-0.9-4.8-0.9-2.6 0-4.9 0.5-2.2 0.5-4.2 1.6v-6.2q2.7-0.7 5.3-1 2.7-0.3 5.3-0.3 6.9 0 10 2.7 3 2.7 3 8.8zm-12.4 3.1q-2.6 0-3.9 0.9-1.3 0.9-1.3 2.5 0 1.6 1.1 2.5 1 0.8 2.9 0.8 2.3 0 3.8-1.6 1.6-1.7 1.6-4.1v-1z"/><path  d="m145.2 667.2v7.3h8.4v5.8h-8.4v10.8q0 1.8 0.7 2.4 0.7 0.7 2.8 0.7h4.2v5.8h-7q-4.8 0-6.8-2-2-2-2-6.9v-10.8h-4.1v-5.8h4.1v-7.3z"/><path fill-rule="evenodd" d="m184.1 687.2v2.3h-19.1q0.3 2.9 2.1 4.3 1.8 1.4 5 1.4 2.5 0 5.3-0.7 2.7-0.8 5.5-2.3v6.3q-2.9 1-5.8 1.6-2.9 0.6-5.8 0.6-6.9 0-10.7-3.6-3.9-3.5-3.9-9.8 0-6.3 3.8-9.9 3.8-3.5 10.4-3.5 6 0 9.6 3.6 3.6 3.6 3.6 9.7zm-8.4-2.7q0-2.4-1.3-3.8-1.4-1.4-3.6-1.4-2.4 0-3.8 1.3-1.5 1.4-1.9 3.9z"/><path fill-rule="evenodd" d="m207.6 678.2v-13.7h8.2v35.5h-8.2v-3.7q-1.6 2.3-3.7 3.3-2 1.1-4.7 1.1-4.7 0-7.7-3.8-3-3.7-3-9.6 0-5.9 3-9.7 3-3.7 7.7-3.7 2.7 0 4.7 1 2.1 1.1 3.7 3.3zm-5.3 16.5q2.6 0 4-1.9 1.3-1.9 1.3-5.5 0-3.7-1.3-5.6-1.4-1.9-4-1.9-2.6 0-4 1.9-1.4 1.9-1.4 5.6 0 3.6 1.4 5.5 1.4 1.9 4 1.9z"/><path fill-rule="evenodd" d="m248.1 678.2q1.7-2.2 3.7-3.3 2.1-1 4.7-1 4.8 0 7.8 3.7 3 3.8 3 9.7 0 5.9-3 9.6-3 3.8-7.8 3.8-2.6 0-4.7-1.1-2-1.1-3.7-3.3v3.7h-8.2v-35.5h8.2zm5.4 16.6q2.6 0 4-1.9 1.4-2 1.4-5.6 0-3.7-1.4-5.6-1.4-1.9-4-1.9-2.6 0-4 1.9-1.4 2-1.4 5.6 0 3.6 1.4 5.5 1.4 2 4 2z"/><path  d="m270 674.5h8.2l6.8 17.3 5.8-17.3h8.2l-10.7 27.9q-1.6 4.3-3.8 6-2.2 1.7-5.7 1.7h-4.7v-5.4h2.5q2.1 0 3.1-0.7 0.9-0.6 1.4-2.3l0.3-0.7z"/><path fill-rule="evenodd" d="m320.4 666h9.2q7.8 0 11.6 1.1 3.8 1.1 6.5 3.7 2.4 2.3 3.5 5.3 1.2 3 1.2 6.9 0 3.8-1.2 6.8-1.1 3-3.5 5.3-2.8 2.7-6.6 3.8-3.8 1.1-11.5 1.1h-9.2zm8.7 6.6v20.8h3.2q5.4 0 8.2-2.7 2.8-2.6 2.8-7.7 0-5.1-2.8-7.7-2.8-2.7-8.2-2.7z"/><path  d="m358.7 674.5h8.2v25.5h-8.2zm0-9.9h8.2v6.6h-8.2z"/><path  d="m400.4 684.5v15.5h-8.2v-11.9q0-3.3-0.2-4.6-0.1-1.2-0.5-1.8-0.4-0.8-1.3-1.2-0.8-0.5-1.8-0.5-2.6 0-4 2-1.5 2-1.5 5.4v12.6h-8.2v-25.5h8.2v3.7q1.8-2.2 3.9-3.3 2.1-1 4.6-1 4.4 0 6.7 2.7 2.3 2.7 2.3 7.9z"/><path fill-rule="evenodd" d="m420.1 673.9q6.6 0 10.3 3.5 3.7 3.6 3.7 9.9 0 6.2-3.7 9.8-3.7 3.6-10.3 3.6-6.6 0-10.3-3.6-3.8-3.6-3.8-9.8 0-6.3 3.8-9.9 3.7-3.5 10.3-3.5zm0 5.8q-2.7 0-4.1 1.9-1.5 2-1.5 5.7 0 3.6 1.5 5.6 1.4 1.9 4.1 1.9 2.7 0 4.1-1.9 1.4-2 1.4-5.6 0-3.7-1.4-5.7-1.4-1.9-4.1-1.9z"/><path  d="m460 675.3v6.2q-2.7-1.1-5.1-1.7-2.4-0.5-4.6-0.5-2.3 0-3.5 0.6-1.1 0.6-1.1 1.8 0 0.9 0.9 1.5 0.8 0.5 3 0.7l1.5 0.2q6.2 0.8 8.4 2.7 2.2 1.8 2.2 5.7 0 4.1-3.1 6.1-3 2.1-8.9 2.1-2.6 0-5.3-0.5-2.6-0.3-5.5-1.1v-6.2q2.4 1.1 5 1.7 2.6 0.6 5.2 0.6 2.4 0 3.6-0.6 1.2-0.7 1.2-2 0-1.1-0.8-1.6-0.8-0.5-3.3-0.8l-1.5-0.2q-5.4-0.7-7.6-2.5-2.2-1.9-2.2-5.7 0-4 2.8-6 2.8-1.9 8.5-1.9 2.3 0 4.8 0.3 2.4 0.3 5.4 1.1z"/><path fill-rule="evenodd" d="m479.9 673.9q6.6 0 10.3 3.5 3.7 3.6 3.7 9.9 0 6.2-3.7 9.8-3.7 3.6-10.3 3.6-6.6 0-10.3-3.6-3.7-3.6-3.7-9.8 0-6.3 3.7-9.9 3.7-3.5 10.3-3.5zm0 5.8q-2.7 0-4.1 1.9-1.4 2-1.4 5.7 0 3.6 1.4 5.6 1.4 1.9 4.1 1.9 2.7 0 4.1-1.9 1.4-2 1.4-5.6 0-3.7-1.4-5.7-1.4-1.9-4.1-1.9z"/><path  d="m516.7 664.5v5.4h-4.6q-1.7 0-2.4 0.6-0.7 0.7-0.7 2.2v1.8h7v5.8h-7v19.7h-8.1v-19.7h-4.1v-5.8h4.1v-1.8q0-4.2 2.3-6.2 2.3-2 7.2-2z"/><path  d="m529.1 667.2v7.3h8.4v5.8h-8.4v10.8q0 1.8 0.7 2.4 0.7 0.7 2.8 0.7h4.2v5.8h-7q-4.9 0-6.9-2-2-2-2-6.9v-10.8h-4v-5.8h4v-7.3z"/><path  d="m542.8 666h8.8v27.4h15.4v6.6h-24.2z"/><path fill-rule="evenodd" d="m596.1 685.4v14.6h-8.2v-3.8q-1.7 2.3-3.7 3.4-2.1 1.1-5 1.1-4 0-6.4-2.4-2.5-2.3-2.5-6 0-4.4 3.1-6.5 3.1-2.1 9.7-2.1h4.8v-0.7q0-1.9-1.6-2.8-1.5-0.9-4.7-0.9-2.6 0-4.9 0.5-2.2 0.5-4.2 1.6v-6.2q2.6-0.7 5.3-1 2.6-0.3 5.3-0.3 6.9 0 9.9 2.7 3.1 2.7 3.1 8.8zm-12.5 3.1q-2.5 0-3.8 0.9-1.3 0.9-1.3 2.5 0 1.6 1.1 2.5 1 0.8 2.8 0.8 2.3 0 3.9-1.6 1.6-1.7 1.6-4.1v-1z"/><path fill-rule="evenodd" d="m611.9 678.2q1.6-2.2 3.7-3.3 2-1 4.7-1 4.7 0 7.8 3.7 3 3.8 3 9.7 0 5.9-3 9.6-3.1 3.8-7.8 3.8-2.7 0-4.7-1.1-2.1-1.1-3.7-3.3v3.7h-8.2v-35.5h8.2zm5.4 16.6q2.6 0 4-1.9 1.4-2 1.4-5.6 0-3.7-1.4-5.6-1.4-1.9-4-1.9-2.6 0-4.1 1.9-1.3 2-1.3 5.6 0 3.6 1.3 5.5 1.5 2 4.1 2z"/></svg>