<svg xmlns="http://www.w3.org/2000/svg"  viewBox="0 0 64 64" width="64px" height="64px"><linearGradient id="KJ7ka9GQp0CHqT_2YsWMsa" x1="32" x2="32" y1="5.75" y2="59.005" gradientUnits="userSpaceOnUse" spreadMethod="reflect"><stop offset="0" stop-color="#1a6dff"/><stop offset="1" stop-color="#c822ff"/></linearGradient><path fill="url(#KJ7ka9GQp0CHqT_2YsWMsa)" d="M32,58C17.663,58,6,46.337,6,32S17.663,6,32,6s26,11.663,26,26S46.337,58,32,58z M32,8 C18.767,8,8,18.767,8,32s10.767,24,24,24s24-10.767,24-24S45.233,8,32,8z"/><linearGradient id="KJ7ka9GQp0CHqT_2YsWMsb" x1="32" x2="32" y1="5.75" y2="59.005" gradientUnits="userSpaceOnUse" spreadMethod="reflect"><stop offset="0" stop-color="#1a6dff"/><stop offset="1" stop-color="#c822ff"/></linearGradient><path fill="url(#KJ7ka9GQp0CHqT_2YsWMsb)" d="M32,52c-11.028,0-20-8.972-20-20s8.972-20,20-20s20,8.972,20,20S43.028,52,32,52z M32,14 c-9.925,0-18,8.075-18,18s8.075,18,18,18s18-8.075,18-18S41.925,14,32,14z"/><linearGradient id="KJ7ka9GQp0CHqT_2YsWMsc" x1="32" x2="32" y1="21.75" y2="42.538" gradientUnits="userSpaceOnUse" spreadMethod="reflect"><stop offset="0" stop-color="#6dc7ff"/><stop offset="1" stop-color="#e6abff"/></linearGradient><path fill="url(#KJ7ka9GQp0CHqT_2YsWMsc)" d="M41,30h-7v-7c0-0.552-0.448-1-1-1h-2c-0.552,0-1,0.448-1,1v7h-7c-0.552,0-1,0.448-1,1v2 c0,0.552,0.448,1,1,1h7v7c0,0.552,0.448,1,1,1h2c0.552,0,1-0.448,1-1v-7h7c0.552,0,1-0.448,1-1v-2C42,30.448,41.552,30,41,30z"/></svg>