<svg width="4304" height="3021" viewBox="0 0 4304 3021" fill="none" xmlns="http://www.w3.org/2000/svg">
<circle cx="877" cy="930" r="776" fill="#ECECEC"/>
<circle cx="2043" cy="783" r="776" fill="#ECECEC"/>
<circle cx="2649" cy="2005" r="776" fill="#ECECEC"/>
<circle cx="1993" cy="1198" r="776" fill="#ECECEC"/>
<circle cx="3205" cy="776" r="776" fill="#ECECEC"/>
<circle cx="3528" cy="1552" r="776" fill="#ECECEC"/>
<circle cx="776" cy="1706" r="776" fill="#ECECEC"/>
<circle cx="1583" cy="2245" r="776" fill="#ECECEC"/>
<rect x="560" y="1477" width="2898" height="514" rx="40" stroke="#A9D7CC" stroke-width="28" stroke-dasharray="56 56"/>
<rect x="650" y="1394" width="2898" height="514" rx="40" stroke="#A9D7CC" stroke-width="28" stroke-dasharray="56 56"/>
<rect x="739" y="1312" width="2898" height="514" rx="40" fill="white" stroke="#A9D7CC" stroke-width="28" stroke-dasharray="48 48"/>
<circle cx="2124" cy="1567" r="187" fill="#D5DBDC"/>
<path d="M2097.51 1666.23V1465.1H2148.36V1666.23H2097.51ZM2022.37 1591.09V1540.24H2223.51V1591.09H2022.37Z" fill="#002D51"/>
<path d="M931.713 1118H898.759L948.972 972.545H988.602L1038.74 1118H1005.79L969.355 1005.78H968.219L931.713 1118ZM929.653 1060.83H1007.49V1084.83H929.653V1060.83ZM1107.81 1118H1056.25V972.545H1108.24C1122.87 972.545 1135.47 975.457 1146.02 981.281C1156.58 987.058 1164.7 995.367 1170.38 1006.21C1176.11 1017.05 1178.98 1030.03 1178.98 1045.13C1178.98 1060.28 1176.11 1073.3 1170.38 1084.19C1164.7 1095.08 1156.54 1103.44 1145.88 1109.26C1135.28 1115.09 1122.59 1118 1107.81 1118ZM1087 1091.65H1106.54C1115.63 1091.65 1123.27 1090.04 1129.48 1086.82C1135.73 1083.55 1140.41 1078.51 1143.54 1071.69C1146.71 1064.83 1148.3 1055.97 1148.3 1045.13C1148.3 1034.38 1146.71 1025.6 1143.54 1018.78C1140.41 1011.96 1135.75 1006.94 1129.55 1003.72C1123.34 1000.5 1115.7 998.895 1106.61 998.895H1087V1091.65ZM1253.32 1118H1201.76V972.545H1253.75C1268.38 972.545 1280.97 975.457 1291.53 981.281C1302.09 987.058 1310.21 995.367 1315.89 1006.21C1321.62 1017.05 1324.49 1030.03 1324.49 1045.13C1324.49 1060.28 1321.62 1073.3 1315.89 1084.19C1310.21 1095.08 1302.04 1103.44 1291.39 1109.26C1280.78 1115.09 1268.09 1118 1253.32 1118ZM1232.51 1091.65H1252.04C1261.13 1091.65 1268.78 1090.04 1274.98 1086.82C1281.23 1083.55 1285.92 1078.51 1289.05 1071.69C1292.22 1064.83 1293.8 1055.97 1293.8 1045.13C1293.8 1034.38 1292.22 1025.6 1289.05 1018.78C1285.92 1011.96 1281.26 1006.94 1275.05 1003.72C1268.85 1000.5 1261.21 998.895 1252.11 998.895H1232.51V1091.65ZM1385.03 972.545H1419.48L1452.65 1035.19H1454.07L1487.24 972.545H1521.68L1468.63 1066.58V1118H1438.09V1066.58L1385.03 972.545ZM1663.35 1045.27C1663.35 1061.13 1660.35 1074.63 1654.33 1085.76C1648.37 1096.88 1640.22 1105.38 1629.9 1111.25C1619.63 1117.08 1608.07 1119.99 1595.24 1119.99C1582.32 1119.99 1570.72 1117.05 1560.44 1111.18C1550.17 1105.31 1542.05 1096.81 1536.08 1085.68C1530.12 1074.56 1527.13 1061.09 1527.13 1045.27C1527.13 1029.41 1530.12 1015.92 1536.08 1004.79C1542.05 993.663 1550.17 985.187 1560.44 979.364C1570.72 973.492 1582.32 970.557 1595.24 970.557C1608.07 970.557 1619.63 973.492 1629.9 979.364C1640.22 985.187 1648.37 993.663 1654.33 1004.79C1660.35 1015.92 1663.35 1029.41 1663.35 1045.27ZM1632.17 1045.27C1632.17 1035 1630.64 1026.33 1627.56 1019.28C1624.53 1012.22 1620.24 1006.87 1614.7 1003.23C1609.16 999.581 1602.68 997.759 1595.24 997.759C1587.81 997.759 1581.32 999.581 1575.78 1003.23C1570.24 1006.87 1565.93 1012.22 1562.86 1019.28C1559.83 1026.33 1558.31 1035 1558.31 1045.27C1558.31 1055.55 1559.83 1064.21 1562.86 1071.27C1565.93 1078.32 1570.24 1083.67 1575.78 1087.32C1581.32 1090.96 1587.81 1092.79 1595.24 1092.79C1602.68 1092.79 1609.16 1090.96 1614.7 1087.32C1620.24 1083.67 1624.53 1078.32 1627.56 1071.27C1630.64 1064.21 1632.17 1055.55 1632.17 1045.27ZM1775.98 972.545H1806.73V1067.01C1806.73 1077.61 1804.2 1086.89 1799.13 1094.85C1794.11 1102.8 1787.08 1109 1778.04 1113.45C1768.99 1117.86 1758.46 1120.06 1746.43 1120.06C1734.36 1120.06 1723.8 1117.86 1714.76 1113.45C1705.71 1109 1698.68 1102.8 1693.66 1094.85C1688.64 1086.89 1686.13 1077.61 1686.13 1067.01V972.545H1716.89V1064.38C1716.89 1069.92 1718.09 1074.84 1720.51 1079.15C1722.97 1083.46 1726.43 1086.84 1730.88 1089.31C1735.33 1091.77 1740.51 1093 1746.43 1093C1752.4 1093 1757.58 1091.77 1761.99 1089.31C1766.44 1086.84 1769.87 1083.46 1772.28 1079.15C1774.75 1074.84 1775.98 1069.92 1775.98 1064.38V972.545ZM1832.03 1118V972.545H1889.42C1900.4 972.545 1909.78 974.51 1917.54 978.44C1925.36 982.323 1931.3 987.839 1935.37 994.989C1939.49 1002.09 1941.55 1010.45 1941.55 1020.06C1941.55 1029.72 1939.47 1038.03 1935.3 1044.99C1931.13 1051.9 1925.1 1057.2 1917.19 1060.9C1909.33 1064.59 1899.81 1066.44 1888.64 1066.44H1850.21V1041.72H1883.67C1889.54 1041.72 1894.41 1040.92 1898.3 1039.31C1902.18 1037.7 1905.07 1035.28 1906.96 1032.06C1908.9 1028.84 1909.87 1024.84 1909.87 1020.06C1909.87 1015.23 1908.9 1011.16 1906.96 1007.84C1905.07 1004.53 1902.16 1002.02 1898.23 1000.32C1894.34 998.563 1889.44 997.688 1883.52 997.688H1862.79V1118H1832.03ZM1910.58 1051.81L1946.73 1118H1912.79L1877.42 1051.81H1910.58ZM2009.57 1118V972.545H2105.88V997.901H2040.32V1032.56H2099.49V1057.91H2040.32V1118H2009.57ZM2157.32 972.545V1118H2126.56V972.545H2157.32ZM2182.62 1118V972.545H2240C2250.99 972.545 2260.36 974.51 2268.13 978.44C2275.94 982.323 2281.88 987.839 2285.96 994.989C2290.08 1002.09 2292.14 1010.45 2292.14 1020.06C2292.14 1029.72 2290.05 1038.03 2285.89 1044.99C2281.72 1051.9 2275.68 1057.2 2267.77 1060.9C2259.92 1064.59 2250.4 1066.44 2239.22 1066.44H2200.8V1041.72H2234.25C2240.12 1041.72 2245 1040.92 2248.88 1039.31C2252.77 1037.7 2255.65 1035.28 2257.55 1032.06C2259.49 1028.84 2260.46 1024.84 2260.46 1020.06C2260.46 1015.23 2259.49 1011.16 2257.55 1007.84C2255.65 1004.53 2252.74 1002.02 2248.81 1000.32C2244.93 998.563 2240.03 997.688 2234.11 997.688H2213.37V1118H2182.62ZM2261.17 1051.81L2297.32 1118H2263.37L2228 1051.81H2261.17ZM2392.77 1014.38C2392.21 1008.65 2389.77 1004.2 2385.46 1001.03C2381.15 997.853 2375.3 996.267 2367.92 996.267C2362.9 996.267 2358.66 996.977 2355.2 998.398C2351.75 999.771 2349.1 1001.69 2347.25 1004.15C2345.45 1006.61 2344.55 1009.41 2344.55 1012.53C2344.46 1015.14 2345 1017.41 2346.18 1019.35C2347.42 1021.29 2349.1 1022.97 2351.23 1024.39C2353.36 1025.77 2355.82 1026.97 2358.61 1028.01C2361.41 1029.01 2364.39 1029.86 2367.56 1030.57L2380.63 1033.7C2386.97 1035.12 2392.8 1037.01 2398.1 1039.38C2403.4 1041.75 2408 1044.66 2411.88 1048.11C2415.76 1051.57 2418.77 1055.64 2420.9 1060.33C2423.08 1065.02 2424.19 1070.39 2424.24 1076.45C2424.19 1085.35 2421.92 1093.07 2417.42 1099.61C2412.97 1106.09 2406.53 1111.13 2398.1 1114.73C2389.72 1118.28 2379.61 1120.06 2367.77 1120.06C2356.03 1120.06 2345.81 1118.26 2337.09 1114.66C2328.43 1111.06 2321.66 1105.74 2316.78 1098.68C2311.95 1091.58 2309.42 1082.8 2309.18 1072.33H2338.94C2339.27 1077.21 2340.67 1081.28 2343.13 1084.55C2345.64 1087.77 2348.98 1090.21 2353.14 1091.86C2357.36 1093.47 2362.12 1094.28 2367.42 1094.28C2372.63 1094.28 2377.15 1093.52 2380.99 1092.01C2384.87 1090.49 2387.87 1088.38 2390 1085.68C2392.14 1082.99 2393.2 1079.88 2393.2 1076.38C2393.2 1073.11 2392.23 1070.37 2390.29 1068.14C2388.4 1065.92 2385.6 1064.02 2381.91 1062.46C2378.26 1060.9 2373.79 1059.48 2368.49 1058.2L2352.65 1054.22C2340.38 1051.24 2330.7 1046.57 2323.6 1040.23C2316.5 1033.89 2312.97 1025.34 2313.02 1014.59C2312.97 1005.78 2315.31 998.09 2320.05 991.509C2324.83 984.927 2331.39 979.79 2339.72 976.097C2348.05 972.403 2357.52 970.557 2368.13 970.557C2378.93 970.557 2388.35 972.403 2396.4 976.097C2404.49 979.79 2410.79 984.927 2415.29 991.509C2419.79 998.09 2422.11 1005.71 2422.25 1014.38H2392.77ZM2439.38 997.901V972.545H2558.84V997.901H2514.31V1118H2483.91V997.901H2439.38ZM2619.27 997.901V972.545H2738.73V997.901H2694.2V1118H2663.8V997.901H2619.27ZM2885.42 1045.27C2885.42 1061.13 2882.42 1074.63 2876.4 1085.76C2870.44 1096.88 2862.29 1105.38 2851.97 1111.25C2841.7 1117.08 2830.14 1119.99 2817.31 1119.99C2804.39 1119.99 2792.79 1117.05 2782.51 1111.18C2772.24 1105.31 2764.12 1096.81 2758.15 1085.68C2752.19 1074.56 2749.2 1061.09 2749.2 1045.27C2749.2 1029.41 2752.19 1015.92 2758.15 1004.79C2764.12 993.663 2772.24 985.187 2782.51 979.364C2792.79 973.492 2804.39 970.557 2817.31 970.557C2830.14 970.557 2841.7 973.492 2851.97 979.364C2862.29 985.187 2870.44 993.663 2876.4 1004.79C2882.42 1015.92 2885.42 1029.41 2885.42 1045.27ZM2854.25 1045.27C2854.25 1035 2852.71 1026.33 2849.63 1019.28C2846.6 1012.22 2842.31 1006.87 2836.77 1003.23C2831.23 999.581 2824.75 997.759 2817.31 997.759C2809.88 997.759 2803.39 999.581 2797.85 1003.23C2792.31 1006.87 2788 1012.22 2784.93 1019.28C2781.9 1026.33 2780.38 1035 2780.38 1045.27C2780.38 1055.55 2781.9 1064.21 2784.93 1071.27C2788 1078.32 2792.31 1083.67 2797.85 1087.32C2803.39 1090.96 2809.88 1092.79 2817.31 1092.79C2824.75 1092.79 2831.23 1090.96 2836.77 1087.32C2842.31 1083.67 2846.6 1078.32 2849.63 1071.27C2852.71 1064.21 2854.25 1055.55 2854.25 1045.27ZM2959.77 1118H2908.2V972.545H2960.19C2974.82 972.545 2987.42 975.457 2997.98 981.281C3008.54 987.058 3016.66 995.367 3022.34 1006.21C3028.07 1017.05 3030.93 1030.03 3030.93 1045.13C3030.93 1060.28 3028.07 1073.3 3022.34 1084.19C3016.66 1095.08 3008.49 1103.44 2997.84 1109.26C2987.23 1115.09 2974.54 1118 2959.77 1118ZM2938.96 1091.65H2958.49C2967.58 1091.65 2975.23 1090.04 2981.43 1086.82C2987.68 1083.55 2992.37 1078.51 2995.49 1071.69C2998.66 1064.83 3000.25 1055.97 3000.25 1045.13C3000.25 1034.38 2998.66 1025.6 2995.49 1018.78C2992.37 1011.96 2987.7 1006.94 2981.5 1003.72C2975.3 1000.5 2967.65 998.895 2958.56 998.895H2938.96V1091.65ZM3187.38 1045.27C3187.38 1061.13 3184.37 1074.63 3178.36 1085.76C3172.39 1096.88 3164.25 1105.38 3153.93 1111.25C3143.65 1117.08 3132.1 1119.99 3119.27 1119.99C3106.34 1119.99 3094.74 1117.05 3084.47 1111.18C3074.19 1105.31 3066.07 1096.81 3060.1 1085.68C3054.14 1074.56 3051.16 1061.09 3051.16 1045.27C3051.16 1029.41 3054.14 1015.92 3060.1 1004.79C3066.07 993.663 3074.19 985.187 3084.47 979.364C3094.74 973.492 3106.34 970.557 3119.27 970.557C3132.1 970.557 3143.65 973.492 3153.93 979.364C3164.25 985.187 3172.39 993.663 3178.36 1004.79C3184.37 1015.92 3187.38 1029.41 3187.38 1045.27ZM3156.2 1045.27C3156.2 1035 3154.66 1026.33 3151.58 1019.28C3148.55 1012.22 3144.27 1006.87 3138.73 1003.23C3133.19 999.581 3126.7 997.759 3119.27 997.759C3111.83 997.759 3105.35 999.581 3099.81 1003.23C3094.27 1006.87 3089.96 1012.22 3086.88 1019.28C3083.85 1026.33 3082.33 1035 3082.33 1045.27C3082.33 1055.55 3083.85 1064.21 3086.88 1071.27C3089.96 1078.32 3094.27 1083.67 3099.81 1087.32C3105.35 1090.96 3111.83 1092.79 3119.27 1092.79C3126.7 1092.79 3133.19 1090.96 3138.73 1087.32C3144.27 1083.67 3148.55 1078.32 3151.58 1071.27C3154.66 1064.21 3156.2 1055.55 3156.2 1045.27Z" fill="#00BBBC"/>
<path d="M896.43 804.182H916.754L936.322 841.141H937.161L956.729 804.182H977.053L945.751 859.662V890H927.732V859.662L896.43 804.182ZM1002.23 891.257C995.717 891.257 990.088 889.874 985.339 887.109C980.618 884.315 976.972 880.432 974.402 875.46C971.832 870.459 970.547 864.662 970.547 858.07C970.547 851.421 971.832 845.61 974.402 840.638C976.972 835.637 980.618 831.754 985.339 828.989C990.088 826.195 995.717 824.798 1002.23 824.798C1008.74 824.798 1014.35 826.195 1019.07 828.989C1023.82 831.754 1027.48 835.637 1030.05 840.638C1032.62 845.61 1033.91 851.421 1033.91 858.07C1033.91 864.662 1032.62 870.459 1030.05 875.46C1027.48 880.432 1023.82 884.315 1019.07 887.109C1014.35 889.874 1008.74 891.257 1002.23 891.257ZM1002.31 877.429C1005.27 877.429 1007.74 876.591 1009.73 874.915C1011.71 873.211 1013.2 870.892 1014.21 867.959C1015.24 865.026 1015.76 861.687 1015.76 857.944C1015.76 854.201 1015.24 850.862 1014.21 847.929C1013.2 844.996 1011.71 842.677 1009.73 840.973C1007.74 839.269 1005.27 838.417 1002.31 838.417C999.321 838.417 996.807 839.269 994.767 840.973C992.756 842.677 991.233 844.996 990.2 847.929C989.194 850.862 988.691 854.201 988.691 857.944C988.691 861.687 989.194 865.026 990.2 867.959C991.233 870.892 992.756 873.211 994.767 874.915C996.807 876.591 999.321 877.429 1002.31 877.429ZM1086.79 862.595V825.636H1104.64V890H1087.5V878.309H1086.83C1085.38 882.08 1082.96 885.111 1079.58 887.402C1076.23 889.693 1072.13 890.838 1067.3 890.838C1063 890.838 1059.21 889.86 1055.95 887.905C1052.68 885.949 1050.12 883.17 1048.28 879.566C1046.46 875.962 1045.54 871.646 1045.51 866.618V825.636H1063.36V863.433C1063.39 867.232 1064.41 870.236 1066.42 872.442C1068.43 874.649 1071.13 875.753 1074.51 875.753C1076.66 875.753 1078.67 875.264 1080.54 874.286C1082.42 873.281 1083.92 871.8 1085.07 869.844C1086.24 867.889 1086.82 865.473 1086.79 862.595ZM1175.22 915.477C1169.44 915.477 1164.48 914.681 1160.35 913.089C1156.24 911.524 1152.97 909.387 1150.54 906.678C1148.11 903.968 1146.53 900.923 1145.81 897.543L1162.32 895.322C1162.82 896.607 1163.62 897.808 1164.71 898.925C1165.8 900.043 1167.23 900.937 1169.02 901.607C1170.84 902.306 1173.05 902.655 1175.64 902.655C1179.53 902.655 1182.72 901.705 1185.24 899.805C1187.78 897.934 1189.05 894.791 1189.05 890.377V878.602H1188.3C1187.52 880.39 1186.34 882.08 1184.78 883.673C1183.21 885.265 1181.2 886.564 1178.74 887.57C1176.29 888.575 1173.35 889.078 1169.94 889.078C1165.11 889.078 1160.71 887.961 1156.74 885.726C1152.81 883.463 1149.66 880.013 1147.32 875.376C1145 870.71 1143.84 864.816 1143.84 857.692C1143.84 850.401 1145.03 844.311 1147.4 839.423C1149.77 834.534 1152.93 830.874 1156.87 828.444C1160.84 826.013 1165.18 824.798 1169.9 824.798C1173.51 824.798 1176.52 825.413 1178.95 826.642C1181.38 827.843 1183.34 829.352 1184.82 831.168C1186.33 832.955 1187.49 834.715 1188.3 836.447H1188.97V825.636H1206.69V890.629C1206.69 896.104 1205.35 900.685 1202.67 904.373C1199.99 908.06 1196.27 910.826 1191.52 912.67C1186.8 914.541 1181.37 915.477 1175.22 915.477ZM1175.6 875.669C1178.48 875.669 1180.91 874.957 1182.89 873.532C1184.9 872.079 1186.44 870.012 1187.5 867.33C1188.59 864.621 1189.14 861.38 1189.14 857.609C1189.14 853.837 1188.61 850.569 1187.54 847.803C1186.48 845.01 1184.95 842.845 1182.93 841.308C1180.92 839.772 1178.48 839.004 1175.6 839.004C1172.67 839.004 1170.2 839.8 1168.18 841.392C1166.17 842.956 1164.65 845.135 1163.62 847.929C1162.58 850.723 1162.07 853.949 1162.07 857.609C1162.07 861.324 1162.58 864.537 1163.62 867.246C1164.68 869.928 1166.2 872.009 1168.18 873.49C1170.2 874.943 1172.67 875.669 1175.6 875.669ZM1249.98 891.257C1243.47 891.257 1237.84 889.874 1233.09 887.109C1228.37 884.315 1224.73 880.432 1222.16 875.46C1219.59 870.459 1218.3 864.662 1218.3 858.07C1218.3 851.421 1219.59 845.61 1222.16 840.638C1224.73 835.637 1228.37 831.754 1233.09 828.989C1237.84 826.195 1243.47 824.798 1249.98 824.798C1256.49 824.798 1262.1 826.195 1266.83 828.989C1271.57 831.754 1275.23 835.637 1277.8 840.638C1280.37 845.61 1281.66 851.421 1281.66 858.07C1281.66 864.662 1280.37 870.459 1277.8 875.46C1275.23 880.432 1271.57 884.315 1266.83 887.109C1262.1 889.874 1256.49 891.257 1249.98 891.257ZM1250.06 877.429C1253.02 877.429 1255.5 876.591 1257.48 874.915C1259.46 873.211 1260.96 870.892 1261.96 867.959C1263 865.026 1263.51 861.687 1263.51 857.944C1263.51 854.201 1263 850.862 1261.96 847.929C1260.96 844.996 1259.46 842.677 1257.48 840.973C1255.5 839.269 1253.02 838.417 1250.06 838.417C1247.07 838.417 1244.56 839.269 1242.52 840.973C1240.51 842.677 1238.99 844.996 1237.95 847.929C1236.95 850.862 1236.45 854.201 1236.45 857.944C1236.45 861.687 1236.95 865.026 1237.95 867.959C1238.99 870.892 1240.51 873.211 1242.52 874.915C1244.56 876.591 1247.07 877.429 1250.06 877.429ZM1327.5 825.636V839.045H1288.74V825.636H1327.5ZM1297.54 810.216H1315.39V870.222C1315.39 871.87 1315.64 873.155 1316.15 874.077C1316.65 874.971 1317.35 875.599 1318.24 875.962C1319.16 876.326 1320.22 876.507 1321.43 876.507C1322.26 876.507 1323.1 876.437 1323.94 876.298C1324.78 876.13 1325.42 876.004 1325.87 875.92L1328.67 889.204C1327.78 889.483 1326.52 889.804 1324.9 890.168C1323.28 890.559 1321.31 890.796 1318.99 890.88C1314.69 891.048 1310.92 890.475 1307.68 889.162C1304.47 887.849 1301.97 885.81 1300.18 883.044C1298.39 880.278 1297.51 876.786 1297.54 872.568V810.216ZM1384.29 852.79V890H1366.44V825.636H1383.45V836.992H1384.21C1385.63 833.249 1388.02 830.288 1391.37 828.109C1394.72 825.902 1398.79 824.798 1403.57 824.798C1408.04 824.798 1411.93 825.776 1415.26 827.732C1418.58 829.687 1421.17 832.481 1423.01 836.112C1424.85 839.716 1425.78 844.018 1425.78 849.018V890H1407.92V852.203C1407.95 848.264 1406.95 845.191 1404.91 842.984C1402.87 840.75 1400.06 839.632 1396.48 839.632C1394.08 839.632 1391.96 840.149 1390.12 841.183C1388.3 842.216 1386.87 843.725 1385.84 845.708C1384.84 847.664 1384.32 850.024 1384.29 852.79ZM1468.93 891.257C1462.42 891.257 1456.79 889.874 1452.04 887.109C1447.32 884.315 1443.67 880.432 1441.1 875.46C1438.53 870.459 1437.25 864.662 1437.25 858.07C1437.25 851.421 1438.53 845.61 1441.1 840.638C1443.67 835.637 1447.32 831.754 1452.04 828.989C1456.79 826.195 1462.42 824.798 1468.93 824.798C1475.43 824.798 1481.05 826.195 1485.77 828.989C1490.52 831.754 1494.18 835.637 1496.75 840.638C1499.32 845.61 1500.6 851.421 1500.6 858.07C1500.6 864.662 1499.32 870.459 1496.75 875.46C1494.18 880.432 1490.52 884.315 1485.77 887.109C1481.05 889.874 1475.43 891.257 1468.93 891.257ZM1469.01 877.429C1471.97 877.429 1474.44 876.591 1476.43 874.915C1478.41 873.211 1479.9 870.892 1480.91 867.959C1481.94 865.026 1482.46 861.687 1482.46 857.944C1482.46 854.201 1481.94 850.862 1480.91 847.929C1479.9 844.996 1478.41 842.677 1476.43 840.973C1474.44 839.269 1471.97 838.417 1469.01 838.417C1466.02 838.417 1463.51 839.269 1461.47 840.973C1459.46 842.677 1457.93 844.996 1456.9 847.929C1455.89 850.862 1455.39 854.201 1455.39 857.944C1455.39 861.687 1455.89 865.026 1456.9 867.959C1457.93 870.892 1459.46 873.211 1461.47 874.915C1463.51 876.591 1466.02 877.429 1469.01 877.429ZM1546.45 825.636V839.045H1507.69V825.636H1546.45ZM1516.49 810.216H1534.34V870.222C1534.34 871.87 1534.59 873.155 1535.09 874.077C1535.59 874.971 1536.29 875.599 1537.19 875.962C1538.11 876.326 1539.17 876.507 1540.37 876.507C1541.21 876.507 1542.05 876.437 1542.88 876.298C1543.72 876.13 1544.37 876.004 1544.81 875.92L1547.62 889.204C1546.73 889.483 1545.47 889.804 1543.85 890.168C1542.23 890.559 1540.26 890.796 1537.94 890.88C1533.64 891.048 1529.87 890.475 1526.63 889.162C1523.41 887.849 1520.91 885.81 1519.13 883.044C1517.34 880.278 1516.46 876.786 1516.49 872.568V810.216ZM1577.31 852.79V890H1559.46V804.182H1576.81V836.992H1577.56C1579.01 833.193 1581.36 830.218 1584.6 828.067C1587.84 825.888 1591.9 824.798 1596.79 824.798C1601.26 824.798 1605.16 825.776 1608.48 827.732C1611.84 829.659 1614.43 832.439 1616.28 836.07C1618.15 839.674 1619.07 843.99 1619.04 849.018V890H1601.19V852.203C1601.22 848.236 1600.22 845.149 1598.18 842.942C1596.16 840.736 1593.34 839.632 1589.71 839.632C1587.28 839.632 1585.13 840.149 1583.26 841.183C1581.41 842.216 1579.96 843.725 1578.9 845.708C1577.87 847.664 1577.34 850.024 1577.31 852.79ZM1633.09 890V825.636H1650.94V890H1633.09ZM1642.06 817.339C1639.41 817.339 1637.13 816.46 1635.23 814.7C1633.36 812.912 1632.42 810.775 1632.42 808.288C1632.42 805.83 1633.36 803.721 1635.23 801.961C1637.13 800.173 1639.41 799.279 1642.06 799.279C1644.71 799.279 1646.98 800.173 1648.85 801.961C1650.75 803.721 1651.7 805.83 1651.7 808.288C1651.7 810.775 1650.75 812.912 1648.85 814.7C1646.98 816.46 1644.71 817.339 1642.06 817.339ZM1683.09 852.79V890H1665.24V825.636H1682.26V836.992H1683.01C1684.43 833.249 1686.82 830.288 1690.18 828.109C1693.53 825.902 1697.59 824.798 1702.37 824.798C1706.84 824.798 1710.74 825.776 1714.06 827.732C1717.38 829.687 1719.97 832.481 1721.81 836.112C1723.66 839.716 1724.58 844.018 1724.58 849.018V890H1706.73V852.203C1706.76 848.264 1705.75 845.191 1703.71 842.984C1701.67 840.75 1698.86 839.632 1695.29 839.632C1692.89 839.632 1690.76 840.149 1688.92 841.183C1687.1 842.216 1685.68 843.725 1684.64 845.708C1683.64 847.664 1683.12 850.024 1683.09 852.79ZM1767.64 915.477C1761.86 915.477 1756.9 914.681 1752.77 913.089C1748.66 911.524 1745.39 909.387 1742.96 906.678C1740.53 903.968 1738.95 900.923 1738.23 897.543L1754.74 895.322C1755.24 896.607 1756.04 897.808 1757.13 898.925C1758.22 900.043 1759.65 900.937 1761.44 901.607C1763.26 902.306 1765.47 902.655 1768.06 902.655C1771.95 902.655 1775.14 901.705 1777.66 899.805C1780.2 897.934 1781.47 894.791 1781.47 890.377V878.602H1780.72C1779.94 880.39 1778.76 882.08 1777.2 883.673C1775.63 885.265 1773.62 886.564 1771.16 887.57C1768.71 888.575 1765.77 889.078 1762.36 889.078C1757.53 889.078 1753.13 887.961 1749.16 885.726C1745.23 883.463 1742.08 880.013 1739.74 875.376C1737.42 870.71 1736.26 864.816 1736.26 857.692C1736.26 850.401 1737.45 844.311 1739.82 839.423C1742.19 834.534 1745.35 830.874 1749.29 828.444C1753.26 826.013 1757.6 824.798 1762.32 824.798C1765.93 824.798 1768.94 825.413 1771.37 826.642C1773.8 827.843 1775.76 829.352 1777.24 831.168C1778.75 832.955 1779.91 834.715 1780.72 836.447H1781.39V825.636H1799.11V890.629C1799.11 896.104 1797.77 900.685 1795.09 904.373C1792.41 908.06 1788.69 910.826 1783.94 912.67C1779.22 914.541 1773.79 915.477 1767.64 915.477ZM1768.02 875.669C1770.9 875.669 1773.33 874.957 1775.31 873.532C1777.32 872.079 1778.86 870.012 1779.92 867.33C1781.01 864.621 1781.56 861.38 1781.56 857.609C1781.56 853.837 1781.03 850.569 1779.96 847.803C1778.9 845.01 1777.37 842.845 1775.35 841.308C1773.34 839.772 1770.9 839.004 1768.02 839.004C1765.09 839.004 1762.62 839.8 1760.6 841.392C1758.59 842.956 1757.07 845.135 1756.04 847.929C1755 850.723 1754.49 853.949 1754.49 857.609C1754.49 861.324 1755 864.537 1756.04 867.246C1757.1 869.928 1758.62 872.009 1760.6 873.49C1762.62 874.943 1765.09 875.669 1768.02 875.669ZM1869.71 891.257C1863.2 891.257 1857.57 889.874 1852.82 887.109C1848.1 884.315 1844.46 880.432 1841.89 875.46C1839.32 870.459 1838.03 864.662 1838.03 858.07C1838.03 851.421 1839.32 845.61 1841.89 840.638C1844.46 835.637 1848.1 831.754 1852.82 828.989C1857.57 826.195 1863.2 824.798 1869.71 824.798C1876.22 824.798 1881.83 826.195 1886.56 828.989C1891.3 831.754 1894.96 835.637 1897.53 840.638C1900.1 845.61 1901.39 851.421 1901.39 858.07C1901.39 864.662 1900.1 870.459 1897.53 875.46C1894.96 880.432 1891.3 884.315 1886.56 887.109C1881.83 889.874 1876.22 891.257 1869.71 891.257ZM1869.79 877.429C1872.76 877.429 1875.23 876.591 1877.21 874.915C1879.19 873.211 1880.69 870.892 1881.69 867.959C1882.73 865.026 1883.25 861.687 1883.25 857.944C1883.25 854.201 1882.73 850.862 1881.69 847.929C1880.69 844.996 1879.19 842.677 1877.21 840.973C1875.23 839.269 1872.76 838.417 1869.79 838.417C1866.81 838.417 1864.29 839.269 1862.25 840.973C1860.24 842.677 1858.72 844.996 1857.68 847.929C1856.68 850.862 1856.18 854.201 1856.18 857.944C1856.18 861.687 1856.68 865.026 1857.68 867.959C1858.72 870.892 1860.24 873.211 1862.25 874.915C1864.29 876.591 1866.81 877.429 1869.79 877.429ZM1930.85 852.79V890H1913V825.636H1930.01V836.992H1930.76C1932.19 833.249 1934.58 830.288 1937.93 828.109C1941.28 825.902 1945.35 824.798 1950.12 824.798C1954.59 824.798 1958.49 825.776 1961.81 827.732C1965.14 829.687 1967.72 832.481 1969.57 836.112C1971.41 839.716 1972.33 844.018 1972.33 849.018V890H1954.48V852.203C1954.51 848.264 1953.5 845.191 1951.46 842.984C1949.42 840.75 1946.62 839.632 1943.04 839.632C1940.64 839.632 1938.52 840.149 1936.67 841.183C1934.86 842.216 1933.43 843.725 1932.4 845.708C1931.39 847.664 1930.88 850.024 1930.85 852.79ZM2024.73 914.136C2022.47 914.136 2020.35 913.955 2018.36 913.592C2016.41 913.256 2014.79 912.823 2013.5 912.293L2017.52 898.967C2019.62 899.61 2021.51 899.959 2023.18 900.015C2024.89 900.071 2026.35 899.68 2027.58 898.842C2028.84 898.004 2029.86 896.579 2030.64 894.567L2031.69 891.844L2008.6 825.636H2027.37L2040.7 872.903H2041.37L2054.82 825.636H2073.72L2048.7 896.956C2047.5 900.42 2045.87 903.437 2043.8 906.007C2041.76 908.605 2039.17 910.603 2036.05 911.999C2032.92 913.424 2029.15 914.136 2024.73 914.136ZM2109.86 891.257C2103.35 891.257 2097.72 889.874 2092.97 887.109C2088.25 884.315 2084.61 880.432 2082.03 875.46C2079.46 870.459 2078.18 864.662 2078.18 858.07C2078.18 851.421 2079.46 845.61 2082.03 840.638C2084.61 835.637 2088.25 831.754 2092.97 828.989C2097.72 826.195 2103.35 824.798 2109.86 824.798C2116.37 824.798 2121.98 826.195 2126.7 828.989C2131.45 831.754 2135.11 835.637 2137.68 840.638C2140.25 845.61 2141.54 851.421 2141.54 858.07C2141.54 864.662 2140.25 870.459 2137.68 875.46C2135.11 880.432 2131.45 884.315 2126.7 887.109C2121.98 889.874 2116.37 891.257 2109.86 891.257ZM2109.94 877.429C2112.9 877.429 2115.38 876.591 2117.36 874.915C2119.34 873.211 2120.84 870.892 2121.84 867.959C2122.88 865.026 2123.39 861.687 2123.39 857.944C2123.39 854.201 2122.88 850.862 2121.84 847.929C2120.84 844.996 2119.34 842.677 2117.36 840.973C2115.38 839.269 2112.9 838.417 2109.94 838.417C2106.95 838.417 2104.44 839.269 2102.4 840.973C2100.39 842.677 2098.87 844.996 2097.83 847.929C2096.83 850.862 2096.32 854.201 2096.32 857.944C2096.32 861.687 2096.83 865.026 2097.83 867.959C2098.87 870.892 2100.39 873.211 2102.4 874.915C2104.44 876.591 2106.95 877.429 2109.94 877.429ZM2194.42 862.595V825.636H2212.27V890H2195.13V878.309H2194.46C2193.01 882.08 2190.59 885.111 2187.21 887.402C2183.86 889.693 2179.77 890.838 2174.93 890.838C2170.63 890.838 2166.85 889.86 2163.58 887.905C2160.31 885.949 2157.75 883.17 2155.91 879.566C2154.09 875.962 2153.17 871.646 2153.15 866.618V825.636H2171V863.433C2171.02 867.232 2172.04 870.236 2174.05 872.442C2176.07 874.649 2178.76 875.753 2182.14 875.753C2184.29 875.753 2186.3 875.264 2188.18 874.286C2190.05 873.281 2191.56 871.8 2192.7 869.844C2193.88 867.889 2194.45 865.473 2194.42 862.595ZM2226.55 890V825.636H2243.86V836.866H2244.53C2245.7 832.872 2247.67 829.855 2250.43 827.815C2253.2 825.748 2256.38 824.714 2259.99 824.714C2260.88 824.714 2261.85 824.77 2262.88 824.882C2263.91 824.994 2264.82 825.147 2265.6 825.343V841.183C2264.77 840.931 2263.61 840.708 2262.13 840.512C2260.64 840.317 2259.29 840.219 2258.06 840.219C2255.43 840.219 2253.09 840.791 2251.02 841.937C2248.98 843.054 2247.36 844.619 2246.16 846.63C2244.99 848.641 2244.4 850.96 2244.4 853.586V890H2226.55ZM2319.99 804.182V890H2302.14V804.182H2319.99ZM2334.29 890V825.636H2352.14V890H2334.29ZM2343.26 817.339C2340.61 817.339 2338.33 816.46 2336.43 814.7C2334.56 812.912 2333.62 810.775 2333.62 808.288C2333.62 805.83 2334.56 803.721 2336.43 801.961C2338.33 800.173 2340.61 799.279 2343.26 799.279C2345.91 799.279 2348.18 800.173 2350.05 801.961C2351.95 803.721 2352.9 805.83 2352.9 808.288C2352.9 810.775 2351.95 812.912 2350.05 814.7C2348.18 816.46 2345.91 817.339 2343.26 817.339ZM2420 843.99L2403.65 844.996C2403.37 843.599 2402.77 842.342 2401.85 841.224C2400.93 840.079 2399.72 839.171 2398.21 838.501C2396.73 837.802 2394.95 837.453 2392.88 837.453C2390.12 837.453 2387.79 838.04 2385.89 839.213C2383.99 840.358 2383.04 841.895 2383.04 843.822C2383.04 845.359 2383.65 846.658 2384.88 847.719C2386.11 848.781 2388.22 849.633 2391.21 850.276L2402.86 852.622C2409.12 853.907 2413.78 855.974 2416.85 858.824C2419.93 861.673 2421.46 865.417 2421.46 870.054C2421.46 874.272 2420.22 877.974 2417.73 881.158C2415.28 884.343 2411.9 886.829 2407.59 888.617C2403.32 890.377 2398.39 891.257 2392.8 891.257C2384.28 891.257 2377.49 889.483 2372.44 885.935C2367.41 882.36 2364.46 877.499 2363.59 871.353L2381.15 870.431C2381.68 873.029 2382.97 875.013 2385.01 876.381C2387.05 877.722 2389.66 878.393 2392.84 878.393C2395.97 878.393 2398.49 877.792 2400.39 876.591C2402.31 875.362 2403.29 873.783 2403.32 871.856C2403.29 870.236 2402.61 868.909 2401.27 867.875C2399.92 866.813 2397.86 866.003 2395.06 865.445L2383.92 863.224C2377.63 861.967 2372.95 859.788 2369.88 856.687C2366.83 853.586 2365.31 849.633 2365.31 844.828C2365.31 840.694 2366.43 837.132 2368.66 834.143C2370.93 831.154 2374.1 828.849 2378.18 827.229C2382.28 825.608 2387.09 824.798 2392.59 824.798C2400.72 824.798 2407.12 826.516 2411.78 829.952C2416.48 833.388 2419.21 838.068 2420 843.99ZM2466.94 825.636V839.045H2428.18V825.636H2466.94ZM2436.98 810.216H2454.83V870.222C2454.83 871.87 2455.08 873.155 2455.58 874.077C2456.09 874.971 2456.78 875.599 2457.68 875.962C2458.6 876.326 2459.66 876.507 2460.86 876.507C2461.7 876.507 2462.54 876.437 2463.38 876.298C2464.22 876.13 2464.86 876.004 2465.3 875.92L2468.11 889.204C2467.22 889.483 2465.96 889.804 2464.34 890.168C2462.72 890.559 2460.75 890.796 2458.43 890.88C2454.13 891.048 2450.36 890.475 2447.12 889.162C2443.91 887.849 2441.41 885.81 2439.62 883.044C2437.83 880.278 2436.95 876.786 2436.98 872.568V810.216Z" fill="#00BBBC"/>
</svg>
