<svg height="512pt" viewBox="-31 0 512 512" width="512pt" xmlns="http://www.w3.org/2000/svg"><path d="m435 121h-20.726562l-25.855469-51.710938c-2.550781-5.082031-7.734375-8.289062-13.417969-8.289062h-75v-46c0-8.289062-6.710938-15-15-15h-120c-8.289062 0-15 6.710938-15 15v46h-75c-5.683594 0-10.867188 3.207031-13.417969 8.289062l-25.855469 51.710938h-20.726562c-8.289062 0-15 6.710938-15 15s6.710938 15 15 15h420c8.289062 0 15-6.710938 15-15s-6.710938-15-15-15zm-255-91h90v31h-90zm0 0"/><path d="m75.058594 498.246094c.644531 7.777344 7.132812 13.753906 14.941406 13.753906h270c7.808594 0 14.296875-5.976562 14.941406-13.753906l26.355469-317.246094h-352.59375zm209.941406-242.246094c0-8.289062 6.710938-15 15-15s15 6.710938 15 15v181c0 8.289062-6.710938 15-15 15s-15-6.710938-15-15zm-75 0c0-8.289062 6.710938-15 15-15s15 6.710938 15 15v181c0 8.289062-6.710938 15-15 15s-15-6.710938-15-15zm-75 0c0-8.289062 6.710938-15 15-15s15 6.710938 15 15v181c0 8.289062-6.710938 15-15 15s-15-6.710938-15-15zm0 0"/></svg>