<?xml version="1.0" encoding="utf-8"?>
<!-- Svg Vector Icons : http://www.onlinewebfonts.com/icon -->
<!DOCTYPE svg PUBLIC "-//W3C//DTD SVG 1.1//EN" "http://www.w3.org/Graphics/SVG/1.1/DTD/svg11.dtd">
<svg version="1.1" xmlns="http://www.w3.org/2000/svg" xmlns:xlink="http://www.w3.org/1999/xlink" x="0px" y="0px" viewBox="0 0 1000 1000" enable-background="new 0 0 1000 1000" xml:space="preserve">
<metadata> Svg Vector Icons : http://www.onlinewebfonts.com/icon </metadata>
<g><path d="M905.5,158.7h-65.3H700.5v-42.8C700.5,57.3,653.2,10,594.6,10H400.9C342.3,10,295,57.3,295,115.9v42.8H159.8H94.5c-13.5,0-22.5,9-22.5,22.5c0,13.5,9,22.5,22.5,22.5h69.8l65.3,673.6c0,63.1,49.6,112.6,112.6,112.6h315.4c63.1,0,112.6-49.6,112.6-110.4l65.3-675.9h69.8c13.5,0,22.5-9,22.5-22.5C928,167.7,916.8,158.7,905.5,158.7z M340,115.9c0-33.8,27-60.8,60.8-60.8h193.7c33.8,0,60.8,27,60.8,60.8v42.8H340V115.9z M725.3,877.4c0,38.3-29.3,67.6-67.6,67.6H342.3c-38.3,0-67.6-29.3-67.6-69.8l-65.3-671.4h581.2L725.3,877.4z"/><path d="M387.4,832.3c13.5,0,22.5-9,22.5-22.5l-22.5-473.1c0-13.5-9-22.5-22.5-22.5c-13.5,0-22.5,9-22.5,22.5l22.5,473.1C364.8,821,373.8,832.3,387.4,832.3z"/><path d="M500,832.3c13.5,0,22.5-9,22.5-22.5V336.7c0-13.5-9-22.5-22.5-22.5c-13.5,0-22.5,9-22.5,22.5v473.1C477.5,821,486.5,832.3,500,832.3z"/><path d="M612.6,832.3c13.5,0,22.5-9,22.5-22.5l22.5-473.1c0-13.5-9-22.5-22.5-22.5c-13.5,0-22.5,9-22.5,22.5l-22.5,473.1C590.1,821,599.1,832.3,612.6,832.3z"/></g>
</svg>